<?xml version="1.0" encoding="utf-8"?>
<!-- Generator: Adobe Illustrator 19.1.0, SVG Export Plug-In . SVG Version: 6.00 Build 0)  -->
<svg version="1.1" id="Layer_1" xmlns="http://www.w3.org/2000/svg" xmlns:xlink="http://www.w3.org/1999/xlink" x="0px" y="0px"
	 viewBox="-428 494.8 141.9 11.7" style="enable-background:new -428 494.8 141.9 11.7;" xml:space="preserve">
<style type="text/css">
	.st0{fill:#2A2A2A;}
</style>
<g>
	<path class="st0" d="M-424.5,496v7.7c0,0.5-0.1,0.9-0.2,1.2s-0.3,0.6-0.6,0.9c-0.3,0.3-0.5,0.5-0.8,0.6c-0.3,0.1-0.7,0.2-1.1,0.2
		c-0.4,0-0.6,0-0.8-0.1v-1.2h0.9l0.4,0.8c0.2,0,0.4-0.1,0.5-0.2c0.1-0.1,0.2-0.2,0.3-0.4c0.1-0.2,0.1-0.3,0.2-0.5c0-0.2,0-0.4,0-0.6
		V496l-1.1-0.4v-0.3h3.3v0.3L-424.5,496z"/>
	<path class="st0" d="M-417.1,500.5c0,0.4-0.1,0.9-0.2,1.2c-0.1,0.4-0.3,0.7-0.6,1s-0.6,0.5-0.9,0.7c-0.4,0.2-0.8,0.3-1.2,0.3
		c-0.4,0-0.8-0.1-1.2-0.2c-0.3-0.1-0.6-0.4-0.9-0.6c-0.3-0.3-0.4-0.6-0.6-1c-0.1-0.4-0.2-0.8-0.2-1.2c0-0.5,0.1-0.9,0.2-1.3
		c0.1-0.4,0.3-0.7,0.6-1c0.3-0.3,0.6-0.5,0.9-0.7s0.8-0.2,1.3-0.2c0.4,0,0.8,0.1,1.2,0.2c0.4,0.2,0.6,0.4,0.9,0.6
		c0.2,0.3,0.4,0.6,0.6,1C-417.1,499.7-417.1,500.1-417.1,500.5z M-418.3,500.8c0-0.3,0-0.6-0.1-0.9c0-0.3-0.1-0.6-0.3-0.9
		c-0.1-0.3-0.3-0.5-0.5-0.7c-0.2-0.2-0.5-0.3-0.9-0.3c-0.5,0-0.9,0.2-1.2,0.7c-0.3,0.4-0.4,1.1-0.4,1.9c0,0.3,0,0.6,0.1,0.9
		c0,0.3,0.1,0.6,0.3,0.9c0.1,0.3,0.3,0.5,0.5,0.6s0.5,0.3,0.9,0.3c0.3,0,0.6-0.1,0.8-0.2c0.2-0.2,0.4-0.3,0.5-0.6s0.2-0.5,0.3-0.8
		C-418.3,501.3-418.3,501.1-418.3,500.8z"/>
	<path class="st0" d="M-411.7,503.8v-0.7l-0.9,0.3c-0.2,0.1-0.4,0.2-0.6,0.2c-0.2,0-0.4,0.1-0.6,0.1c-0.2,0-0.4,0-0.7-0.1
		c-0.3-0.1-0.4-0.2-0.6-0.3c-0.3-0.3-0.5-0.8-0.5-1.5v-3.3l-1.1-0.3v-0.3l2.2-0.5v4.2c0,0.5,0.1,0.9,0.4,1.1
		c0.2,0.2,0.6,0.3,1.1,0.3c0.4,0,0.8,0,1.2-0.1v-4.3l-1.1-0.3v-0.3l2.2-0.5v5.3l1,0.3v0.3L-411.7,503.8z"/>
	<path class="st0" d="M-405.3,499l-0.4-0.7c-0.1,0-0.1,0-0.2,0s-0.1,0-0.1,0c-0.2,0-0.3,0-0.5,0.1s-0.3,0.1-0.5,0.1v4.3l1.3,0.4v0.3
		h-3.5v-0.3l1.1-0.4v-4.3l-1.1-0.3v-0.3l2.2-0.5v0.8c0.5-0.2,0.9-0.4,1.2-0.5c0.3-0.1,0.5-0.2,0.7-0.2c0.1,0,0.2,0,0.3,0
		c0.1,0,0.2,0.1,0.3,0.1v1.4H-405.3z"/>
	<path class="st0" d="M-400.2,503.6v-0.3l1-0.4v-3.1c0-0.6-0.2-0.9-0.5-1.1c-0.2-0.2-0.6-0.2-1.1-0.2c-0.2,0-0.4,0-0.6,0
		c-0.2,0-0.4,0-0.5,0.1v4.4l0.9,0.4v0.3h-3.1v-0.3l1.1-0.4v-4.3l-1.1-0.3v-0.3l2.3-0.5v0.7c0.1-0.1,0.3-0.1,0.4-0.2
		c0.1-0.1,0.3-0.1,0.4-0.2c0.2-0.1,0.3-0.1,0.4-0.2s0.2-0.1,0.3-0.1c0.1,0,0.2,0,0.3,0c0.1,0,0.2,0,0.3,0c0.5,0,0.9,0.2,1.3,0.5
		c0.2,0.2,0.3,0.4,0.3,0.6s0.1,0.5,0.1,0.9v3.4l1.1,0.4v0.3L-400.2,503.6L-400.2,503.6z"/>
	<path class="st0" d="M-391.8,503.6c-0.1,0-0.2,0-0.3,0.1c-0.1,0-0.2,0-0.3,0c-0.4,0-0.6-0.2-0.7-0.6c0,0-0.1,0-0.1,0c0,0,0,0-0.1,0
		c0,0-0.1,0-0.1,0.1c-0.1,0-0.2,0.1-0.3,0.1c-0.1,0.1-0.2,0.1-0.3,0.1c-0.1,0-0.2,0.1-0.3,0.1c-0.1,0-0.2,0-0.3,0.1
		c-0.1,0-0.2,0-0.3,0c-0.5,0-0.9-0.1-1.2-0.4c-0.3-0.3-0.5-0.7-0.5-1.1c0-0.8,0.4-1.2,1.3-1.4c0.2,0,0.5-0.1,0.8-0.1
		c0.3,0,0.6-0.1,1-0.1c0.1,0,0.1,0,0.2,0c0.1,0,0.1,0,0.2,0V499c0-0.3,0-0.5-0.1-0.6c-0.1-0.1-0.2-0.2-0.4-0.3
		c-0.2-0.1-0.4-0.1-0.7-0.1c-0.1,0-0.1,0-0.2,0c0,0-0.1,0-0.2,0l-0.5,1h-0.7v-1.1c0.3-0.1,0.6-0.1,0.8-0.2c0.3-0.1,0.5-0.1,0.7-0.2
		c0.2,0,0.4-0.1,0.6-0.1c0.5,0,1,0.1,1.3,0.3c0.2,0.1,0.3,0.3,0.4,0.5s0.1,0.4,0.1,0.7v3.4c0,0,0,0.1,0,0.2s0,0.1,0,0.1
		c0,0,0.1,0.1,0.1,0.1c0,0,0.1,0.1,0.2,0.1l0.7,0.2v0.3L-391.8,503.6z M-393.1,500.8c-0.2,0-0.5,0.1-0.7,0.1c-0.2,0-0.4,0.1-0.7,0.1
		c-0.3,0.1-0.5,0.2-0.7,0.3c-0.1,0.2-0.2,0.4-0.2,0.6c0,0.3,0.1,0.5,0.3,0.7c0.2,0.2,0.5,0.3,0.9,0.3c0.3,0,0.6,0,0.9-0.1l0.1,0
		V500.8z"/>
	<path class="st0" d="M-390.4,503.6v-0.3l1.1-0.4v-7l-1.1-0.3v-0.3l2.3-0.5v8.1l1.1,0.4v0.3L-390.4,503.6L-390.4,503.6z"/>
	<path class="st0" d="M-382.5,501.9c0,0.3-0.1,0.5-0.1,0.7c-0.1,0.2-0.2,0.4-0.4,0.6c-0.2,0.2-0.4,0.3-0.6,0.4
		c-0.2,0.1-0.5,0.1-0.8,0.1c-0.3,0-0.7,0-1.1-0.1c-0.1,0-0.3-0.1-0.4-0.1c-0.1,0-0.3-0.1-0.4-0.1V502h0.5c0.1,0.2,0.2,0.4,0.3,0.6
		c0.1,0.2,0.2,0.4,0.3,0.6c0.1,0,0.2,0,0.3,0c0.1,0,0.2,0,0.3,0c0.1,0,0.3,0,0.4,0c0.1,0,0.3-0.1,0.4-0.1c0.1-0.1,0.2-0.2,0.3-0.3
		c0.1-0.1,0.1-0.3,0.1-0.4c0-0.2,0-0.4-0.1-0.5s-0.3-0.2-0.5-0.4l-1.1-0.7c-0.4-0.2-0.6-0.4-0.8-0.7c-0.2-0.2-0.3-0.5-0.3-0.9
		c0-0.5,0.2-0.9,0.5-1.2c0.3-0.3,0.8-0.5,1.4-0.5c0.2,0,0.3,0,0.5,0c0.2,0,0.4,0.1,0.6,0.1c0.1,0,0.2,0.1,0.3,0.1
		c0.1,0,0.2,0.1,0.3,0.1v1.3h-0.5l-0.5-1c-0.1,0-0.2,0-0.3,0c-0.1,0-0.2,0-0.3,0c-0.4,0-0.6,0.1-0.8,0.2c-0.2,0.1-0.3,0.3-0.3,0.6
		c0,0.2,0.1,0.3,0.2,0.5c0.1,0.1,0.3,0.3,0.6,0.4l1,0.6c0.3,0.1,0.4,0.3,0.6,0.4c0.1,0.1,0.2,0.2,0.3,0.4
		C-382.6,501.3-382.5,501.6-382.5,501.9z"/>
	<path class="st0" d="M-371.3,503.3c-0.2,0.1-0.5,0.1-0.7,0.2c-0.2,0-0.4,0.1-0.6,0.1c-0.2,0-0.5,0.1-0.7,0.1c-0.2,0-0.5,0-0.7,0
		c-0.4,0-0.7,0-1-0.1c-0.3,0-0.6-0.1-0.8-0.2c-0.3-0.1-0.5-0.2-0.7-0.3c-0.2-0.1-0.4-0.3-0.6-0.5c-0.7-0.7-1-1.7-1-2.9
		c0-0.7,0.1-1.4,0.3-1.9c0.2-0.6,0.6-1.1,1-1.5c0.4-0.4,0.9-0.7,1.4-0.9c0.5-0.2,1.1-0.3,1.9-0.3c0.4,0,0.8,0,1.2,0.1
		c0.4,0,0.7,0.1,1.2,0.2v1.9h-0.5l-0.6-1.6c-0.1,0-0.3,0-0.4,0s-0.3,0-0.5,0c-0.6,0-1.1,0.1-1.5,0.2c-0.4,0.2-0.8,0.4-1.1,0.7
		c-0.3,0.3-0.6,0.7-0.7,1.2s-0.2,1-0.2,1.6c0,1,0.2,1.9,0.7,2.5c0.3,0.4,0.7,0.6,1.1,0.8c0.4,0.2,1,0.2,1.6,0.2c0.1,0,0.2,0,0.2,0
		s0.1,0,0.2,0c0.1,0,0.2,0,0.3,0c0.1,0,0.2,0,0.4,0l0.8-1.6h0.4L-371.3,503.3z"/>
	<path class="st0" d="M-365.7,503.6c-0.1,0-0.2,0-0.3,0.1c-0.1,0-0.2,0-0.3,0c-0.4,0-0.6-0.2-0.7-0.6c0,0-0.1,0-0.1,0c0,0,0,0-0.1,0
		c0,0-0.1,0-0.1,0.1c-0.1,0-0.2,0.1-0.3,0.1c-0.1,0.1-0.2,0.1-0.3,0.1c-0.1,0-0.2,0.1-0.3,0.1c-0.1,0-0.2,0-0.3,0.1
		c-0.1,0-0.2,0-0.3,0c-0.5,0-0.9-0.1-1.2-0.4c-0.3-0.3-0.5-0.6-0.5-1.1c0-0.8,0.4-1.2,1.3-1.4c0.2,0,0.5-0.1,0.8-0.1
		c0.3,0,0.6-0.1,1-0.1c0.1,0,0.1,0,0.2,0s0.1,0,0.2,0V499c0-0.3,0-0.5-0.1-0.6c-0.1-0.1-0.2-0.2-0.4-0.3c-0.2-0.1-0.4-0.1-0.7-0.1
		c-0.1,0-0.1,0-0.2,0c0,0-0.1,0-0.2,0l-0.5,1h-0.7v-1.1c0.3-0.1,0.6-0.1,0.8-0.2c0.3-0.1,0.5-0.1,0.7-0.2c0.2,0,0.4-0.1,0.6-0.1
		c0.5,0,1,0.1,1.3,0.3c0.2,0.1,0.3,0.3,0.4,0.5s0.1,0.4,0.1,0.7v3.4c0,0,0,0.1,0,0.2s0,0.1,0,0.1c0,0,0.1,0.1,0.1,0.1
		c0,0,0.1,0.1,0.2,0.1l0.7,0.2v0.3L-365.7,503.6z M-367,500.8c-0.2,0-0.5,0.1-0.7,0.1c-0.2,0-0.4,0.1-0.7,0.1
		c-0.3,0.1-0.5,0.2-0.7,0.3c-0.1,0.2-0.2,0.4-0.2,0.6c0,0.3,0.1,0.5,0.3,0.7c0.2,0.2,0.5,0.3,0.9,0.3c0.3,0,0.6,0,0.9-0.1l0.1,0
		V500.8z"/>
	<path class="st0" d="M-360.5,499l-0.4-0.7c-0.1,0-0.1,0-0.2,0c0,0-0.1,0-0.1,0c-0.2,0-0.3,0-0.5,0.1s-0.3,0.1-0.5,0.1v4.3l1.3,0.4
		v0.3h-3.5v-0.3l1.1-0.4v-4.3l-1.1-0.3v-0.3l2.2-0.5v0.8c0.5-0.2,0.9-0.4,1.2-0.5s0.5-0.2,0.7-0.2c0.1,0,0.2,0,0.3,0
		c0.1,0,0.2,0.1,0.3,0.1v1.4H-360.5z"/>
	<path class="st0" d="M-357.9,500.4c0,0.5,0.1,0.8,0.1,1.1c0.1,0.3,0.2,0.6,0.4,0.8c0.4,0.5,1,0.7,1.8,0.7c0.2,0,0.4,0,0.6,0
		c0.3,0,0.5-0.1,0.8-0.1l0.1,0.4c-0.1,0-0.2,0.1-0.3,0.1c-0.1,0-0.2,0.1-0.3,0.1c-0.1,0-0.2,0.1-0.3,0.1c-0.3,0.1-0.6,0.2-0.8,0.2
		c-0.2,0-0.5,0-0.7,0c-0.4,0-0.8-0.1-1.1-0.2c-0.3-0.1-0.6-0.3-0.9-0.6c-0.2-0.3-0.4-0.6-0.6-0.9c-0.1-0.4-0.2-0.8-0.2-1.2
		c0-0.5,0.1-1,0.3-1.4c0.2-0.4,0.4-0.8,0.7-1.1c0.2-0.2,0.5-0.4,0.9-0.6c0.3-0.1,0.7-0.2,1-0.2c0.5,0,0.9,0.1,1.3,0.3
		c0.4,0.2,0.6,0.5,0.8,0.9c0,0.1,0.1,0.2,0.1,0.3c0,0.1,0,0.2,0.1,0.3c0,0.1,0,0.3,0,0.4s0,0.4,0,0.6H-357.9z M-355.2,499.8
		c0-0.4,0-0.6-0.1-0.8c0-0.2-0.1-0.4-0.2-0.5c-0.1-0.2-0.2-0.3-0.4-0.3s-0.3-0.1-0.5-0.1c-0.9,0-1.4,0.7-1.5,2L-355.2,499.8z"/>
	<path class="st0" d="M-351.8,500.4c0,0.5,0.1,0.8,0.1,1.1c0.1,0.3,0.2,0.6,0.4,0.8c0.4,0.5,1,0.7,1.8,0.7c0.2,0,0.4,0,0.6,0
		c0.3,0,0.5-0.1,0.8-0.1l0.1,0.4c-0.1,0-0.2,0.1-0.3,0.1c-0.1,0-0.2,0.1-0.3,0.1c-0.1,0-0.2,0.1-0.3,0.1c-0.3,0.1-0.6,0.2-0.8,0.2
		c-0.2,0-0.5,0-0.7,0c-0.4,0-0.8-0.1-1.1-0.2c-0.3-0.1-0.6-0.3-0.9-0.6c-0.2-0.3-0.4-0.6-0.6-0.9c-0.1-0.4-0.2-0.8-0.2-1.2
		c0-0.5,0.1-1,0.3-1.4c0.2-0.4,0.4-0.8,0.7-1.1c0.2-0.2,0.5-0.4,0.9-0.6c0.3-0.1,0.7-0.2,1.1-0.2c0.5,0,0.9,0.1,1.3,0.3
		c0.4,0.2,0.6,0.5,0.8,0.9c0,0.1,0.1,0.2,0.1,0.3c0,0.1,0,0.2,0.1,0.3c0,0.1,0,0.3,0,0.4c0,0.2,0,0.4,0,0.6H-351.8z M-349.1,499.8
		c0-0.4,0-0.6-0.1-0.8c0-0.2-0.1-0.4-0.2-0.5c-0.1-0.2-0.2-0.3-0.4-0.3c-0.1-0.1-0.3-0.1-0.5-0.1c-0.9,0-1.4,0.7-1.5,2L-349.1,499.8
		z"/>
	<path class="st0" d="M-343.2,499l-0.4-0.7c-0.1,0-0.1,0-0.2,0c0,0-0.1,0-0.1,0c-0.1,0-0.3,0-0.5,0.1s-0.3,0.1-0.5,0.1v4.3l1.3,0.4
		v0.3h-3.5v-0.3l1.1-0.4v-4.3l-1.1-0.3v-0.3l2.2-0.5v0.8c0.5-0.2,0.9-0.4,1.2-0.5s0.5-0.2,0.7-0.2c0.1,0,0.2,0,0.3,0
		c0.1,0,0.2,0.1,0.3,0.1v1.4H-343.2z"/>
	<path class="st0" d="M-337.8,501.9c0,0.3-0.1,0.5-0.1,0.7c-0.1,0.2-0.2,0.4-0.4,0.6c-0.2,0.2-0.4,0.3-0.6,0.4
		c-0.2,0.1-0.5,0.1-0.8,0.1c-0.3,0-0.7,0-1.1-0.1c-0.1,0-0.3-0.1-0.4-0.1c-0.1,0-0.3-0.1-0.4-0.1V502h0.5c0.1,0.2,0.2,0.4,0.3,0.6
		c0.1,0.2,0.2,0.4,0.3,0.6c0.1,0,0.2,0,0.3,0c0.1,0,0.2,0,0.3,0c0.1,0,0.3,0,0.4,0c0.1,0,0.3-0.1,0.4-0.1c0.1-0.1,0.2-0.2,0.3-0.3
		c0.1-0.1,0.1-0.3,0.1-0.4c0-0.2,0-0.4-0.1-0.5c-0.1-0.1-0.3-0.2-0.5-0.4l-1.1-0.7c-0.4-0.2-0.6-0.4-0.8-0.7
		c-0.2-0.2-0.3-0.5-0.3-0.9c0-0.5,0.2-0.9,0.5-1.2c0.3-0.3,0.8-0.5,1.4-0.5c0.2,0,0.3,0,0.5,0c0.2,0,0.4,0.1,0.6,0.1
		c0.1,0,0.2,0.1,0.3,0.1c0.1,0,0.2,0.1,0.3,0.1v1.3h-0.5l-0.5-1c-0.1,0-0.2,0-0.3,0s-0.2,0-0.3,0c-0.4,0-0.6,0.1-0.8,0.2
		c-0.2,0.1-0.3,0.3-0.3,0.6c0,0.2,0.1,0.3,0.2,0.5c0.1,0.1,0.3,0.3,0.6,0.4l1,0.6c0.3,0.1,0.4,0.3,0.6,0.4c0.1,0.1,0.2,0.2,0.3,0.4
		C-337.9,501.3-337.8,501.6-337.8,501.9z"/>
	<path class="st0" d="M-326.3,496v7.8h-0.4l-5.2-7v6.1l1.1,0.4v0.3h-2.8v-0.3l1.1-0.4V496l-1.1-0.4v-0.3h2.1l4.6,6.1V496l-1.1-0.4
		v-0.3h2.8v0.3L-326.3,496z"/>
	<path class="st0" d="M-323.4,500.4c0,0.5,0.1,0.8,0.1,1.1c0.1,0.3,0.2,0.6,0.4,0.8c0.4,0.5,1,0.7,1.8,0.7c0.2,0,0.4,0,0.6,0
		c0.3,0,0.5-0.1,0.8-0.1l0.1,0.4c-0.1,0-0.2,0.1-0.3,0.1c-0.1,0-0.2,0.1-0.3,0.1c-0.1,0-0.2,0.1-0.3,0.1c-0.3,0.1-0.6,0.2-0.8,0.2
		c-0.2,0-0.5,0-0.7,0c-0.4,0-0.8-0.1-1.1-0.2c-0.3-0.1-0.6-0.3-0.9-0.6c-0.2-0.3-0.4-0.6-0.6-0.9c-0.1-0.4-0.2-0.8-0.2-1.2
		c0-0.5,0.1-1,0.3-1.4c0.2-0.4,0.4-0.8,0.7-1.1c0.2-0.2,0.5-0.4,0.9-0.6c0.3-0.1,0.7-0.2,1.1-0.2c0.5,0,0.9,0.1,1.3,0.3
		c0.4,0.2,0.6,0.5,0.8,0.9c0,0.1,0.1,0.2,0.1,0.3c0,0.1,0,0.2,0.1,0.3c0,0.1,0,0.3,0,0.4c0,0.2,0,0.4,0,0.6H-323.4z M-320.7,499.8
		c0-0.4,0-0.6-0.1-0.8c0-0.2-0.1-0.4-0.2-0.5c-0.1-0.2-0.2-0.3-0.4-0.3c-0.1-0.1-0.3-0.1-0.5-0.1c-0.9,0-1.4,0.7-1.5,2L-320.7,499.8
		z"/>
	<path class="st0" d="M-315.4,503.5c-0.3,0.1-0.6,0.1-0.8,0.2c-0.2,0-0.3,0-0.5,0c-0.4,0-0.7-0.1-0.9-0.3c-0.3-0.2-0.4-0.6-0.4-1.1
		v-4.2h-0.9v-0.4c0.2-0.1,0.5-0.2,0.7-0.3c0.2-0.1,0.4-0.2,0.4-0.3c0,0,0.1-0.1,0.1-0.2c0.1-0.1,0.1-0.2,0.2-0.3
		c0.1-0.1,0.1-0.2,0.2-0.3c0.1-0.1,0.1-0.2,0.1-0.3h0.4v1.6h2v0.6h-2v3.8c0,0.4,0.1,0.6,0.2,0.8c0.1,0.2,0.4,0.3,0.8,0.3
		c0.2,0,0.3,0,0.5,0c0.1,0,0.3,0,0.5-0.1l0.1,0.4L-315.4,503.5z"/>
	<path class="st0" d="M-305.6,498.3l-2.2,5.4h-0.6l-1.4-4.2l-1.6,4.2h-0.6l-2-5.5l-0.8-0.3v-0.3h2.9v0.3l-1,0.3l1.1,3
		c0,0.1,0.1,0.3,0.1,0.4c0,0.1,0.1,0.3,0.1,0.4l1.7-4.6h0.4l1.3,3.8c0,0.1,0,0.1,0.1,0.2c0,0,0,0.1,0,0.1c0,0,0,0.1,0,0.2
		c0,0.1,0,0.2,0.1,0.3l1.3-3.9l-0.9-0.4v-0.3h2.5v0.3L-305.6,498.3z"/>
	<path class="st0" d="M-298.7,500.5c0,0.4-0.1,0.9-0.2,1.2s-0.3,0.7-0.6,1c-0.3,0.3-0.6,0.5-0.9,0.7c-0.4,0.2-0.8,0.3-1.2,0.3
		c-0.4,0-0.8-0.1-1.2-0.2c-0.3-0.1-0.6-0.4-0.9-0.6c-0.3-0.3-0.4-0.6-0.6-1c-0.1-0.4-0.2-0.8-0.2-1.2c0-0.5,0.1-0.9,0.2-1.3
		c0.1-0.4,0.3-0.7,0.6-1c0.3-0.3,0.6-0.5,0.9-0.7c0.4-0.2,0.8-0.2,1.3-0.2c0.4,0,0.8,0.1,1.2,0.2c0.4,0.2,0.6,0.4,0.9,0.6
		c0.2,0.3,0.4,0.6,0.6,1C-298.8,499.7-298.7,500.1-298.7,500.5z M-300,500.8c0-0.3,0-0.6-0.1-0.9c0-0.3-0.1-0.6-0.3-0.9
		c-0.1-0.3-0.3-0.5-0.5-0.7c-0.2-0.2-0.5-0.3-0.9-0.3c-0.5,0-0.9,0.2-1.2,0.7c-0.3,0.4-0.4,1.1-0.4,1.9c0,0.3,0,0.6,0.1,0.9
		c0,0.3,0.1,0.6,0.3,0.9c0.1,0.3,0.3,0.5,0.5,0.6c0.2,0.2,0.5,0.3,0.9,0.3c0.3,0,0.6-0.1,0.8-0.2c0.2-0.2,0.4-0.3,0.5-0.6
		c0.1-0.2,0.2-0.5,0.3-0.8C-300,501.3-300,501.1-300,500.8z"/>
	<path class="st0" d="M-294.2,499l-0.4-0.7c-0.1,0-0.1,0-0.2,0c0,0-0.1,0-0.1,0c-0.2,0-0.3,0-0.5,0.1s-0.3,0.1-0.5,0.1v4.3l1.3,0.4
		v0.3h-3.5v-0.3l1.1-0.4v-4.3l-1.1-0.3v-0.3l2.2-0.5v0.8c0.5-0.2,0.9-0.4,1.2-0.5c0.3-0.1,0.5-0.2,0.7-0.2c0.1,0,0.2,0,0.3,0
		c0.1,0,0.2,0.1,0.3,0.1v1.4H-294.2z"/>
	<path class="st0" d="M-292.9,503.6v-0.3l1.1-0.4v-7l-1.1-0.3v-0.3l2.3-0.5v8.1l1.1,0.4v0.3L-292.9,503.6L-292.9,503.6z M-288,503.6
		l-2.5-3.3l2.2-2.1l-0.8-0.3v-0.3h2.9v0.3l-1.2,0.4l-1.8,1.7l2.3,3l0.9,0.4v0.3L-288,503.6L-288,503.6z"/>
</g>
</svg>
