<?xml version="1.0" encoding="utf-8"?>
<!-- Generator: Adobe Illustrator 21.0.0, SVG Export Plug-In . SVG Version: 6.00 Build 0)  -->
<svg version="1.1" id="Ebene_1" xmlns="http://www.w3.org/2000/svg" xmlns:xlink="http://www.w3.org/1999/xlink" x="0px" y="0px"
	 viewBox="0 0 55 55" style="enable-background:new 0 0 55 55;" xml:space="preserve" width="55px" height="55px">
<style type="text/css">
	.st0{fill:#797990;}
	.st1{fill:#1C3051;}
</style>
<g>
	<path class="st0" d="M53.6,0.2c-1.9,1-4.7,1-6.7,1.6c-0.3,0.4,1.1,1.4,1.5,1.8c-1.9,2.3-4,4.1-5.7,6.4c-5.1-4.7-16.4-3.4-19.4,2.4
		C20,6.9,9,5.4,3.8,10c0-2.8,0-5.4,0-8.2c0.9-2.7,4.3-2,8.4-2c9.6,0,20.2,0,30,0C46.3-0.3,50.2-0.7,53.6,0.2z"/>
	<path class="st0" d="M54.1,1c0.3,0.1,0.4,0.3,0.5,0.6C55,13.5,54.9,27,54.9,40.3c0,4.5,0.9,12.7-1.5,13.8c-2.1,1.1-7.5,0.3-9.6,0.3
		c-9.5,0-20.8,0-29.6,0c0-2.1,0-4.3,0-6.4c1.7,0,3.5,0,5.1,0c0.7-0.7,0.1-2.7,0.3-3.8c-1.9,0-3.5,0-5.3,0c0-2.3,0-4.4,0-6.7
		c4-0.4,6.7-2.3,8.7-4.8c8.3,9.4,23.7,4.1,25.2-8c0.5-4.4-0.7-9.2-3.1-11.8c0.7-0.7,1.6-2,2.9-3.3c0.8-0.9,2.5-3.1,2.9-3.1
		c1.1,0,1.1,1.7,2.3,2C53.2,5.9,53.7,3.4,54.1,1z"/>
	<path class="st1" d="M21.7,14.1c-2.4,3.7-2.8,12.7,0.3,16.2c-2,3.1-5.1,5.4-9.3,5.4C4.4,35.9-0.6,28.5,0.2,20.8
		C1.4,10,15.2,5.1,21.7,14.1z M7.9,29.5c0.7,0,1.3,0,1.9,0c0.3-2-0.3-4.8,0.3-6.4c3.9,0.1,4.3,4,6,6.4c0.8,0,1.6,0,2.4,0
		c-1.5-2.6-2.9-5.1-4.8-7.1c1.1-0.3,1.9-1.1,2.3-1.8c1.7-4.4-2.9-7-7.9-5.8C7.9,19.6,7.9,24.5,7.9,29.5z"/>
	<path class="st1" d="M24.4,30.7c2.7-3.7,2.9-12.7,0-16.3c2.3-3.3,5.6-5.8,11.3-5.1c6.7,0.9,11.1,7.5,10.5,14.1
		C45.5,34.7,31.5,39.4,24.4,30.7z M28.1,14.7c0,5,0,10.1,0,15.1c0.7,0,1.3,0,1.9,0c0-2.1,0-4.3,0-6.4c2.7,0.3,5.7-0.3,7.9,0.3
		c0,2,0,4.1,0,6.1c0.7,0,1.3,0,1.9,0c0-5,0-10.1,0-15.1c-0.7,0-1.3,0-1.9,0c0,2.3,0,4.5,0,6.7c-2.7-0.3-5.7,0.3-7.9-0.3
		c0-2.1,0-4.3,0-6.4C29.5,14.7,28.9,14.7,28.1,14.7z"/>
	<path class="st1" d="M22.9,16.1c2.3,2.4,2.4,10.1,0,12.2C21.2,25,21.2,19.6,22.9,16.1z"/>
	<path class="st1" d="M9.8,16.4c1.6-0.1,3.1-0.1,3.9,0.7c1.1,2.8-0.8,4.5-3.6,4.1C9.5,20.1,9.9,17.9,9.8,16.4z"/>
	<path class="st0" d="M3.8,34.6c1.9,1.6,4.3,2.7,7.2,3.1c0,2.1,0,4.3,0,6.4c-1.6,0-3.2,0-4.8,0c-0.7,0.7-0.1,2.7-0.3,3.8
		c1.7,0,3.5,0,5.1,0c0,2.1,0,4.3,0,6.4c-1.9,0-3.5,0-5.3,0c-0.7-0.7-1.5-1.3-1.9-2C3.8,46.4,3.8,40.4,3.8,34.6z"/>
</g>
</svg>
