<?xml version="1.0" encoding="utf-8"?>
<!-- Generator: Adobe Illustrator 19.1.0, SVG Export Plug-In . SVG Version: 6.00 Build 0)  -->
<svg version="1.1" id="Layer_1" xmlns="http://www.w3.org/2000/svg" xmlns:xlink="http://www.w3.org/1999/xlink" x="0px" y="0px"
	 viewBox="0 0 240 240" style="enable-background:new 0 0 240 240;" xml:space="preserve">
<style type="text/css">
	.st0{fill:#5FC8E6;}
	.st1{fill:#FFFFFF;}
	.st2{fill:#12A345;}
	.st3{fill:#5EC7E4;}
	.st4{fill:#00A0D9;}
</style>
<rect x="0" class="st0" width="240" height="240"/>
<g>
	<path class="st1" d="M215.7,112.5c3.2,1.1,1,3.3,1,5c-2.5,1.2-3.3,3.9-5,5.8c-3.2,3.6-6.8,6.9-11.7,7.7c-2.6,0.4-5.1,0.7-7.5,1.9
		c-3.1,1.7-6.2,3.1-9.5,0.3c-0.5-0.4-1.6-0.3-2.4-0.2c-0.9,0.1-2.1-0.4-2.5,0.9c-0.3,1,0.9,1.2,1.3,1.9c1.3,2.5,5.9,3.1,4.4,7.3
		c-0.1,0.3,0.4,0.8,1,0.9c3.2,0.8,6.2,3.1,9.5,1.9c5-1.9,10-3.8,13.9-7.6c3.6-3.5,6.9-7.3,10.3-10.9c0,1.2,0,2.4,0,3.6
		c-0.4,0.3-1,0.6-1,0.9c-0.1,3.3-1.8,5.5-4.7,6.8c-0.7,0.3-0.9,0.9-1.3,1.4c-2.8,3.4-6.7,5.6-8.8,9.7c-1.4,2.8-4.7,1.7-7.2,2.3
		c-7.5,1.8-12.9-0.2-16.1-7.1c-2.6-5.5-7.2-8.6-12.2-9.9c-3.6-0.9-7.3-1.4-10.7-3c0-0.8-0.5-1.2-1.2-1.2c-2.5,0-5,0.1-7.5,0.2
		c-1.6,0-3.2,0-4.8,0c-4.4-2-7.6-5.7-11.6-8.3c-0.8-0.5-1.5-1.3-2.5-1.4c-3.7-5.5-8.7-9.5-14.6-12.2c-2.7-1.3-5.2-2.7-7.3-4.6
		c-2-1.8-4.4-2.9-6.4-4.5c-2.1-1.7-4.6-1.7-6.6-0.7c-2,1.1-4.2,1.7-6.2,3c-3.9,2.5-5.7,6-4.2,9.8c1.1,2.9,7,6.2,10.1,5.6
		c1.9-0.4,2.9-1.6,3.2-3.3c0.3-1.9-1.4-1.9-2.7-2.2c-2.2-0.5-2.8-2-2.7-4.1c0.1-1.9,0.7-3.4,2.8-3.5c1.8-0.1,3.6-0.6,5,1.9
		c2.4,4.3,1,8.7,1.4,13.1c-2.3-0.2-4.3-0.1-3.6,3.2c0.4,1.9-0.2,4,1,5.8c0.8,1.4,0.8,2.7-0.1,4.2c-1.2,1.9-0.8,3,1.4,4.2
		c2.5,1.3,4.3,3.3,5.9,6c2.8,4.7,3.2,10.5,7.4,14.3c-1.4,1-2.3,4-4.7,1.3c-1.8-2.5-3.3-4.9-3.6-8.2c-0.3-3-2-5.8-4.7-7.7
		c-0.5-0.4-1.3-0.5-1.8,0c-0.3,0.3-0.5,1-0.3,1.3c1.7,3.8,2.5,8.1,5,11.4c1.4,1.8,2,3.6,2.4,5.7c-0.5,1-1.3,1.4-2.3,1.4
		c-1.8-3.5-3.6-7.1-5.5-10.6c-0.3-0.6-0.8-1.6-1-1.6c-0.8,0.3-1,1.2-1,1.9c0,3.9,1.8,7.2,3.7,10.5c-0.9,3.2-3.5,1.5-5.4,1.9
		c-0.3-2.1-2.1-3.4-2.1-5.8c0-4.3,1.4-8.9-1.6-12.8c-0.2-0.2-0.2-0.7,0-1c2-2.9,0.7-6.7,2.1-9.3c1.6-2.9,1.4-5.6,1.7-8.5
		c0.2-1.6,0.6-3.9-1.2-4.3c-1.1-0.3-0.5,2.3-1.4,3.2c-0.5,0.6-1.1,1.2-1.2,2.1c-1.2,6.9-2.6,13.8-3.8,20.7c-0.1,0.7,0.1,1.8,0.5,2.3
		c0.9,1,0.9,2.1,0.8,3.2c-0.4,4.6,1,8.5,3.9,12c-1.7,0-3.4,0-5.2,0c0-1.9-1.1-2.2-2.6-1.7c1.4-5.6-2.4-10.8-1.4-16.4
		c0-0.2-0.3-0.6-0.6-0.7c-0.5-0.1-0.9,0.2-1,0.7c-0.4,5.7-1.4,11.5,3.1,16.2c0.1,0.6,0.1,1.2,0.2,1.7c-1.2,0-2.5,0-3.7,0
		c-0.1-1.7-1.8-2.2-2.3-3.6c-0.9-2.6-2.6-5.4-2.3-7.9c0.3-2,1-4.1,0.9-6.2c-0.2-2.5,0.7-4.1,3.1-5c1.7-0.6,3.6-1.4,4.1-3.3
		c1-4.3,2.3-8.4,3.9-12.6c0.6-1.5,0.3-3.3,0.3-4.9c0-0.4-0.1-1-0.7-1.1c-0.7-0.1-0.9,0.4-1,0.9c-0.2,1.5-0.6,2.8-1.4,4.2
		c-3,5.9-7,11.1-11.2,16.2c-1.6,2-2.6,4.3-2.5,6.9c0.2,5.1,1.7,9.9,3.7,14.6c-1.9,0-3.7-0.1-5.6-0.1c0.8-5.5-2.5-10.9-0.3-16.4
		c0.3-0.8-0.1-2-1.4-2.2c-1-0.2-2.1-0.1-2.5,1c-0.8,2-2.3,4.2-1.2,6.1c1.9,3.2,0.8,6.4,1.1,9.6c-1.5,0-3.1,0-3.5-2
		c0-1.3,0.2-2.7-0.6-3.9c-0.9-1.4-1.1-2.6,0-4.1c1.3-1.9,0.5-4.2,0.9-6.3c0.2-1.2,0-2.4-1.7-2.3c-1.4,0-2.1,0.7-2.2,2.1
		c-0.1,1,0,2.1-0.6,2.9c-1.7,2.5-1.6,4.8,0.1,7.3c0.4,0.6,0.2,1.6,0.3,2.4c-1.4,0.1-2.9,0.2-3.9-1.3c-0.3-1.3,1.9-4.1-2-3.2
		c-1.7-1.1-1.1-2.9-1.5-4.5c0.1-1.8,1.9-2.1,2.6-3.4c3.2-5.7,8.3-6.6,14-5.1c1.4,0.4,2.4,0.1,3-0.7c1.7-2.2,3.9-3.8,5.9-5.7
		c1-1,1.1-2,0.7-3.1c-0.4-1.2-1.6-0.8-2.6-1c-2.7-0.7-4.6,1.4-6.9,2.1c-3.3,0.9-7,1.5-9.7,4c-1-0.1-1.6,0.3-1.5,1.4
		c-4.5,2.5-9,5.1-7.3,11.6c-0.6,0.3-0.9,0.9-0.8,1.6c-0.4,0.1-0.9,0.2-1.3,0.4c-1.6-0.2-3.5,0.2-3.9-2.2c1.7-7.5,6.8-12,13.4-15.1
		c1.2,0.2,1.6-0.5,1.5-1.6c0.9-0.3,2.2,0,2.4-1.4c2-0.1,1.3-1.8,1.7-2.8l0.1-0.1c2.8,0.7,5-1.7,7.7-1.3c5.5,0.7,9.8-1.3,12.9-5.9
		c0.6-0.9,1.1-1.7,0.7-2.7c-0.4-0.8-1.3-1-2.1-1c-1.3,0.1-3.1-0.2-3.9,0.5c-4.9,4.3-11.5,2.9-16.9,5.2c-4.8,2-9.8,3.6-14.6,5.8
		c-1.2,0.6-2.7,1.8-3,3.6l0,0c-1.8,0.5-2.6,1.8-2.8,3.6c-0.5,0.2-0.9,0.4-1.4,0.7c-0.4-0.1-0.8-0.1-1.2-0.2
		c-0.3-1.6,0.2-2.9,1.2-4.1c0.3-0.4,0.4-0.9,0.1-1.3c-0.4-0.4-0.9-0.2-1.2,0.2c-1.6,2-4.3,2.8-5.7,5c-2.4-0.3-1.6-2.2-1.8-3.6
		c0.3-0.1,0.8-0.1,0.9-0.4c3.4-5.4,9-7.1,14.5-9.5c3.1-1.4,6.1-0.9,9-1.6c0.4-0.1,0.9-0.2,1-0.8c0.1-0.8-0.6-0.6-1-0.8
		c-3.2-1.3-6.5,0.4-9.7-0.3c-5.4-1.2-9.2,2.2-12.4,5.1c-2.1,1.9-3.7,2.8-6.2,2.8c-1.1-2.4-2.6-4.6-2-7.4c4.1-1.5,8.4-2.7,12.2-4.7
		c2-1,4-1.6,6.1-1.7c4.1-0.1,8.2,0.1,12.4,0.3c0.8,0,1.8,0,2.4,0.4c6.5,3.7,13.4,1.3,20.1,1.4c1.7,0,3-1.5,2.9-3.3
		c-0.2-1.6-1.7-1.9-3.1-1.9c-2.5-0.1-5-0.2-7.4-0.2c-1.2,0-2.5,0.6-3.4-0.2c-2.3-2.1-4.9-1.5-7.5-1.5c-5.1,0-10.3-0.2-15.4-0.2
		c-2.8,0-5.4,0.3-8.1,1.5c-4.2,1.8-8.1,4.5-12.9,4.4c-0.8-1.8-1.5-3.6-1.2-5.6c2.3-1.9,5.5-2.2,7.6-4.1c2-1.7,4-1.7,6.3-1.8
		c8.1,0,16.2-0.1,24.3-0.1c1.6,0,3,0.2,4.6,1.2c4.1,2.5,8.7,3.6,13.6,2.9c1.2-0.2,2.6,0.3,3.3-1.5c0.7-1.8,0.3-3.2-0.7-4.6
		c-1.2-1.6-2.9-2.1-4.9-1.9c-6,0.6-12,0.1-17.9,0.2c-1.3,0-2.8-0.2-3.9,0.6c-2.8,2-5.6,1.6-8.4,0.2c-1.7-0.8-3.5-0.7-5.3-0.8
		c-6.3-0.3-12.2,2.9-18.6,2.2c-0.4-1.4-0.3-2.7,0-4.1c5.2-3.5,11.2-3.9,17.1-3.7c3.5,0.1,7-0.4,10.5,1.6c1.8,1,5.4,2.2,7.3-1.3
		L55.7,94c0.5-0.1,1.1-0.4,1.4-0.2c4.7,3.3,10.5,0.6,15.5,2.9c1,0.4,1.9-0.2,2.1-1.5c0.1-1.1-0.5-1.4-1.5-1.5
		c-1.2-0.1-2.4-0.1-2.4-1.8l0,0c0.8,0,1.7,0.1,1.7-1c0-1.1-0.9-1-1.7-0.9l-0.1-0.1c0.5-0.8,0.6-1.6-0.6-1.9c-0.7-0.7-1.5-1.3-2.2-2
		c-2.8-2.8-5.4-5.8-10-5.6c-1.5,0.1-3.2-1.4-4.7-2.4c-0.6-0.4,0.1-0.8,0.4-1.1c0.9-0.6,1.9,0,2.9-0.1c0.9-0.1,2.2,0.3,2.4-1
		c0.1-0.5-1.1-1-1.5-1.7c-0.5-0.9-1.4-0.8-2.1-1.2c-4.3-2.5-9.1-3.2-13.7-4.7c-3.9-1.3-7.7-2.6-11.9-2.8c-0.7-2.5,1.6-3.8,2.2-5.8
		c6.1-0.2,11.9,1.4,17.5,3.7c1.5,0.6,3.2,0,4.6,1.4c5.2,5.8,12.9,8.9,16.9,15.9c0.2,0.3,0.4,0.6,0.7,0.7c3.6,0.8,4.8,3.6,6.1,6.7
		c1.2,2.7,2.3,5.4,3.2,8.2c0.7,1.9,2,3.9,4.4,2.5c2.2-1.2,4.5-2.1,6.7-3c1.7-0.7,2-2,1.3-3.2c-2.6-4.2-5.4-8.3-8.2-12.4
		c-0.6-0.9-1.6-1.3-2.6-1.2c-6.8,0.1-10.7-4.3-13.9-9.3C64,62.6,57.4,58.8,49.1,58.2c-3.3-0.2-6.4-0.7-9.3-2.3
		c-1.3-0.7-2.5-1.7-4.1-1.7c0.2-2.2,2-3.1,3.5-4.2c4.7,0.5,9.3,1.4,13.8,2.7c1.4,0.4,2.9-0.4,4.4,0.4c5.6,2.8,12,8.8,15.5,14.2
		c2,3.1,5.7,4.6,8.2,7.4c0.6,0.7,2.6,0.3,3.9,0.2c1.5-0.1,1.3-1.1,1.1-2.2c-0.2-0.9-0.9-1.3-1.5-1.9c-6-6.4-13.2-11.5-19-18.1
		c-1.9-2.2-4.7-2.8-7.7-2.8c-5.5,0-10.2-2.9-15.1-4.9c0.3-2.3,2.1-3.1,3.9-4c0.7,0.1,1.3,0.1,2,0.3c4.7,1.6,9.4,3.6,14.5,3.8
		c1.5,0.1,2.4,1.2,3.3,1.9c1.4,1.2,2.9,2.2,4.6,2.7c2.6,0.6,4.1,2.4,5.4,4.5c1.3,2,2.7,3.8,5.3,3.7c2,0,3.3,1.7,3.7,2.8
		c0.8,2.6,2.5,4.2,4.3,5.7c2.2,1.9,2.7,3.9,0.9,6.4c-1.1,1.5-0.8,2.7,0,4.4c2.6,5.5,7.1,10.4,6.8,17.1c-0.1,1.9,1.9,2.6,3.6,2.8
		c2,0.3,1.9-1.4,2.1-2.6c0.2-1,0.8-1.9,1-2.7c0.7-3.6,1.5-7.1-0.9-10.8c-1.4-2.2-4-4.5-3.4-7.4c0.4-2.1-0.6-3.1-1.6-4.3
		c-1.6-1.9-3.6-3.1-5.7-4.5c-1.6-1-2.2-3.9-4.2-5.5c-2.3-1.8-4.3-4-5.9-6.4c-1.1-1.7-2.8-2.8-4.4-4c-3.9-2.8-8.6-4.3-12.2-7.7
		c-0.9-0.9-2.4-1.9-4-1.8c-4.1,0.3-6.3-2.1-8.1-5.4c1.7-2.1,3.8-3.4,6.3-4.3c6.3-0.4,9,5,12.2,8.6c2.1,2.3,3.8,4.3,6.7,4.6
		c2.4,0.3,3.9,1.4,5.2,3.1c2,2.5,4.2,5,5.6,7.9c1,2.1,2.6,2.6,4.4,2.1c2.3-0.7,1.1-2.8,1.2-4.3c0-1.4-1.1-2.4-1.8-3.5
		c-2.7-3.9-6.1-6.9-10.4-8.9c-0.9-0.4-1.8-0.4-2.5-1.4c-2.7-3.9-6.2-6.9-9.6-10.2c-0.9-0.9-1.6-2-1.9-3.4c2.3-1.1,4.5-2.5,7.2-2.2
		c0.9,0.7,1.9,1.4,2.8,2.1c8.1,6,12.5,15.5,20.1,22c0.9,0.7,1.2,1.9,1.7,3c2.5,5,2.6,5.1-1.8,8.4c-1.9,1.4-2.3,2.4-0.9,4.4
		c2.4,3.6,5.7,6.5,8.3,10c1.5,2,2.4,3.7,2.3,5.9c-0.3,6.5,0.8,13.1-2.4,19.3c-0.7-0.1-1.2,0.2-1.2,0.8c-0.1,0.7,0.4,1,1.1,0.8
		c2.1,2.8,5.5,3.4,6.7,1c1.3-2.8,2.8-6.1,2.3-8.8c-0.7-3.8,1.2-7.9-1.2-11.5c1.5-5.7-1.6-9.4-5.6-12.8c-0.9-0.7-1.6-1.6-2.4-2.5
		c-1.8-1.9-2-4.3-0.7-6.3c1.9-3,1.5-5.6,0.2-8.7c-1.3-3.3-3.5-6.2-4.4-9.5c-0.9-3.4-2.8-5.7-5.1-8.1c-2.9-3.2-4.8-7.2-8-10.2
		c-0.4-0.4-0.2-1.6-0.2-2.4c4.2-1.6,8.4-2.5,12.9-1.9c1.9,1.8,1.9,4.8,3.9,6.4c3.1,2.5,5.2,5.4,6.4,9.5c2.1,7.1,5.2,13.8,4.9,21.4
		c-0.1,3.3,0.1,6.6-0.8,9.9c-0.5,1.7,0.1,3.7,1.5,4.3c1.2,0.5,2.4-1.1,3.3-2.3c2.3-3,2.6-6.9,4.5-10.1c1.5-2.5,1.2-5.2,0.6-7.7
		c-0.4-1.7-0.6-3.7-1.3-5.2c-1.8-4.2-3.4-8.5-6.1-12.3c-1-1.3-2-2.5-1.8-4.3c0.2-1.7-0.5-3.1-1.4-4.6c-1-1.5-1.9-3.2-1.8-5.1
		c2.5-0.2,4.9,0.2,7.3,1.2c1.3,3.5,4,6.2,5.1,9.8c-0.2,1.3,0.4,2.8,1.3,2.6c0.9-0.1,1.3-1.8,0.5-2.9c0.8-3.1-2.1-5.6-1.4-8.7
		c3.3-0.1,6.2,1.6,9.3,2.1c0.4,2.5-2.1,3.9-2.1,6.4c0.3,6.8,0.1,13.6,0.1,20.4c0,4,0.1,8,0,12c-0.2,6.5-3.4,10-9.9,11.1
		c-2.2,0.4-2.8,1.6-3.2,3.7c-0.9,5.8,1.7,11.9-1.7,17.4c-0.3,0.6,0.4,2.1,1.2,1.3c2.1-2.2,6.1-2.4,6.4-6.7c0.2-2.9,1.8-5.9,4.2-7.5
		c7.2-5,9.3-12.5,10.6-20.4c0.6-3.8,0.8-7.7,1-11.4c0.3-5.1-2.2-9.7-1.2-14.6c-3-3.2-1.1-6.5,0.1-9.7c3.3,0.4,6.4,1.5,9.3,3.2
		c0.7,6.2-0.7,12.6,1.7,18.7c0.7,1.7,0.5,3.9-0.5,5.8c-1.6,3.2-1,6.9-2.7,10.3c-1.8,3.5-1.5,8-4.9,10.9c-0.6,0.5-1,1.5-0.9,2.2
		c0.5,4.1-2.3,5.9-5.2,7.6c-2,1.2-3.3,2.8-4.5,4.9c-1.1,1.9-1.4,4.3-3.9,5.9c-4.5,2.9-8.3,6.7-12.4,10.1c-0.6,0.5-1.6,0.7-1.5,1.7
		c0.2,1.9,4.8,4.5,6.3,3.4c4-2.9,9.6-3.2,12.3-8.1c0.4-0.7,1.7-1,2.5-1.5c3.2-1.9,5.8-4.2,7-7.9c0.6-1.7,1.4-3.6,2.8-5.1
		c1.7-1.9,2.3-4.3,2-7c-0.4-3,0.8-5.4,2.4-7.7c2.7-3.8,5.7-7.9,6.2-12.5c1-8.7,1.7-17.7-2.1-26.1c-0.6-1.2,0-1.9,1.1-2.3
		c3.1,0.5,6.1,1.4,7.7,4.5c-0.8,4.2,2.2,7.9,1.8,12.1c-0.6,5.2,0.1,10.3-1.6,15.5c-1.3,4.3-2.6,8.2-5.3,11.8c-1,1.3-2.1,2.6-2,4.4
		c0.1,2.6-1.5,4.3-3.1,6c-1.2,1.3-2.6,2.3-3.4,4c-0.5,1.1-2.3,2.2-1.2,3.4c1,1.1,2.7,0.9,3.8-0.8c0.3-0.4,1.2-0.4,1.9-0.5
		c4.4-0.9,7-3.5,7.1-7.8c0.1-2.8,1.2-5.1,2.8-7.1c2.8-3.7,4.4-7.9,4.8-12.5c0.7-8.2-0.6-16.6,1-24.8c3.2,0.2,5,2.3,6.6,4.6
		c-0.5,1.6-0.2,3.3-0.2,5c-0.1,4.7,1.1,9.9-0.7,13.8c-2.7,6.1-3.8,13-8,18.5c-0.5,0.7-0.9,1.5-0.4,2.3c0.6,0.8,1.5,0.3,2.3,0
		c5.5-2.6,7.7-8,8.4-13.1c1-7.8,2.8-15.7,2.3-23.7c3.3,1.6,5.6,4.2,7.8,7c0.5,3.7-2.6,6.7-2.2,10.4c0.5,5-2.9,9.5-2,14.6
		c0.2,0.9-0.8,1.3-1.3,2c-1.2,1.3-2.4,2.7-3.1,4.3c-2.3,4.8-5.9,6.3-10.9,4.9c-2.3-0.6-4.4,0.4-4.9,2.1c-1.5,4.5-5.6,5.2-8.7,5.1
		c-7.1-0.1-11.6,4.9-16.9,7.9c-3,1.7-5.4,4.7-9.2,5.6c-1.7,0.4-3.3,2.2-2.9,4.1c0.3,1.7,1.9,3,4,3.1c2.2,0,4.4,0.3,6.5-0.3
		c5.5-1.5,10.9-3.3,16.3-5.1c2.3-0.8,4.9-1.4,6.7-2.8c3.5-2.8,6.7-6.1,9.7-9.3c1.5-1.6,3.1-2.7,5.4-3.1c5.4-0.9,9.1-4.7,12.8-8.2
		c2.7-2.5,2.5-6.6,2.5-10.3c0-7.6-0.9-15.3,0-22.9c2.4,1.6,4.8,3.2,5.7,6.2c-0.1,6.8,0.1,13.6-0.2,20.4c-0.2,5-1.2,9.8-5.2,13.5
		c-0.9,0.9-1.6,2.1-2.1,3.3c-0.6,1.5-1.8,3.2-2.9,3.1c-4.6-0.2-6.6,5.2-11.3,4.9c-1-0.1-4,1.1-3.3,4c0.7,2.6,2.5,3.1,4.9,3.2
		c1.7,0,3-1.4,4.8-0.9c1.5,1.4,2.8,1.4,3.8-0.5c2.1-2.7,4.7-4.8,7.8-6.4c3.6-1.9,6-4.4,5.5-9.1c-0.4-3.9-0.7-8.2,0.5-11.8
		c1.1-3.3,1.1-6.4,1.3-9.6c0.2-2.8-0.2-5.6,0.4-8.4c3.3,2,4.6,5.3,5.6,8.8c-0.7,1.2-0.5,2.6-0.5,3.9c-0.1,3.7,0.4,7.5-1.8,10.9
		c-1.2,1.8-0.7,4.2,0,6.3c0.3,1.1,0.8,1.8,1.9,0.5c0.7-0.9,1.8-1.6,1.7-2.9c-0.3-3.2,2.8-5.4,2.3-8.7c-0.1-0.8,0.9-0.7,1.5-0.9
		c1.5,2.5,2.5,5.2,2.3,8.2c0.5,3.6-2.1,6.4-2.4,10c-0.2,2.8-3.9,4.7-7,4.7c-1.6,0-3-0.2-4.1,1.8c-3.8,6.5-10.1,8.8-17.3,9.5
		c-3.7,0.3-7.1-1.3-10.5-1.7c-6.8-0.8-13.5,1.9-20.4,2.2c-1.1,0-2.7,1.4-4.4,1.4c-3,0-5.9,0.1-8.9,0.2c-0.6,0-1.4-0.4-1.6,0.6
		c-0.2,0.9,0.7,0.9,1.1,1.4c2.9,3.9,7.2,5.6,11.7,4.7c6-1.2,11.3-0.1,16.9,2.1c3.8,1.5,7.9,3.5,11.9,2.1c3.5-1.3,7.1-1.7,10.7-2.7
		c3.7-1.1,6.6-3.4,10.2-4.7C204.3,121,210.4,117.4,215.7,112.5z M51.6,118.7c-0.1-0.1-0.2-0.3-0.3-0.3c-0.1,0-0.2,0.1-0.3,0.2
		c0.1,0.1,0.2,0.3,0.3,0.3C51.3,118.9,51.4,118.8,51.6,118.7z"/>
	<path class="st2" d="M215.7,112.5c-5.2,5-11.4,8.6-18.1,11.1c-3.5,1.3-6.5,3.7-10.2,4.7c-3.5,1-7.2,1.4-10.7,2.7
		c-4,1.5-8.2-0.6-11.9-2.1c-5.5-2.1-10.9-3.2-16.9-2.1c-4.5,0.9-8.7-0.8-11.7-4.7c-0.3-0.5-1.3-0.5-1.1-1.4c0.2-1,1.1-0.5,1.6-0.6
		c3-0.1,5.9-0.2,8.9-0.2c1.7,0,3.3-1.4,4.4-1.4c6.9-0.3,13.6-3,20.4-2.2c3.5,0.4,6.8,2.1,10.5,1.7c7.2-0.6,13.5-2.9,17.3-9.5
		c1.1-1.9,2.4-1.8,4.1-1.8c3.2,0,6.8-1.9,7-4.7c0.3-3.5,2.9-6.4,2.4-10c0.3,0.1,0.8,0.2,0.9,0.3c1.8,5.8,3,11.6,3.6,17.6
		C216.4,110.9,215.9,111.7,215.7,112.5z"/>
	<path class="st2" d="M100.9,120c-0.4-4.4,0.9-8.8-1.4-13.1c-1.4-2.5-3.2-2-5-1.9c-2.1,0.1-2.7,1.6-2.8,3.5
		c-0.1,2.1,0.5,3.6,2.7,4.1c1.3,0.3,3,0.3,2.7,2.2c-0.2,1.7-1.3,3-3.2,3.3c-3,0.6-8.9-2.7-10.1-5.6c-1.4-3.7,0.3-7.2,4.2-9.8
		c2-1.2,4.1-1.9,6.2-3c1.9-1,4.5-1,6.6,0.7c2,1.6,4.4,2.7,6.4,4.5c2.1,1.9,4.6,3.4,7.3,4.6c5.8,2.7,10.9,6.7,14.6,12.2
		c0.1,4,0.4,8,0.3,12c-0.2,4.7-0.6,4.8-5.3,3.7c-0.6-0.1-1.3,0-2,0c-3.6-0.1-6.1-2.1-7.8-5c-1.5-2.5-3.3-4.8-5.7-5.9
		c-2.9-1.3-4.8-3-5.6-5.9c-0.3-1-1.2-0.9-2-0.6L100.9,120z"/>
	<path class="st2" d="M189.3,54c-0.9,7.6,0,15.3,0,22.9c0,3.7,0.2,7.8-2.5,10.3c-3.7,3.5-7.5,7.3-12.8,8.2c-2.3,0.4-3.8,1.4-5.4,3.1
		c-3.1,3.3-6.2,6.5-9.7,9.3c-1.8,1.5-4.4,2.1-6.7,2.8c-5.4,1.8-10.8,3.6-16.3,5.1c-2,0.6-4.3,0.3-6.5,0.3c-2.1,0-3.6-1.3-4-3.1
		c-0.4-1.9,1.3-3.7,2.9-4.1c3.8-0.9,6.2-3.9,9.2-5.6c5.3-3,9.8-8,16.9-7.9c3.1,0,7.2-0.7,8.7-5.1c0.6-1.7,2.6-2.8,4.9-2.1
		c4.9,1.4,8.6-0.1,10.9-4.9c0.7-1.6,2-2.9,3.1-4.3c0.5-0.6,1.5-1.1,1.3-2c-0.9-5.1,2.5-9.6,2-14.6c-0.4-3.7,2.7-6.7,2.2-10.4
		C188.6,52.4,188.9,53.2,189.3,54z"/>
	<path class="st2" d="M156.6,132.4c3.4,1.6,7.1,2,10.7,3c5.1,1.3,9.7,4.4,12.2,9.9c3.2,6.8,8.7,8.9,16.1,7.1
		c2.5-0.6,5.7,0.4,7.2-2.3c2.1-4.1,6-6.3,8.8-9.7c0.4-0.5,0.6-1,1.3-1.4c2.9-1.3,4.6-3.5,4.7-6.8c0-0.3,0.7-0.6,1-0.9
		c1.9,6.1-0.1,12-1.8,17.6c-1.3,4.2-5.9,5.7-10,7.1c-12.6,4.4-24.2,0.9-35.2-4.7c-10.1-5.1-19.3-11.7-28.1-18.9
		c-0.2-0.2-0.2-0.6-0.3-0.9c1.6,0,3.2,0,4.8,0C150.6,134.2,153.7,132.5,156.6,132.4z"/>
	<path class="st2" d="M155.3,29.5c-1.1,0.4-1.7,1-1.1,2.3c3.8,8.4,3.1,17.4,2.1,26.1c-0.5,4.6-3.5,8.7-6.2,12.5
		c-1.7,2.4-2.9,4.8-2.4,7.7c0.4,2.6-0.3,5.1-2,7c-1.4,1.6-2.2,3.4-2.8,5.1c-1.3,3.8-3.8,6.1-7,7.9c-0.9,0.5-2.1,0.8-2.5,1.5
		c-2.6,5-8.3,5.2-12.3,8.1c-1.5,1.1-6.1-1.4-6.3-3.4c-0.1-1,0.9-1.2,1.5-1.7c4.1-3.4,8-7.2,12.4-10.1c2.4-1.6,2.7-4,3.9-5.9
		c1.2-2.1,2.5-3.7,4.5-4.9c2.9-1.7,5.7-3.5,5.2-7.6c-0.1-0.7,0.4-1.7,0.9-2.2c3.4-2.9,3.1-7.4,4.9-10.9c1.7-3.4,1.1-7.1,2.7-10.3
		c1-1.9,1.2-4.1,0.5-5.8c-2.4-6.1-1-12.5-1.7-18.7C151.7,26.9,153.7,27.9,155.3,29.5z"/>
	<path class="st2" d="M87.8,19c0.1,0.8-0.2,2,0.2,2.4c3.2,3,5.1,7,8,10.2c2.3,2.5,4.2,4.7,5.1,8.1c0.9,3.3,3.1,6.2,4.4,9.5
		c1.3,3.1,1.7,5.7-0.2,8.7c-1.3,2.1-1.1,4.4,0.7,6.3c0.8,0.8,1.5,1.7,2.4,2.5c3.9,3.4,7,7.1,5.6,12.8c2.4,3.6,0.4,7.6,1.2,11.5
		c0.5,2.7-1,6-2.3,8.8c-1.1,2.5-4.5,1.8-6.7-1c0-0.5,0.1-1.1,0.1-1.6c3.2-6.1,2.1-12.8,2.4-19.3c0.1-2.2-0.8-3.9-2.3-5.9
		c-2.6-3.5-5.9-6.4-8.3-10c-1.3-2-1-3,0.9-4.4c4.5-3.3,4.3-3.3,1.8-8.4c-0.5-1-0.8-2.2-1.7-3c-7.7-6.5-12-16-20.1-22
		c-0.9-0.7-1.9-1.4-2.8-2.1C79.8,19.7,83.6,18.7,87.8,19z"/>
	<path class="st2" d="M140.3,23c-1.2,3.2-3.1,6.4-0.1,9.7c-1,4.9,1.5,9.5,1.2,14.6c-0.2,3.8-0.4,7.7-1,11.4
		c-1.3,7.9-3.4,15.4-10.6,20.4c-2.4,1.7-4.1,4.7-4.2,7.5c-0.3,4.4-4.3,4.5-6.4,6.7c-0.8,0.8-1.5-0.7-1.2-1.3
		c3.3-5.6,0.8-11.6,1.7-17.4c0.3-2.1,0.9-3.4,3.2-3.7c6.5-1,9.7-4.6,9.9-11.1c0.1-4,0-8,0-12c0-6.8,0.2-13.6-0.1-20.4
		c-0.1-2.6,2.4-4,2.1-6.4C136.6,21.7,138.5,22.4,140.3,23z"/>
	<path class="st2" d="M53.8,34.1c1.7,3.2,4,5.6,8.1,5.4c1.6-0.1,3.1,0.9,4,1.8c3.5,3.5,8.2,5,12.2,7.7c1.6,1.1,3.3,2.3,4.4,4
		c1.6,2.5,3.7,4.6,5.9,6.4c2,1.6,2.6,4.5,4.2,5.5c2.1,1.3,4.1,2.5,5.7,4.5c1,1.2,2,2.3,1.6,4.3c-0.5,3,2,5.2,3.4,7.4
		c2.3,3.7,1.6,7.2,0.9,10.8c-0.2,0.8-0.8,1.7-1,2.7c-0.2,1.2-0.1,2.9-2.1,2.6c-1.7-0.2-3.7-0.9-3.6-2.8c0.3-6.8-4.2-11.6-6.8-17.1
		c-0.8-1.7-1.1-3,0-4.4c1.8-2.4,1.3-4.5-0.9-6.4c-1.9-1.6-3.5-3.2-4.3-5.7c-0.4-1.1-1.6-2.8-3.7-2.8c-2.6,0-4-1.7-5.3-3.7
		c-1.3-2.1-2.8-3.8-5.4-4.5c-1.7-0.4-3.2-1.4-4.6-2.7c-0.9-0.8-1.8-1.9-3.3-1.9c-5.1-0.3-9.7-2.3-14.5-3.8c-0.6-0.2-1.3-0.2-2-0.3
		C48.1,37.7,50.6,35.6,53.8,34.1z"/>
	<path class="st2" d="M35.7,54.2c1.6,0,2.8,1,4.1,1.7c2.9,1.6,6,2,9.3,2.3c8.3,0.6,14.9,4.5,19.6,11.7c3.2,5,7.1,9.4,13.9,9.3
		c1,0,2,0.4,2.6,1.2c2.8,4.1,5.6,8.2,8.2,12.4c0.7,1.1,0.5,2.5-1.3,3.2c-2.3,0.9-4.6,1.7-6.7,3c-2.4,1.4-3.8-0.6-4.4-2.5
		c-1-2.8-2.1-5.5-3.2-8.2c-1.3-3.1-2.5-5.9-6.1-6.7c-0.3-0.1-0.5-0.4-0.7-0.7c-4-7-11.7-10.2-16.9-15.9c-1.3-1.5-3.1-0.8-4.6-1.4
		c-5.6-2.3-11.3-3.9-17.5-3.7C33.4,58,33.7,55.5,35.7,54.2z"/>
	<path class="st2" d="M218.6,127.6c-3.4,3.7-6.7,7.4-10.3,10.9c-3.9,3.8-9,5.7-13.9,7.6c-3.3,1.2-6.4-1.1-9.5-1.9
		c-0.6-0.1-1.1-0.6-1-0.9c1.5-4.3-3.1-4.8-4.4-7.3c-0.4-0.7-1.6-0.9-1.3-1.9c0.4-1.3,1.6-0.8,2.5-0.9c0.8-0.1,1.9-0.2,2.4,0.2
		c3.3,2.8,6.3,1.4,9.5-0.3c2.3-1.3,4.9-1.5,7.5-1.9c4.8-0.8,8.5-4.1,11.7-7.7c1.7-1.9,2.5-4.6,5-5.8
		C218.6,120.6,219,124,218.6,127.6z"/>
	<path class="st2" d="M112.7,17.1c-0.1,1.9,0.8,3.6,1.8,5.1c1,1.5,1.7,2.9,1.4,4.6c-0.3,1.8,0.8,3,1.8,4.3c2.7,3.7,4.3,8.1,6.1,12.3
		c0.7,1.5,0.9,3.5,1.3,5.2c0.6,2.5,0.9,5.1-0.6,7.7c-1.9,3.2-2.2,7.1-4.5,10.1c-0.9,1.2-2.1,2.8-3.3,2.3c-1.4-0.6-2-2.6-1.5-4.3
		c0.9-3.3,0.7-6.6,0.8-9.9c0.3-7.6-2.7-14.4-4.9-21.4c-1.2-4.1-3.3-6.9-6.4-9.5c-2-1.6-2-4.6-3.9-6.4
		C104.7,16.8,108.7,16.7,112.7,17.1z"/>
	<path class="st2" d="M198.9,66c-0.6,2.8-0.2,5.6-0.4,8.4c-0.2,3.2-0.1,6.3-1.3,9.6c-1.2,3.6-0.9,7.9-0.5,11.8
		c0.5,4.7-2,7.2-5.5,9.1c-3.1,1.6-5.6,3.7-7.8,6.4c-1.3,0.1-2.6-0.1-3.8,0.5c-1.7-0.4-3.1,1-4.8,0.9c-2.4,0-4.3-0.6-4.9-3.2
		c-0.7-2.9,2.3-4.1,3.3-4c4.7,0.3,6.7-5.1,11.3-4.9c1.1,0.1,2.3-1.6,2.9-3.1c0.5-1.2,1.1-2.5,2.1-3.3c4-3.7,4.9-8.5,5.2-13.5
		c0.3-6.8,0.2-13.6,0.2-20.4C197.3,61.4,198.7,63.3,198.9,66z"/>
	<path class="st2" d="M169.6,37.8c-1.6,8.2-0.3,16.6-1,24.8c-0.4,4.6-2,8.8-4.8,12.5c-1.6,2.1-2.7,4.3-2.8,7.1
		c-0.1,4.3-2.7,6.9-7.1,7.8c-0.6,0.1-1.6,0.1-1.9,0.5c-1.1,1.6-2.7,1.9-3.8,0.8c-1.1-1.2,0.7-2.2,1.2-3.4c0.8-1.7,2.2-2.8,3.4-4
		c1.6-1.7,3.2-3.4,3.1-6c-0.1-1.8,1-3.1,2-4.4c2.7-3.5,3.9-7.5,5.3-11.8c1.7-5.3,1-10.4,1.6-15.5c0.5-4.2-2.6-7.9-1.8-12.1
		C166.2,33.5,168,35.5,169.6,37.8z"/>
	<path class="st2" d="M22.1,114.5c4.8,0,8.7-2.7,12.9-4.4c2.7-1.2,5.4-1.5,8.1-1.5c5.1,0,10.3,0.2,15.4,0.2c2.6,0,5.3-0.6,7.5,1.5
		c0.9,0.8,2.2,0.2,3.4,0.2c2.5,0,5,0.1,7.4,0.2c1.4,0.1,2.9,0.3,3.1,1.9c0.2,1.9-1.2,3.4-2.9,3.3c-6.7-0.1-13.6,2.3-20.1-1.4
		c-0.7-0.4-1.6-0.4-2.4-0.4c-4.1-0.1-8.3-0.4-12.4-0.3c-2.1,0.1-4,0.7-6.1,1.7c-3.9,2-8.1,3.2-12.2,4.7
		C21,119.1,22.5,116.5,22.1,114.5z"/>
	<path class="st2" d="M20.9,101.4c6.4,0.7,12.2-2.5,18.6-2.2c1.8,0.1,3.6,0,5.3,0.8c2.8,1.4,5.6,1.8,8.4-0.2
		c1.1-0.8,2.6-0.6,3.9-0.6c6-0.2,12,0.4,17.9-0.2c1.9-0.2,3.6,0.3,4.9,1.9c1.1,1.4,1.5,2.8,0.7,4.6c-0.7,1.8-2,1.3-3.3,1.5
		c-4.9,0.7-9.5-0.4-13.6-2.9c-1.6-1-3.1-1.2-4.6-1.2c-8.1,0-16.2,0.1-24.3,0.1c-2.2,0-4.3,0-6.3,1.8c-2.2,1.9-5.4,2.2-7.6,4.1
		C19.8,106.4,20.3,103.9,20.9,101.4z"/>
	<path class="st2" d="M69.2,24.3c0.2,1.3,1,2.5,1.9,3.4c3.3,3.3,6.9,6.4,9.6,10.2c0.7,1,1.6,1,2.5,1.4c4.3,2,7.7,5.1,10.4,8.9
		c0.7,1.1,1.8,2.1,1.8,3.5c0,1.5,1.1,3.6-1.2,4.3c-1.8,0.5-3.5,0-4.4-2.1c-1.3-3-3.5-5.4-5.6-7.9c-1.4-1.7-2.9-2.8-5.2-3.1
		c-2.9-0.3-4.6-2.2-6.7-4.6c-3.2-3.6-5.9-8.9-12.2-8.6C62.4,26.8,66,25.9,69.2,24.3z"/>
	<path class="st2" d="M42.8,45c4.9,2,9.6,4.9,15.1,4.9c3,0,5.8,0.6,7.7,2.8c5.8,6.7,13.1,11.7,19,18.1c0.6,0.6,1.3,1,1.5,1.9
		c0.3,1.1,0.4,2.1-1.1,2.2c-1.3,0.1-3.3,0.5-3.9-0.2c-2.5-2.7-6.1-4.3-8.2-7.4c-3.6-5.3-10-11.4-15.5-14.2c-1.5-0.7-3,0-4.4-0.4
		c-4.5-1.3-9.1-2.3-13.8-2.7C39.1,47.4,40.4,45.8,42.8,45z"/>
	<path class="st1" d="M22.9,83.9c0.4-1.7,0.8-3.5,1.2-5.2c0.8,0,1.5-0.3,2.3-0.6c4.4-1.8,9-1.8,13.4-0.5c3.7,1.1,7.3,2.2,11,3.3
		c3.3,1,6.3,2.7,8.9,4.5c2.3,1.7,4.4,3.1,7.2,3c0.5,2.3,2.2,1.8,3.7,1.5l0.1,0.1c0,0.6,0,1.3,0,1.9l0,0c-5.3,1-10-1.7-15.1-2
		l0.1,0.1c0-0.6,0.2-1.3-0.5-1.8c-6.9-4.2-14.9-4.1-22.4-5.7c-0.4-0.1-1,0-1.4,0.3C28.8,84.6,25.8,84.2,22.9,83.9z"/>
	<path class="st2" d="M112.8,157.7c-4.2-3.8-4.6-9.7-7.4-14.3c-1.6-2.7-3.4-4.7-5.9-6c-2.2-1.2-2.6-2.3-1.4-4.2
		c0.9-1.4,0.9-2.8,0.1-4.2c-1.1-1.8-0.6-3.9-1-5.8c-0.7-3.3,1.3-3.4,3.6-3.2l-0.2-0.1c-0.5,0.8,0,1.6,0,2.3c-0.1,2.2,2.7,3.5,2,5.4
		c-1.5,3.9,1.3,6.3,2.8,8.8c1.2,2,2.8,3.8,3.8,5.9c1.4,2.9,3,5.5,6.7,6.4c1.2,0.3,3.8,0.5,4,2.9
		C118.4,154.7,116.2,156.8,112.8,157.7z"/>
	<path class="st2" d="M74.8,164.9c-2-4.7-3.6-9.5-3.7-14.6c-0.1-2.6,0.9-4.9,2.5-6.9c4.2-5.1,8.1-10.3,11.2-16.2
		c0.7-1.4,1.2-2.7,1.4-4.2c0.1-0.4,0.3-1,1-0.9c0.6,0.1,0.7,0.6,0.7,1.1c0,1.7,0.3,3.5-0.3,4.9c-1.6,4.1-2.9,8.3-3.9,12.6
		c-0.4,1.9-2.4,2.7-4.1,3.3c-2.4,0.9-3.3,2.5-3.1,5c0.2,2.1-0.6,4.2-0.9,6.2c-0.3,2.5,1.4,5.2,2.3,7.9c0.5,1.4,2.3,1.9,2.3,3.6
		C77.9,167.6,76.8,165.1,74.8,164.9z"/>
	<path class="st1" d="M120,151.7c-0.2-2.5-2.8-2.6-4-2.9c-3.7-0.9-5.3-3.5-6.7-6.4c-1.1-2.2-2.6-4-3.8-5.9c-1.5-2.5-4.3-4.9-2.8-8.8
		c0.7-1.8-4.2-5.9-3.2-7.8c0.4-0.9-0.2-0.6,0.3-1.3c0.8-0.4,0.4-3,1.1-1.7c1.3,2.6,4.1,8.4,7.6,9.7c2.5,1,4.3,3.5,5.7,5.9
		c1.7,2.9,4.2,4.9,7.8,5c2-0.2,1.2,0,2.4,0c4.8-0.1,4.2,1.5,1.2,5.3c-1-0.5-2-1.4-3-1.6c-5-0.7-8.2-3.5-10.8-7.6
		c-1.2-1.9-3.1-3.3-4.8-4.8c-0.4-0.4-1.1-0.9-1.7-0.1c-0.4,0.6-0.3,1.4,0.1,1.8c1.3,1.3,2.7,2.3,3.3,4.1c2.4,6.4,6.3,11.5,13.1,13.7
		C121.7,149.6,122.1,151.3,120,151.7z"/>
	<path class="st2" d="M179.9,45c0.5,8-1.3,15.9-2.3,23.7c-0.7,5.1-2.8,10.5-8.4,13.1c-0.7,0.3-1.6,0.8-2.3,0
		c-0.6-0.7-0.1-1.6,0.4-2.3c4.1-5.5,5.2-12.4,8-18.5c1.8-3.9,0.6-9.2,0.7-13.8c0-1.7-0.2-3.3,0.2-5C177.8,42.8,179.6,42.8,179.9,45z
		"/>
	<path class="st2" d="M67,88.4c-2.9,0.1-4.9-1.3-7.2-3c-2.6-1.9-5.6-3.6-8.9-4.5c-3.7-1.1-7.3-2.2-11-3.3c-4.5-1.3-9-1.3-13.4,0.5
		c-0.8,0.3-1.5,0.6-2.3,0.6c0-1.6-0.1-3.2,1.9-3.9c3.3-2.3,7-1.9,10.6-1.7c2.9,0.2,5.4,2.3,8.5,2.1c0,1,0.4,1.6,1.5,1.3
		c2.4,0.2,4.8,1.1,7.2,0.4l-0.1-0.1c-0.3,0.3-1,0.8-0.4,1.1c1.5,0.9,3.2,2.4,4.7,2.4c4.7-0.2,7.2,2.8,10,5.6c0.7,0.7,1.4,1.3,2.2,2
		C69.1,88.1,68,88.3,67,88.4z"/>
	<path class="st2" d="M57.5,137.2c2.7-2.6,6.4-3.1,9.7-4c2.3-0.6,4.2-2.8,6.9-2.1c0.9,0.2,2.2-0.2,2.6,1c0.4,1.1,0.3,2.1-0.7,3.1
		c-2,1.9-4.2,3.4-5.9,5.7c-0.6,0.8-1.6,1.1-3,0.7c-5.7-1.4-10.8-0.6-14,5.1c-0.7,1.3-2.6,1.7-2.6,3.4c-0.5,0-1.1,0-1.6,0.1
		c-1.7-6.5,2.8-9,7.3-11.6C57.1,138.7,57.5,138.2,57.5,137.2z"/>
	<path class="st2" d="M91.3,166.8c-2.9-3.5-4.3-7.5-3.9-12c0.1-1.1,0.1-2.2-0.8-3.2c-0.5-0.5-0.7-1.6-0.5-2.3
		c1.2-6.9,2.5-13.8,3.8-20.7c0.2-0.9,0.7-1.5,1.2-2.1c0.9-1,0.3-3.5,1.4-3.2c1.8,0.5,1.4,2.8,1.2,4.3c-0.4,2.8-0.2,5.6-1.7,8.5
		c-1.4,2.6-0.2,6.4-2.1,9.3c-0.1,0.2-0.1,0.7,0,1c3,4,1.5,8.5,1.6,12.8c0,2.4,1.8,3.8,2.1,5.8C93.1,165.8,92.3,166.4,91.3,166.8z"/>
	<path class="st1" d="M21,93.7c0.4-2,0.8-4,1.2-6.1c7.3-2,14.4-2.3,21.9-0.2c3.8,1.1,7.6,3,11.8,2.5l-0.1-0.1
		c-1.1,1.4,0.9,2.8,0,4.1l0.1-0.1c-3.1-1.6-6.3-2.2-9.8-1.9c-2.3,0.2-5,0.5-6.8-0.5c-5.5-2.8-10.4-1.5-15.1,1.2
		C23,93.4,22.1,93.7,21,93.7z"/>
	<path class="st2" d="M26,127.7c2.5,0,4.2-0.9,6.2-2.8c3.2-3,7-6.4,12.4-5.1c3.2,0.7,6.5-1,9.7,0.3c0.4,0.2,1.1,0,1,0.8
		c-0.1,0.6-0.6,0.7-1,0.8c-3,0.7-5.9,0.3-9,1.6c-5.4,2.4-11.1,4.1-14.5,9.5c-0.1,0.2-0.6,0.2-0.9,0.4
		C26.9,132.5,27.3,129.5,26,127.7z"/>
	<path class="st2" d="M21,93.7c1.1-0.1,2-0.4,3.1-1c4.8-2.7,9.7-4.1,15.1-1.2c1.9,1,4.5,0.7,6.8,0.5c3.5-0.3,6.7,0.3,9.8,1.9
		c-1.9,3.5-5.5,2.3-7.3,1.3c-3.5-2-7.1-1.5-10.5-1.6c-5.9-0.2-11.9,0.2-17.1,3.7C20.9,96.1,20.9,94.9,21,93.7z"/>
	<path class="st2" d="M121.8,148.1c-6.8-2.2-10.7-7.3-13.1-13.7c-0.7-1.8-2.1-2.9-3.3-4.1c-0.4-0.4-0.6-1.2-0.1-1.8
		c0.6-0.8,1.2-0.3,1.7,0.1c1.7,1.5,3.6,3,4.8,4.8c2.6,4.1,5.8,6.9,10.8,7.6c1.1,0.1,2,1,3,1.6C126,145.6,124.2,147.1,121.8,148.1z"
		/>
	<path class="st2" d="M29.9,65.5c4.1,0.2,8,1.6,11.9,2.8c4.6,1.5,9.4,2.2,13.7,4.7c0.7,0.4,1.6,0.3,2.1,1.2c0.4,0.7,1.6,1.2,1.5,1.7
		c-0.2,1.3-1.5,0.9-2.4,1c-1,0.1-1.9-0.6-2.9,0.1l0.1,0.1c0.5-0.8,0.5-1.4-0.4-2c-3.3-2-6.8-3.3-10.6-3.9c-4.6-0.7-9.5,0.2-13.3-3.2
		C29.2,67,28,66,29.9,65.5z"/>
	<path class="st1" d="M40.6,147.8c-1.5-0.4-1.6-1.8-2.1-2.9c1.4-2.5,2.3-5.3,3.2-8.1c0.2-0.3,0.4-0.7,0.6-1.1c0.4-0.7,0.7-1.4,1-2
		l0.3-0.3c0.7-0.3,0.2-0.4,0.7-0.3l0,0c4.5-2.6,9.8-3.2,14.5-5.4c0.9-0.4,2.3-0.3,3,1.1l-0.1,0.1c-1.1,0.2-2.1,0.6-1.9,2
		c-0.5,0-1.1,0-1.6,0c-1.1,0.2-2.4,0-2.4,1.7c-4.1,0-6.2,4.8-10.4,4.7c-0.2,0-0.5,0.5-0.5,0.8C44.9,142,41.4,144.3,40.6,147.8z"/>
	<path class="st2" d="M55.8,90c-4.2,0.5-8-1.5-11.8-2.5c-7.5-2.1-14.6-1.9-21.9,0.2c0.2-1.3-0.2-2.7,0.8-3.8c2.9,0.3,5.9,0.8,8.6-1
		c0.4-0.3,1-0.4,1.4-0.3c7.6,1.6,15.5,1.5,22.4,5.7C56,88.7,55.8,89.4,55.8,90z"/>
	<path class="st1" d="M29.5,67.9c3.9,3.4,8.8,2.6,13.3,3.2c3.8,0.6,7.3,1.9,10.6,3.9c0.9,0.6,0.9,1.2,0.4,2
		c-2.5,0.6-4.8-0.2-7.2-0.4c0.2-1.2-0.5-1.5-1.5-1.3c-3.1,0.2-5.5-1.9-8.5-2.1c-3.6-0.2-7.4-0.6-10.6,1.7
		C25.6,71.7,27.2,69.6,29.5,67.9z"/>
	<path class="st2" d="M209.6,83.9c-0.6,0.2-1.6,0.2-1.5,0.9c0.5,3.3-2.5,5.5-2.3,8.7c0.1,1.3-1,2-1.7,2.9c-1.1,1.3-1.6,0.5-1.9-0.5
		c-0.6-2.1-1.1-4.5,0-6.3c2.2-3.5,1.8-7.2,1.8-10.9c0-1.3-0.2-2.6,0.5-3.9C207.6,77.1,207.9,80.9,209.6,83.9z"/>
	<path class="st2" d="M57.6,159c-0.1-0.8,0.1-1.8-0.3-2.4c-1.7-2.5-1.8-4.8-0.1-7.3c0.5-0.7,0.5-1.9,0.6-2.9
		c0.1-1.4,0.8-2.1,2.2-2.1c1.7-0.1,1.9,1.1,1.7,2.3c-0.3,2.1,0.5,4.4-0.9,6.3c-1.1,1.5-0.9,2.7,0,4.1c0.7,1.2,0.5,2.6,0.6,3.9
		C60,160.8,57.9,161.7,57.6,159z"/>
	<path class="st2" d="M65,162.9c-0.3-3.2,0.7-6.4-1.1-9.6c-1.1-1.9,0.4-4.1,1.2-6.1c0.4-1.1,1.5-1.2,2.5-1c1.3,0.2,1.7,1.4,1.4,2.2
		c-2.2,5.5,1.1,10.9,0.3,16.4C67.3,165.2,66.4,163.5,65,162.9z"/>
	<path class="st2" d="M105.2,161.5c-0.4-2.1-1-3.9-2.4-5.7c-2.6-3.3-3.3-7.6-5-11.4c-0.2-0.3,0-1,0.3-1.3c0.5-0.5,1.3-0.3,1.8,0
		c2.6,1.9,4.4,4.7,4.7,7.7c0.3,3.3,1.8,5.7,3.6,8.2C108,160.9,106.6,161.2,105.2,161.5z"/>
	<path class="st2" d="M40.6,147.8c0.8-3.5,4.3-5.8,4.5-9.6c0-0.3,0.3-0.8,0.5-0.8c4.2,0.1,6.2-4.7,10.4-4.7c0.1,0.7,0.1,1.4,0.2,2.1
		c-6.6,3.1-11.7,7.6-13.4,15.1C41.2,150,41,148.8,40.6,147.8z"/>
	<path class="st2" d="M99,163.1c-1.9-3.3-3.7-6.6-3.7-10.5c0-0.7,0.2-1.6,1-1.9c0.1,0,0.7,1,1,1.6c1.8,3.5,3.6,7.1,5.5,10.6
		C101.6,163,100.3,163,99,163.1z"/>
	<path class="st2" d="M125.5,19c-0.7,3.1,2.2,5.6,1.4,8.7c-0.6,0.1-1.2,0.2-1.8,0.3c-1.1-3.6-3.8-6.3-5.1-9.8
		C121.8,18.5,123.6,18.8,125.5,19z"/>
	<path class="st2" d="M31.6,136.8c1.4-2.2,4.1-3,5.7-5c0.3-0.4,0.8-0.6,1.2-0.2c0.4,0.4,0.3,0.9-0.1,1.3c-0.9,1.2-1.4,2.5-1.2,4.1
		c-1.1-0.1-1.5,0.5-1.4,1.6c-0.6,0.8-0.8,1.9-1.9,2.3C33.6,139.3,31.3,138.8,31.6,136.8z"/>
	<path class="st2" d="M41.6,136.8c-0.9,2.8-1.7,5.5-3.2,8.1c-1.2-0.4-2.5-0.8-2.6-2.4c1.7-0.6,1.5-2.2,1.7-3.6
		c0.7-0.5,1.1-0.9,1-1.7c0.5-0.2,0.9-0.4,1.4-0.7C40.5,136.7,41.1,136.8,41.6,136.8z"/>
	<path class="st2" d="M51.8,154.5c3.9-0.9,1.6,2,2,3.2C51,158,51.3,156.3,51.8,154.5z"/>
	<path class="st1" d="M37.6,138.9c-0.2,1.4,0,2.9-1.7,3.6c-0.6-0.5-1.3-1.1-1.9-1.6c1.1-0.3,1.4-1.5,1.9-2.3
		C36.5,138.7,37,138.8,37.6,138.9z"/>
	<path class="st2" d="M83.6,165.1c1.6-0.5,2.6-0.2,2.6,1.7c-0.8,0-1.5,0-2.3,0c-0.1-0.6-0.1-1.2-0.2-1.7L83.6,165.1z"/>
	<path class="st2" d="M46.6,152.1c0.4-0.1,1.6-1.9,2.1-1.9c0.4,0,1-1.1,1.6-0.1c0,1.3,2.4,6.7,2.7,7.6c0,0,0,0,0,0
		C51.3,158,45.7,152.9,46.6,152.1z"/>
	<path class="st2" d="M44.4,133.1c-0.6,0-1.1-0.1-1.7-0.1c0.3-1.8,1.8-3,3-3.6c4.7-2.2,9.7-3.8,14.6-5.8c5.5-2.3,12-0.9,16.9-5.2
		c0.8-0.7,2.6-0.5,3.9-0.5c0.8,0,1.8,0.2,2.1,1c0.4,1-0.1,1.8-0.7,2.7c-3.1,4.6-7.4,6.6-12.9,5.9c-2.7-0.4-4.9,2-7.7,1.3
		c-0.6-1.4-2.1-1.5-3-1.1C54.2,129.9,48.9,130.5,44.4,133.1L44.4,133.1L44.4,133.1z"/>
	<path class="st2" d="M55.7,94c0.9-1.4-1.1-2.8,0-4.1c5.1,0.3,9.8,3,15.1,2c-0.1,1.7,1.2,1.7,2.4,1.8c0.9,0.1,1.6,0.4,1.5,1.5
		c-0.1,1.3-1.1,1.9-2.1,1.5c-4.9-2.2-10.7,0.4-15.5-2.9C56.9,93.6,56.2,94,55.7,94z"/>
	<path class="st2" d="M83.7,165c-4.5-4.8-3.6-10.5-3.1-16.2c0-0.5,0.5-0.8,1-0.7c0.2,0.1,0.6,0.5,0.6,0.7c-1,5.6,2.8,10.8,1.4,16.4
		L83.7,165z"/>
	<path class="st1" d="M156.6,132.4c-2.9,0.2-6.1,1.9-8.7-1c2.5-0.1,5-0.1,7.5-0.2C156.1,131.2,156.7,131.5,156.6,132.4z"/>
	<path class="st2" d="M41.6,136.8c-0.6-0.1-1.1-0.2-1.7-0.3c0.2-1.8,1.8-3.6,3.1-4.5C46.4,132,43.2,134.4,41.6,136.8z"/>
	<path class="st2" d="M56.1,134.8c-0.1-0.7-0.1-1.4-0.2-2.1c-0.1-1.7,1.3-1.6,2.4-1.7c-0.2,0.7-0.4,1.5-0.7,2.2
		C57.7,134.3,57.4,135,56.1,134.8z"/>
	<path class="st2" d="M125.1,28.1c0.6-0.1,1.2-0.2,1.8-0.3c0.8,1.2,0.4,2.8-0.5,2.9C125.5,30.8,124.8,29.3,125.1,28.1z"/>
	<path class="st1" d="M67,88.4c1.1-0.1,2.1-0.3,3.2-0.4c1.2,0.3,1.1,1.1,0.6,1.9C69.2,90.2,67.5,90.7,67,88.4z"/>
	<path class="st1" d="M179.7,111.8c1.2-0.6,2.5-0.4,3.8-0.5C182.4,113.2,181.1,113.1,179.7,111.8z"/>
	<path class="st1" d="M59.9,131c-0.2-1.5,0.7-1.8,1.9-2c-0.4,1,0.4,2.8-1.7,2.8C59.8,131.6,59.8,131.3,59.9,131z"/>
	<path class="st1" d="M37.5,139.9c-0.6-0.1-1-1.2-1.6-1.3c-0.1-1.1,0.9-2.3,1.4-3.1c0.2-0.9,0.8,1.7,1.2,1.7
		C38.7,138,38,138.9,37.5,139.9z"/>
	<path class="st1" d="M106.4,97.2c0,0.5-0.1,1.1-0.1,1.6c-0.7,0.2-1.2-0.1-1.1-0.8C105.2,97.4,105.7,97.1,106.4,97.2z"/>
	<path class="st1" d="M70.8,91.9c0-0.6,0-1.3,0-1.9c0.8-0.1,1.7-0.2,1.7,0.9C72.5,92,71.5,91.9,70.8,91.9z"/>
	<path class="st1" d="M57.5,137.2c0,1-0.4,1.6-1.5,1.4C55.9,137.5,56.4,137.1,57.5,137.2z"/>
	<path class="st2" d="M59.9,131c-0.1,0.3-0.1,0.6,0.2,0.8c-0.3,1.4-1.6,1.1-2.4,1.4c0.2-0.7,0.4-1.5,0.7-2.2
		C58.8,131,59.4,131,59.9,131z"/>
	<path class="st1" d="M51.6,118.7c-0.1,0.1-0.2,0.2-0.3,0.2c-0.1,0-0.2-0.2-0.3-0.3c0.1-0.1,0.2-0.2,0.3-0.2
		C51.4,118.4,51.5,118.6,51.6,118.7z"/>
	<path class="st1" d="M45.1,75.2c1-0.2,1.7,0.1,1.5,1.3C45.5,76.8,45.1,76.2,45.1,75.2z"/>
	<polygon class="st3" points="44.4,133.1 44.4,133.1 44.4,133.1 	"/>
</g>
<rect x="0" y="185.4" class="st4" width="239.9" height="54.5"/>
<g>
	<path class="st1" d="M82.9,196c-0.3-2-1.3-3-3-3c-1.6,0-2.5,1.1-2.5,2.5c0,1.6,1.6,2.3,2.9,2.8c2.4,0.9,4.1,1.7,4.1,4.3
		c0,2.1-1.4,4.1-4.9,4.1c-1.4,0-3-0.4-3.9-1.2l-0.2-3.2H76c0.5,2.2,1.7,3.7,3.5,3.7c1.7,0,2.8-0.9,2.8-2.6c0-1.6-1.7-2.5-3.1-3
		c-2-0.8-3.7-1.6-3.7-4.1c0-2.7,2.1-3.9,4.5-3.9c1.3,0,2.7,0.4,3.5,0.8v3H82.9z"/>
	<path class="st1" d="M96.2,201.4c0,3.2-1.6,5.1-4.8,5.1c-3.2,0-4.7-1.9-4.7-5.1c0-3.2,1.6-5.1,4.8-5.1S96.2,198.2,96.2,201.4z
		 M91.4,205.7c1.8,0,2.6-1.6,2.6-4.3c0-2.7-0.8-4.4-2.6-4.4c-1.8,0-2.6,1.6-2.6,4.4C88.8,204.1,89.6,205.7,91.4,205.7z"/>
	<path class="st1" d="M106.9,203.6c-0.6,2.1-2.4,2.9-3.8,2.9c-2.9,0-4.6-1.7-4.6-5c0-2.7,1.2-5.2,4.8-5.2c2.1,0,3.5,1,3.5,1.9
		c0,0.8-0.8,1-1.2,1c-0.4,0-0.5-0.2-0.6-0.5c-0.4-1.1-1-1.7-1.8-1.7c-1.3,0-2.5,1.2-2.5,4.1c0,1.9,0.6,4.3,2.9,4.3
		c1.4,0,2.2-0.7,2.8-2.1L106.9,203.6z"/>
	<path class="st1" d="M110.1,198.4c0-0.7-0.1-0.8-0.6-0.9l-0.7-0.1v-0.6l3.1-0.5l0.1,0.1v8c0,1,0.1,1,1.5,1.1v0.7h-4.9v-0.7
		c1.4-0.1,1.5-0.1,1.5-1.1V198.4z M112.3,193.5c0,0.7-0.5,1.2-1.2,1.2s-1.2-0.5-1.2-1.2s0.5-1.3,1.3-1.3
		C111.8,192.2,112.3,192.8,112.3,193.5z"/>
	<path class="st1" d="M117.2,201.1c0,2,0.5,4.3,2.9,4.3c1.6,0,2.3-0.9,2.8-2.1l0.6,0.3c-0.5,1.6-1.7,2.8-3.9,2.8
		c-3.3,0-4.6-1.9-4.6-5c0-3,1.5-5.2,4.6-5.2c3.6,0,4,2.8,4,4c0,0.7-0.4,0.8-0.8,0.8H117.2z M120.8,200.3c0.5,0,0.7-0.2,0.7-0.6
		c0-0.8-0.2-2.6-2-2.6c-2,0-2.3,2.4-2.3,3.3H120.8z"/>
	<path class="st1" d="M128.6,197.4v6c0,1.5,0.6,2,1.3,2c0.5,0,0.8,0,1.3-0.3l0.2,0.5c-0.7,0.4-1.4,0.8-2.4,0.8
		c-0.7,0-2.2-0.3-2.2-2.3v-6.8h-1.4v-0.9h1.5l1.2-2.5h0.6v2.5h2.5v0.9H128.6z"/>
	<path class="st1" d="M143,196.5v0.6c-1,0.1-1.1,0.2-1.5,1c-0.6,1.4-2.4,6.3-3.6,9.7c-1,2.9-2,3.2-2.9,3.2c-0.8,0-1.4-0.5-1.4-1
		c0-0.6,0.5-1.2,0.9-1.2c0.2,0,0.4,0.1,0.6,0.3c0.3,0.3,0.5,0.4,0.7,0.4c0.6,0,1.2-1.6,1.4-2.5c0-0.3,0-0.7-0.1-1
		c-0.5-1.4-2.2-5.5-3.2-7.9c-0.4-0.9-0.5-1-1.5-1v-0.6h4.6v0.6l-0.8,0.1c-0.5,0-0.4,0.3-0.3,0.6c0.8,2.1,1.6,4.1,2.5,6.5h0
		c0.8-2.3,1.8-5.2,2.1-6.4c0.1-0.4,0.1-0.7-0.3-0.7l-1-0.1v-0.6H143z"/>
	<path class="st1" d="M158.5,201.4c0,3.2-1.6,5.1-4.8,5.1c-3.2,0-4.7-1.9-4.7-5.1c0-3.2,1.6-5.1,4.8-5.1S158.5,198.2,158.5,201.4z
		 M153.7,205.7c1.8,0,2.6-1.6,2.6-4.3c0-2.7-0.8-4.4-2.6-4.4c-1.8,0-2.6,1.6-2.6,4.4C151.1,204.1,151.9,205.7,153.7,205.7z"/>
	<path class="st1" d="M163.5,197.4v7.1c0,1,0.2,1,1.7,1.1v0.7h-5v-0.7c1.4-0.1,1.5-0.1,1.5-1.1v-7.1h-1.4v-0.8h1.4v-0.8
		c0-2.2,0.8-4.3,3.3-4.3c1.6,0,2.1,0.8,2.1,1.4c0,0.6-0.6,0.9-1,0.9c-0.3,0-0.5-0.1-0.6-0.4c-0.5-1.1-0.7-1.2-1.1-1.2
		c-0.3,0-0.9,0.3-0.9,2.1c0,0.7,0,1.5,0.1,2.3h2.1v0.8H163.5z"/>
	<path class="st1" d="M29.5,219c-0.3-2-1.3-3-3-3c-1.6,0-2.5,1.1-2.5,2.5c0,1.6,1.6,2.3,2.9,2.8c2.4,0.9,4.1,1.7,4.1,4.3
		c0,2.1-1.4,4.1-4.9,4.1c-1.4,0-3-0.4-3.9-1.2l-0.2-3.2h0.7c0.5,2.2,1.7,3.7,3.5,3.7c1.7,0,2.8-0.9,2.8-2.6c0-1.6-1.7-2.5-3.1-3
		c-2-0.8-3.7-1.6-3.7-4.1c0-2.7,2.1-3.9,4.5-3.9c1.3,0,2.7,0.4,3.5,0.8v3H29.5z"/>
	<path class="st1" d="M42.5,219.5v0.6c-1,0.1-1.1,0.2-1.5,1c-0.6,1.4-2.4,6.3-3.6,9.7c-1,2.9-2,3.2-2.9,3.2c-0.8,0-1.4-0.5-1.4-1
		c0-0.6,0.5-1.2,0.9-1.2c0.2,0,0.4,0.1,0.6,0.3c0.3,0.3,0.5,0.4,0.7,0.4c0.6,0,1.2-1.6,1.4-2.5c0-0.3,0-0.7-0.1-1
		c-0.5-1.4-2.2-5.5-3.2-7.9c-0.4-0.9-0.5-1-1.5-1v-0.6h4.6v0.6l-0.8,0.1c-0.5,0-0.4,0.3-0.3,0.6c0.8,2.1,1.6,4.1,2.5,6.5h0
		c0.8-2.3,1.8-5.2,2.1-6.4c0.1-0.4,0.1-0.7-0.3-0.7l-1-0.1v-0.6H42.5z"/>
	<path class="st1" d="M49.6,222.3c-0.1-1.2-0.8-2.3-2.2-2.3c-1,0-1.7,0.5-1.7,1.6c0,1,1.3,1.6,2.1,1.8c2.1,0.7,3.1,1.3,3.1,3.1
		c0,1.7-1.3,3-3.7,3c-1.2,0-2.4-0.3-3.1-0.9l-0.2-2.6h0.6c0.4,1.7,1.2,2.8,2.8,2.8c1,0,1.8-0.6,1.8-1.6c0-1-1-1.5-2.2-2
		c-1.7-0.6-2.9-1.2-2.9-3c0-1.9,1.4-2.9,3.6-2.9c0.9,0,1.9,0.2,2.6,0.6v2.4H49.6z"/>
	<path class="st1" d="M55.8,220.4v6c0,1.5,0.6,2,1.3,2c0.5,0,0.8,0,1.3-0.3l0.2,0.5c-0.7,0.4-1.4,0.8-2.4,0.8
		c-0.7,0-2.2-0.3-2.2-2.3v-6.8h-1.4v-0.9H54l1.2-2.5h0.6v2.5h2.5v0.9H55.8z"/>
	<path class="st1" d="M62.1,224.1c0,2,0.5,4.3,2.9,4.3c1.6,0,2.3-0.9,2.8-2.1l0.6,0.3c-0.5,1.6-1.7,2.8-3.9,2.8
		c-3.3,0-4.6-1.9-4.6-5c0-3,1.5-5.2,4.6-5.2c3.6,0,4,2.8,4,4c0,0.7-0.4,0.8-0.8,0.8H62.1z M65.8,223.3c0.5,0,0.7-0.2,0.7-0.6
		c0-0.8-0.2-2.6-2-2.6c-2,0-2.3,2.4-2.3,3.3H65.8z"/>
	<path class="st1" d="M71.6,221.4c0-0.7-0.1-0.8-0.6-0.9l-0.8-0.1v-0.6l3.1-0.5l0.2,1.5c0.7-0.5,1.9-1.5,3.5-1.5
		c1.4,0,2.1,0.6,2.6,1.5c0.7-0.4,1.8-1.5,3.5-1.5c1.9,0,2.9,1.2,2.9,3.2v5c0,1,0.1,1,1.5,1.2v0.7h-4.9v-0.7c1.4-0.1,1.5-0.1,1.5-1.1
		v-4.6c0-1.7-0.8-2.5-2-2.4c-1.1,0-1.9,0.7-2.2,1.4c-0.1,0.3-0.1,0.6-0.1,1.1v4.5c0,1,0.1,1,1.4,1.1v0.7h-4.8v-0.7
		c1.4-0.1,1.4-0.1,1.4-1.1v-4.6c0-1.2-0.2-2.4-1.9-2.4c-1.1,0-1.9,0.7-2.3,1.4c-0.1,0.3-0.1,0.6-0.1,1v4.5c0,1,0.1,1,1.4,1.1v0.7
		h-4.8v-0.7c1.4-0.1,1.5-0.1,1.5-1.2V221.4z"/>
	<path class="st1" d="M97,226.6c0,1.2,0.3,1.6,0.7,1.7c0.2,0,0.5,0.1,0.8,0l0.1,0.6c-0.5,0.3-1.3,0.6-2.1,0.6c-0.7,0-1-0.4-1.3-1.2
		c-0.6,0.4-1.7,1.2-2.9,1.2c-1.9,0-2.9-1.3-2.9-2.8c0-0.9,0.4-2,1.8-2.4c1.6-0.5,3.4-1,3.9-1.5v-0.7c0-1.6-0.8-2-1.7-2
		c-0.8,0-1.5,0.4-1.9,1.9c-0.1,0.4-0.3,0.6-0.7,0.6c-0.4,0-1.1-0.3-1.1-0.9c0-1.1,1.6-2.3,3.9-2.3c3,0,3.4,1.5,3.4,2.7V226.6z
		 M95.2,223.6c-0.4,0.3-1.4,0.7-2.2,0.9c-1.1,0.4-1.5,0.9-1.5,1.8c0,1.2,0.6,2,1.8,2c0.8,0,1.9-0.4,1.9-2V223.6z"/>
	<path class="st1" d="M102.9,220.4v6c0,1.5,0.6,2,1.3,2c0.5,0,0.8,0,1.3-0.3l0.2,0.5c-0.7,0.4-1.4,0.8-2.4,0.8
		c-0.7,0-2.2-0.3-2.2-2.3v-6.8h-1.4v-0.9h1.5l1.2-2.5h0.6v2.5h2.5v0.9H102.9z"/>
	<path class="st1" d="M108.8,221.4c0-0.7-0.1-0.8-0.6-0.9l-0.7-0.1v-0.6l3.1-0.5l0.1,0.1v8c0,1,0.1,1,1.5,1.1v0.7h-4.9v-0.7
		c1.4-0.1,1.5-0.1,1.5-1.1V221.4z M110.9,216.5c0,0.7-0.5,1.2-1.2,1.2s-1.2-0.5-1.2-1.2s0.5-1.3,1.3-1.3
		C110.4,215.2,111,215.8,110.9,216.5z"/>
	<path class="st1" d="M122.1,226.6c-0.6,2.1-2.4,2.9-3.8,2.9c-2.9,0-4.6-1.7-4.6-5c0-2.7,1.2-5.2,4.8-5.2c2.1,0,3.5,1,3.5,1.9
		c0,0.8-0.8,1-1.2,1c-0.4,0-0.5-0.2-0.6-0.5c-0.4-1.1-1-1.7-1.8-1.7c-1.3,0-2.5,1.2-2.5,4.1c0,1.9,0.6,4.3,2.9,4.3
		c1.4,0,2.2-0.7,2.8-2.1L122.1,226.6z"/>
	<path class="st1" d="M134.5,215.5c2.3,0,4.6,0.4,4.6,3.2c0,1.7-1.1,2.7-3,3.1v0c1.9,0.3,3.7,1,3.7,3.4c0,1.3-0.5,2.2-1.2,2.8
		c-0.9,0.8-2.5,1.2-4.3,1.2h-5.7v-0.7c1.7-0.1,1.8-0.2,1.8-1.3v-9.9c0-1.1,0-1.2-1.8-1.3v-0.7H134.5z M132.4,221.5h1.2
		c2.1,0,3.3-0.7,3.3-2.7c0-2-1.5-2.6-3-2.6c-1.4,0-1.5,0.1-1.5,1V221.5z M132.4,227c0,1.2,0.2,1.5,1.7,1.5c1.7,0,3.3-0.8,3.3-3.1
		c0-2.2-1.3-3.2-3.7-3.2h-1.3V227z"/>
	<path class="st1" d="M143,221.4c0-0.7-0.1-0.8-0.6-0.9l-0.7-0.1v-0.6l3.1-0.5l0.1,0.1v8c0,1,0.1,1,1.5,1.1v0.7h-4.9v-0.7
		c1.4-0.1,1.5-0.1,1.5-1.1V221.4z M145.2,216.5c0,0.7-0.5,1.2-1.2,1.2s-1.2-0.5-1.2-1.2s0.5-1.3,1.3-1.3
		C144.7,215.2,145.2,215.8,145.2,216.5z"/>
	<path class="st1" d="M157.4,224.4c0,3.2-1.6,5.1-4.8,5.1c-3.2,0-4.7-1.9-4.7-5.1c0-3.2,1.6-5.1,4.8-5.1S157.4,221.2,157.4,224.4z
		 M152.6,228.7c1.8,0,2.6-1.6,2.6-4.3c0-2.7-0.8-4.4-2.6-4.4c-1.8,0-2.6,1.6-2.6,4.4C150,227.1,150.8,228.7,152.6,228.7z"/>
	<path class="st1" d="M160.3,216.5c0-0.8-0.1-0.9-0.6-0.9l-0.8-0.1v-0.6l3.1-0.5l0.1,0.1v12.9c0,1,0.1,1,1.5,1.1v0.7h-4.9v-0.7
		c1.4-0.1,1.5-0.1,1.5-1.1V216.5z"/>
	<path class="st1" d="M174.7,224.4c0,3.2-1.6,5.1-4.8,5.1c-3.2,0-4.7-1.9-4.7-5.1c0-3.2,1.6-5.1,4.8-5.1S174.7,221.2,174.7,224.4z
		 M170,228.7c1.8,0,2.6-1.6,2.6-4.3c0-2.7-0.8-4.4-2.6-4.4c-1.8,0-2.6,1.6-2.6,4.4C167.4,227.1,168.2,228.7,170,228.7z"/>
	<path class="st1" d="M186.2,219.3l0.2,0.2l-0.4,1.3h-1.6c0.3,0.3,0.6,1.1,0.6,1.9c0,2.5-2.1,3.2-4,3.2c-0.2,0-0.7,0-1.1-0.1
		c-0.3,0.1-0.9,0.3-0.9,0.9c0,0.4,0.2,0.8,1.6,0.8h1.8c2.1,0,3.6,0.7,3.6,2.9c0,1.3-0.7,2.4-1.7,2.9c-0.9,0.6-2,0.8-3.3,0.8
		c-2.3,0-4.3-0.9-4.3-2.9c0-1.4,1.4-1.9,2.3-2.2v0c-0.9-0.1-1.7-0.8-1.7-1.6c0-0.8,0.7-1.4,1.7-1.8v0c-0.9-0.3-2-1-2-2.9
		c0-1.5,1-3.3,4.1-3.3c0.9,0,2,0.2,2.6,0.6L186.2,219.3z M184.3,231.1c0-1.4-1-1.9-3-1.9c-1.1,0-1.7,0.1-2.1,0.4
		c-0.4,0.3-0.7,0.8-0.7,1.4c0,1.4,1.3,2.4,3.1,2.4C183,233.4,184.3,232.6,184.3,231.1z M179.1,222.6c0,1.7,0.9,2.5,2,2.5
		c1.1,0,2-0.8,2-2.5c0-1.9-1-2.6-2-2.6C180.1,220,179.1,220.7,179.1,222.6z"/>
	<path class="st1" d="M189.5,221.4c0-0.7-0.1-0.8-0.6-0.9l-0.7-0.1v-0.6l3.1-0.5l0.1,0.1v8c0,1,0.1,1,1.5,1.1v0.7H188v-0.7
		c1.4-0.1,1.5-0.1,1.5-1.1V221.4z M191.6,216.5c0,0.7-0.5,1.2-1.2,1.2s-1.2-0.5-1.2-1.2s0.5-1.3,1.3-1.3
		C191.2,215.2,191.7,215.8,191.6,216.5z"/>
	<path class="st1" d="M200.5,222.3c-0.1-1.2-0.8-2.3-2.2-2.3c-1,0-1.7,0.5-1.7,1.6c0,1,1.3,1.6,2.1,1.8c2.1,0.7,3.1,1.3,3.1,3.1
		c0,1.7-1.3,3-3.7,3c-1.2,0-2.4-0.3-3.1-0.9l-0.2-2.6h0.6c0.4,1.7,1.2,2.8,2.8,2.8c1,0,1.8-0.6,1.8-1.6c0-1-1-1.5-2.2-2
		c-1.7-0.6-2.9-1.2-2.9-3c0-1.9,1.4-2.9,3.6-2.9c0.9,0,1.9,0.2,2.6,0.6v2.4H200.5z"/>
	<path class="st1" d="M206.8,220.4v6c0,1.5,0.6,2,1.3,2c0.5,0,0.8,0,1.3-0.3l0.2,0.5c-0.7,0.4-1.4,0.8-2.4,0.8
		c-0.7,0-2.2-0.3-2.2-2.3v-6.8h-1.4v-0.9h1.5l1.2-2.5h0.6v2.5h2.5v0.9H206.8z"/>
	<path class="st1" d="M217,222.3c-0.1-1.2-0.8-2.3-2.2-2.3c-1,0-1.7,0.5-1.7,1.6c0,1,1.3,1.6,2.1,1.8c2.1,0.7,3.1,1.3,3.1,3.1
		c0,1.7-1.3,3-3.7,3c-1.2,0-2.4-0.3-3.1-0.9l-0.2-2.6h0.6c0.4,1.7,1.2,2.8,2.8,2.8c1,0,1.8-0.6,1.8-1.6c0-1-1-1.5-2.2-2
		c-1.7-0.6-2.9-1.2-2.9-3c0-1.9,1.4-2.9,3.6-2.9c0.9,0,1.9,0.2,2.6,0.6v2.4H217z"/>
</g>
</svg>
