<?xml version="1.0" encoding="iso-8859-1"?>
<!-- Generator: Adobe Illustrator 19.1.0, SVG Export Plug-In . SVG Version: 6.00 Build 0)  -->
<svg version="1.1" id="Layer_1" xmlns="http://www.w3.org/2000/svg" xmlns:xlink="http://www.w3.org/1999/xlink" x="0px" y="0px"
	 viewBox="0 0 300 34.037" style="enable-background:new 0 0 300 34.037;" xml:space="preserve">
<g>
	<path style="fill:#FFFFFF;" d="M0,33.405V0h10.518c8.893,0,12.956,3.882,12.956,8.396c0,3.566-2.302,5.959-6.139,7.764
		c4.379,1.896,6.997,4.379,6.997,8.216c0,5.056-4.379,9.028-12.549,9.028H0z M3.385,14.626h5.869c7.042,0,10.608-1.941,10.608-5.868
		c0-3.205-2.934-5.552-8.261-5.552H3.385V14.626z M3.385,30.2h9.119c5.1,0,8.215-2.392,8.215-6.094c0-3.792-3.475-6.275-9.705-6.275
		H3.385V30.2z"/>
	<path style="fill:#FFFFFF;" d="M34.306,4.153h-3.205V0.316h3.205V4.153z M34.306,33.405h-3.205v-23.7h3.205V33.405z"/>
	<path style="fill:#FFFFFF;" d="M40.851,21.623c0-7.539,4.56-12.459,10.699-12.459c5.958,0,10.608,5.146,10.608,12.595
		c0,7.358-4.74,12.142-10.292,12.142C45.501,33.901,40.851,28.891,40.851,21.623z M58.772,21.442c0-5.868-2.844-9.435-7.132-9.435
		c-4.469,0-7.403,3.747-7.403,9.48c0,5.914,2.979,9.57,7.313,9.57C55.703,31.058,58.772,27.446,58.772,21.442z"/>
	<path style="fill:#FFFFFF;" d="M71.907,4.153h-3.205V0.316h3.205V4.153z M71.907,33.405h-3.205v-23.7h3.205V33.405z"/>
	<path style="fill:#FFFFFF;" d="M83.689,33.405h-3.205v-23.7h3.205v2.754c3.657-2.077,6.681-3.25,9.028-3.25
		c3.973,0,6.681,2.934,6.681,7.538v16.658h-3.205v-15.8c0-3.566-1.174-5.417-4.063-5.417c-2.799,0-5.552,1.264-8.442,2.889V33.405z"
		/>
	<path style="fill:#FFFFFF;" d="M104.589,12.594V9.705h4.424V6.004c0-4.017,2.709-6.275,8.396-5.959V3.07
		c-0.541-0.09-1.128-0.09-1.49-0.09c-2.392,0-3.702,1.173-3.702,3.295v3.431h4.921v2.889h-4.921v20.811h-3.205V12.594H104.589z"/>
	<path style="fill:#FFFFFF;" d="M119.575,21.623c0-7.539,4.56-12.459,10.699-12.459c5.958,0,10.608,5.146,10.608,12.595
		c0,7.358-4.74,12.142-10.292,12.142C124.225,33.901,119.575,28.891,119.575,21.623z M137.497,21.442
		c0-5.868-2.844-9.435-7.132-9.435c-4.469,0-7.403,3.747-7.403,9.48c0,5.914,2.979,9.57,7.313,9.57
		C134.427,31.058,137.497,27.446,137.497,21.442z"/>
	<path style="fill:#FFFFFF;" d="M150.587,9.705v5.372c2.798-4.289,5.507-6.004,10.021-5.868l-0.497,3.566
		c-0.451-0.045-0.722-0.09-1.174-0.09c-4.966,0-8.351,5.191-8.351,10.202v10.518h-3.206v-23.7H150.587z"/>
	<path style="fill:#FFFFFF;" d="M169.816,13.452c3.611-2.392,6.501-4.243,9.525-4.243c3.476,0,4.74,1.76,5.733,4.243
		c3.521-2.347,6.32-4.243,9.75-4.243c3.521,0,6.004,2.663,6.004,6.545v17.651h-3.205V16.702c0-2.663-1.625-4.649-3.746-4.649
		c-2.393,0-5.101,1.76-8.532,4.198v17.154h-3.205V16.702c0-2.257-1.264-4.649-3.746-4.649c-2.348,0-5.101,1.76-8.577,4.198v17.154
		h-3.205v-23.7h3.205V13.452z"/>
	<path style="fill:#FFFFFF;" d="M222.766,17.741c0.045-4.514-1.986-5.959-4.604-5.959c-3.25,0-5.823,1.761-8.306,4.018l-2.347-1.986
		c2.663-2.528,5.643-4.604,10.066-4.604c5.552,0,8.442,3.656,8.442,7.538v10.97c0,2.031,0.226,3.882,0.632,5.688h-3.205
		c-0.542-1.851-0.587-2.979-0.632-3.973c-2.618,2.483-5.417,4.469-9.164,4.469c-4.108,0-6.726-2.754-6.726-6.41
		c0-6.907,8.576-8.216,13.903-9.345L222.766,17.741z M222.811,20.043c-6.862,1.535-12.504,3.16-12.504,7.449
		c0,2.076,1.715,3.566,4.244,3.566c2.844,0,5.417-1.444,8.261-3.476V20.043z"/>
	<path style="fill:#FFFFFF;" d="M234.998,9.705V1.083h3.206v8.622h5.868v2.889h-5.868V27.22c0,2.438,0.948,3.973,3.566,3.973
		c0.813,0,1.67-0.181,2.302-0.316v2.889c-0.722,0.09-1.715,0.27-2.799,0.27c-4.379,0-6.275-1.625-6.275-6.094V12.594h-4.153V9.705
		H234.998z"/>
	<path style="fill:#FFFFFF;" d="M252.558,4.153h-3.205V0.316h3.205V4.153z M252.558,33.405h-3.205v-23.7h3.205V33.405z"/>
	<path style="fill:#FFFFFF;" d="M278.875,27.672c-2.167,3.566-4.604,6.229-9.299,6.229c-5.959,0-10.473-4.875-10.473-12.414
		c0-7.358,4.65-12.279,10.518-12.279c4.65,0,7.178,2.573,9.254,6.094l-2.798,1.535c-1.671-2.934-3.386-5.056-6.501-5.056
		c-3.973,0-7.087,3.702-7.087,9.977c0,5.462,3.07,9.299,6.997,9.299c3.295,0,5.056-2.076,6.591-4.966L278.875,27.672z"/>
	<path style="fill:#FFFFFF;" d="M284.245,27.356c2.122,2.076,4.154,3.702,7.403,3.702c3.16,0,5.191-1.761,5.191-3.927
		c0-2.031-1.986-3.431-6.094-4.56c-4.017-1.083-8.441-2.076-8.441-6.952c0-3.566,3.16-6.455,8.036-6.455
		c4.333,0,6.726,1.85,8.622,3.701l-2.438,2.167c-1.58-1.715-3.205-3.025-6.139-3.025c-3.025,0-4.92,1.399-4.92,3.341
		c0,2.979,3.973,3.521,6.41,4.198c3.883,1.083,8.126,2.708,8.126,7.448c0,3.792-3.205,6.907-8.306,6.907
		c-4.604,0-7.358-2.076-10.202-4.604L284.245,27.356z"/>
</g>
</svg>
