<?xml version="1.0" encoding="utf-8"?>
<!-- Generator: Adobe Illustrator 19.2.1, SVG Export Plug-In . SVG Version: 6.00 Build 0)  -->
<svg version="1.1" id="Layer_1" xmlns="http://www.w3.org/2000/svg" xmlns:xlink="http://www.w3.org/1999/xlink" x="0px" y="0px"
	 viewBox="0 0 300 136" style="enable-background:new 0 0 300 136;" xml:space="preserve">
<style type="text/css">
	.st0{fill:#1D1D1B;}
	.st1{fill:#39368C;stroke:#FFFFFF;stroke-miterlimit:10;}
	.st2{fill:#39368C;}
	.st3{fill:#1D1D1B;stroke:#FFFFFF;stroke-miterlimit:10;}
</style>
<path class="st0" d="M15.7,0c-1.6,0-3.2,0.1-4.7,0.1C8.4,0.1,5.7,0.1,3.1,0v1.9c2.4,0,4.1,0.3,5.1,1.2s1.4,2.5,1.4,5.1
	c0,10.1-0.5,20.2-0.8,30.3C8.5,48.5,5.3,49.7,0,49.7v1.9c3.3-0.1,6.6-0.1,9.8-0.1c3,0,6.1,0.1,9.2,0.1v-1.9c-3,0-4.8-0.2-6-1.3
	c-1.2-1-1.6-3-1.6-6.7c0-1,0.1-3.7,0.1-4.7l0.6-26.8h0.1c7,14,14.1,27.8,20.4,41.9h1.5c0.6-1.9,2.1-5.5,2.9-7.3L54.5,8.7h0.1
	L55.2,44c0.1,2.9-0.6,4.3-1.9,5c-1.3,0.7-3.1,0.7-5.7,0.7v1.9c3.6-0.1,7.2-0.1,10.8-0.1c4.1,0,8.1,0.1,12.2,0.1v-1.9
	c-7.4,0-7.9-1.6-8.1-7.2c-0.3-11.2-1-23.6-1-35.3c0-2.4,0.4-3.7,1.4-4.4c1-0.7,2.7-0.9,5.2-0.9V0c-2.1,0-4.4,0.1-6.5,0.1
	c-2,0-4.1-0.1-6.1-0.1c-6.1,14.1-13.3,27.7-20,41.5L15.7,0z"/>
<path class="st0" d="M255.7,32.7V22.6c0.5-0.1,1.9-0.2,2.3-0.2c3.6,0,5.6,1.6,5.6,4.8c0,3.8-2.2,5.5-6.2,5.5
	C257.5,32.7,255.7,32.7,255.7,32.7z M251.7,42.5c0,1.9-1.3,2.2-3.5,2.2v1.3c1.8-0.1,3.6-0.1,5.4-0.1c1.9,0,3.8,0.1,5.6,0.1v-1.3
	c-2.1,0-3.5-0.2-3.5-2.2v-8.3c0.5,0.1,1.1,0.1,1.6,0.1c0.5,0,1.1-0.1,1.5-0.1c2.4,4.3,5.3,9.6,7.2,11.8c1-0.1,2-0.1,3-0.1
	c0.9,0,1.9,0.1,2.8,0.1v-1.3c-3-0.8-4.2-2-9.2-11.5c3.2-1.2,5-3.1,5-6c0-4.1-3.2-6.2-7.1-6.2c-1.6,0-4.7,0.1-7,0.1
	c-1.8,0-3.6-0.1-5.4-0.1v1.3c2.2,0,3.5,0.3,3.5,2.2L251.7,42.5L251.7,42.5z M236.8,35.1h-6.9l3.4-10.3h0.1L236.8,35.1z M236.5,46.1
	c1.7-0.1,3.5-0.1,5.2-0.1s3.5,0.1,5.2,0.1v-1.3c-2.5,0-3.2-0.7-3.9-3l-7-21.6l-3.6,1.5c0,0.3,0.1,0.5,0.1,0.7c0,0.5-0.2,1.1-0.5,1.7
	l-6.7,18.6c-0.4,1.1-1.1,2.1-3.5,2.1v1.3c1.3-0.1,2.6-0.1,3.8-0.1c1.6,0,3.2,0.1,4.8,0.1v-1.3h-0.6c-0.9,0-2.4-0.2-2.4-1.4
	c0-0.9,0.6-2.7,0.8-3.3l1-3.3h8l1.7,5.2c0.2,0.7,0.4,1.1,0.4,1.7c0,0.9-1.2,1.2-2.3,1.2h-0.6V46.1z M205.3,42.5
	c0,1.9-1.3,2.2-3.5,2.2v1.3c3.3-0.1,6.6-0.1,9.8-0.1c1.4,0,7.4,0.1,8.7,0.1l1.4-6.5h-1.2c-1.7,4.1-2.8,4.8-6.9,4.8
	c-3.7,0-4.3-0.7-4.3-2.8v-17c0-2.1,1.4-2.2,3.5-2.2v-1.3c-1.7,0.1-3.7,0.1-5.6,0.1c-1.8,0-3.6-0.1-5.4-0.1v1.3
	c2.2,0,3.5,0.3,3.5,2.2L205.3,42.5L205.3,42.5z M176.2,38.3c0,5.9,3.6,8.4,9.6,8.4c6.8,0,9.4-4.5,9.4-10.4V26c0-3.3,1.2-3.6,2.8-3.6
	v-1.3c-1.3,0.1-2.6,0.1-3.9,0.1c-1.5,0-3.1-0.1-4.7-0.1v1.3c3.1,0,3.6,0.4,3.6,5.5v6c0,5.1,0,10.7-6.6,10.7c-3.6,0-6.3-1.9-6.3-6.6
	V24.1c0-1.7,1.6-1.7,3-1.7v-1.3c-1.6,0.1-3.3,0.1-5,0.1c-1.7,0-3.6-0.1-5.3-0.1v1.3c1.3,0,3.2,0,3.2,1.8L176.2,38.3L176.2,38.3z
	 M170.1,39.2l-1.2-0.2c-1.5,4.8-4,6-7.2,6c-5.5,0-9-6.4-9-12.2c0-8.1,5.1-10.8,9.2-10.8c5.6,0,7,4.5,7,5.7h1.1l-0.3-5.9
	c-3.8-0.2-4.6-1.4-8.4-1.4c-7.1,0-12.8,5.1-12.8,13.1c0,7.5,4.8,13.1,13.1,13.1c3.4,0,4.5-0.6,7.7-1.7L170.1,39.2z M145.9,40.4h-1.2
	c-1.8,3.4-2.2,4-6.9,4c-3.9,0-5-0.8-5-3V34h3.9c2.8,0,3.4,0.3,3.4,3.1h1.2c0-1.4-0.1-2.9-0.1-4.2c0-1.4,0-2.8,0.1-4.1h-1.2
	c0,3.5-1,3.6-3.4,3.6h-3.9v-9.6h3.5c4.8,0,5.6,0.3,6.2,3.8h1l-0.3-5.4c-3.8,0.1-7.7,0.1-11.5,0.1c-2.1,0-4.2-0.1-6.3-0.1v1.3
	c2.2,0,3.5,0.3,3.5,2.2v17.9c0,1.9-1.3,2.2-3.5,2.2v1.3c3-0.1,6-0.1,9-0.1c3.4,0,6.7,0.1,10.1,0.1L145.9,40.4z M107.5,42.5
	c0,1.9-1.3,2.2-3.5,2.2v1.3c3.3-0.1,6.6-0.1,9.8-0.1c1.4,0,7.4,0.1,8.7,0.1l1.4-6.5h-1.2c-1.7,4.1-2.8,4.8-6.9,4.8
	c-3.7,0-4.3-0.7-4.3-2.8v-17c0-2.1,1.4-2.2,3.5-2.2v-1.3c-1.7,0.1-3.7,0.1-5.6,0.1c-1.8,0-3.6-0.1-5.4-0.1v1.3
	c2.2,0,3.5,0.3,3.5,2.2C107.5,24.6,107.5,42.5,107.5,42.5z M78.2,33c0-5.5,2.2-10.9,7.9-10.9c5,0,8.7,4.7,8.7,11.8
	c0,5.5-1.9,11.1-7.8,11.1C82,45.1,78.2,39.8,78.2,33z M73.6,33.5c0,7.8,5.1,13.2,12.8,13.2c8.1,0,12.9-6.9,12.9-13.3
	c0-7.4-5-13-12.6-13C79.8,20.5,73.6,25.5,73.6,33.5z"/>
<path class="st1" d="M41.2,93.6c3.2-0.1,6.4-0.1,9.7-0.1c3.5,0,7,0.1,10.4,0.1c13.1,0,19.9-6,19.9-13.9c0-10.4-11.1-14.1-16.6-13.8
	v-0.1c5.7-1.3,11.9-4.9,11.9-11.8c0-10.4-11.8-12-17.2-12c-2.7,0-5.4,0.1-9.6,0.1h-2.3c-2,0-4.1-0.1-6.1-0.1v1.9
	c3.9,0.1,6.7,0.1,6.7,5.3v37.5c0,4.2-3,5.2-6.7,5L41.2,93.6L41.2,93.6z M55.1,44.4c1.1-0.1,2.1-0.1,3.1-0.1c5.9,0,10.9,1.3,10.9,9.8
	c0,9.3-5.3,11.2-11.2,11.2h-2.8V44.4z M55.1,67.7h4.4c7.3,0,13.9,2.4,13.9,12.9c0,4.6-2.9,10.6-11.7,10.6c-6.7,0-6.7-2.7-6.7-6.1
	V67.7z"/>
<path class="st2" d="M222.2,74l6-8.6c2-2.8,2.8-2.9,4.4-2.9v-1.3c-1.4,0-2.7,0.1-3.9,0.1c-1.4,0-3.1-0.1-4.5-0.1v1.3
	c2.5,0,2.7,0.4,2.7,1.2c0,0.6-0.5,1.4-1,2.1l-4.5,6.9l-5.2-8.1c-0.4-0.7-0.7-0.9-0.7-1.4c0-0.7,1.7-0.7,2.6-0.7v-1.3
	c-1.7,0.1-3.6,0.1-5.3,0.1c-1.6,0-3.5-0.1-5-0.1v1.3c1.3,0,2.1,0.4,2.9,1.6l7.4,11.1v7.7c0,2-1.3,2-3.7,2v1.3
	c1.9-0.1,3.8-0.1,5.8-0.1c1.9,0,3.8,0.1,5.7,0.1v-1.3c-2.1,0-3.8,0-3.8-1.7L222.2,74L222.2,74z M204.1,61.9
	c-0.7-0.2-3.7-0.8-4.3-0.9c-2.2-0.3-3.2-0.5-4.4-0.5c-7.4,0-13.2,5.2-13.2,13.3c0,7.1,5.3,12.9,12.8,12.9c3.8,0,7.3-1,9.7-1.7v-1
	c-0.8-0.3-0.8-1.1-0.8-2v-3.3c0-1.7,0.5-2,2.7-2v-1.3c-1.4,0.1-3.1,0.2-4.5,0.2c-1.8,0-3.8-0.1-5.6-0.2v1.3c3.2,0,3.6,0.8,3.6,3.6
	c0,0.7-0.1,3.5-0.1,3.9c-1.1,0.5-2.2,0.8-3.3,0.8c-7.4,0-9.9-6.7-9.9-11.4c0-8.2,4.3-11.5,9.4-11.5c4.9,0,6,3,7.2,5.8h1L204.1,61.9z
	 M156.5,73c0-5.5,2.2-10.9,7.9-10.9c5,0,8.7,4.7,8.7,11.8c0,5.5-1.9,11.1-7.8,11.1C160.3,85.1,156.5,79.9,156.5,73z M151.9,73.6
	c0,7.8,5.1,13.2,12.8,13.2c8.1,0,12.9-6.9,12.9-13.3c0-7.3-5-13-12.6-13C158.2,60.5,151.9,65.5,151.9,73.6z M133.1,82.6
	c0,1.9-1.3,2.2-3.5,2.2v1.3c3.3-0.1,6.6-0.1,9.8-0.1c1.4,0,7.4,0.1,8.7,0.1l1.4-6.5h-1.2c-1.7,4.1-2.8,4.8-6.9,4.8
	c-3.7,0-4.3-0.7-4.3-2.8v-17c0-2.1,1.4-2.2,3.5-2.2v-1.3c-1.7,0.1-3.7,0.1-5.6,0.1c-1.8,0-3.6-0.1-5.4-0.1v1.3
	c2.2,0,3.5,0.3,3.5,2.2L133.1,82.6L133.1,82.6z M103.7,73c0-5.5,2.2-10.9,7.9-10.9c5,0,8.7,4.7,8.7,11.8c0,5.5-1.9,11.1-7.8,11.1
	C107.5,85.1,103.7,79.9,103.7,73z M99.1,73.6c0,7.8,5.1,13.2,12.8,13.2c8.1,0,12.9-6.9,12.9-13.3c0-7.3-5-13-12.6-13
	C105.4,60.5,99.1,65.5,99.1,73.6z M87.5,82.6c0,1.9-1.3,2.2-3.5,2.2v1.3c1.8-0.1,3.6-0.1,5.4-0.1c1.9,0,3.8,0.1,5.6,0.1v-1.3
	c-2.2,0-3.5-0.3-3.5-2.2V64.7c0-1.9,1.3-2.2,3.5-2.2v-1.3c-1.7,0.1-3.7,0.1-5.6,0.1c-1.8,0-3.6-0.1-5.4-0.1v1.3
	c2.2,0,3.5,0.3,3.5,2.2C87.5,64.7,87.5,82.6,87.5,82.6z"/>
<path class="st2" d="M280,73.1c0.8,0,2.1-0.1,2.9-0.1c3.5,0,5,2.8,5,6.3c0,5-3.3,5.9-5.8,5.9c-1.3,0-2.1-0.1-2.1-1.8L280,73.1
	L280,73.1z M277.7,84.2c0,1.1-0.7,1.3-2,1.3v0.7c1.2,0,2.3-0.1,3.5-0.1c1,0,2.3,0.1,3.5,0.1c3.8,0,7.7-1.8,7.7-7.2
	c0-3.3-2.3-6.9-7.6-6.9c-1.3,0-2.7,0.1-4,0.1c-1.1,0-2.2,0-3.2-0.1v0.7c1.2,0,2,0.2,2,1.3L277.7,84.2L277.7,84.2z M261.8,82.2
	c0,2.1,0,3.2-2.2,3.2v0.7c0.9,0,1.8-0.1,2.7-0.1s1.9,0,2.8,0.1v-0.7c-2,0-2.2-0.5-2.2-2.6v-7.7l8.9,11.3h0.6V74.3
	c0-1.4,0.6-1.5,1.8-1.5v-0.7c-0.8,0-1.6,0.1-2.4,0.1c-0.8,0-1.8,0-2.6-0.1v0.7c1.4,0,2.1,0,2.1,2v7.5l-8-10.3
	c-0.6,0-1.2,0.1-1.8,0.1c-0.6,0-1.2,0-1.8-0.1v0.7c0.5,0,2.1,0.1,2.1,1.3L261.8,82.2L261.8,82.2z M253.4,80h-3.9l1.9-5.8h0.1
	L253.4,80z M253.3,86.2c1,0,2-0.1,3-0.1c1,0,2,0,3,0.1v-0.7c-1.4,0-1.8-0.4-2.2-1.7l-4-12.2l-2,0.8c0,0.1,0.1,0.3,0.1,0.4
	c0,0.3-0.1,0.6-0.3,0.9L247,84.2c-0.2,0.6-0.6,1.2-2,1.2v0.7c0.7,0,1.5-0.1,2.2-0.1c0.9,0,1.8,0,2.7,0.1v-0.7h-0.3
	c-0.5,0-1.4-0.1-1.4-0.8c0-0.5,0.3-1.5,0.4-1.9l0.6-1.9h4.5l1,2.9c0.1,0.4,0.2,0.6,0.2,0.9c0,0.5-0.7,0.7-1.3,0.7h-0.3L253.3,86.2
	L253.3,86.2z"/>
<path class="st3" d="M72.6,86.2h8.7c7.4,0,10.7,2.1,11.8,9l1.5-0.4v-11C87.4,84,80.4,84,73.3,84c-5,0-10,0-14.9-0.1v1.9
	c5.8,0.2,7,0.5,7,6.6v32.8c0,7.2-0.6,8.4-7,8.4v1.9c5.5-0.1,10.9-0.1,16.4-0.1c7.4,0,14.8,0.1,22.2,0.1c0.7-3.8,1.8-7.6,3-11.3
	l-1.8-0.3c-2.9,7.9-6.1,9.2-13.4,9.2h-4.6c-7.3,0-7.6-2.1-7.6-10.3v-12.6h7.9c5.7,0,8.1,0,8.1,7.1h1.5c0.1-2.4-0.3-5.8-0.3-8.2
	c0-2.7,0.1-6.7,0.3-8.3h-1.5c-0.2,1.7-0.2,6.4-6.2,6.4h-9.8L72.6,86.2L72.6,86.2z"/>
<path class="st0" d="M277.9,119.1c0,3.7,0,5.8-3.8,5.8v1.3c1.6-0.1,3.2-0.1,4.8-0.1s3.4,0.1,4.9,0.1v-1.3c-3.5,0-4-0.9-4-4.5v-13.6
	l15.8,20.1h1.1v-21.6c0-2.6,1-2.7,3.2-2.7v-1.3c-1.4,0.1-2.9,0.1-4.2,0.1c-1.5,0-3.1-0.1-4.6-0.1v1.3c2.5,0,3.7,0.1,3.7,3.6v13.4
	l-14.3-18.3c-1,0.1-2.2,0.1-3.1,0.1c-1.1,0-2.2-0.1-3.3-0.1v1.3c0.9,0,3.7,0.1,3.7,2.4L277.9,119.1L277.9,119.1z M249.8,113.1
	c0-5.5,2.2-10.9,7.9-10.9c5,0,8.7,4.7,8.7,11.8c0,5.5-1.9,11.1-7.8,11.1C253.6,125.2,249.8,120,249.8,113.1z M245.2,113.6
	c0,7.8,5.1,13.2,12.8,13.2c8.1,0,12.9-6.9,12.9-13.3c0-7.3-5-13-12.6-13C251.5,100.6,245.2,105.6,245.2,113.6z M233.6,122.7
	c0,1.9-1.3,2.2-3.5,2.2v1.3c1.8-0.1,3.6-0.1,5.4-0.1c1.9,0,3.8,0.1,5.6,0.1v-1.3c-2.2,0-3.5-0.3-3.5-2.2v-17.9
	c0-1.9,1.3-2.2,3.5-2.2v-1.3c-1.7,0.1-3.7,0.1-5.6,0.1c-1.8,0-3.6-0.1-5.4-0.1v1.3c2.2,0,3.5,0.3,3.5,2.2V122.7z M215,122.7
	c0,1.9-1.3,2.2-3.7,2.2v1.3c2.1-0.1,3.9-0.1,5.7-0.1c1.9,0,3.8,0.1,5.9,0.1v-1.3c-2.5,0-3.7-0.3-3.7-2.2v-19.8h4.7
	c1.9,0,2.3,0.6,2.6,3.9h1.3l0.5-6.7h-0.9c-0.8,1.2-1.4,1.2-2.5,1.2h-14.9c-1,0-2.1-0.3-2.1-1.2h-0.9l-0.7,6.7h1.2
	c0.8-3.5,1.4-3.9,4.2-3.9h3.6L215,122.7L215,122.7z M182.6,118.4c0,5.9,3.6,8.4,9.6,8.4c6.8,0,9.4-4.5,9.4-10.4v-10.4
	c0-3.3,1.2-3.6,2.8-3.6v-1.3c-1.3,0.1-2.6,0.1-3.9,0.1c-1.5,0-3.1-0.1-4.7-0.1v1.3c3.1,0,3.6,0.4,3.6,5.5v6c0,5.1,0,10.7-6.6,10.7
	c-3.6,0-6.3-1.9-6.3-6.6v-13.9c0-1.7,1.6-1.7,3-1.7v-1.3c-1.6,0.1-3.3,0.1-5,0.1c-1.7,0-3.6-0.1-5.3-0.1v1.3c1.3,0,3.2,0,3.2,1.8
	L182.6,118.4L182.6,118.4z M161.5,122.7c0,1.9-1.3,2.2-3.5,2.2v1.3c3.3-0.1,6.6-0.1,9.8-0.1c1.4,0,7.4,0.1,8.7,0.1l1.4-6.5h-1.2
	c-1.7,4.1-2.8,4.8-6.9,4.8c-3.7,0-4.3-0.7-4.3-2.8v-17c0-2.1,1.4-2.2,3.5-2.2v-1.3c-1.7,0.1-3.7,0.1-5.6,0.1c-1.8,0-3.6-0.1-5.4-0.1
	v1.3c2.2,0,3.5,0.3,3.5,2.2V122.7z M132.2,113.1c0-5.5,2.2-10.9,7.9-10.9c5,0,8.7,4.7,8.7,11.8c0,5.5-1.9,11.1-7.8,11.1
	C136,125.2,132.2,120,132.2,113.1z M127.6,113.6c0,7.8,5.1,13.2,12.8,13.2c8.1,0,12.9-6.9,12.9-13.3c0-7.3-5-13-12.6-13
	C133.9,100.6,127.6,105.6,127.6,113.6z M111.9,126.8h1.6l8.3-21.1c1.2-3.2,1.7-3.2,3.2-3.2v-1.3c-1.1,0.1-2.4,0.1-3.5,0.1
	c-1.5,0-3.1-0.1-4.6-0.1v1.3c1.6,0,3.1,0,3.1,1.3c0,0.7-0.2,1.4-0.5,2.2l-5.5,15.3l-6-16.3c-0.1-0.4-0.3-0.9-0.3-1.3
	c0-0.9,0.6-1.2,1.7-1.2h1.1v-1.3c-1.7,0.1-3.5,0.1-5.2,0.1c-1.6,0-3.3-0.1-4.9-0.1v1.3c2.2,0,2.5,0.5,3.2,2.4L111.9,126.8z"/>
</svg>
