<?xml version="1.0" encoding="utf-8"?>
<!-- Generator: Adobe Illustrator 19.1.0, SVG Export Plug-In . SVG Version: 6.00 Build 0)  -->
<svg version="1.1" id="Layer_1" xmlns="http://www.w3.org/2000/svg" xmlns:xlink="http://www.w3.org/1999/xlink" x="0px" y="0px"
	 viewBox="0 0 300 123" style="enable-background:new 0 0 300 123;" xml:space="preserve">
<style type="text/css">
	.st0{fill:#2B2829;}
	.st1{fill:#EC0800;}
	.st2{fill:#8F1919;}
	.st3{fill:#0087F2;}
	.st4{fill:#02B62A;}
	.st5{fill:#2076B3;}
	.st6{fill:#AD0505;}
</style>
<g>
	<path class="st0" d="M89.5,48.5c1.7-1.5,2.9-2.7,4.2-3.8c3.7-3.2,7.8-5.7,12.9-6.2c8.6-0.8,15.7,1.5,20.2,9.5
		c0.1,0.2,0.3,0.4,0.5,0.6c1-0.2,1.4-1,2-1.6c2.8-2.7,5.8-5.2,9.4-6.8c5.2-2.4,10.6-2.5,16-0.8c6.1,1.9,9.8,6.3,11.7,12.3
		c1.1,3.3,1.5,6.8,1.5,10.3c0,12.6,0,25.3,0,37.9c0,2.1-0.5,2.7-2.5,3.1c-3.8,0.7-7.6,0.7-11.4,0c-2-0.4-2.5-1-2.5-3.4
		c0-11.1,0-22.2,0-33.4c0-2.4-0.3-4.8-1-7c-1.9-6.2-8.1-8.4-13.5-4.7c-2.6,1.8-4.6,4.1-6.7,6.4c-0.7,0.8-0.6,1.7-0.6,2.7
		c0,11.8,0,23.5,0,35.3c0,3.5-0.3,3.8-3.9,4.3c-3,0.4-6,0.4-9,0c-3-0.4-3.5-1-3.5-3.9c0-11,0-21.9,0-32.9c0-2.6-0.2-5.1-1-7.5
		c-1.9-5.6-7.6-7.7-12.7-4.7c-3,1.8-5.2,4.4-7.4,7c-0.6,0.8-0.4,1.7-0.4,2.5c0,11.8,0,23.5,0,35.3c0,3.4-0.4,3.8-3.7,4.2
		c-3.3,0.5-6.7,0.4-10-0.1c-2.3-0.4-2.8-1-2.8-3.3c0-18.9,0-37.8,0-56.7c0-2.1,0.4-2.7,2.4-3.1c3.1-0.7,6.2-0.6,9.2,0
		c1.9,0.4,2.3,1,2.4,3C89.5,44.5,89.5,46.3,89.5,48.5z"/>
	<path class="st0" d="M11.4,120.3c0-0.9,0-1.4,0-2c0-6,0-12.1,0-18.4c1.3,0.1,2.6,0.1,3.8,0.2c5.1,0.4,10.2,0,15.1-1.1
		c3-0.6,5.8-1.6,8.3-3.4c4.7-3.2,5.8-8.5,2.9-13.4c-1.6-2.5-3.6-4.6-5.7-6.7c-3.6-3.7-7.5-7.1-11-10.9c-2.5-2.8-4.9-5.6-6.7-8.9
		c-5.7-10.1-4.2-21,3.8-29.3c4.7-4.9,10.4-8.3,16.7-10.8c10.3-4.1,21-5.4,32-5.2c0.2,0,0.5,0,0.7,0.1c0.1,0,0.3,0.1,0.5,0.3
		c0,6.8,0,13.7,0,20.7c-0.7,0.7-1.7,0.4-2.6,0.4c-6,0.2-12.1,0.6-17.9,2.3c-2.1,0.6-4.1,1.4-5.8,2.7c-3.1,2.2-4,5.3-2.6,8.8
		c0.7,1.8,1.9,3.3,3.1,4.7c4.3,4.8,9.4,8.8,14,13.2c3.8,3.7,7.4,7.7,9.5,12.7c1.8,4.2,2.3,8.6,1.4,13.1c-0.5,2.8-2.2,4.9-4.1,6.8
		c-3.5,3.5-7.6,6-11.9,8.3c-10.3,5.4-21.2,9.3-32.3,12.6C19,118.4,15.4,119.5,11.4,120.3z"/>
	<path class="st0" d="M174.9,11.4c4.1-1.4,8.3-1.2,12.4-0.2c1.9,0.4,2.3,1.1,2.3,3.3c0,9.4,0,18.9,0,28.3c0,0.8,0,1.6,0,2.4
		c1.1-0.1,1.6-1,2.2-1.5c5.4-4.7,11.7-6.9,18.9-6.1c9,0.9,14.7,6.2,18,14.3c3,7.6,3.4,15.6,2.8,23.7c-0.5,5.8-1.9,11.2-4.6,16.4
		c-7.6,14.2-25.9,14.5-34.6,6.6c-1.6-1.4-3.1-2.9-5-4.8c0,2.2,0,3.9,0,5.7c0,1.2-0.4,2.3-1.6,2.6c-3.9,0.8-7.8,1.3-11.6-0.5
		c0-0.8-0.1-1.6-0.1-2.4c0-27.9,0-55.9,0-83.8c0-1,0-1.9,0-3v-0.5C174.2,11.7,174.3,11.6,174.9,11.4z M214.7,70.3
		c-0.1-4.1-0.4-8.3-2.1-12.1c-3.1-6.8-9.8-8.7-16-4.4c-2.5,1.7-4.5,4-6.4,6.4c-0.4,0.5-0.6,1.1-0.6,1.8c0,5.8,0,11.6,0,17.4
		c0,0.6,0.1,1.2,0.5,1.8c2.1,2.5,4.2,5,7,6.8c5,3.2,10.6,2,14-2.9c1.1-1.6,1.9-3.3,2.4-5.2C214.4,76.7,214.7,73.5,214.7,70.3z"/>
	<path class="st0" d="M253.1,75.6c-0.1,3.6,0.4,6.8,2,9.7c2.6,4.8,7.1,6.3,12.2,6.6c6,0.3,11.9-0.8,17.5-2.9c1.1-0.4,2.2-0.9,3.4-1
		c1.2-0.1,2,0.4,2.2,1.6c0.5,2.8,0.4,5.5-0.1,8.3c-0.3,1.5-1.3,2.2-2.6,2.8c-3.5,1.5-7.1,2.3-10.8,2.9c-6.4,1-12.8,1.2-19.2-0.2
		c-10.8-2.2-17.6-8.7-20.1-19.5c-1.9-8.1-1.9-16.2,0.2-24.3c4-15.3,15.6-22.3,30.6-21.5c4,0.2,7.9,1,11.5,2.8
		c7.4,3.7,11.2,10,12.7,17.9c0.7,3.5,0.8,7.1,0.7,10.7c-0.1,4.3-1.7,5.9-6,5.9c-10.4,0-20.8,0-31.2,0
		C255.3,75.6,254.3,75.6,253.1,75.6z M277.5,64.8c0.1-2.6-0.1-4.9-0.9-7.2c-1.4-4.1-4.1-6.8-8.4-7.4c-4.5-0.7-8.6,0.2-11.6,3.9
		c-2.5,3.1-3.3,6.7-3.5,10.7C261.3,64.8,269.3,64.8,277.5,64.8z"/>
	<path class="st1" d="M255.4,0.1c4.5,0,9.1,0,13.6,0c3.8,0,5.1,1.3,5.1,5.2c0,8.3,0,16.5,0,24.8c0,3.7-1.3,5-5,5
		c-9.1,0-18.1,0-27.2,0c-3.6,0-5-1.4-5-5.1c0-8.3,0-16.7,0-25c0-3.5,1.5-4.9,4.9-4.9C246.4,0.1,250.9,0.1,255.4,0.1z"/>
	<path class="st2" d="M119.9,17.4c0-4.2,0-8.4,0-12.6c0-3.2,1.4-4.6,4.7-4.6c7.6,0,15.2,0,22.9,0c3.5,0,4.9,1.4,4.9,5
		c0,8.4,0,16.8,0,25.3c0,3.2-1.4,4.7-4.6,4.7c-7.7,0-15.4,0-23.1,0c-3.4,0-4.7-1.4-4.7-4.9C119.9,25.9,120,21.6,119.9,17.4
		C120,17.4,119.9,17.4,119.9,17.4z"/>
	<path class="st3" d="M300,17.6c0,4.2,0,8.4,0,12.6c0,3.4-1.3,4.8-4.7,4.9c-4.4,0.1-8.9,0.1-13.3,0c-3.3,0-4.8-1.6-4.8-4.9
		c0-8.6,0-17.1,0-25.7c0-2.8,1.6-4.4,4.4-4.5c4.7-0.1,9.4,0,14,0c2.9,0,4.3,1.5,4.3,4.5C300,8.9,300,13.2,300,17.6
		C300,17.6,300,17.6,300,17.6z"/>
	<path class="st3" d="M117.6,17.5c0,4.1,0,8.3,0,12.4c0,3.8-1.4,5.2-5.1,5.2c-4,0-8.1,0-12.1,0c-3.3,0-4.8-1.5-4.8-4.8
		c0-8.5,0-17,0-25.5c0-3.3,1.6-4.7,4.9-4.8c4.1,0,8.3,0,12.4,0c3.3,0,4.8,1.5,4.8,4.8C117.6,9.1,117.6,13.3,117.6,17.5
		C117.6,17.5,117.6,17.5,117.6,17.5z"/>
	<path class="st2" d="M192.9,17.6c0-4.3,0-8.6,0-12.9c0-3.2,1.4-4.6,4.6-4.7c4.3,0,8.6,0,12.8,0c3.2,0,4.7,1.5,4.7,4.6
		c0,8.6,0,17.1,0,25.7c0,3.2-1.4,4.6-4.7,4.7c-4.2,0-8.4,0-12.6,0c-3.6,0-4.9-1.3-4.9-4.9C192.9,26,192.9,21.8,192.9,17.6
		C192.9,17.6,192.9,17.6,192.9,17.6z"/>
	<path class="st4" d="M234.2,17.7c0,4.2,0,8.4,0,12.6c0,3.3-1.2,4.7-4.5,4.8c-2.5,0.1-5.1,0.1-7.6,0c-2.6-0.1-4.1-1.6-4.1-4.3
		c-0.1-8.8-0.1-17.6,0-26.4c0-2.7,1.6-4.3,4.3-4.4c2.5-0.1,5.1-0.1,7.6,0c2.9,0.1,4.3,1.6,4.4,4.5C234.2,8.9,234.2,13.3,234.2,17.7z
		"/>
	<path class="st5" d="M93,21.1c0,3.1,0,6.2,0,9.3c0,3.2-1.3,4.4-4.5,4.4c-3.6,0-7.1,0-10.7,0c-2.8,0-4.2-1.4-4.3-4.2
		c-0.1-3.6,0-7.3,0-10.9c0-2.7,0-5.4,0-8.1c0-2.8,1.5-4.3,4.2-4.3c3.6-0.1,7.3-0.1,10.9,0c3,0,4.3,1.4,4.3,4.4
		C93.1,14.8,93,17.9,93,21.1C93,21.1,93,21.1,93,21.1z"/>
	<path class="st3" d="M154.8,17.6c0-4.3,0-8.6,0-12.9c0-3.1,1.4-4.5,4.4-4.6c2.1-0.1,4.3-0.1,6.4,0c3,0.1,4.4,1.7,4.4,4.7
		c0,8.6,0,17.1,0,25.7c0,3-1.5,4.5-4.5,4.6c-2.1,0.1-4.1,0-6.2,0c-2.9,0-4.8-1.6-4.7-4.7C154.9,26.1,154.8,21.8,154.8,17.6z"/>
	<path class="st5" d="M9.5,119.1c0-0.2,0-0.3,0-0.5c0.2-5.7,0.2-11.4,0-17.2c0.1-0.8,0.1-1.6-0.1-2.3c-0.6-1.7-1.8-2.5-3.5-2.5
		c-2,0-3.9,0-5.9,0.1c0,8.7,0,17.5,0,26.2c2,0,3.9,0.1,5.9,0.1c1.7,0,3-0.7,3.5-2.5c0.1-0.1,0.1-0.3,0.1-0.4
		C9.6,119.8,9.6,119.5,9.5,119.1z"/>
</g>
<g>
	<path class="st6" d="M52.8,117.3c0.6,0.3,1.4,0.6,2.3,0.6c1.1,0,1.7-0.5,1.7-1.3c0-0.7-0.5-1.1-1.7-1.5c-1.5-0.6-2.5-1.4-2.5-2.7
		c0-1.5,1.3-2.7,3.3-2.7c1,0,1.8,0.2,2.2,0.5l-0.4,1.4c-0.3-0.2-1-0.4-1.9-0.4c-1.1,0-1.5,0.6-1.5,1.1c0,0.7,0.5,1.1,1.8,1.5
		c1.6,0.6,2.4,1.4,2.4,2.8c0,1.5-1.1,2.8-3.5,2.8c-1,0-2-0.3-2.5-0.6L52.8,117.3z"/>
	<path class="st6" d="M66.4,115.7c0,2.5-1.7,3.6-3.5,3.6c-1.9,0-3.4-1.3-3.4-3.5c0-2.2,1.5-3.6,3.5-3.6
		C65.1,112.3,66.4,113.7,66.4,115.7z M61.3,115.8c0,1.3,0.6,2.3,1.7,2.3c1,0,1.6-1,1.6-2.3c0-1.1-0.5-2.3-1.6-2.3
		C61.8,113.5,61.3,114.7,61.3,115.8z"/>
	<path class="st6" d="M72.8,119c-0.4,0.2-1.1,0.3-1.9,0.3c-2.1,0-3.5-1.3-3.5-3.4c0-2,1.4-3.6,3.7-3.6c0.6,0,1.3,0.1,1.6,0.3
		l-0.3,1.3c-0.3-0.1-0.7-0.3-1.3-0.3c-1.3,0-2.1,1-2.1,2.2c0,1.4,0.9,2.2,2.1,2.2c0.6,0,1-0.1,1.3-0.3L72.8,119z"/>
	<path class="st6" d="M75.8,110.6c0,0.5-0.4,0.9-1,0.9c-0.6,0-0.9-0.4-0.9-0.9c0-0.5,0.4-0.9,1-0.9C75.5,109.6,75.8,110,75.8,110.6z
		 M74,119.2v-6.7h1.7v6.7H74z"/>
	<path class="st6" d="M78.8,116.3c0,1.2,1,1.7,2.1,1.7c0.8,0,1.4-0.1,1.9-0.3l0.2,1.2c-0.6,0.2-1.4,0.4-2.4,0.4
		c-2.2,0-3.5-1.3-3.5-3.4c0-1.9,1.1-3.6,3.3-3.6c2.2,0,2.9,1.8,2.9,3.3c0,0.3,0,0.6-0.1,0.7H78.8z M81.7,115.1
		c0-0.6-0.3-1.6-1.4-1.6c-1.1,0-1.5,1-1.6,1.6H81.7z"/>
	<path class="st6" d="M86.6,110.5v1.9h1.6v1.3h-1.6v3c0,0.8,0.2,1.2,0.9,1.2c0.3,0,0.5,0,0.7-0.1l0,1.3c-0.2,0.1-0.7,0.2-1.2,0.2
		c-0.6,0-1.1-0.2-1.5-0.6c-0.4-0.4-0.5-1-0.5-1.9v-3.2h-1v-1.3h1v-1.5L86.6,110.5z"/>
	<path class="st6" d="M90.7,112.4l1.2,3.6c0.1,0.4,0.3,0.9,0.4,1.3h0c0.1-0.4,0.2-0.9,0.4-1.3l1.1-3.6h1.8l-1.7,4.6
		c-0.9,2.5-1.5,3.6-2.4,4.3c-0.7,0.6-1.4,0.8-1.8,0.9l-0.4-1.4c0.3-0.1,0.6-0.2,1-0.5c0.3-0.2,0.7-0.6,0.9-1.1
		c0.1-0.1,0.1-0.2,0.1-0.3c0-0.1,0-0.2-0.1-0.3l-2.5-6.2H90.7z"/>
	<path class="st6" d="M99.6,119.2v-5.5h-0.9v-1.3h0.9v-0.3c0-0.9,0.2-1.7,0.8-2.3c0.5-0.5,1.2-0.6,1.8-0.6c0.5,0,0.8,0.1,1.1,0.2
		l-0.1,1.3c-0.2-0.1-0.4-0.1-0.7-0.1c-0.8,0-1.1,0.7-1.1,1.5v0.3h1.5v1.3h-1.5v5.5H99.6z"/>
	<path class="st6" d="M110.1,115.7c0,2.5-1.7,3.6-3.5,3.6c-1.9,0-3.4-1.3-3.4-3.5c0-2.2,1.5-3.6,3.5-3.6
		C108.7,112.3,110.1,113.7,110.1,115.7z M105,115.8c0,1.3,0.6,2.3,1.7,2.3c1,0,1.6-1,1.6-2.3c0-1.1-0.5-2.3-1.6-2.3
		C105.5,113.5,105,114.7,105,115.8z"/>
	<path class="st6" d="M111.5,114.6c0-0.9,0-1.6-0.1-2.2h1.5l0.1,1.3h0.1c0.3-1,1.1-1.4,1.8-1.4c0.2,0,0.3,0,0.4,0v1.6
		c-0.1,0-0.3-0.1-0.5-0.1c-0.8,0-1.4,0.5-1.5,1.3c0,0.2-0.1,0.3-0.1,0.5v3.5h-1.7V114.6z"/>
	<path class="st6" d="M127.2,115.4c-0.1-1.2-0.1-2.7-0.1-3.9h0c-0.3,1.1-0.7,2.4-1.1,3.6l-1.4,4h-1.3l-1.2-4
		c-0.4-1.2-0.7-2.5-0.9-3.6h0c0,1.2-0.1,2.7-0.2,4l-0.2,3.7h-1.6l0.6-9.3h2.2l1.2,3.7c0.3,1.1,0.6,2.2,0.9,3.2h0
		c0.2-1,0.6-2.2,0.9-3.2l1.3-3.7h2.2l0.5,9.3h-1.7L127.2,115.4z"/>
	<path class="st6" d="M137.2,115.7c0,2.5-1.7,3.6-3.5,3.6c-1.9,0-3.4-1.3-3.4-3.5c0-2.2,1.5-3.6,3.5-3.6
		C135.8,112.3,137.2,113.7,137.2,115.7z M132.1,115.8c0,1.3,0.6,2.3,1.7,2.3c1,0,1.6-1,1.6-2.3c0-1.1-0.5-2.3-1.6-2.3
		C132.6,113.5,132.1,114.7,132.1,115.8z"/>
	<path class="st6" d="M138.6,109.4h1.7v9.8h-1.7V109.4z"/>
	<path class="st6" d="M143.3,116.3c0,1.2,1,1.7,2.1,1.7c0.8,0,1.4-0.1,1.9-0.3l0.2,1.2c-0.6,0.2-1.4,0.4-2.4,0.4
		c-2.2,0-3.5-1.3-3.5-3.4c0-1.9,1.1-3.6,3.3-3.6c2.2,0,2.9,1.8,2.9,3.3c0,0.3,0,0.6-0.1,0.7H143.3z M146.3,115.1
		c0-0.6-0.3-1.6-1.4-1.6c-1.1,0-1.5,1-1.6,1.6H146.3z"/>
	<path class="st6" d="M154.2,119c-0.4,0.2-1.1,0.3-1.9,0.3c-2.1,0-3.5-1.3-3.5-3.4c0-2,1.4-3.6,3.7-3.6c0.6,0,1.3,0.1,1.6,0.3
		l-0.3,1.3c-0.3-0.1-0.7-0.3-1.3-0.3c-1.3,0-2.1,1-2.1,2.2c0,1.4,0.9,2.2,2.1,2.2c0.6,0,1-0.1,1.3-0.3L154.2,119z"/>
	<path class="st6" d="M161.5,117.2c0,0.8,0,1.5,0.1,2H160l-0.1-1h0c-0.3,0.5-1,1.2-2.2,1.2c-1.2,0-2.4-0.7-2.4-2.9v-4h1.7v3.7
		c0,1.1,0.4,1.8,1.3,1.8c0.7,0,1.1-0.5,1.3-0.9c0.1-0.2,0.1-0.3,0.1-0.5v-4.1h1.7V117.2z"/>
	<path class="st6" d="M163.3,109.4h1.7v9.8h-1.7V109.4z"/>
	<path class="st6" d="M170.7,119.2l-0.1-0.7h0c-0.4,0.5-1.1,0.9-2,0.9c-1.4,0-2.1-1-2.1-2c0-1.7,1.5-2.6,4-2.5v-0.1
		c0-0.4-0.2-1.2-1.4-1.2c-0.7,0-1.4,0.2-1.8,0.5l-0.3-1.1c0.5-0.3,1.4-0.6,2.4-0.6c2.2,0,2.8,1.4,2.8,2.8v2.4c0,0.6,0,1.2,0.1,1.6
		H170.7z M170.4,115.9c-1.2,0-2.4,0.2-2.4,1.3c0,0.7,0.4,1,1,1c0.7,0,1.2-0.4,1.3-0.9c0-0.1,0.1-0.3,0.1-0.4V115.9z"/>
	<path class="st6" d="M173.9,114.6c0-0.9,0-1.6-0.1-2.2h1.5l0.1,1.3h0.1c0.3-1,1.1-1.4,1.8-1.4c0.2,0,0.3,0,0.4,0v1.6
		c-0.1,0-0.3-0.1-0.5-0.1c-0.8,0-1.4,0.5-1.5,1.3c0,0.2-0.1,0.3-0.1,0.5v3.5h-1.7V114.6z"/>
	<path class="st6" d="M181.7,110c0.5-0.1,1.5-0.2,2.5-0.2c1.3,0,2,0.2,2.7,0.6c0.6,0.3,1,1,1,1.7c0,0.9-0.5,1.6-1.5,2v0
		c1,0.2,1.9,1,1.9,2.3c0,0.8-0.4,1.5-0.9,1.9c-0.7,0.6-1.8,0.9-3.5,0.9c-0.9,0-1.7-0.1-2.1-0.1V110z M183.4,113.7h0.9
		c1.2,0,1.8-0.6,1.8-1.3c0-0.9-0.7-1.3-1.7-1.3c-0.5,0-0.8,0-1,0.1V113.7z M183.4,117.9c0.2,0,0.5,0,0.9,0c1.1,0,2.1-0.4,2.1-1.6
		c0-1.1-0.9-1.5-2.1-1.5h-0.8V117.9z"/>
	<path class="st6" d="M191.4,110.6c0,0.5-0.4,0.9-1,0.9c-0.6,0-0.9-0.4-0.9-0.9c0-0.5,0.4-0.9,1-0.9
		C191.1,109.6,191.4,110,191.4,110.6z M189.6,119.2v-6.7h1.7v6.7H189.6z"/>
	<path class="st6" d="M199.6,115.7c0,2.5-1.7,3.6-3.5,3.6c-1.9,0-3.4-1.3-3.4-3.5c0-2.2,1.5-3.6,3.5-3.6
		C198.2,112.3,199.6,113.7,199.6,115.7z M194.5,115.8c0,1.3,0.6,2.3,1.7,2.3c1,0,1.6-1,1.6-2.3c0-1.1-0.5-2.3-1.6-2.3
		C195,113.5,194.5,114.7,194.5,115.8z"/>
	<path class="st6" d="M201,109.4h1.7v9.8H201V109.4z"/>
	<path class="st6" d="M210.9,115.7c0,2.5-1.7,3.6-3.5,3.6c-1.9,0-3.4-1.3-3.4-3.5c0-2.2,1.5-3.6,3.5-3.6
		C209.6,112.3,210.9,113.7,210.9,115.7z M205.8,115.8c0,1.3,0.6,2.3,1.7,2.3c1,0,1.6-1,1.6-2.3c0-1.1-0.5-2.3-1.6-2.3
		C206.3,113.5,205.8,114.7,205.8,115.8z"/>
	<path class="st6" d="M218.5,112.4c0,0.5-0.1,1-0.1,1.9v3.8c0,1.4-0.3,2.4-1,3.1c-0.7,0.6-1.7,0.8-2.6,0.8c-0.9,0-1.8-0.2-2.4-0.5
		l0.4-1.3c0.4,0.2,1.1,0.5,2,0.5c1.1,0,1.9-0.6,1.9-2v-0.6h0c-0.4,0.6-1.1,1-2,1c-1.7,0-2.9-1.4-2.9-3.3c0-2.2,1.4-3.6,3.1-3.6
		c1,0,1.6,0.5,1.9,1.1h0l0.1-0.9H218.5z M216.7,115.1c0-0.2,0-0.3-0.1-0.5c-0.2-0.6-0.7-1.1-1.4-1.1c-1,0-1.7,0.8-1.7,2.2
		c0,1.1,0.6,2.1,1.6,2.1c0.6,0,1.2-0.4,1.4-1c0-0.2,0.1-0.4,0.1-0.6V115.1z"/>
	<path class="st6" d="M221.3,112.4l1.2,3.6c0.1,0.4,0.3,0.9,0.4,1.3h0c0.1-0.4,0.2-0.9,0.4-1.3l1.1-3.6h1.8l-1.7,4.6
		c-0.9,2.5-1.5,3.6-2.4,4.3c-0.7,0.6-1.4,0.8-1.8,0.9l-0.4-1.4c0.3-0.1,0.6-0.2,1-0.5c0.3-0.2,0.7-0.6,0.9-1.1
		c0.1-0.1,0.1-0.2,0.1-0.3c0-0.1,0-0.2-0.1-0.3l-2.5-6.2H221.3z"/>
	<path class="st6" d="M236,119.2c-0.2-0.2-0.5-0.5-0.7-0.8c-0.7,0.6-1.6,0.9-2.6,0.9c-2.1,0-3.1-1.3-3.1-2.6c0-1.2,0.7-2.1,1.8-2.7
		v0c-0.4-0.5-0.7-1.2-0.7-1.9c0-1.2,0.9-2.4,2.6-2.4c1.3,0,2.3,0.8,2.3,2.1c0,1-0.6,1.8-1.9,2.4l0,0.1c0.6,0.7,1.4,1.6,1.9,2.1
		c0.4-0.6,0.7-1.5,0.8-2.5h1.5c-0.2,1.4-0.7,2.6-1.5,3.5c0.5,0.6,1,1.1,1.6,1.7H236z M234.4,117.4c-0.6-0.6-1.5-1.6-2.3-2.6
		c-0.4,0.3-1,0.8-1,1.6c0,0.9,0.7,1.6,1.7,1.6C233.5,118.1,234.1,117.8,234.4,117.4z M232.1,111.9c0,0.6,0.3,1,0.7,1.5
		c0.8-0.5,1.2-0.9,1.2-1.6c0-0.5-0.3-1.1-0.9-1.1S232.1,111.3,232.1,111.9z"/>
	<path class="st6" d="M247.1,115h-3.5v2.7h3.9v1.4h-5.6v-9.3h5.4v1.4h-3.7v2.4h3.5V115z"/>
	<path class="st6" d="M249.8,112.4l1.1,3.4c0.2,0.6,0.3,1.1,0.5,1.7h0c0.1-0.6,0.3-1.1,0.5-1.7l1.1-3.4h1.8l-2.6,6.7h-1.7l-2.5-6.7
		H249.8z"/>
	<path class="st6" d="M262,115.7c0,2.5-1.7,3.6-3.5,3.6c-1.9,0-3.4-1.3-3.4-3.5c0-2.2,1.5-3.6,3.5-3.6
		C260.7,112.3,262,113.7,262,115.7z M256.9,115.8c0,1.3,0.6,2.3,1.7,2.3c1,0,1.6-1,1.6-2.3c0-1.1-0.5-2.3-1.6-2.3
		C257.4,113.5,256.9,114.7,256.9,115.8z"/>
	<path class="st6" d="M263.4,109.4h1.7v9.8h-1.7V109.4z"/>
	<path class="st6" d="M273,117.2c0,0.8,0,1.5,0.1,2h-1.5l-0.1-1h0c-0.3,0.5-1,1.2-2.2,1.2c-1.2,0-2.4-0.7-2.4-2.9v-4h1.7v3.7
		c0,1.1,0.4,1.8,1.3,1.8c0.7,0,1.1-0.5,1.3-0.9c0.1-0.2,0.1-0.3,0.1-0.5v-4.1h1.7V117.2z"/>
	<path class="st6" d="M276.8,110.5v1.9h1.6v1.3h-1.6v3c0,0.8,0.2,1.2,0.9,1.2c0.3,0,0.5,0,0.7-0.1l0,1.3c-0.2,0.1-0.7,0.2-1.2,0.2
		c-0.6,0-1.1-0.2-1.5-0.6c-0.4-0.4-0.5-1-0.5-1.9v-3.2h-1v-1.3h1v-1.5L276.8,110.5z"/>
	<path class="st6" d="M281.5,110.6c0,0.5-0.4,0.9-1,0.9c-0.6,0-0.9-0.4-0.9-0.9c0-0.5,0.4-0.9,1-0.9
		C281.1,109.6,281.5,110,281.5,110.6z M279.7,119.2v-6.7h1.7v6.7H279.7z"/>
	<path class="st6" d="M289.6,115.7c0,2.5-1.7,3.6-3.5,3.6c-1.9,0-3.4-1.3-3.4-3.5c0-2.2,1.5-3.6,3.5-3.6
		C288.3,112.3,289.6,113.7,289.6,115.7z M284.5,115.8c0,1.3,0.6,2.3,1.7,2.3c1,0,1.6-1,1.6-2.3c0-1.1-0.5-2.3-1.6-2.3
		C285,113.5,284.5,114.7,284.5,115.8z"/>
	<path class="st6" d="M291,114.4c0-0.8,0-1.4-0.1-2h1.5l0.1,1h0c0.3-0.5,1-1.2,2.1-1.2c1.2,0,2.4,0.8,2.4,2.9v4h-1.7v-3.8
		c0-1-0.4-1.7-1.3-1.7c-0.7,0-1.1,0.5-1.3,1c-0.1,0.2-0.1,0.4-0.1,0.6v4H291V114.4z"/>
</g>
</svg>
