<?xml version="1.0" encoding="iso-8859-1"?>
<!-- Generator: Adobe Illustrator 19.1.0, SVG Export Plug-In . SVG Version: 6.00 Build 0)  -->
<svg version="1.1" id="Layer_1" xmlns="http://www.w3.org/2000/svg" xmlns:xlink="http://www.w3.org/1999/xlink" x="0px" y="0px"
	 viewBox="0 0 300 71.791" style="enable-background:new 0 0 300 71.791;" xml:space="preserve">
<path style="fill:#316FB6;" d="M62.436,10.596V9.41H58.61V5.776c0-3.213,1.798-4.284,3.825-4.476V0
	c-3.978,0-5.891,2.601-5.891,6.121v3.29h-2.41v1.224h2.41v19.395h2.066V10.596H62.436z M67.906,30.029V9.41H65.84v20.619H67.906z
	 M68.174,3.634c0-0.727-0.574-1.301-1.301-1.301s-1.301,0.574-1.301,1.301s0.574,1.301,1.301,1.301S68.174,4.361,68.174,3.634z
	 M49.504,17.635l-11.247,1.721c0-6.274,2.563-8.798,5.853-8.798C47.438,10.558,49.504,12.471,49.504,17.635z M51.531,18.668
	c0-6.847-2.946-9.64-7.383-9.64c-4.323,0-7.804,3.366-7.804,10.635c0,7.727,3.864,10.749,8.837,10.749
	c2.448,0,4.514-0.65,5.623-1.339l-0.65-1.492c-1.033,0.612-2.64,1.224-4.935,1.224c-4.093,0-6.618-2.716-6.924-8.186L51.531,18.668z
	 M32.174,30.029V9.41h-2.066v20.619H32.174z M32.519,3.634c0-0.765-0.612-1.377-1.377-1.377s-1.377,0.612-1.377,1.377
	s0.612,1.377,1.377,1.377S32.519,4.399,32.519,3.634z M27.162,9.028c-4.514,0-5.891,0.497-7.765,1.454v19.548h2.066V11.4
	c1.148-0.842,3.29-1.071,5.088-0.574L27.162,9.028z M13.351,23.182c0,4.246-3.175,5.738-6.962,5.738
	c-1.836,0-3.137-0.268-4.361-0.727V16.679h2.027C10.52,16.679,13.351,18.591,13.351,23.182z M12.356,9.908
	c0,3.711-2.18,5.623-8.301,5.623H2.027V5.317c1.262-0.459,2.525-0.65,4.093-0.65C10.099,4.667,12.356,6.388,12.356,9.908z
	 M15.569,22.991c0-4.208-3.94-6.58-6.465-6.924V15.99c2.525-0.459,5.356-2.372,5.356-6.274c0-3.787-3.022-6.388-8.225-6.388
	C3.634,3.328,1.301,3.94,0,4.743v24.253c1.53,0.88,3.902,1.415,6.58,1.415C11.476,30.412,15.569,28.308,15.569,22.991z"/>
<path style="fill:#316FB6;" d="M153.948,30.029v-15.11c0-2.525-1.377-5.891-6.694-5.891c-3.099,0-5.241,0.536-6.962,1.454v19.548
	h2.066V11.285c1.262-0.536,2.295-0.842,4.59-0.842c4.093,0,4.935,2.448,4.935,4.59v14.995H153.948z M135.279,30.029V9.41h-2.066
	v20.619H135.279z M135.623,3.634c0-0.765-0.612-1.377-1.377-1.377s-1.377,0.612-1.377,1.377s0.612,1.377,1.377,1.377
	S135.623,4.399,135.623,3.634z M119.554,24.521c0-2.41-0.995-4.629-5.049-6.082c-2.18-0.803-3.825-1.836-3.825-4.131
	c0-2.066,1.377-3.825,3.978-3.825c1.721,0,2.984,0.765,3.596,1.224l0.612-1.339c-0.803-0.65-2.448-1.377-4.323-1.377
	c-3.519,0-5.776,2.486-5.776,5.317c0,2.104,0.765,4.284,4.896,5.776c2.486,0.918,3.825,1.951,3.825,4.437
	c0,2.372-1.798,4.208-4.476,4.208c-1.989,0-3.481-0.612-4.208-1.224l-0.612,1.454c1.071,0.803,2.831,1.377,4.935,1.377
	C116.953,30.335,119.554,27.39,119.554,24.521z M102.759,28.002c-0.918,0.574-2.295,0.995-3.825,0.995
	c-4.437,0-6.388-3.366-6.388-8.951c0-5.738,2.027-9.716,6.733-9.716c1.377,0,2.601,0.191,3.481,0.689V28.002z M104.748,30.603
	V10.405c-1.033-0.689-2.831-1.377-5.509-1.377c-5.776,0-8.76,4.59-8.76,11.017c0,6.312,2.984,10.29,7.919,10.29
	c1.836,0,3.405-0.421,4.361-1.033v1.607c0,3.481-1.607,6.159-5.662,6.159c-1.836,0-3.596-0.612-4.629-1.224l-0.803,1.454
	c1.262,0.803,3.213,1.339,5.738,1.339C102.147,38.636,104.748,35.461,104.748,30.603z M86.576,30.029v-15.11
	c0-2.525-1.377-5.891-6.694-5.891c-3.099,0-5.241,0.536-6.962,1.454v19.548h2.066V11.285c1.262-0.536,2.295-0.842,4.59-0.842
	c4.093,0,4.935,2.448,4.935,4.59v14.995H86.576z"/>
<path style="fill:#4487C7;" d="M300,63.212c0-3.161-1.204-5.719-6.422-7.927c-2.107-0.903-3.462-1.906-3.462-3.713
	c0-1.555,1.054-2.809,3.111-2.809c1.756,0,3.311,0.753,4.114,1.405l1.906-4.465c-2.107-1.304-4.415-1.957-7.776-1.957
	c-5.418,0-9.03,3.713-9.03,8.328c0,2.809,1.104,5.569,6.071,7.525c2.508,1.003,3.462,2.007,3.462,3.813
	c0,1.706-1.355,2.96-3.361,2.96c-1.957,0-3.813-0.753-4.816-1.555l-2.007,4.967c1.656,1.104,4.616,1.957,7.927,1.957
	C296.137,71.741,300,67.928,300,63.212z M280.635,69.834l-1.656-4.716c-0.803,0.702-1.806,1.104-3.261,1.104
	c-3.11,0-4.967-3.161-4.967-8.629c0-5.519,1.605-8.629,5.017-8.629c1.555,0,2.508,0.502,3.211,1.054l1.605-4.315
	c-1.204-1.003-3.311-1.957-6.622-1.957c-6.02,0-11.087,4.816-11.087,13.947c0,9.081,4.716,14.098,11.138,14.098
	C277.424,71.791,279.481,70.938,280.635,69.834z M259.262,71.289V44.248h-7.826v27.041H259.262z M259.513,36.471
	c0-2.007-1.856-3.662-4.164-3.662c-2.308,0-4.164,1.656-4.164,3.662c0,2.057,1.856,3.662,4.164,3.662
	C257.657,40.134,259.513,38.528,259.513,36.471z M248.125,70.938v-4.816c-0.652,0.201-1.003,0.301-1.656,0.301
	c-1.756,0-2.508-1.104-2.508-3.161V49.315h4.164v-5.067h-4.164v-7.776l-7.826,2.007v5.77h-2.96v5.067h2.96v14.549
	c0,4.164,2.458,7.826,8.127,7.826C246.068,71.69,247.472,71.239,248.125,70.938z M222.789,66.924
	c-0.702,0.351-1.706,0.552-2.86,0.552c-3.11,0-4.917-1.355-4.917-4.515c0-4.315,3.06-5.418,7.776-5.87V66.924z M230.114,69.784
	V53.629c0-7.325-4.515-9.883-10.636-9.883c-4.766,0-8.278,1.254-10.184,2.057l1.706,4.465c1.756-0.803,4.415-1.656,7.024-1.656
	c2.86,0,4.766,0.803,4.766,3.612v1.254c-8.127,0.753-15.101,2.809-15.101,9.783c0,5.619,4.014,8.529,11.84,8.529
	C224.194,71.791,227.856,70.988,230.114,69.784z M204.527,71.289V52.325c0-4.766-3.311-8.579-9.733-8.579
	c-4.465,0-7.224,1.254-8.93,2.709c-1.555-1.505-4.114-2.709-8.579-2.709c-4.716,0-7.927,0.652-10.937,2.007v25.536h7.826V49.164
	c0.953-0.351,1.756-0.502,3.161-0.502c2.709,0,4.214,1.405,4.214,3.562v19.064h7.826V49.967c0.903-0.903,2.057-1.304,3.411-1.304
	c2.709,0,3.913,1.605,3.913,3.662v18.964H204.527z M164.341,43.846c-7.275-0.351-11.489,0.452-14.499,1.906v25.536h7.826V49.215
	c1.304-0.602,3.311-0.652,5.218,0.15L164.341,43.846z M138.604,57.643c0,4.866-0.702,8.83-4.164,8.83
	c-3.411,0-4.164-3.963-4.164-8.83c0-4.816,0.702-9.03,4.164-9.03C137.902,48.612,138.604,52.827,138.604,57.643z M146.38,57.743
	c0-8.077-4.114-13.997-11.99-13.997c-7.776,0-11.89,5.92-11.89,13.997c0,8.077,4.114,14.047,11.94,14.047
	C142.267,71.791,146.38,65.821,146.38,57.743z M120.844,49.315v-5.067h-4.164v-3.412c0-3.111,1.555-4.014,4.164-3.913v-4.967
	c-7.325-0.803-11.991,2.759-11.991,9.532v2.759h-2.96v5.067h2.96v21.974h7.826V49.315H120.844z M102.833,71.289V52.325
	c0-4.917-3.06-8.579-11.639-8.579c-4.816,0-8.629,0.803-11.338,2.007v25.536h7.826V49.164c0.903-0.301,1.756-0.552,3.311-0.552
	c3.161,0,4.014,1.856,4.014,3.763v18.914H102.833z M75.29,71.289V44.248h-7.826v27.041H75.29z M75.541,36.471
	c0-2.007-1.856-3.662-4.164-3.662c-2.308,0-4.164,1.656-4.164,3.662c0,2.057,1.856,3.662,4.164,3.662
	C73.684,40.134,75.541,38.528,75.541,36.471z M56.075,57.643c0,4.866-0.702,8.83-4.164,8.83c-3.411,0-4.164-3.963-4.164-8.83
	c0-4.816,0.702-9.03,4.164-9.03C55.372,48.612,56.075,52.827,56.075,57.643z M63.851,57.743c0-8.077-4.114-13.997-11.99-13.997
	c-7.776,0-11.89,5.92-11.89,13.997c0,8.077,4.114,14.047,11.94,14.047C59.737,71.791,63.851,65.821,63.851,57.743z M36.358,71.289
	V44.248h-7.826v27.041H36.358z M36.609,36.471c0-2.007-1.856-3.662-4.164-3.662s-4.164,1.656-4.164,3.662
	c0,2.057,1.856,3.662,4.164,3.662S36.609,38.528,36.609,36.471z M16.892,61.456c0,3.963-2.207,5.468-5.97,5.468
	c-1.355,0-2.308-0.201-3.111-0.502V55.335h1.605C14.985,55.335,16.892,57.342,16.892,61.456z M16.239,46.004
	c0,3.763-1.706,5.418-6.823,5.418H7.811V41.238c0.903-0.301,1.756-0.401,2.96-0.401C14.483,40.836,16.239,42.492,16.239,46.004z
	 M25.019,61.757c0-4.766-4.064-7.776-7.174-8.579v-0.1c2.759-0.702,6.171-3.111,6.171-7.626c0-5.167-4.214-9.181-13.295-9.181
	c-4.515,0-8.328,0.803-10.636,2.007v31.506c2.559,1.304,6.271,2.007,11.037,2.007C19.701,71.791,25.019,68.63,25.019,61.757z"/>
</svg>
