<svg xmlns="http://www.w3.org/2000/svg" width="182.2" height="25" enable-background="new 0 0 182.2 25"><style>.st0{fill:#FFFFFF;}</style><path class="st0" d="M100.1 7.7c-1.9 0-3.3.9-4.2 2.8-.7-1.8-2-2.8-3.9-2.8-1.6 0-3 .7-4.1 2.4h-.1V8h-4.3v13.8h4.3V13c.8-1.4 1.5-2 2.4-2 1.1 0 1.6 1 1.6 2.8v8.1h4.3v-9c.7-1.3 1.6-1.9 2.5-1.9 1.3 0 1.5 1.2 1.5 3.4v7.5h4.3v-9.2c.1-3.6-2.3-5-4.3-5zM111.7 7.7c-3.5 0-6.1 3.1-6.1 7.5 0 2.8 1.3 6.9 6.4 6.9 1.8 0 3.4-.4 5-1.4v-2.6c-1.4.8-2.4 1.1-3.6 1.1-2 0-3.3-1.3-3.5-3.7h7.5c.1-5.3-2.5-7.8-5.7-7.8zm-1.8 5.9c0-2.2.6-3.4 1.8-3.4 1.1 0 1.7 1.1 1.7 3.4h-3.5zM123.7 16.6v-5.9h4V8h-4V3.7h-.7l-5.5 6.5v.5h2v6.7c0 3.5 2.5 4.7 4.6 4.7 1.2 0 2.2-.3 3.9-1.2v-3.2c-1.2.7-1.9 1-2.6 1-1.3.1-1.7-.8-1.7-2.1zM137.4 7.7c-1.6 0-2.8.6-3.8 2.1h-.1V1.4h-4.3v20.5h4.3V13c.9-1.6 1.3-2.1 2.4-2.1 1.3 0 1.6.8 1.6 2.5v8.5h4.3v-9c.1-3.8-2.2-5.2-4.4-5.2zM149.7 7.5c-3.4 0-6.8 2.6-6.8 7.3 0 4.2 2.9 7.3 6.8 7.3 4 0 6.9-3 6.9-7.3-.1-4.5-3.3-7.3-6.9-7.3zm0 11.4c-1.5 0-2.3-1.3-2.3-4.1 0-2.7.7-4.1 2.3-4.1 1.6 0 2.2 1.4 2.2 4.1 0 2.8-.7 4.1-2.2 4.1zM166.4 9.3c-1.3-1.1-2.3-1.5-3.6-1.5-3.2 0-5.5 3-5.5 7.2 0 4.1 2.3 7.2 5.3 7.2 1.3 0 2.5-.5 3.7-1.6V22h4.3V1.4h-4.3v7.9zm0 8.1c-.7 1-1.4 1.4-2.3 1.4-1.4 0-2.3-1.4-2.3-3.9s.9-3.9 2.4-3.9c.8 0 1.3.3 2.2 1.1v5.3zM175.4 11.5c0-.6.6-1 1.7-1 .7 0 1.3.1 2 .3.7.2 1.5.6 2.5 1.1V9c-1.6-.9-3-1.3-4.5-1.3-3 0-5.1 1.8-5.1 4.4 0 4.3 6.3 4 6.3 5.8 0 .8-.7 1.2-1.6 1.2-1.3 0-2.7-.4-4.4-1.4V21c1.8.8 3.3 1.2 4.7 1.2 3 0 5.2-1.9 5.2-4.5 0-4.8-6.8-4.4-6.8-6.2zM79.3 0h.4v25h-.4zM63.4 9.9v-.2-.4-.4c0-.1-.1-.2-.1-.4 0-.1 0-.1-.1-.2 0 0-.2-.1-.3-.3l-.1-.1c-.1-.1-.3-.2-.5-.3-.1 0-.1 0-.2-.1-.2-.1-.4-.1-.6-.1-.5 0-1 .1-1.4.4-.3.2-.6.4-.8.6-.1.1-.2.1-.2.2l-.4.4-.2.2c-.1.1-.2.2-.2.3l-.2.2c-.1.1-.1.1-.2.1h-.2s-.1-.1-.1-.3V7.9v-.3c-.1-.2-.2-.3-.3-.3h-.1s-.1 0-.1.1c-.1.1-.3.2-.5.4 0 .1 0 .2-.1.2-.8.7-2.3 1.6-2.9 1.8h-.1c-.1 0-.2.1-.3.1-.1 0-.2.1-.3.1-.1 0-.1.1-.1.2v.1s.1.1.2.1h.5c.2 0 .3.1.4.1.1 0 .1 0 .2.1.2.1.3.2.3.4v.1c.1.1.1.3.1.5.1.6.1 1.6.1 3V18.5c0 .4 0 .7-.1.9v.2c0 .1-.1.3-.1.4v.1c-.2.4-.9.6-1.3.7H53c-.3.1-.7.1-.7.4 0 0 0 .1.1.1.1.1.2.1.4.1H58.5c.7 0 1.4.1 1.5.1.2 0 .7 0 .7-.2 0-.1 0-.1-.1-.2s-.3-.1-.6-.2c-.4-.1-1.8-.3-2.1-.8-.1-.1-.1-.2-.1-.4-.2-.8-.1-2.4-.1-4.3v-.9-.8-.4c0-.8.1-1.4.2-1.9.1-.4.2-.7.4-.9 0-.1.1-.1.2-.2l.2-.2c.1-.1.3-.2.6-.2.1 0 .3 0 .4.1.2.1.3.1.5.2.1.1.3.2.4.3.2.2.3.3.6.4.1.1.2.1.3.1.1 0 .3.1.4.1h.2c.1 0 .2 0 .3-.1l.6-.3.1-.1c.1-.1.2-.2.3-.4-.1 0-.1-.2 0-.3zM54.8 18.3v0zM15.6 21c-1.3-.4-1.3-.3-1.3-4.1v-1.5-.8-1-.7-.4-.8c0-.7-.2-1.5-.4-2.1-.1-.1-.1-.2-.2-.3 0-.1-.1-.1-.1-.2-.6-.7-1.4-1.3-2.6-1.5-.3 0-.6-.1-.9-.1-.5 0-1 .1-1.5.2-.3.1-.5.3-.8.4-.2.1-.4.3-.6.4-1 .7-1.5 1.4-1.8 1.4-.2 0-.2-.2-.2-.4V8v-.1-.3-.1l-.1-.1H5c-.2 0-.4.2-.5.2-.5.4-1 .8-1.5 1.1-.3.3-.6.5-.9.6-.5.3-1 .5-1.4.7H.6c-.1 0-.1.1-.1.1v.1c0 .2.3.2.8.3.1 0 .2 0 .3.1.2 0 .3.1.4.2v.1c.1.1.2.3.2.6V17.8c0 .9-.1 1.6-.1 2.1-.1.6-.4.8-.9.9-.1 0-.2 0-.2.1-.5.1-1 .2-1 .4v.1c0 .1.1.1.3.1h.2c.1 0 .7 0 1.4-.1H5.2c.6 0 1.3.1 1.4.1.3 0 .7 0 .7-.2 0-.1-.2-.2-.5-.3H6.5c-.1 0-.2-.1-.3-.1-.5-.2-.8-.4-.9-.9-.1-.3-.1-.6-.1-.9v-.7-.3-.6-.3V16v-.4-1-1c0-.3 0-.6.1-.9 0-.2 0-.4.1-.6.1-.5.2-.8.4-1.1.1-.2.2-.3.4-.5s.4-.3.6-.5c.1 0 .1-.1.2-.1 0-.3.1-.3.2-.4.3-.1.7-.2 1-.2H9c.2 0 .4.1.6.2.4.2.7.4 1.1.8.1.1.2.3.3.5V11.1c.1.4.2 1 .2 1.6v4c0 1.2 0 2-.1 2.6 0 .2 0 .3-.1.5 0 .2-.1.4-.1.5s-.1.2-.2.3c-.2.2-.4.3-.8.4h.1c-.1 0-.3.1-.4.1h-.2c-.1 0-.2.1-.3.1-.1 0-.1.1-.1.2v.1s.1 0 .1.1H9.7c.2 0 .8 0 1.4-.1H14.4c.6 0 1.1.1 1.3.1.4 0 .6 0 .6-.3.1-.2-.3-.3-.7-.3zM29.2 19.2s-.1.1-.2.1c0 0-.1.1-.2.1-.3.2-.7.6-1.3.6h-.3c-.1 0-.2-.1-.3-.1-.2-.2-.4-.4-.4-.7-.1-.2-.1-.4-.1-.7v-.4-.9-.5-.5-.6-.6-.6-.3-.9-.9-.6-.8-.9c0-.3 0-.6-.1-.8-.4-1.5-2-1.9-3.5-1.9h-.3c-1 0-1.8.2-2.6.5s-1.5.8-2.1 1.3l-.2.2c-.1.1-.2.2-.3.4 0 .1-.1.1-.1.2-.1.1-.2.2-.2.4-.1.1-.1.2-.2.4s-.2.3-.2.5c-.1.2-.1.4-.1.6 0 .5.4.7.7.7.6 0 1.3-.4 1.5-1 .1-.2.1-.4.2-.6.4-1.2 1.1-2.6 2.6-2.7h.7c.4 0 .8.1 1.1.4.1.1.2.3.3.5 0 .1.1.1.1.2V13c0 .2-.1.4-.2.6 0 .1-.1.1-.1.2s-.1.1-.2.2-.3.3-.6.4c-.2.1-.4.2-.7.3-.3.2-.7.3-1.1.6-1.6.8-3.5 1.7-4 3.5-.1.3-.1.5-.1.8v.2c0 .3.1.7.3 1.1 0 .1.1.1.1.2.2.3.5.6 1 .8.3.2.7.3 1.2.3 1.9 0 3.2-1.2 3.9-2.2l.1-.1c.1 0 .2.1.2.2.3 1 1.2 1.9 2.5 1.9.6 0 1.1-.2 1.6-.4.5-.3.9-.7 1.2-1.1.1-.2.2-.4.3-.5 0-.1.1-.2.1-.3.2-.4.2-.5 0-.5zm-6.1 0c-.1.2-.3.3-.4.5l-.4.4c-.2.1-.3.2-.5.2-.2.1-.4.1-.5.1-.7 0-1.7-.5-1.7-1.8 0-.9.5-1.7 1.2-2.4.4-.4.9-.7 1.3-1 .1 0 .1-.1.2-.1l.6-.3h.1c.1 0 .1-.1.2-.1H23.5c.1 0 .2.1.3.1.1.1.1.3.1.5-.2 1.6-.2 3.1-.8 3.9zM30.6 13.7v-.3.3z"/><path class="st0" d="M52.6 20.4c0-.2-.1-.3-.2-.3H51.5c-.4 0-.7 0-.9-.2l-.1-.1-.1-.1s-.1-.1-.1-.2v-.1c-.1-.5-.1-1.5-.1-2.8v-.3-1.1V14v-.6-1.1-1.1-1c0-.8.1-1.4.1-1.7 0-.4-.1-.6-.6-.6l-4.5.1c-.3 0-.4.1-.5.1v.2c0 .1 0 .1.1.2s.4.1.8.1h.4c.3 0 .6.1.8.3l.1.1c.2.2.3.9.4 2.2v5.1c0 .4 0 .8-.1 1.1 0 .2 0 .3-.1.4 0 .2-.1.4-.2.5-.1.2-.3.4-.5.6-.1.1-.2.2-.3.2-.6.4-1.3.6-2 .6-.4 0-.7 0-1-.1-.3-.1-.6-.2-.8-.3-.2-.1-.4-.3-.5-.5-.1-.1-.1-.2-.2-.3-.1-.1-.1-.2-.2-.4s-.1-.3-.1-.5v-.5-.6-1-1.4-1.2-1.3-.3-.3-.7-.7-.2V9v-.1-.5-.1c0-.7-.1-.8-.7-.8l-6.6.6c-.2 0-.4-.2-.4-.5v-.2c0-.5 0-1.2.1-1.7v-.2c0-.1 0-.2-.1-.3-.1-.1-.1-.1-.2-.1h-.1c-.1 0-.2.1-.3.3 0 .1-.1.1-.1.2-.7 1.1-2.3 2.4-3.4 3.1-.5.3-.7.4-.7.6 0 .1.1.2.2.2h1.2c.1 0 .2.1.3.1.2.2.2.4.2.7V16.8v-.1 1.8c0 .3 0 .5.1.8v.1c0 .2.1.4.1.6 0 .1 0 .1.1.2.2.5.5.9.9 1.2.4.3 1 .5 1.7.5 2.2 0 4.3-1.9 4.3-2.1 0-.1-.1-.2-.2-.2s-1.2.6-2.3.6c-.5 0-.9-.1-1.1-.3l-.3-.3c0-.1-.1-.1-.1-.2s-.1-.2-.1-.2v-.1c0-.1 0-.1-.1-.2v-.1-.2-.1-.2-.1-1.8-.7c0-3.2 0-4.7.1-5.8 0-.3 0-.4.1-.6 0-.1.1-.2.3-.2h2.1c2.5 0 2.5 0 2.5 1.3 0 .6-.1 5.8-.1 7.5 0 3.1 2.2 4.1 3.9 4.1.5 0 1-.1 1.4-.2.3-.1.6-.2.8-.3.3-.1.5-.3.7-.4.7-.4 1.1-.9 1.5-1.2.2-.1.3-.2.3-.2.1 0 .2.1.2.2v1.7c0 .2 0 .4.1.4l.1.1h.1c.1 0 .3-.1.4-.1h.1c.1 0 .1-.1.2-.1.2-.1.5-.2.8-.3.1 0 .2-.1.3-.1l1.2-.3c.7-.2 1.3-.3 1.6-.4h.1c0-.2.1-.3.1-.4zM66.4 12.7c.2-.2.4-.3.8-.3h2c.6 0 1.3 0 1.8.1.6 0 1.1 0 1.7.1h1.5c.9 0 1.3 0 1.3-.8 0-2.1-2-4.2-4.7-4.5h-.9c-.2 0-.5 0-.7.1-.5.1-.9.2-1.4.3-2.1.8-3.8 2.5-4.5 4.8-.1.4-.2.7-.3 1.1 0 .3-.1.5-.1.8V15.6c.1 1.1.4 2 .8 2.8.2.5.5.9.8 1.2.1.1.1.2.2.2.2.2.5.5.8.7.1.1.2.1.3.2.1.1.3.2.4.3.1.1.2.1.4.2.1.1.3.1.4.2.1 0 .3.1.4.1.6.2 1.3.3 2 .3 3.4 0 6-3.1 6-3.7 0-.1 0-.2-.2-.2 0 0-.1 0-.1.1-.2.2-.5.5-1 .9-.2.2-.5.4-.9.5-.6.3-1.3.4-2.1.4-.3 0-.7 0-1-.1-1.1-.2-2-.7-2.6-1.3-.2-.3-.4-.5-.6-.8-.2-.3-.3-.6-.4-1 0-.1-.1-.2-.1-.3-.1-.2-.1-.4-.1-.5 0-.1 0-.2-.1-.3 0-.2-.1-.4-.1-.6 0-.4-.1-.8-.1-1.2 0-.4 0-.7.1-.9.2.1.2 0 .3-.1zm.3-2.2C67 9.4 68.2 8 70.2 8c.3 0 .7 0 .9.1 1.1.3 1.5 1.2 1.6 1.7v.1c0 .6-.3 1-.9 1.3l-.9.3c-.2 0-.5.1-.7.1-.6.1-1.2.1-1.8.1h-1.1c-.3 0-.6-.1-.7-.2-.1-.1-.1-.2-.1-.3 0-.2.1-.4.2-.7z"/></svg>