<svg xmlns="http://www.w3.org/2000/svg" width="291.4" height="40" enable-background="new 0 0 291.4 40"><style>.st0{fill:#FFFFFF;}</style><path class="st0" d="M160.1 12.4c-3 0-5.2 1.5-6.8 4.5-1.1-2.9-3.3-4.5-6.2-4.5-2.6 0-4.7 1.2-6.6 3.8h-.1v-3.4h-6.9V35h6.9V20.8c1.3-2.2 2.4-3.3 3.9-3.3 1.7 0 2.6 1.7 2.6 4.4v13h6.9V20.6c1.2-2.1 2.5-3.1 4-3.1 2.2 0 2.4 1.9 2.4 5.4v12h6.9V20.2c.1-5.6-3.7-7.8-7-7.8zM178.7 12.4c-5.7 0-9.8 5-9.8 11.9 0 4.5 2 11.1 10.3 11.1 2.9 0 5.5-.7 8.1-2.2V29c-2.2 1.3-3.9 1.8-5.8 1.8-3.3 0-5.2-2.1-5.6-5.8h11.9c.1-8.7-4-12.6-9.1-12.6zm-2.8 9.4c0-3.5 1-5.5 2.8-5.5 1.8 0 2.7 1.8 2.7 5.5h-5.5zM197.8 26.6v-9.4h6.3v-4.4h-6.3V6h-1.2l-8.9 10.4v.9h3.2V28c0 5.7 3.9 7.5 7.3 7.5 2 0 3.6-.5 6.2-1.9v-5.1c-2 1.2-3.1 1.6-4.2 1.6-1.7 0-2.4-1.5-2.4-3.5zM219.9 12.4c-2.6 0-4.6 1-6.1 3.3h-.1V2.2h-6.9V35h6.9V20.8c1.4-2.6 2.2-3.4 3.8-3.4 2 0 2.6 1.3 2.6 4V35h6.9V20.5c0-6-3.6-8.1-7.1-8.1zM239.5 12c-5.5 0-10.9 4.2-10.9 11.7 0 6.7 4.6 11.6 10.9 11.6 6.4 0 11-4.9 11-11.6 0-7.3-5.2-11.7-11-11.7zm0 18.3c-2.4 0-3.6-2-3.6-6.6 0-4.3 1.2-6.6 3.6-6.6 2.5 0 3.6 2.3 3.6 6.6 0 4.5-1.1 6.6-3.6 6.6zM266.3 14.8c-2.2-1.8-3.7-2.4-5.8-2.4-5.1 0-8.7 4.7-8.7 11.5 0 6.6 3.6 11.5 8.5 11.5 2.2 0 3.9-.8 6-2.6V35h6.9V2.2h-6.9v12.6zm0 13.1c-1.2 1.6-2.3 2.3-3.7 2.3-2.3 0-3.6-2.3-3.6-6.3s1.4-6.3 3.8-6.3c1.3 0 2.2.5 3.5 1.8v8.5zM280.7 18.3c0-1 1-1.6 2.7-1.6 1.1 0 2.1.1 3.3.5 1.2.4 2.4.9 4 1.7v-4.6c-2.5-1.4-4.8-2-7.2-2-4.7 0-8.1 2.9-8.1 7 0 7 10 6.3 10 9.3 0 1.2-1.1 1.9-2.5 1.9-2.1 0-4.3-.7-7.1-2.3v5.1c2.9 1.3 5.2 1.9 7.5 1.9 4.8 0 8.2-3 8.2-7.2-.1-7.3-10.8-6.7-10.8-9.7zM126.8 0h.7v40h-.7zM101.4 15.9c0-.1.1-.2.1-.3 0-.2.1-.4.1-.6 0-.2 0-.4-.1-.6 0-.2-.1-.4-.2-.6 0-.1-.1-.2-.1-.3-.1-.3-.3-.5-.5-.7l-.2-.2c-.2-.2-.5-.3-.8-.5-.1 0-.2-.1-.3-.1-.3-.1-.6-.1-1-.1-.8 0-1.6.2-2.2.6-.5.3-.9.6-1.3.9-.1.1-.3.2-.4.4-.2.2-.4.5-.6.7l-.3.3c-.1.2-.3.3-.4.4l-.3.3c-.1.1-.2.2-.3.2h-.1l-.1-.1c-.1-.1-.1-.2-.1-.4v-2.5-.4c-.1-.3-.3-.4-.5-.4h-.2c-.1 0-.1 0-.2.1-.2.1-.4.3-.8.6-.1.1-.2.2-.3.2-1.3 1.2-3.7 2.5-4.6 2.9-.1 0-.1.1-.2.1-.2.1-.3.1-.4.2-.2.1-.3.1-.4.2s-.1.2-.1.3v.1c.1.1.2.1.3.1h.2c.2 0 .4 0 .6.1.2 0 .5.1.7.2.1 0 .2.1.3.1.2.1.4.4.6.7 0 .1 0 .1.1.2.1.2.1.5.2.8.1 1 .2 2.5.2 4.7v5.8-.1.5c0 .6-.1 1.1-.1 1.5 0 .1 0 .2-.1.3 0 .2-.1.4-.1.6 0 .1 0 .1-.1.2-.4.7-1.5 1-2 1.1-.1 0-.2 0-.2.1-.5.1-1.1.2-1.1.6 0 .1 0 .1.1.2s.4.1.6.2h2.6c.7 0 1.4-.1 2.1-.1h2.2c.7 0 1.5 0 2.2.1 1.2 0 2.2.1 2.4.1.4 0 1.1 0 1.1-.4 0-.1 0-.2-.1-.3-.2-.2-.5-.2-.9-.3-.7-.1-2.9-.5-3.4-1.3-.1-.1-.2-.3-.2-.6v-.1c-.2-1.3-.2-3.8-.2-6.9v-1.5-1.4-.6c0-1.2.1-2.2.3-3 .1-.7.3-1.1.6-1.4l.3-.3.3-.3c.2-.2.5-.4 1-.4.2 0 .4 0 .6.1.3.1.5.2.7.4.2.2.4.3.6.5.3.2.6.5.9.7.2.1.3.2.5.2.2.1.4.1.6.1h.3c.2 0 .4 0 .5-.1.3-.1.6-.3.9-.5l.2-.2c.2-.2.3-.4.5-.6-.1-.2-.1-.3 0-.5zM87.7 29.3v0zM25 33.5c-2.2-.6-2.2-.5-2.2-6.5v-2.4-1.3-1.5-1.1-.6-1.3c-.1-1.2-.3-2.5-.7-3.4-.1-.2-.2-.4-.3-.5-.1-.1-.1-.2-.2-.3-.9-1.2-2.2-2.1-4-2.4-.5-.1-1-.1-1.5-.1-.9 0-1.6.1-2.3.4-.5.1-.9.3-1.3.5s-.7.4-1.1.7C9.9 14.8 9.1 16 8.6 16c-.3 0-.4-.4-.4-.7v-2.4-.2c0-.2 0-.4-.1-.5 0 0 0-.1-.1-.1 0-.1-.1-.1-.2-.2h-.1c-.2 0-.6.2-.7.4-.8.6-1.5 1.2-2.2 1.8-.5.4-1 .7-1.5 1-.8.4-1.5.8-2.3 1 0-.1 0-.1-.1 0-.1 0-.1.1-.2.2v.2c0 .3.5.3 1.2.4.1 0 .3 0 .4.1.3 0 .6.1.7.2.1.1.2.1.2.2.1.2.2.5.3.9 0 .2 0 .4.1.6 0 .3 0 .7.1 1.1v8.5c0 1.5-.1 2.6-.2 3.4-.2 1-.6 1.2-1.4 1.4-.1 0-.2.1-.4.1-1 .3-1.7.3-1.7.8v.2c.1.1.2.1.4.2h.4c.2 0 1.2 0 2.3-.1.7 0 1.4-.1 1.9-.1h1.5c.5 0 1.2 0 1.8.1 1 0 2 .1 2.3.1.5 0 1.1 0 1.1-.4v-.1c-.1-.2-.4-.3-.7-.4h-.1c-.1 0-.2-.1-.3-.1-.2-.1-.4-.1-.5-.2-.7-.3-1.3-.7-1.5-1.4-.1-.4-.2-.9-.2-1.5 0-.3 0-.7-.1-1.1V29v-1-.5-1.9-.7-1.7-1.6c0-.5.1-1 .1-1.5 0-.3.1-.6.1-.9.1-.7.3-1.3.6-1.8.1-.3.4-.5.6-.8.3-.3.6-.5.9-.8.1-.1.2-.1.3-.2l.6-.3c.5-.2 1.1-.3 1.7-.3.5 0 .9 0 1.2.1.4.1.7.1 1 .3.6.2 1.2.6 1.7 1.3.2.2.3.5.5.8 0 0 0 .1.1.1 0 .1 0 .1.1.2v.2c.2.7.3 1.5.3 2.6V27c0 1.9 0 3.2-.1 4.1 0 .3 0 .6-.1.8 0 .3-.1.6-.2.8-.1.2-.2.4-.4.5-.3.3-.7.4-1.2.6-.1 0-.2.1-.3.1-.2.1-.4.1-.6.1-.1 0-.2 0-.3.1-.2 0-.3.1-.4.2-.1.1-.2.1-.2.3 0 .1 0 .1.1.2.1 0 .1.1.2.1h1c.3 0 1.2 0 2.2-.1.6 0 1.3-.1 1.8-.1h1.8c.5 0 1.2 0 1.7.1.9 0 1.8.1 2 .1.6 0 1-.1 1-.4.2-.8-.5-.8-1.1-1zM46.8 30.7c-.1 0-.2.1-.3.2-.1.1-.2.1-.2.2-.6.4-1.3.9-2.3.9-.2 0-.4 0-.5-.1-.2 0-.3-.1-.4-.2-.4-.2-.6-.6-.7-1.1-.1-.3-.1-.7-.2-1.1v-.6-1.5-.7-.8-.9-.9-1-.5c0-.5 0-1 .1-1.5v-1.5-.9-1.3V16c0-.5-.1-.9-.2-1.3-.6-2.4-3.2-3-5.6-3.1h-.6c-1.5 0-2.9.3-4.1.8-1.3.5-2.5 1.3-3.3 2.1l-.3.3c-.2.2-.4.4-.5.6-.1.1-.2.2-.2.3-.1.2-.3.4-.4.6l-.3.6c-.1.3-.3.5-.3.8-.1.3-.2.7-.2.9 0 .8.7 1.2 1.2 1.2.9 0 2.2-.6 2.5-1.6l.3-.9c.7-2 1.7-4.1 4.1-4.4h1c.7 0 1.3.2 1.8.7.2.2.4.4.5.8 0 .1.1.2.1.3v.1c0 .1 0 .2.1.3V20.4c-.1.4-.2.7-.3.9-.1.1-.1.2-.2.3-.1.1-.2.2-.2.3-.2.2-.5.4-.9.6-.3.2-.7.3-1.1.5-.5.2-1.1.5-1.8.9-2.5 1.3-5.6 2.8-6.4 5.6.1.6 0 1 0 1.5v.3c0 .5.2 1.1.5 1.7.1.1.1.2.2.3.4.5.9 1 1.5 1.3.5.3 1.2.4 1.9.4 3 0 5.2-1.9 6.3-3.5 0-.1.1-.1.2-.1.2 0 .2.1.3.3.5 1.6 1.9 3 4 3 1 0 1.8-.3 2.6-.7.9-.5 1.5-1.1 1.9-1.7.2-.3.4-.6.4-.8.1-.2.1-.3.1-.4.1-.2.1-.4-.1-.4zm-9.9 0c-.2.3-.4.6-.6.8-.2.2-.5.4-.7.6-.2.2-.5.3-.8.4-.3.1-.6.1-.9.1-1.2 0-2.7-.8-2.7-2.8 0-1.5.9-2.8 2-3.8.7-.6 1.4-1.2 2.1-1.6.1-.1.2-.1.2-.1.3-.2.6-.3.9-.5.1 0 .1-.1.2-.1s.2-.1.3-.1c.1 0 .2-.1.3-.1h.2c.2 0 .3.1.4.2.1.2.2.4.2.8 0 2.5-.1 4.9-1.1 6.2zM49 21.9v-.5.5z"/><path class="st0" d="M84.2 32.6c0-.3-.1-.4-.3-.4H82.5c-.7 0-1.1-.1-1.4-.2-.1 0-.1-.1-.2-.1l-.2-.2c0-.1-.1-.2-.1-.3v-.2c-.2-.9-.2-2.5-.2-4.5v-.5-1.8-1.9-.9c0-.6 0-1.2.1-1.8 0-.6 0-1.2.1-1.7 0-.5 0-1.1.1-1.6 0-1.2.1-2.2.1-2.8 0-.7-.2-1-1-.9l-7.3.2c-.4 0-.7.1-.8.2 0 0-.1.1-.1.2v.1c0 .1.1.2.2.3.2.1.6.1 1.2.2.2 0 .4.1.7.1.5.1 1 .2 1.3.4.1 0 .1.1.2.2.4.3.5 1.5.6 3.6v8.3c0 .6-.1 1.2-.1 1.7 0 .3-.1.5-.1.7-.1.3-.2.6-.3.8-.2.4-.5.7-.8 1-.2.1-.3.3-.5.4-.9.6-2.1.9-3.3.9-.6 0-1.2-.1-1.7-.2s-.9-.3-1.2-.5c-.3-.2-.6-.5-.9-.8-.1-.1-.2-.3-.3-.4l-.3-.6c-.1-.3-.1-.5-.2-.8 0-.3-.1-.6-.1-.9V27v-1.7-2.2-1.9-2-.4-.4-1.1-1.2-.3-.7-.2-.8-.2c0-1.1-.1-1.3-1.1-1.3l-10.5.4c-.4 0-.6-.2-.6-.7v-.4c0-.8.1-1.8.1-2.6v-.4c0-.2 0-.4-.1-.5-.1-.1-.2-.2-.4-.2h-.1c-.2.1-.3.2-.4.5-.1.1-.1.2-.2.3-1.2 1.8-3.7 3.8-5.4 5-.7.5-1.2.6-1.2 1 0 .2.2.2.4.2H48.4c.2 0 .3.1.4.2.3.3.3.7.3 1.1V26.8v-.1 2.7c0 .4.1.8.1 1.2v.2c.1.3.1.6.2.9 0 .1.1.2.1.3.3.8.7 1.5 1.4 2s1.6.8 2.8.8c3.5 0 6.8-3 6.8-3.4 0-.1-.1-.2-.3-.2-.2 0-2 .9-3.6.9-.8 0-1.4-.1-1.8-.4-.2-.1-.3-.3-.5-.5-.2 0-.3-.1-.3-.2-.1-.1-.1-.2-.2-.4v-.1c0-.1-.1-.2-.1-.3V30c0-.1 0-.2-.1-.3v-.2-.3-.2-2.9V25c0-5.1.1-7.6.2-9.2 0-.4.1-.7.1-.9.1-.2.2-.3.4-.3h.3c.7 0 1.8-.1 3.1-.1 4 0 4.1 0 4.1 2 0 1-.2 9.2-.2 12 0 5 3.6 6.5 6.2 6.5.8 0 1.6-.1 2.2-.3.5-.1.9-.3 1.3-.5s.8-.4 1.1-.7c1-.7 1.8-1.4 2.3-1.9.3-.2.4-.3.5-.3.2 0 .3.1.3.2s.1.2.1.4v2.5c0 .4 0 .6.2.7 0 0 .1.1.2.1h.2c.1 0 .4-.1.7-.2h.1c.1 0 .2-.1.3-.1.4-.1.8-.3 1.2-.4.2 0 .3-.1.5-.1.6-.2 1.3-.4 1.9-.5 1.1-.3 2.1-.5 2.5-.6h.2c.4-.4.6-.5.6-.7zM106.2 20.4c.3-.4.7-.4 1.4-.4h3.2c1 0 2 .1 3 .1.9 0 1.8.1 2.7.1h2.4c1.4 0 2.1 0 2.1-1.3 0-3.4-3.2-6.7-7.5-7.2H112c-.4 0-.8.1-1.2.1-.8.1-1.5.3-2.2.6-3.4 1.2-6.1 3.9-7.2 7.6-.2.6-.3 1.2-.4 1.8-.1.4-.1.8-.1 1.3v.7c0 .4 0 .8.1 1.2.1 1.7.6 3.2 1.3 4.5.4.7.8 1.4 1.4 2 .1.1.2.3.3.4.4.4.8.8 1.3 1.1.1.1.3.2.5.3.2.1.5.3.7.4l.6.3c.2.1.4.2.7.3.2.1.4.1.6.2 1 .3 2 .4 3.2.4 5.4 0 9.6-5 9.6-5.9 0-.2-.1-.3-.4-.3 0 0-.1 0-.2.1-.3.2-.8.8-1.6 1.4-.4.3-.9.6-1.4.8-.9.4-2 .7-3.4.7-.5 0-1.1 0-1.5-.1-1.8-.3-3.1-1-4.1-2.2-.4-.4-.7-.8-1-1.3-.3-.5-.5-1-.7-1.5 0-.1-.1-.3-.1-.4-.1-.3-.2-.6-.2-.9 0-.1-.1-.3-.1-.4-.1-.3-.1-.6-.1-.9-.1-.6-.1-1.2-.1-1.9s0-1.1.2-1.5c-.4 0-.4-.1-.3-.2zm.5-3.5c.6-1.8 2.5-4 5.7-4 .6 0 1 .1 1.5.2 1.7.5 2.4 1.9 2.5 2.7v.2c0 1-.6 1.6-1.4 2-.4.2-.9.4-1.4.5-.4.1-.7.1-1.1.2-.9.1-1.9.1-2.8.1-.7 0-1.3 0-1.8-.1s-.9-.1-1.1-.3c-.2-.1-.2-.3-.2-.5-.1-.2-.1-.6.1-1z"/></svg>