<?xml version="1.0" encoding="utf-8"?>
<!-- Generator: Adobe Illustrator 19.1.0, SVG Export Plug-In . SVG Version: 6.00 Build 0)  -->
<svg version="1.1" id="Layer_1" xmlns="http://www.w3.org/2000/svg" xmlns:xlink="http://www.w3.org/1999/xlink" x="0px" y="0px"
	 viewBox="0 0 300 72.1" style="enable-background:new 0 0 300 72.1;" xml:space="preserve">
<style type="text/css">
	.st0{fill:#231F20;}
	.st1{fill:#E21B23;}
</style>
<path class="st0" d="M9.9,49.1c-1.1,1.3-2.5,2-4.2,2c-1.5,0-2.8-0.5-3.8-1.6c-1-1-1.6-2.3-1.6-3.8c0-1.3,0.4-2.4,1.1-3.3L28.7,5.8
	c1.3-1.7,3-3.1,5-4.2C35.8,0.5,38.1,0,40.5,0c2.2,0,4.4,0.5,6.4,1.5c2,1,3.7,2.3,4.9,4L79,41.9c0.4,0.5,0.8,1.1,1.1,1.7
	c0.3,0.6,0.4,1.3,0.4,2.1c0,1.5-0.5,2.8-1.6,3.8c-1.1,1-2.3,1.6-3.8,1.6c-1.8,0-3.2-0.7-4.3-2.1L44.8,14.1c-0.5-0.6-1.2-1.3-2-2
	c-0.8-0.7-1.6-1.1-2.4-1.1c-0.8,0-1.6,0.4-2.4,1.1c-0.8,0.7-1.4,1.4-1.8,2L9.9,49.1"/>
<path class="st0" d="M186.5,45.8c0,1.5-0.5,2.8-1.6,3.8c-1,1.1-2.3,1.6-3.8,1.6c-1.5,0-2.8-0.5-3.8-1.6c-1.1-1-1.6-2.3-1.6-3.8V21.3
	c0-3.1-0.2-4.6-0.6-4.6c-0.3,0-1.3,1-3.1,3l-24.7,28c-1,1.1-2.2,2-3.6,2.5c-1.4,0.6-3,0.8-4.6,0.8s-3.2-0.3-4.6-0.8
	c-1.4-0.6-2.6-1.4-3.6-2.5l-24.7-28c-1.7-2-2.8-3-3.1-3c-0.4,0-0.6,1.5-0.6,4.6v24.4c0,1.5-0.5,2.8-1.6,3.8s-2.3,1.6-3.8,1.6
	c-1.5,0-2.8-0.5-3.8-1.6s-1.6-2.3-1.6-3.8V13c0-3,0.9-5.5,2.6-7.6c1.7-2.1,4.1-3.1,7.1-3.1c1.8,0,3.4,0.4,4.8,1.3
	c1.4,0.9,2.7,2,3.9,3.3L136,36.2c0.4,0.4,0.8,0.8,1.4,1.2c0.6,0.4,1.1,0.6,1.7,0.6c0.6,0,1.2-0.2,1.7-0.6c0.6-0.4,1-0.8,1.4-1.2
	L168,6.8h0.1c1-1.4,2.3-2.5,3.8-3.4c1.5-0.8,3.1-1.2,4.9-1.2c3,0,5.3,1,7.1,3.1c1.7,2.1,2.6,4.6,2.6,7.6V45.8"/>
<path class="st1" d="M206.9,49.6c-1.1,1-2.3,1.6-3.8,1.6c-1.5,0-2.8-0.5-3.8-1.6c-1-1-1.6-2.3-1.6-3.8V7.6c0-1.5,0.5-2.8,1.6-3.8
	c1-1,2.3-1.6,3.8-1.6c1.5,0,2.8,0.5,3.8,1.6c1,1,1.6,2.3,1.6,3.8v38.1C208.4,47.2,207.9,48.5,206.9,49.6"/>
<path class="st0" d="M229.2,49.1c-1.1,1.3-2.5,2-4.1,2c-1.5,0-2.8-0.5-3.8-1.6c-1.1-1-1.6-2.3-1.6-3.8c0-1.3,0.4-2.4,1.1-3.3
	L248,5.8c1.3-1.7,3-3.1,5-4.2c2.1-1.1,4.3-1.6,6.7-1.6c2.2,0,4.4,0.5,6.4,1.5c2,1,3.7,2.3,4.9,4l27.2,36.4c0.4,0.5,0.8,1.1,1.1,1.7
	c0.3,0.6,0.4,1.3,0.4,2.1c0,1.5-0.5,2.8-1.6,3.8c-1,1-2.3,1.6-3.8,1.6c-1.8,0-3.2-0.7-4.3-2.1l-26.1-34.9c-0.5-0.6-1.2-1.3-2-2
	c-0.8-0.7-1.6-1.1-2.4-1.1c-0.8,0-1.6,0.4-2.4,1.1c-0.8,0.7-1.4,1.4-1.9,2L229.2,49.1"/>
<rect y="63.9" class="st1" width="1.8" height="8.1"/>
<polyline class="st1" points="3.6,63.9 5.3,63.9 8.7,69.3 8.7,69.3 8.7,63.9 10.4,63.9 10.4,71.9 8.6,71.9 5.2,66.5 5.2,66.5 
	5.2,71.9 3.6,71.9 3.6,63.9 "/>
<polyline class="st1" points="12.1,63.9 17.8,63.9 17.8,65.4 13.9,65.4 13.9,67.2 17.3,67.2 17.3,68.6 13.9,68.6 13.9,71.9 
	12.1,71.9 12.1,63.9 "/>
<path class="st1" d="M22.7,63.7c2.5,0,4,1.9,4,4.3c0,2.3-1.5,4.2-4,4.2c-2.5,0-4-1.9-4-4.2C18.7,65.5,20.2,63.7,22.7,63.7
	 M22.7,70.6c1.6,0,2.2-1.4,2.2-2.7c0-1.4-0.6-2.8-2.2-2.8c-1.6,0-2.2,1.4-2.2,2.8C20.5,69.3,21.1,70.6,22.7,70.6z"/>
<path class="st1" d="M28,63.9h4.3c1.4,0,2.4,1,2.4,2.2c0,0.9-0.4,1.7-1.3,2v0c0.9,0.2,1.1,1.1,1.2,1.9c0,0.5,0,1.5,0.3,1.9h-1.8
	C33,71.4,33,70.6,32.9,70c-0.1-0.8-0.5-1.2-1.3-1.2h-1.8v3.1H28V63.9 M29.8,67.5h1.9c0.8,0,1.2-0.3,1.2-1.2c0-0.8-0.4-1.1-1.2-1.1
	h-1.9V67.5z"/>
<polyline class="st1" points="36.4,63.9 38.9,63.9 40.8,69.4 40.8,69.4 42.6,63.9 45.1,63.9 45.1,71.9 43.4,71.9 43.4,66.2 
	43.4,66.2 41.4,71.9 40.1,71.9 38.1,66.3 38.1,66.3 38.1,71.9 36.4,71.9 36.4,63.9 "/>
<path class="st1" d="M49.1,63.9h1.8l3,8.1h-1.8l-0.6-1.8h-3l-0.6,1.8H46L49.1,63.9 M48.9,68.8H51l-1-3h0L48.9,68.8z"/>
<polyline class="st1" points="56.6,65.4 54.2,65.4 54.2,63.9 60.8,63.9 60.8,65.4 58.4,65.4 58.4,71.9 56.6,71.9 56.6,65.4 "/>
<rect x="61.9" y="63.9" class="st1" width="1.8" height="8.1"/>
<path class="st1" d="M70.9,66.6c-0.1-0.8-0.9-1.4-1.8-1.4c-1.6,0-2.2,1.4-2.2,2.8c0,1.3,0.6,2.7,2.2,2.7c1.1,0,1.7-0.7,1.8-1.8h1.7
	c-0.2,2-1.6,3.3-3.5,3.3c-2.5,0-4-1.9-4-4.2c0-2.4,1.5-4.3,4-4.3c1.8,0,3.3,1,3.5,2.9H70.9"/>
<path class="st1" d="M75.3,69.3c0,1.1,0.8,1.5,1.8,1.5c0.6,0,1.6-0.2,1.6-1c0-0.9-1.2-1-2.4-1.3c-1.2-0.3-2.4-0.8-2.4-2.3
	c0-1.6,1.6-2.4,3-2.4c1.7,0,3.2,0.7,3.2,2.6h-1.7c-0.1-1-0.7-1.2-1.6-1.2c-0.6,0-1.2,0.2-1.2,0.9c0,0.6,0.4,0.7,2.4,1.2
	c0.6,0.1,2.4,0.5,2.4,2.3c0,1.5-1.2,2.6-3.3,2.6c-1.8,0-3.5-0.9-3.4-2.9H75.3"/>
<path class="st0" d="M85,63.9h3.6c2,0,2.8,1.3,2.8,2.6c0,1.3-0.8,2.6-2.8,2.6h-1.9v2.9H85V63.9 M86.8,67.7h1.4
	c0.8,0,1.6-0.2,1.6-1.2c0-1-0.7-1.2-1.6-1.2h-1.4V67.7z"/>
<path class="st0" d="M92.7,63.9h4.3c1.4,0,2.4,1,2.4,2.2c0,0.9-0.4,1.7-1.3,2v0c0.9,0.2,1.1,1.1,1.2,1.9c0,0.5,0,1.5,0.3,1.9h-1.8
	c-0.2-0.5-0.2-1.3-0.3-1.9c-0.1-0.8-0.5-1.2-1.3-1.2h-1.8v3.1h-1.8V63.9 M94.5,67.5h1.9c0.8,0,1.2-0.3,1.2-1.2
	c0-0.8-0.4-1.1-1.2-1.1h-1.9V67.5z"/>
<path class="st0" d="M104.7,63.7c2.5,0,4,1.9,4,4.3c0,2.3-1.5,4.2-4,4.2c-2.5,0-4-1.9-4-4.2C100.7,65.5,102.2,63.7,104.7,63.7
	 M104.7,70.6c1.6,0,2.2-1.4,2.2-2.7c0-1.4-0.6-2.8-2.2-2.8s-2.2,1.4-2.2,2.8C102.5,69.3,103.1,70.6,104.7,70.6z"/>
<polyline class="st0" points="110.1,63.9 115.8,63.9 115.8,65.4 111.9,65.4 111.9,67.2 115.2,67.2 115.2,68.6 111.9,68.6 
	111.9,71.9 110.1,71.9 110.1,63.9 "/>
<polyline class="st0" points="117,63.9 123,63.9 123,65.4 118.8,65.4 118.8,67.1 122.7,67.1 122.7,68.5 118.8,68.5 118.8,70.4 
	123.1,70.4 123.1,71.9 117,71.9 117,63.9 "/>
<path class="st0" d="M125.8,69.3c0,1.1,0.8,1.5,1.8,1.5c0.6,0,1.6-0.2,1.6-1c0-0.9-1.2-1-2.4-1.3c-1.2-0.3-2.4-0.8-2.4-2.3
	c0-1.6,1.6-2.4,3-2.4c1.7,0,3.2,0.7,3.2,2.6h-1.7c-0.1-1-0.7-1.2-1.6-1.2c-0.6,0-1.2,0.2-1.2,0.9c0,0.6,0.4,0.7,2.4,1.2
	c0.6,0.1,2.4,0.5,2.4,2.3c0,1.5-1.2,2.6-3.3,2.6c-1.8,0-3.5-0.9-3.4-2.9H125.8"/>
<path class="st0" d="M133.3,69.3c0,1.1,0.8,1.5,1.8,1.5c0.6,0,1.6-0.2,1.6-1c0-0.9-1.2-1-2.4-1.3c-1.2-0.3-2.4-0.8-2.4-2.3
	c0-1.6,1.6-2.4,3-2.4c1.7,0,3.2,0.7,3.2,2.6h-1.7c-0.1-1-0.7-1.2-1.6-1.2c-0.6,0-1.2,0.2-1.2,0.9c0,0.6,0.4,0.7,2.4,1.2
	c0.6,0.1,2.4,0.5,2.4,2.3c0,1.5-1.2,2.6-3.3,2.6c-1.8,0-3.5-0.9-3.4-2.9H133.3"/>
<rect x="139.6" y="63.9" class="st0" width="1.8" height="8.1"/>
<path class="st0" d="M146.8,63.7c2.5,0,4,1.9,4,4.3c0,2.3-1.5,4.2-4,4.2c-2.5,0-4-1.9-4-4.2C142.8,65.5,144.3,63.7,146.8,63.7
	 M146.8,70.6c1.6,0,2.2-1.4,2.2-2.7c0-1.4-0.6-2.8-2.2-2.8c-1.6,0-2.2,1.4-2.2,2.8C144.6,69.3,145.2,70.6,146.8,70.6z"/>
<polyline class="st0" points="152.2,63.9 153.9,63.9 157.3,69.3 157.3,69.3 157.3,63.9 159,63.9 159,71.9 157.2,71.9 153.9,66.5 
	153.8,66.5 153.8,71.9 152.2,71.9 152.2,63.9 "/>
<path class="st0" d="M163,63.9h1.8l3,8.1H166l-0.6-1.8h-3l-0.6,1.8h-1.8L163,63.9 M162.8,68.8h2.1l-1-3h0L162.8,68.8z"/>
<polyline class="st0" points="168.7,63.9 170.5,63.9 170.5,70.4 174.4,70.4 174.4,71.9 168.7,71.9 168.7,63.9 "/>
<path class="st0" d="M176.8,69.3c0,1.1,0.8,1.5,1.8,1.5c0.6,0,1.6-0.2,1.6-1c0-0.9-1.2-1-2.4-1.3c-1.2-0.3-2.4-0.8-2.4-2.3
	c0-1.6,1.6-2.4,3-2.4c1.7,0,3.2,0.7,3.2,2.6h-1.7c-0.1-1-0.7-1.2-1.6-1.2c-0.6,0-1.2,0.2-1.2,0.9c0,0.6,0.4,0.7,2.4,1.2
	c0.6,0.1,2.4,0.5,2.4,2.3c0,1.5-1.2,2.6-3.3,2.6c-1.8,0-3.5-0.9-3.4-2.9H176.8"/>
<rect x="183.1" y="70.2" class="st0" width="1.8" height="1.7"/>
<polyline class="st0" points="189.9,63.9 191.7,63.9 191.7,70.4 195.6,70.4 195.6,71.9 189.9,71.9 189.9,63.9 "/>
<polyline class="st0" points="196.8,63.9 202.8,63.9 202.8,65.4 198.6,65.4 198.6,67.1 202.5,67.1 202.5,68.5 198.6,68.5 
	198.6,70.4 202.9,70.4 202.9,71.9 196.8,71.9 196.8,63.9 "/>
<path class="st0" d="M206.5,63.9h1.8l3,8.1h-1.8l-0.6-1.8h-3l-0.6,1.8h-1.8L206.5,63.9 M206.4,68.8h2.1l-1-3h0L206.4,68.8z"/>
<path class="st0" d="M212.3,63.9h3.5c2.1,0,3.7,1.3,3.7,4c0,2.3-1.2,4.1-3.7,4.1h-3.5V63.9 M214.1,70.4h1.6c1,0,2-0.6,2-2.4
	c0-1.6-0.6-2.7-2.3-2.7h-1.3V70.4z"/>
<rect x="220.9" y="63.9" class="st0" width="1.8" height="8.1"/>
<polyline class="st0" points="224.4,63.9 226.2,63.9 229.6,69.3 229.6,69.3 229.6,63.9 231.2,63.9 231.2,71.9 229.5,71.9 
	226.1,66.5 226.1,66.5 226.1,71.9 224.4,71.9 224.4,63.9 "/>
<path class="st0" d="M238.8,71c-0.6,0.8-1.4,1.1-2.2,1.1c-2.5,0-4-1.9-4-4.2c0-2.4,1.5-4.3,4-4.3c1.6,0,3.2,1,3.4,2.8h-1.7
	c-0.2-0.9-0.9-1.4-1.7-1.4c-1.6,0-2.2,1.4-2.2,2.8c0,1.3,0.6,2.7,2.2,2.7c1.2,0,1.8-0.6,1.9-1.7h-1.8v-1.3h3.4v4.4H239L238.8,71"/>
<polyline class="st0" points="246.9,65.4 244.5,65.4 244.5,63.9 251.1,63.9 251.1,65.4 248.7,65.4 248.7,71.9 246.9,71.9 
	246.9,65.4 "/>
<polyline class="st0" points="252.3,63.9 254.1,63.9 254.1,67 257.3,67 257.3,63.9 259.1,63.9 259.1,71.9 257.3,71.9 257.3,68.5 
	254.1,68.5 254.1,71.9 252.3,71.9 252.3,63.9 "/>
<polyline class="st0" points="260.9,63.9 266.9,63.9 266.9,65.4 262.6,65.4 262.6,67.1 266.5,67.1 266.5,68.5 262.6,68.5 
	262.6,70.4 267,70.4 267,71.9 260.9,71.9 260.9,63.9 "/>
<polyline class="st0" points="279.4,71.9 277.7,71.9 276.3,66.5 276.3,66.5 274.9,71.9 273.1,71.9 271,63.9 272.8,63.9 274.1,69.4 
	274.1,69.4 275.5,63.9 277.1,63.9 278.5,69.4 278.5,69.4 279.9,63.9 281.6,63.9 279.4,71.9 "/>
<path class="st0" d="M284.8,63.9h1.8l3,8.1h-1.8l-0.6-1.8h-3l-0.6,1.8h-1.8L284.8,63.9 M284.7,68.8h2.1l-1-3h0L284.7,68.8z"/>
<polyline class="st0" points="292.7,68.8 289.7,63.9 291.7,63.9 293.6,67.1 295.5,63.9 297.4,63.9 294.4,68.8 294.4,71.9 
	292.7,71.9 292.7,68.8 "/>
<rect x="298.2" y="70.2" class="st0" width="1.8" height="1.7"/>
</svg>
