<?xml version="1.0" encoding="utf-8"?>
<!-- Generator: Adobe Illustrator 18.1.1, SVG Export Plug-In . SVG Version: 6.00 Build 0)  -->
<svg version="1.1" id="Layer_1" xmlns="http://www.w3.org/2000/svg" xmlns:xlink="http://www.w3.org/1999/xlink" x="0px" y="0px"
	 width="146px" height="25px" viewBox="0 0 146 25" enable-background="new 0 0 146 25" xml:space="preserve">
<path fill="#FFFFFF" d="M69.9,21.5v-3.4H67l0.2,1.4h0.8v1.1c-0.2,0.1-0.4,0.1-0.6,0.1c-0.8,0-1.2-0.7-1.2-2.1c0-1.6,0.4-2.2,1.3-2.2
	c0.5,0,1,0.2,1.4,0.5l1-1.1c-0.7-0.6-1.5-0.9-2.4-0.9c-0.6,0-1.1,0.1-1.6,0.4c-1.2,0.6-1.7,1.9-1.7,3.4c0,1,0.2,1.6,0.7,2.3
	c0.6,0.8,1.4,1.2,2.6,1.2C68.3,22.2,69.1,22,69.9,21.5L69.9,21.5z M74.9,22.1v-1.5h-2.4v-1.4h1.7v-1.4h-1.7v-1.2h2.1l0.1-1.5h-4v7
	H74.9L74.9,22.1z M80.8,22.1v-7h-1.7v2.2c0,0.5,0,1.1,0.1,1.6c-0.2-0.5-0.4-1-0.6-1.3l-1.3-2.4h-1.7v7h1.7v-2c0-0.9-0.1-1.5-0.1-1.8
	c0.2,0.4,0.4,0.9,0.5,1.3l1.2,2.4H80.8L80.8,22.1z M86.2,22.1v-1.5h-2.4v-1.4h1.7v-1.4h-1.7v-1.2h2.1l0.1-1.5H82v7H86.2L86.2,22.1z
	 M91.6,15.1h-5.3v1.5H88v5.5h1.8v-5.5h1.6L91.6,15.1L91.6,15.1z M94.1,22.1v-7h-1.8v7H94.1L94.1,22.1z M99.9,21.5l-0.8-1.2
	c-0.4,0.3-0.7,0.5-1.2,0.5c-0.4,0-0.7-0.2-0.9-0.4c-0.3-0.3-0.3-0.9-0.3-2c0-0.8,0.1-1.2,0.5-1.5c0.2-0.2,0.5-0.3,0.8-0.3
	c0.4,0,0.7,0.1,1,0.4l0.8-1.3C99.4,15.2,98.7,15,98,15c-1.2,0-2.2,0.5-2.8,1.6c-0.3,0.6-0.5,1.3-0.5,2.2c0,1,0.3,1.9,0.8,2.5
	c0.6,0.7,1.4,1,2.3,1C98.8,22.2,99.5,21.9,99.9,21.5L99.9,21.5z M105.7,19.7c0-1.4-1.1-1.7-1.8-1.9l-0.7-0.2
	c-0.5-0.1-0.7-0.4-0.7-0.6c0-0.3,0.3-0.5,0.7-0.5c0.5,0,1.1,0.2,1.6,0.5l0.9-1.3c-0.6-0.4-1.5-0.7-2.5-0.7c-1.6,0-2.7,0.9-2.7,2.3
	c0,1.2,0.7,1.7,1.7,2l0.8,0.2c0.5,0.1,0.7,0.3,0.7,0.6c0,0.4-0.3,0.6-1,0.6c-0.7,0-1.5-0.3-2-0.6l-0.6,1.4c0.7,0.4,1.5,0.6,2.6,0.6
	C104.5,22.2,105.7,21.3,105.7,19.7L105.7,19.7z M59.2,1.6h86v23.2h-86V1.6L59.2,1.6z"/>
<path fill-rule="evenodd" clip-rule="evenodd" fill="#FFFFFF" d="M9.1,24.8v-0.2c-1.3-0.1-1.7-0.8-2.4-1.7l-1.8-2.5
	c1.2-0.2,2.3-1,2.3-2.3c0-0.8-0.5-2.4-3.2-2.4H0v0.2c1.3,0,1.3,0.3,1.3,1.5V23c0,1.2,0,1.5-1.3,1.5v0.2h3.9v-0.2
	c-1.3,0-1.3-0.3-1.3-1.5v-2.5h0.9l3.1,4.3H9.1L9.1,24.8z M2.6,16.3c0.4-0.1,0.7-0.1,1.1-0.1c1.1,0,1.9,0.8,1.9,1.9
	c0,1.5-1.4,2-2.7,2H2.6V16.3L2.6,16.3z"/>
<path fill="#FFFFFF" d="M11.8,16.2h2.3c1.3,0,1.7,0.1,1.9,1.5h0.3l-0.1-2h-7v0.2c1.3,0,1.3,0.3,1.3,1.5V23c0,1.2,0,1.5-1.3,1.5v0.2
	h7.1l0.8-2.3h-0.3c-0.7,1.2-1.2,1.8-2.4,1.8h-1.9c-0.6,0-0.7-0.1-0.7-0.7v-3.3h1.8c1.1,0,1.5,0.1,1.6,1.3h0.2v-3.2h-0.2
	c-0.1,1.2-0.5,1.3-1.6,1.3h-1.8V16.2L11.8,16.2z"/>
<path fill="#FFFFFF" d="M21.9,22.9l-2.2-5.2c-0.1-0.3-0.4-0.8-0.4-1.2c0-0.6,0.6-0.6,1-0.6v-0.2h-3.7v0.2c1,0.1,1.2,0.5,1.5,1.4
	l3.3,7.7h0.2l3.1-7.6c0.3-0.7,0.6-1.4,1.4-1.5v-0.2h-2.8v0.2c0.4,0,1,0.2,1,0.7c0,0.3-0.3,0.9-0.4,1.2L21.9,22.9L21.9,22.9z"/>
<path fill="#FFFFFF" d="M29.4,17.4c0-1.2,0-1.5,1.3-1.5v-0.2h-3.9v0.2c1.3,0,1.3,0.3,1.3,1.5V23c0,1.2,0,1.5-1.3,1.5v0.2h3.9v-0.2
	c-1.3,0-1.3-0.3-1.3-1.5V17.4L29.4,17.4z"/>
<path fill="#FFFFFF" d="M33.9,16.2h2.3c1.3,0,1.7,0.1,1.9,1.5h0.3l-0.1-2h-7v0.2c1.3,0,1.3,0.3,1.3,1.5V23c0,1.2,0,1.5-1.3,1.5v0.2
	h7.1l0.8-2.3h-0.3c-0.7,1.2-1.2,1.8-2.4,1.8h-1.9c-0.6,0-0.7-0.1-0.7-0.7v-3.3h1.8c1.1,0,1.5,0.1,1.6,1.3h0.2v-3.2h-0.2
	c-0.1,1.2-0.5,1.3-1.6,1.3h-1.8V16.2L33.9,16.2z"/>
<path fill="#FFFFFF" d="M47.5,22.6L47.5,22.6l-1.7-4.7c-0.1-0.4-0.4-0.9-0.4-1.3c0-0.6,0.4-0.6,1-0.6v-0.2h-3.6v0.2
	c0.9,0,1.1,0.6,1.4,1.4l0.4,1l-1.5,4.3h0l-1.9-5.3c-0.1-0.2-0.2-0.6-0.2-0.8c0-0.5,0.4-0.6,0.9-0.6v-0.2h-3.4v0.2
	c0.8,0,1,0.3,1.3,1.2l2.8,7.9h0.3l2-5.8h0l2.1,5.8h0.3l2.6-7.6c0.2-0.7,0.4-1.5,1.3-1.5v-0.2h-2.7v0.2c0.6,0,1,0.1,1,0.6
	c0,0.3-0.2,0.9-0.3,1.2L47.5,22.6L47.5,22.6z"/>
<path fill="#FFFFFF" d="M56.3,15.5h-0.2C56,15.8,55.9,16,55.6,16c-0.2,0-0.4-0.1-0.8-0.3c-0.3-0.1-0.7-0.3-1.2-0.3
	c-1.4,0-2.7,1-2.7,2.4c0,2.7,4.8,3,4.8,5.1c0,1-0.9,1.5-1.8,1.5c-0.8,0-2.5-0.4-2.7-2.6H51V25h0.2c0-0.3,0.1-0.5,0.4-0.5
	c0.3,0,0.6,0.1,1,0.2c0.4,0.1,0.8,0.3,1.4,0.3c1.7,0,2.9-1.2,2.9-2.6c0-2.7-5-3-5-4.9c0-0.8,0.8-1.4,1.6-1.4c1.5,0,2.4,1.2,2.5,2.6
	h0.2V15.5L56.3,15.5z"/>
<path fill="#FFFFFF" d="M10.3,3.1c0.4,0.6,0.5,1.7,0.5,2.4c0,1.6,0,2.6,0,3.3c0,2.8,0,2.8,1,3.1c0.2,0.1,0.6,0.1,0.6,0.3
	c0,0.2-0.2,0.2-0.5,0.2c-0.3,0-1.6-0.1-2.2-0.1c-0.6,0-2,0.1-2.3,0.1c-0.4,0-0.6,0-0.6-0.1c0-0.2,0.5-0.2,0.8-0.3
	c0.5-0.2,0.8-0.3,0.8-0.9c0.1-0.6,0.1-1.5,0.1-3.2c0-2.1,0-3.3-0.5-3.9c-0.5-0.6-1-0.7-1.9-0.7c-0.9,0-1.6,0.6-1.9,1.1
	C3.9,4.9,3.9,6.4,3.9,7.8c0,1.9,0,2.7,0.1,3.4c0.1,0.3,0.3,0.5,0.7,0.7C5,11.9,5.5,12,5.5,12.2c0,0.2-0.3,0.2-0.5,0.2
	c-0.2,0-1.8-0.1-2.3-0.1c-0.4,0-2.2,0.1-2.3,0.1c-0.3,0-0.4,0-0.4-0.2C0,12,0.3,12,0.7,11.9c0.5-0.1,0.8-0.2,0.9-0.7
	C1.7,10.4,1.7,9,1.7,6.9c0-1.4,0-2.3-0.2-2.6C1.4,4.2,1.2,4.1,0.9,4.1C0.5,4,0.3,4,0.3,3.9c0-0.1,0.1-0.2,0.2-0.2
	c1-0.3,1.9-1,2.9-1.8c0.1-0.1,0.2-0.2,0.3-0.2c0.2,0,0.2,0.2,0.2,0.5v1.1c0,0.1,0,0.3,0.2,0.3c0.4,0,1.3-1.8,3.5-1.8
	C9,1.8,9.7,2.4,10.3,3.1L10.3,3.1z"/>
<path fill="#FFFFFF" d="M17.7,10.9c-0.5,0.8-1.5,1.7-3,1.7c-1.4,0-2-1.1-2-1.9c0-1.7,1.7-2.6,3.1-3.2C18,6.4,18,6.7,18,4.4
	c0-0.7,0-1.2-0.1-1.5c-0.3-0.6-0.7-0.7-1.3-0.7c-1.5,0-2,1.4-2.4,2.5c-0.1,0.5-0.7,0.7-1.2,0.7c-0.2,0-0.6-0.2-0.6-0.5
	c0-1,1.7-3.2,4.6-3.2c1.4,0,3,0.3,3,2c0,1.4-0.2,5.3-0.2,6c0,0.7,0.1,1.4,0.8,1.4c0.7,0,1.1-0.6,1.3-0.6c0.1,0,0.1,0.1,0.1,0.2
	c0,0.4-0.9,1.7-2.4,1.7c-1,0-1.6-0.7-1.9-1.4C17.9,11,17.8,10.9,17.7,10.9C17.7,10.9,17.7,10.9,17.7,10.9L17.7,10.9z M17.5,7.2
	c-0.3,0-2.8,1.2-2.8,2.9c0,0.9,0.7,1.3,1.3,1.3c0.6,0,1-0.3,1.4-0.9c0.4-0.6,0.5-1.8,0.5-2.9C17.9,7.3,17.7,7.2,17.5,7.2L17.5,7.2z"
	/>
<path fill="#FFFFFF" d="M25.4,0.3c0,0.4-0.1,1.1-0.1,1.6c0,0.2,0.1,0.3,0.3,0.3l5.1-0.2c0.5,0,0.5,0.1,0.5,0.6c0,1,0,1.9-0.1,6.5
	c0,1.1,0.5,1.9,2.1,1.9c0.9,0,1.8-0.4,2.1-1.1c0.3-0.5,0.3-1.9,0.3-3.1c0-2.5,0-3.7-0.3-3.9c-0.2-0.2-0.6-0.2-1-0.3
	c-0.5-0.1-0.7-0.1-0.7-0.2c0-0.1,0.1-0.2,0.4-0.2l3.4-0.1c0.4,0,0.5,0.1,0.5,0.4c0,0.9-0.2,3.6-0.2,5.8c0,1.3,0,2.3,0.2,2.6
	c0.1,0.2,0.3,0.3,0.8,0.3c0.2,0,0.5,0,0.6,0c0.1,0,0.2,0.1,0.2,0.2c0,0.1-0.1,0.2-0.4,0.2c-0.4,0.1-2.3,0.5-3,0.9
	c-0.1,0-0.3,0.1-0.4,0.1c-0.2,0-0.2-0.1-0.2-0.4c0-0.3,0-0.6,0-1.1c0-0.2,0-0.4-0.2-0.4c-0.3,0-1.5,1.8-3.5,1.8
	c-1.2,0-2.9-0.7-2.9-3c0-1.3,0.1-5.2,0.1-5.6C29,3,29,3,27.1,3c-0.6,0-1.1,0-1.5,0c-0.3,0-0.4,0-0.4,0.6c0,0.8-0.1,2.1-0.1,4.8
	c0,1.1,0,1.8,0.2,2.3c0.2,0.4,0.6,0.6,1.2,0.6c0.8,0,1.6-0.4,1.7-0.4c0.1,0,0.1,0.1,0.1,0.1c0,0.2-1.6,1.6-3.2,1.6
	c-1.8,0-2.2-1.3-2.2-3.1c0-0.9,0.1-5.2,0.1-5.5c0-0.3,0-0.6-0.5-0.6h-0.7c-0.1,0-0.2,0-0.2-0.1c0-0.2,0.2-0.2,0.5-0.5
	c0.8-0.6,2-1.5,2.5-2.3C24.9,0.2,25,0,25.1,0C25.3,0,25.4,0.1,25.4,0.3L25.4,0.3z"/>
<path fill="#FFFFFF" d="M40.1,4c-0.1,0-0.3,0-0.3-0.1c0-0.1,0.1-0.2,0.4-0.3c0.3-0.1,1.7-0.9,2.4-1.5c0.3-0.3,0.4-0.3,0.5-0.3
	c0.1,0,0.2,0.1,0.2,0.4v1.2c0,0.2,0.1,0.2,0.1,0.2c0.3,0,1.1-1.8,2.7-1.8c0.9,0,1.5,0.6,1.5,1.4c0,0.8-0.6,1.3-1.3,1.3
	c-0.9,0-1.1-0.9-1.9-0.9c-0.4,0-0.6,0.3-0.7,0.5c-0.4,0.5-0.4,1.8-0.4,3.7c0,1.8,0,3.2,0.2,3.6c0.3,0.4,1.3,0.6,1.6,0.6
	c0.3,0,0.5,0,0.5,0.2c0,0.2-0.3,0.2-0.5,0.2c-0.2,0-2-0.1-2.7-0.1c-0.7,0-2.4,0.1-2.6,0.1c-0.2,0-0.5,0-0.5-0.2
	c0-0.2,0.3-0.2,0.5-0.3c0.2,0,0.9-0.2,1.1-0.6c0.1-0.4,0.2-1.3,0.2-4.1C41.2,4.4,41.2,4.1,40.1,4L40.1,4z"/>
<path fill="#FFFFFF" d="M55.4,5.7c-1.4,0-3.2-0.1-5.3-0.1c-0.5,0-0.8,0-0.8,1c0,2.4,1.1,4.5,3.8,4.5c2,0,2.9-1.4,3.1-1.4
	c0.1,0,0.2,0.1,0.2,0.1c0,0.4-1.9,2.8-4.5,2.8c-2.8,0-4.9-2-4.9-5.2c0-3.4,2.6-5.7,5.5-5.7c2.2,0,3.9,1.7,3.9,3.4
	C56.4,5.7,56.1,5.7,55.4,5.7L55.4,5.7z M52.4,2.2c-1.8,0-2.8,1.6-2.8,2.4C49.6,4.9,50,5,51.1,5c1.3,0,3.2-0.1,3.2-1.3
	C54.3,3.2,53.8,2.2,52.4,2.2L52.4,2.2z"/>
<g>
	<rect y="13.7" fill="#FFFFFF" width="56.4" height="0.4"/>
</g>
</svg>
