<?xml version="1.0" encoding="utf-8"?>
<!-- Generator: Adobe Illustrator 18.1.1, SVG Export Plug-In . SVG Version: 6.00 Build 0)  -->
<svg version="1.1" id="Layer_1" xmlns="http://www.w3.org/2000/svg" xmlns:xlink="http://www.w3.org/1999/xlink" x="0px" y="0px"
	 width="262px" height="45px" viewBox="0 0 262 45" enable-background="new 0 0 262 45" xml:space="preserve">
<path fill="#FFFFFF" d="M125.8,38.7v-6.1h-5.1l0.4,2.6h1.5v2c-0.3,0.1-0.8,0.2-1.2,0.2c-1.5,0-2.2-1.2-2.2-3.7c0-2.8,0.7-4,2.4-4
	c1,0,1.9,0.3,2.6,1l1.8-2c-1.2-1-2.7-1.6-4.4-1.6c-1.1,0-1.9,0.2-2.9,0.6c-2.1,1.1-3.1,3.4-3.1,6.1c0,1.7,0.3,2.9,1.2,4.1
	c1.1,1.5,2.5,2.1,4.6,2.1C122.9,40,124.3,39.6,125.8,38.7L125.8,38.7z M134.8,39.8v-2.7h-4.3v-2.6h3.1V32h-3.1v-2.1h3.8l0.2-2.6
	h-7.3v12.5H134.8L134.8,39.8z M145.5,39.8V27.2h-3.1v3.9c0,0.8,0,2.1,0.1,2.8c-0.3-0.8-0.7-1.7-1-2.4l-2.3-4.3h-3.1v12.5h3.1v-3.5
	c0-1.5-0.1-2.7-0.2-3.2c0.3,0.8,0.6,1.7,1,2.4l2.2,4.4H145.5L145.5,39.8z M155.1,39.8v-2.7h-4.3v-2.6h3.1V32h-3.1v-2.1h3.8l0.2-2.6
	h-7.3v12.5H155.1L155.1,39.8z M164.9,27.2h-9.5v2.7h2.9v9.9h3.3v-9.9h2.9L164.9,27.2L164.9,27.2z M169.3,39.8V27.2H166v12.5H169.3
	L169.3,39.8z M179.9,38.7l-1.4-2.2c-0.7,0.6-1.3,0.8-2.2,0.8c-0.7,0-1.2-0.3-1.6-0.8c-0.5-0.6-0.6-1.6-0.6-3.7
	c0-1.5,0.2-2.1,0.8-2.8c0.3-0.3,0.8-0.5,1.4-0.5c0.7,0,1.3,0.2,1.9,0.7l1.4-2.4c-0.6-0.6-1.9-0.9-3.2-0.9c-2.2,0-4,0.9-5.1,2.8
	c-0.6,1.1-0.9,2.3-0.9,3.9c0,1.8,0.5,3.4,1.4,4.5c1.2,1.3,2.6,1.7,4.1,1.7C177.8,40,179.1,39.4,179.9,38.7L179.9,38.7z M190.3,35.4
	c0-2.5-1.9-3.1-3.3-3.5l-1.3-0.3c-0.9-0.2-1.2-0.6-1.2-1.1c0-0.5,0.5-0.9,1.3-0.9c0.9,0,2,0.3,2.8,0.9l1.5-2.3
	c-1.1-0.8-2.7-1.2-4.5-1.2c-2.8,0-4.9,1.7-4.9,4.1c0,2.2,1.2,3.1,3.1,3.6l1.5,0.4c0.9,0.2,1.3,0.5,1.3,1c0,0.7-0.5,1.2-1.8,1.2
	c-1.3,0-2.6-0.5-3.5-1l-1.1,2.5c1.3,0.7,2.7,1.1,4.6,1.1C188,40,190.3,38.4,190.3,35.4L190.3,35.4z M106.5,2.8h154.7v41.7H106.5V2.8
	L106.5,2.8z"/>
<path fill-rule="evenodd" clip-rule="evenodd" fill="#FFFFFF" d="M16.4,44.6v-0.4c-2.3-0.2-3.1-1.4-4.4-3.1l-3.2-4.5
	c2.2-0.4,4.1-1.8,4.1-4.2c0-1.4-0.9-4.3-5.7-4.3H0.1v0.4c2.3,0,2.3,0.6,2.3,2.7v10.1c0,2.1,0,2.7-2.3,2.7v0.4h7v-0.4
	c-2.3,0-2.3-0.6-2.3-2.7V37h1.7l5.6,7.7H16.4L16.4,44.6z M4.7,29.3c0.7-0.1,1.3-0.2,2-0.2c2,0,3.3,1.5,3.3,3.5
	c0,2.7-2.5,3.6-4.8,3.6H4.7V29.3L4.7,29.3z"/>
<path fill="#FFFFFF" d="M21.2,29.1h4.2c2.3,0,3,0.2,3.5,2.7h0.5l-0.2-3.6H16.5v0.4c2.3,0,2.3,0.6,2.3,2.7v10.1c0,2.1,0,2.7-2.3,2.7
	v0.4h12.7l1.4-4.1h-0.5c-1.3,2.2-2.1,3.2-4.3,3.2h-3.4c-1,0-1.3-0.2-1.3-1.2v-6h3.3c2,0,2.7,0.2,2.9,2.4h0.4v-5.7h-0.4
	c-0.1,2.2-0.9,2.4-2.9,2.4h-3.3V29.1L21.2,29.1z"/>
<path fill="#FFFFFF" d="M39.5,41.3l-4-9.3c-0.2-0.6-0.7-1.5-0.7-2.1c0-1,1.1-1.1,1.8-1.2v-0.4h-6.7v0.4c1.8,0.1,2.1,1,2.7,2.5
	l6,13.8h0.4l5.6-13.7c0.5-1.3,1.1-2.5,2.6-2.6v-0.4h-5.1v0.4c0.7,0.1,1.7,0.3,1.7,1.2c0,0.5-0.5,1.7-0.7,2.1L39.5,41.3L39.5,41.3z"
	/>
<path fill="#FFFFFF" d="M53,31.4c0-2.1,0-2.7,2.3-2.7v-0.4h-7v0.4c2.3,0,2.3,0.6,2.3,2.7v10.1c0,2.1,0,2.7-2.3,2.7v0.4h7v-0.4
	c-2.3,0-2.3-0.6-2.3-2.7V31.4L53,31.4z"/>
<path fill="#FFFFFF" d="M61,29.1h4.2c2.3,0,3,0.2,3.5,2.7h0.5l-0.2-3.6H56.3v0.4c2.3,0,2.3,0.6,2.3,2.7v10.1c0,2.1,0,2.7-2.3,2.7
	v0.4H69l1.4-4.1h-0.5c-1.3,2.2-2.1,3.2-4.3,3.2h-3.4c-1,0-1.3-0.2-1.3-1.2v-6h3.3c2,0,2.7,0.2,2.9,2.4h0.4v-5.7h-0.4
	c-0.1,2.2-0.9,2.4-2.9,2.4H61V29.1L61,29.1z"/>
<path fill="#FFFFFF" d="M85.6,40.7L85.6,40.7l-3.1-8.5c-0.2-0.7-0.6-1.7-0.6-2.4c0-1,0.7-1.1,1.8-1.1v-0.4h-6.4v0.4
	c1.6,0,2,1.1,2.5,2.5l0.7,1.8l-2.7,7.7h-0.1l-3.3-9.5c-0.1-0.4-0.4-1-0.4-1.4c0-0.8,0.7-1,1.6-1v-0.4h-6.1v0.4
	c1.5,0,1.7,0.6,2.3,2.2L76.8,45h0.5l3.6-10.4h0L84.7,45h0.5l4.7-13.6c0.4-1.3,0.8-2.7,2.4-2.7v-0.4h-4.9v0.4c1.1,0,1.8,0.2,1.8,1.2
	c0,0.6-0.4,1.7-0.6,2.2L85.6,40.7L85.6,40.7z"/>
<path fill="#FFFFFF" d="M101.4,27.9h-0.4c-0.1,0.5-0.2,0.9-0.8,0.9c-0.3,0-0.8-0.2-1.4-0.5c-0.6-0.2-1.3-0.5-2.2-0.5
	c-2.6,0-4.9,1.9-4.9,4.4c0,4.9,8.7,5.3,8.7,9.1c0,1.8-1.6,2.7-3.3,2.7c-1.5,0-4.5-0.7-4.9-4.7h-0.4V45h0.4c0-0.5,0.2-0.9,0.7-0.9
	c0.6,0,1.1,0.2,1.8,0.4c0.6,0.2,1.5,0.5,2.6,0.5c3.1,0,5.2-2.2,5.2-4.7c0-4.9-9-5.5-9-8.9c0-1.5,1.4-2.6,2.8-2.6
	c2.7,0,4.4,2.1,4.6,4.7h0.4V27.9L101.4,27.9z"/>
<path fill="#FFFFFF" d="M18.5,5.6c0.7,1,0.9,3,0.9,4.4c0,2.8,0,4.6,0,5.9c0,5.1,0,5,1.8,5.5c0.4,0.1,1,0.1,1,0.5
	c0,0.3-0.4,0.4-0.8,0.4c-0.5,0-2.8-0.1-3.9-0.1c-1.1,0-3.6,0.1-4.1,0.1c-0.7,0-1.1,0-1.1-0.3c0-0.4,0.8-0.4,1.5-0.6
	c0.8-0.3,1.4-0.5,1.5-1.6c0.1-1.1,0.1-2.7,0.1-5.8c0-3.8,0-6-0.9-7.1c-0.9-1-1.8-1.3-3.4-1.3c-1.6,0-3,1.1-3.5,2C7,8.9,7,11.5,7,14
	c0,3.3,0,4.9,0.3,6.1c0.1,0.6,0.6,1,1.3,1.2c0.5,0.2,1.4,0.3,1.4,0.7c0,0.4-0.5,0.3-1,0.3c-0.4,0-3.3-0.1-4.1-0.1
	c-0.7,0-3.9,0.1-4.2,0.1c-0.5,0-0.7,0-0.7-0.3c0-0.4,0.6-0.4,1.3-0.6c0.9-0.2,1.4-0.4,1.6-1.3c0.2-1.4,0.2-3.8,0.2-7.5
	c0-2.6,0-4.2-0.4-4.7C2.6,7.6,2.1,7.4,1.6,7.3C1,7.2,0.6,7.2,0.6,7c0-0.2,0.1-0.3,0.3-0.4C2.7,6,4.3,4.9,6,3.4
	c0.1-0.1,0.4-0.3,0.6-0.3C7,3.1,7,3.5,7,3.9v2c0,0.3,0.1,0.6,0.3,0.6c0.7,0,2.4-3.3,6.3-3.3C16.1,3.3,17.5,4.3,18.5,5.6L18.5,5.6z"
	/>
<path fill="#FFFFFF" d="M31.8,19.7c-1,1.4-2.8,3-5.3,3c-2.5,0-3.6-2-3.6-3.4c0-3.1,3.1-4.6,5.5-5.8c3.9-1.9,3.9-1.4,3.9-5.5
	c0-1.2,0.1-2.1-0.2-2.7C31.6,4.2,30.9,4,29.9,4c-2.7,0-3.6,2.5-4.2,4.5c-0.3,0.8-1.3,1.3-2.1,1.3c-0.4,0-1-0.3-1-1
	c0-1.9,3-5.8,8.2-5.8c2.5,0,5.3,0.5,5.3,3.7c0,2.6-0.3,9.5-0.3,10.9c0,1.3,0.3,2.6,1.5,2.6c1.3,0,2-1.1,2.3-1.1
	c0.2,0,0.2,0.2,0.2,0.3c0,0.7-1.6,3-4.2,3c-1.8,0-3-1.2-3.4-2.5c0-0.1-0.1-0.3-0.2-0.3C31.9,19.6,31.8,19.6,31.8,19.7L31.8,19.7z
	 M31.5,13c-0.6,0-5.1,2.2-5.1,5.3c0,1.7,1.3,2.4,2.3,2.4c1,0,1.8-0.6,2.5-1.6c0.8-1.2,0.9-3.2,0.9-5.2C32.1,13.2,31.9,13,31.5,13
	L31.5,13z"/>
<path fill="#FFFFFF" d="M45.6,0.5c0,0.8-0.1,2.1-0.1,2.9c0,0.4,0.2,0.6,0.5,0.6l9.2-0.4c0.9,0,1,0.2,1,1.1c0,1.8-0.1,3.4-0.1,11.8
	c0,2.1,1,3.5,3.8,3.5c1.6,0,3.2-0.7,3.8-1.9c0.5-0.9,0.5-3.4,0.5-5.6c0-4.5,0-6.7-0.5-7.1C63.3,5,62.6,5,61.8,4.9
	c-0.9-0.1-1.2-0.1-1.2-0.4c0-0.3,0.1-0.4,0.7-0.4l6.1-0.1c0.7,0,0.9,0.2,0.9,0.8c0,1.6-0.3,6.6-0.3,10.5c0,2.4,0,4.1,0.3,4.7
	c0.2,0.4,0.6,0.5,1.5,0.5c0.3,0,1-0.1,1.2-0.1c0.2,0,0.3,0.1,0.3,0.3c0,0.2-0.2,0.3-0.7,0.4c-0.8,0.1-4.1,1-5.5,1.6
	c-0.2,0.1-0.6,0.2-0.7,0.2c-0.3,0-0.4-0.2-0.4-0.7c0-0.6,0.1-1.1,0.1-2c0-0.3-0.1-0.7-0.4-0.7c-0.5,0-2.7,3.2-6.4,3.2
	c-2.2,0-5.2-1.3-5.2-5.5c0-2.4,0.1-9.3,0.1-10.1c0-1.7-0.1-1.7-3.4-1.7c-1.1,0-2,0-2.6,0.1c-0.6,0-0.7,0.1-0.7,1.1
	c-0.1,1.5-0.1,3.8-0.1,8.7c0,2.1,0,3.3,0.4,4.1c0.4,0.7,1,1,2.1,1c1.4,0,2.9-0.7,3.1-0.7c0.1,0,0.2,0.1,0.2,0.2
	c0,0.4-2.8,2.9-5.8,2.9c-3.2,0-3.9-2.4-3.9-5.7c0-1.6,0.2-9.3,0.2-9.9c0-0.5,0-1.2-0.9-1.2h-1.3c-0.2,0-0.3-0.1-0.3-0.2
	c0-0.4,0.4-0.4,1-0.9c1.4-1,3.6-2.7,4.6-4.2C44.8,0.3,45,0,45.2,0C45.5,0,45.6,0.2,45.6,0.5L45.6,0.5z"/>
<path fill="#FFFFFF" d="M72.1,7.2c-0.3,0-0.5-0.1-0.5-0.2c0-0.3,0.3-0.4,0.8-0.6c0.6-0.2,3.1-1.6,4.3-2.7c0.6-0.6,0.8-0.6,1-0.6
	c0.2,0,0.4,0.1,0.4,0.7v2.1c0,0.4,0.1,0.4,0.2,0.4c0.6,0,2.1-3.2,4.9-3.2c1.6,0,2.7,1.2,2.7,2.6c0,1.4-1.1,2.3-2.3,2.3
	c-1.6,0-1.9-1.7-3.4-1.7c-0.7,0-1,0.5-1.3,0.8c-0.7,0.8-0.8,3.2-0.8,6.7c0,3.3-0.1,5.8,0.4,6.4c0.5,0.7,2.3,1,2.9,1.1
	c0.5,0.1,0.9,0.1,0.9,0.4c0,0.3-0.6,0.3-0.9,0.3c-0.3,0-3.5-0.1-4.9-0.1c-1.3,0-4.2,0.1-4.6,0.1c-0.4,0-0.9,0-0.9-0.3
	c0-0.3,0.5-0.4,1-0.5c0.4-0.1,1.7-0.4,2-1.1c0.3-0.7,0.3-2.3,0.3-7.4C74.2,7.9,74.1,7.4,72.1,7.2L72.1,7.2z"/>
<path fill="#FFFFFF" d="M99.8,10.2c-2.6,0-5.8-0.2-9.5-0.2c-1,0-1.4,0-1.4,1.8c0,4.4,1.9,8.2,6.8,8.2c3.7,0,5.3-2.6,5.6-2.6
	c0.2,0,0.3,0.1,0.3,0.3c0,0.7-3.5,5-8.1,5c-5,0-8.9-3.6-8.9-9.4c0-6.1,4.6-10.2,10-10.2c4,0,7,3,7,6.1
	C101.6,10.2,101,10.2,99.8,10.2L99.8,10.2z M94.3,3.9c-3.3,0-5,2.9-5,4.3C89.3,8.8,89.9,9,92,9c2.4,0,5.7-0.2,5.7-2.4
	C97.7,5.8,96.8,3.9,94.3,3.9L94.3,3.9z"/>
<g>
	<rect y="24.6" fill="#FFFFFF" width="101.4" height="0.7"/>
</g>
</svg>
