<svg xmlns="http://www.w3.org/2000/svg" viewBox="0 0 296 64"><defs><linearGradient id="a" x1="148" y1="10.33" x2="148" y2="59.82" gradientUnits="userSpaceOnUse"><stop offset="0" stop-color="#fff"/><stop offset="1" stop-color="#c4c4c4"/></linearGradient></defs><rect x="4" y="4" width="288" height="56" rx="2" ry="2" stroke="#948f8f" stroke-miterlimit="10" stroke-width=".75" fill="url(#a)"/><path d="M83.3 26.58a6.4 6.4 0 00-.55-1.43 3.92 3.92 0 00-2.19-1.86 5.1 5.1 0 00-1.71-.29 5 5 0 00-2.46.58 4.83 4.83 0 00-1.69 1.54 6.92 6.92 0 00-1 2.19 10.16 10.16 0 000 5 6.92 6.92 0 001 2.19 4.83 4.83 0 001.69 1.5 5 5 0 002.46.58 4.44 4.44 0 001.85-.36 4.12 4.12 0 001.38-1 4.7 4.7 0 00.9-1.49A7.1 7.1 0 0083.4 32h3a8.46 8.46 0 01-.69 2.92 7.18 7.18 0 01-1.59 2.29 7 7 0 01-2.35 1.49 8.14 8.14 0 01-3 .52 8.43 8.43 0 01-3.59-.74 7.88 7.88 0 01-2.69-2 9 9 0 01-1.69-3 11.41 11.41 0 010-7.23 9 9 0 011.69-3 8 8 0 012.69-2 8.3 8.3 0 013.59-.75 9.44 9.44 0 012.83.41 7.3 7.3 0 012.4 1.18A6.23 6.23 0 0185.65 24a6.66 6.66 0 01.78 2.58H83.3zm5.6-5.68h2.85v6.63h.05a4.15 4.15 0 011.56-1.46 4.61 4.61 0 012.31-.59 4.83 4.83 0 013.33 1.1 4.21 4.21 0 011.22 3.3v8.88H97.4v-8.13a3.51 3.51 0 00-.65-2.21 2.36 2.36 0 00-1.87-.69 3.1 3.1 0 00-1.3.26 2.82 2.82 0 00-1 .73A3.41 3.41 0 0092 29.8a3.88 3.88 0 00-.23 1.33v7.63H88.9V20.9zM105.47 33a5 5 0 00.21 1.45 3.56 3.56 0 00.64 1.23 3.08 3.08 0 001.08.84 3.54 3.54 0 001.55.31 3.43 3.43 0 002-.54 3.18 3.18 0 001.14-1.61h2.7A5.35 5.35 0 01112.7 38a5.72 5.72 0 01-1.74.85 7 7 0 01-2 .29 6.85 6.85 0 01-2.7-.5 5.58 5.58 0 01-2-1.4A5.94 5.94 0 01103 35a8.75 8.75 0 01-.41-2.75 7.77 7.77 0 01.44-2.61 6.67 6.67 0 011.25-2.17 5.86 5.86 0 014.56-2 5.79 5.79 0 012.74.64 6 6 0 012 1.69 6.83 6.83 0 011.16 2.41A7.38 7.38 0 01115 33h-9.5zm6.65-1.87a4.6 4.6 0 00-.29-1.3 3.48 3.48 0 00-.65-1.09 3.22 3.22 0 00-1-.75 3 3 0 00-1.31-.29 3.43 3.43 0 00-1.36.26 3.11 3.11 0 00-1 .73 3.59 3.59 0 00-.7 1.09 3.8 3.8 0 00-.29 1.35h6.65zm13.76-.98a2.67 2.67 0 00-1-1.81 3.14 3.14 0 00-2-.61 4.1 4.1 0 00-1.18.19 2.79 2.79 0 00-1.15.7 3.92 3.92 0 00-.87 1.43 6.78 6.78 0 00-.35 2.39 7 7 0 00.19 1.6 4.36 4.36 0 00.6 1.43 3.24 3.24 0 001.06 1 3 3 0 001.58.39 2.87 2.87 0 002.06-.77 3.6 3.6 0 001-2.18h2.85a6.26 6.26 0 01-1.91 3.86 5.83 5.83 0 01-4 1.34 6.61 6.61 0 01-2.69-.51 5.69 5.69 0 01-2-1.4 6 6 0 01-1.21-2.11 8.27 8.27 0 01-.41-2.65 9 9 0 01.4-2.72 6.23 6.23 0 011.2-2.21 5.61 5.61 0 012-1.47 6.7 6.7 0 012.79-.54 7.8 7.8 0 012.14.29 5.63 5.63 0 011.8.86 4.58 4.58 0 011.29 1.45 5 5 0 01.6 2.07h-2.85zm5.25-9.25H134V31l5.15-5.22h3.5l-5 4.75 5.42 8.17h-3.47l-4-6.27-1.6 1.7v4.63h-2.85V20.9zm19.02 4.93h2.13v-1.08a5.51 5.51 0 01.3-2 2.81 2.81 0 01.8-1.18 2.63 2.63 0 011.14-.55 6.34 6.34 0 011.34-.14 8.16 8.16 0 012 .18v2.24a4.1 4.1 0 00-.59-.11 6.33 6.33 0 00-.74 0 1.74 1.74 0 00-1 .27 1.21 1.21 0 00-.41 1.08v1.33h2.42V28h-2.42v10.8h-2.85V28h-2.12v-2.17zm15.08 13.27a7 7 0 01-2.76-.51 5.88 5.88 0 01-2-1.41 6 6 0 01-1.33-2.18 8.78 8.78 0 010-5.48 6 6 0 011.27-2.15 5.89 5.89 0 012-1.41A7.71 7.71 0 01168 26a5.89 5.89 0 012 1.41 6 6 0 011.28 2.15 8.78 8.78 0 010 5.48 6 6 0 01-1.28 2.13 5.88 5.88 0 01-2 1.41 7 7 0 01-2.77.52zm0-2.25a3.27 3.27 0 001.65-.4A3.48 3.48 0 00168 35.4a4.56 4.56 0 00.66-1.46 6.58 6.58 0 000-3.31 4.41 4.41 0 00-.66-1.46 3.53 3.53 0 00-1.15-1 3.6 3.6 0 00-3.3 0 3.53 3.53 0 00-1.15 1 4.4 4.4 0 00-.66 1.46 6.55 6.55 0 000 3.31 4.56 4.56 0 00.66 1.46 3.47 3.47 0 001.15 1.05 3.26 3.26 0 001.68.4zm8.9-11.02h2.67v2.5a2.9 2.9 0 01.49-1 4.74 4.74 0 01.88-.91 4.4 4.4 0 011.14-.66 3.41 3.41 0 011.28-.25 6.21 6.21 0 01.69 0h.39v2.79l-.61-.09a5.18 5.18 0 00-.61 0 3.28 3.28 0 00-1.36.29 3.13 3.13 0 00-1.11.85 4.17 4.17 0 00-.75 1.39 6 6 0 00-.28 1.9v6.15h-2.85V25.83zm27.09 12.92h-2.8V37a3.91 3.91 0 01-1.56 1.56 4.25 4.25 0 01-2.11.59 4.74 4.74 0 01-3.75-1.31 5.54 5.54 0 01-1.12-3.84v-8.2h2.85v7.92a3.5 3.5 0 00.65 2.4 2.37 2.37 0 001.83.7 3.6 3.6 0 001.5-.27 2.66 2.66 0 001-.74 2.84 2.84 0 00.54-1.11 5.8 5.8 0 00.16-1.4v-7.5h2.85v12.95zm3.08-12.92h2.7v1.75a3.52 3.52 0 011.72-1.58 5.57 5.57 0 012.33-.49 6.17 6.17 0 012.66.54 5.25 5.25 0 011.89 1.47 6.41 6.41 0 011.13 2.19 9.27 9.27 0 01.38 2.68 9.44 9.44 0 01-.34 2.52 6.56 6.56 0 01-1 2.16 5 5 0 01-4.21 2.06 7 7 0 01-1.25-.11 5.39 5.39 0 01-1.2-.36A4.73 4.73 0 01208 38a3.55 3.55 0 01-.81-.91v6.45h-2.89V25.83zm10 6.47a6.41 6.41 0 00-.23-1.7 4.6 4.6 0 00-.67-1.46 3.48 3.48 0 00-1.12-1 3.06 3.06 0 00-1.55-.39A3.14 3.14 0 00208 29a5.52 5.52 0 00-1 3.3 6.62 6.62 0 00.24 1.81 4.06 4.06 0 00.71 1.44 3.55 3.55 0 001.14 1 3.24 3.24 0 001.54.35 3.18 3.18 0 001.65-.4 3.49 3.49 0 001.11-1 4.22 4.22 0 00.63-1.45 7.37 7.37 0 00.23-1.75zm17.37 6.45H229V37a3.38 3.38 0 01-1.67 1.61 5.67 5.67 0 01-2.33.49 6.17 6.17 0 01-2.66-.54 5.31 5.31 0 01-1.89-1.46 6.26 6.26 0 01-1.12-2.19 9.48 9.48 0 01-.37-2.71 8.68 8.68 0 01.47-3 6.06 6.06 0 011.26-2.1 4.89 4.89 0 011.8-1.21 5.74 5.74 0 012.06-.39 6.94 6.94 0 011.23.11 5.44 5.44 0 011.2.36 4.74 4.74 0 011.06.64 3.56 3.56 0 01.81.91V20.9h2.85v17.85zm-10-6.33a6.3 6.3 0 00.21 1.63 4.44 4.44 0 00.65 1.43 3.28 3.28 0 001.11 1 3.24 3.24 0 001.6.38 3.2 3.2 0 001.64-.4 3.4 3.4 0 001.13-1.05 4.78 4.78 0 00.65-1.46 6.59 6.59 0 00.21-1.66 5.23 5.23 0 00-1-3.35 3.17 3.17 0 00-2.61-1.2 3.23 3.23 0 00-1.69.41 3.48 3.48 0 00-1.12 1.07 4.48 4.48 0 00-.62 1.5 7.82 7.82 0 00-.11 1.7zm23.93 3.46a1.51 1.51 0 00.14.75.58.58 0 00.54.23h.3a1.86 1.86 0 00.4-.05v2l-.39.11-.49.08-.5.08h-.42a2.75 2.75 0 01-1.45-.35 1.74 1.74 0 01-.75-1.23 5 5 0 01-2.09 1.2 8.22 8.22 0 01-2.39.38 5.86 5.86 0 01-1.67-.24 4.39 4.39 0 01-1.41-.7 3.35 3.35 0 01-1-1.18 3.62 3.62 0 01-.36-1.66 3.84 3.84 0 01.44-2 3.24 3.24 0 011.15-1.17 5.19 5.19 0 011.6-.61q.89-.19 1.79-.29a14.77 14.77 0 011.47-.21 6.9 6.9 0 001.24-.21 1.9 1.9 0 00.85-.46 1.28 1.28 0 00.31-.94 1.46 1.46 0 00-.26-.9A1.76 1.76 0 00242 28a2.81 2.81 0 00-.86-.25 6.94 6.94 0 00-.9-.06 3.58 3.58 0 00-2 .5 2 2 0 00-.87 1.55h-2.85a4.29 4.29 0 01.6-2.07 4.14 4.14 0 011.34-1.33 5.48 5.48 0 011.84-.7 11 11 0 012.1-.2 8.89 8.89 0 011.88.2 5.34 5.34 0 011.66.65 3.6 3.6 0 011.19 1.16 3.19 3.19 0 01.45 1.74v6.65zm-2.85-3.6a3.45 3.45 0 01-1.6.51q-1 .09-1.9.26a6.12 6.12 0 00-.87.21 2.65 2.65 0 00-.75.38 1.64 1.64 0 00-.51.63 2.14 2.14 0 00-.19.94 1.19 1.19 0 00.27.8 2 2 0 00.66.51 3 3 0 00.85.26 5.25 5.25 0 00.84.08 4.63 4.63 0 001-.12 3.42 3.42 0 001-.43 2.73 2.73 0 00.81-.76 1.93 1.93 0 00.32-1.14v-2.14zm4.62-6.45h2.15V22h2.85v3.88h2.58V28h-2.58v6.9a7 7 0 000 .77 1.34 1.34 0 00.17.55.84.84 0 00.41.34 2 2 0 00.75.11h.6a2.93 2.93 0 00.6-.09v2.2l-.93.1a8.4 8.4 0 01-.92 0 6.33 6.33 0 01-1.81-.21 2.42 2.42 0 01-1.08-.62 2.15 2.15 0 01-.52-1 7.78 7.78 0 01-.16-1.42V28h-2.15v-2.17zM259.22 33a5 5 0 00.21 1.45 3.56 3.56 0 00.64 1.23 3.08 3.08 0 001.08.84 3.54 3.54 0 001.55.31 3.43 3.43 0 002-.54 3.18 3.18 0 001.14-1.61h2.7a5.35 5.35 0 01-2.1 3.26 5.72 5.72 0 01-1.74.85 7 7 0 01-2 .29 6.85 6.85 0 01-2.7-.5 5.58 5.58 0 01-2-1.4 5.94 5.94 0 01-1.21-2.18 8.75 8.75 0 01-.41-2.75 7.77 7.77 0 01.44-2.61 6.67 6.67 0 011.25-2.17 5.86 5.86 0 014.56-2 5.79 5.79 0 012.74.64 6 6 0 012 1.69 6.83 6.83 0 011.16 2.41 7.38 7.38 0 01.19 2.81h-9.5zm6.65-1.87a4.6 4.6 0 00-.29-1.3 3.48 3.48 0 00-.65-1.09 3.22 3.22 0 00-1-.75 3 3 0 00-1.31-.29 3.43 3.43 0 00-1.36.26 3.11 3.11 0 00-1 .73 3.59 3.59 0 00-.7 1.09 3.8 3.8 0 00-.29 1.35h6.65zM273 34.6a2.15 2.15 0 00.95 1.75 3.74 3.74 0 002 .5 7.66 7.66 0 00.91-.06 3.94 3.94 0 001-.24 1.8 1.8 0 00.74-.51 1.23 1.23 0 00.26-.89 1.26 1.26 0 00-.4-.9 2.78 2.78 0 00-1-.56 9.32 9.32 0 00-1.34-.36l-1.5-.33a14.22 14.22 0 01-1.54-.42 4.94 4.94 0 01-1.33-.68 3.12 3.12 0 01-.94-1.09 3.47 3.47 0 01-.35-1.64 2.94 2.94 0 01.51-1.76 3.91 3.91 0 011.3-1.15 5.66 5.66 0 011.75-.61 10.32 10.32 0 011.84-.17 8.42 8.42 0 011.91.21 5.19 5.19 0 011.65.69 4 4 0 011.23 1.24 4.29 4.29 0 01.61 1.84h-3a1.78 1.78 0 00-.94-1.37 3.89 3.89 0 00-1.69-.35 6.07 6.07 0 00-.71 0 3.34 3.34 0 00-.78.19 1.64 1.64 0 00-.61.4 1 1 0 00-.25.69 1.09 1.09 0 00.36.85 2.87 2.87 0 001 .54 9.29 9.29 0 001.34.36l1.55.33q.77.18 1.53.42a4.93 4.93 0 011.34.68 3.29 3.29 0 011 1.07 3.25 3.25 0 01.36 1.6 3.48 3.48 0 01-.52 2 4.15 4.15 0 01-1.36 1.3 6.19 6.19 0 01-1.86.73 9.43 9.43 0 01-2 .23 8.82 8.82 0 01-2.26-.27 5.27 5.27 0 01-1.8-.84 4 4 0 01-1.2-1.4 4.45 4.45 0 01-.46-2h2.7z" fill="#535353"/><path fill="#c72914" d="M24.94 41.74l18.12-12.08v-14.5H24.94v26.58z"/><path fill="#ef3340" d="M43.06 41.74L24.94 29.66v-14.5h18.12v26.58z"/><path d="M34 12a20 20 0 1020 20 20 20 0 00-20-20zm0 35.1A15.1 15.1 0 1149.1 32 15.1 15.1 0 0134 47.1z" fill="#3eb1c8"/><path d="M45.09 42.23A15.09 15.09 0 0120 26.38l-4.2-2.64a20 20 0 0033.49 21.14z" fill="#ffc72c"/></svg>