<svg xmlns="http://www.w3.org/2000/svg" style="isolation:isolate" width="242" height="36"><defs><clipPath id="a"><path d="M0 0h242v36H0z"/></clipPath></defs><g clip-path="url(#a)" fill="#fff"><path d="M193.875 10.661v-5.23c0-1.852 1.036-1.972 1.712-1.972V3.07h-6.035v.408c.675 0 1.712.138 1.712 1.971v10.886c0 1.851-1.037 1.972-1.712 1.972v.389h6.035v-.408c-.676 0-1.712-.139-1.712-1.971v-5.656zm22.549-7.591h-4.999v3.046h.389c.278-.796.37-1.944 2.62-1.944h2.082v12.145c0 1.851-1.046 1.971-1.721 1.971v.389h6.035v-.389c-.676 0-1.713-.139-1.713-1.971V4.172h2.074c2.249 0 2.342 1.148 2.629 1.944h.388V3.07h-7.784zm-46.209 7.813a7.797 7.797 0 00-8.165-8.127 8.137 8.137 0 000 16.263 7.792 7.792 0 008.165-8.136zm-7.794 7.007c-3.268.167-5.397-2.86-5.554-6.739-.158-3.878 1.647-7.118 4.906-7.285 3.258-.166 5.396 2.861 5.554 6.73.157 3.869-1.648 7.128-4.906 7.294m18.272-14.116a5.111 5.111 0 015.212 3.601h.379V3.783a18.686 18.686 0 00-5.341-1.027c-3.092 0-4.887.833-6.387 2.203a8.423 8.423 0 000 11.83c1.5 1.37 3.295 2.203 6.387 2.203a18.31 18.31 0 005.341-1.037v-3.582h-.379a5.111 5.111 0 01-5.212 3.601c-2.36 0-5.637-1.398-5.637-7.1s3.277-7.1 5.637-7.1m-28.621 10.432c0-2.462-1.935-3.601-3.907-4.758-1.453-.861-3.767-1.694-3.767-3.36S145.74 3.7 147.24 3.7a3.415 3.415 0 013.563 3.101h.519V3.663a8.637 8.637 0 00-3.897-.926c-2.583 0-5.017 1.546-5.082 4.156-.046 2.296 1.333 3.148 3.999 4.629 1.768.981 3.61 2.268 3.61 3.702 0 1.62-1.444 2.666-3.286 2.666a3.825 3.825 0 01-4.008-3.841h-.5v3.628a8.013 8.013 0 004.424 1.296c3.444 0 5.499-2.11 5.499-4.785M198.42 3.07v.408c.675 0 1.712.138 1.712 1.971v10.886c0 1.851-1.037 1.972-1.712 1.972v.389h11.172v-3.101h-.398c-.231 1.073-.555 1.99-1.962 1.99h-4.453v-6.906h2.676a1.473 1.473 0 011.675 1.722h.398L208 9.624l.074-.463h-.361c-.333.407-.657.463-1.407.463h-3.527V4.172h3.703a1.852 1.852 0 011.972 1.722h.389V3.117H198.42V3.07zm38.526 0v.408c.305.092.999.472.379 1.647l-3.119 5.554-3.342-5.822c-.463-.815-.176-1.342.352-1.342v-.389h-5.091v.352c1.055 0 1.712.925 2.48 2.156l3.842 6.378v4.323c0 1.851-1.046 1.972-1.722 1.972v.389h6.035v-.408c-.675 0-1.712-.139-1.712-1.971v-4.629l4.017-6.729A2.943 2.943 0 01241 3.478v-.389l-4.054-.019zM63.893 18.352c-.675 0-1.712-.139-1.712-1.972v-3.999h2.148l2.647 3.601c1.407 1.944 3.777 4.175 6.952 2.842l-.065-.361c-.926.203-2.259-.565-3.647-2.129l-3.897-4.823a5.555 5.555 0 002.712-4.628c0-2.527-1.722-3.759-5.138-3.759h-6.035v.417c.676 0 1.713.139 1.713 1.972v10.904c0 1.851-1.037 1.972-1.713 1.972v.388h6.035v-.425zm-1.675-7.6V4.133h1.203c2.102 0 3.148 1.565 3.148 3.583 0 2.018-1.046 3.582-3.148 3.582h-1.203v-.546zm18.837 8.359a8.128 8.128 0 100-16.256 8.128 8.128 0 000 16.256zm-.324-15.144c3.259-.167 5.388 2.869 5.554 6.739.167 3.869-1.657 7.127-4.915 7.294-3.258.167-5.397-2.87-5.554-6.739-.157-3.869 1.648-7.118 4.915-7.294zm10.886 1.749l3.832 6.378v4.323c0 1.851-1.036 1.972-1.712 1.972v.388h6.035v-.425c-.676 0-1.722-.139-1.722-1.972v-4.508l4.027-6.73a3.706 3.706 0 012.527-1.601v-.37h-4.786v.37c.371 0 1.389 0 .519 1.657l-3.083 5.554-3.378-5.85c-.463-.815-.176-1.342.351-1.342v-.389h-5.433v.37c1.064 0 2.055.926 2.777 2.157m11.228 12.654v.388h4.721v-.388c-1.074 0-1.222-.584-.991-1.37l1.009-2.777h5.554l1.056 2.777c.37.999.24 1.333-.509 1.333v.388h5.47v-.351c-1.064 0-1.749-.343-2.536-2.157l-5.295-13.006h-.74l-5.434 13.256c-.768 1.851-1.5 1.944-2.305 1.944m9.905-5.166h-4.786l2.351-6.414 2.435 6.414zm12.866 5.554h6.998v-3.101h-.388c-.241 1.074-.565 2-1.972 2h-4.628V5.531c0-1.851 1.046-1.971 1.721-1.971v-.389h-6.044v.37c.675 0 1.712.139 1.712 1.972v10.904c0 1.851-1.037 1.972-1.712 1.972v.388h4.313zm-102.691-.402c-.685 0-1.756-.14-1.756-1.984v-5.337h8.006v5.267c0 1.843-1.036 1.984-1.755 1.984v.386h6.057v-.386c-.685 0-1.756-.141-1.756-1.984V5.453c0-1.844 1.036-1.967 1.756-1.967v-.403h-5.987v.403c.685 0 1.756.123 1.756 1.967V9.86h-8.042V5.453c0-1.844 1.036-1.967 1.756-1.967v-.403h-6.11v.403c.685 0 1.756.123 1.756 1.967v10.868c0 1.843-1.054 1.984-1.756 1.984v.386h6.075v-.316zM4.444 4.189h2.089v12.132c0 1.843-1.054 1.984-1.756 1.984v.386h6.075v-.386c-.685 0-1.756-.141-1.756-1.984V4.189h2.142c2.248 0 2.353 1.158 2.634 1.949h.386V3.083H1.406v3.055h.404c.281-.791.369-1.949 2.634-1.949zm33.534 1.264v10.868c0 1.843-1.036 1.984-1.756 1.984v.386h11.272v-3.037h-.403c-.229 1.088-.562 2.001-1.967 2.001h-4.565v-6.917h2.722c1.527 0 1.755.983 1.755 1.755h.404l.474-2.826.088-.474h-.369c-.333.421-.667.474-1.422.474H40.7V4.224h3.722a1.842 1.842 0 011.966 1.756h.404V3.083H36.258v.403c.684 0 1.755.123 1.755 1.967"/><path d="M24.682 30.372a2.38 2.38 0 01-2.507 2.319h-3.721v-.198c.341 0 .899-.072.899-1.015v-5.6c0-.898-.54-1.006-.899-1.006v-.189h3.199c1.915 0 2.256 1.025 2.256 1.591a2.382 2.382 0 01-1.033 1.923 2.265 2.265 0 011.797 2.166m-4.053-5.249h.836c.898 0 1.357.657 1.33 1.645.026.42-.131.83-.432 1.124a1.074 1.074 0 01-.763.206h-.962l-.009-2.975zm0 7.092v.054h1.042a1.88 1.88 0 000-3.748h-1.033l-.009 3.694z" fill-rule="evenodd"/><path d="M35.703 28.575v-2.697c0-.898.539-1.015.899-1.015v-.198h-3.119v.198c.351 0 .899.072.899 1.015v5.591c0 .898-.539 1.015-.899 1.015v.198h3.11v-.198c-.351 0-.899-.072-.899-1.015v-2.894h.009zm22.217-.054v-2.697c0-.898.53-1.006.898-1.006v-.198H55.7v.198c.35 0 .899.072.899 1.006v5.591c0 .898-.531 1.006-.899 1.006v.198h3.1v-.198c-.35 0-.898-.072-.898-1.006v-2.912l.018.018zm-9.482 3.918c-.351 0-.899-.072-.899-1.006v-2.697h4.089v2.697c0 .898-.539 1.006-.898 1.006v.198h3.091v-.198c-.35 0-.898-.072-.898-1.006v-5.555c0-.898.53-1.006.898-1.006v-.207h-3.055v.207c.341 0 .898.063.898 1.006v2.247h-4.107v-2.247c0-.898.53-1.006.899-1.006v-.207h-3.11v.207c.342 0 .899.063.899 1.006v5.582c0 .898-.539 1.006-.899 1.006v.198h3.092v-.225zm-4.649-2.067c0-1.249-.979-1.797-1.986-2.417-.737-.441-1.923-.899-1.923-1.717 0-.818.683-1.213 1.456-1.213a1.734 1.734 0 011.797 1.581h.27V24.98a4.42 4.42 0 00-1.986-.468 2.374 2.374 0 00-2.589 2.121c0 1.169.674 1.6 2.04 2.346.899.494 1.798 1.159 1.798 1.896 0 .737-.728 1.358-1.672 1.358a1.94 1.94 0 01-2.04-1.96h-.261v1.852c.67.438 1.456.666 2.256.656 1.753 0 2.795-1.07 2.795-2.436m-15.285 2.292h3.595v-1.582h-.198c-.125.548-.287 1.016-1.006 1.016h-2.391v-6.193c0-.898.539-1.015.899-1.015v-.198h-3.11v.198c.351 0 .899.072.899 1.015v5.582c0 .898-.53 1.006-.899 1.006v.198h2.211v-.027zm33.64-1.42c0 .827.144 1.096.359 1.177.183.045.37.069.558.072v.171h-2.607v-.171a2.65 2.65 0 00.486-.054c.278-.081.305-.395.314-1.312v-6.462h.53s1.852 2.013 3.398 3.595c.728.719 2.282 2.418 2.282 2.418v-4.773c0-.647-.107-.898-.359-.961a2.296 2.296 0 00-.566-.063v-.189h2.561v.189a2.005 2.005 0 00-.395 0c-.297.081-.378.305-.387.899v6.875h-.53l-3.218-3.155c-1.159-1.141-2.426-2.633-2.426-2.633v4.377zm-54.85-4.656c0-1.294-.899-1.923-2.642-1.923H1.506v.198c.351 0 .899.072.899 1.015v5.591c0 .898-.53 1.015-.899 1.015v.198h3.101v-.198c-.351 0-.899-.072-.899-1.015v-2.076h.683a2.984 2.984 0 002.84-2.805m-2.885 2.247h-.638v-3.685h.638a1.62 1.62 0 011.618 1.798c0 1.043-.539 1.842-1.618 1.842m12.16-4.125h-2.427v.189h.342c.351.072.431.243.449.602.018.36 0 .638 0 2.247v1.33c0 1.088 0 2.049-.62 2.624a2.142 2.142 0 01-1.456.549 2.205 2.205 0 01-1.33-.405c-.521-.422-.827-1.069-.827-2.615v-3.694a.756.756 0 01.854-.665v-.198H8.435v.189a.757.757 0 01.854.665v3.766a3.47 3.47 0 00.944 2.804 3.408 3.408 0 002.355.737 3.138 3.138 0 002.201-.764 4.018 4.018 0 001.007-3.191v-3.379c0-.341.108-.548.387-.602h.278l.045-.189zm61.806 4.036h-2.939v.206c.324 0 .818.054.899.827v2.247a3.01 3.01 0 01-1.618.431c-1.24 0-2.966-.719-2.966-3.72 0-3.002 1.735-3.685 2.957-3.685a2.697 2.697 0 012.751 1.896h.197V24.98a9.584 9.584 0 00-2.813-.549 4.494 4.494 0 00-3.361 1.16 4.448 4.448 0 000 6.237 4.49 4.49 0 003.361 1.159 9.55 9.55 0 002.813-.548v-2.588c0-.899.539-.899.899-.899v-.207h-.162l-.018-.071z"/></g></svg>