<svg width="49" height="32" fill="none" xmlns="http://www.w3.org/2000/svg"><path d="M25.686 21.058v-2.589c0-.91.513-.964.847-.964v-.173h-2.986v.191c.335 0 .848.068.848.964v5.35c0 .91-.513.97-.848.97v.19h2.986v-.19c-.334 0-.847-.07-.847-.97v-2.78zm11.156-3.726h-2.473v1.492h.192c.137-.391.183-.95 1.296-.95h1.03v5.963c0 .91-.517.97-.851.97v.19h2.985v-.19c-.334 0-.847-.07-.847-.97v-5.964H39.2c1.113 0 1.159.56 1.3.951h.193v-1.492h-3.851zM13.98 21.171a3.807 3.807 0 00-1.131-2.882 3.859 3.859 0 00-2.907-1.112c-1.067 0-2.09.421-2.843 1.17a3.98 3.98 0 00-1.178 2.824 3.98 3.98 0 001.178 2.825 4.034 4.034 0 002.843 1.17 3.879 3.879 0 002.898-1.117 3.828 3.828 0 001.127-2.878h.014zm-3.869 3.449c-1.616.081-2.67-1.41-2.748-3.312-.077-1.902.816-3.503 2.428-3.585 1.611-.082 2.67 1.406 2.747 3.312.078 1.906-.815 3.498-2.427 3.585zm9.054-6.947a2.54 2.54 0 011.598.44c.468.321.813.79.98 1.33h.188v-1.76c-.85-.3-1.74-.472-2.642-.51-1.53 0-2.418.41-3.16 1.082a4.13 4.13 0 00-1.2 2.91 4.13 4.13 0 001.2 2.909c.742.668 1.63 1.078 3.16 1.078.9-.04 1.79-.21 2.642-.505v-1.765h-.188a2.512 2.512 0 01-.98 1.33 2.54 2.54 0 01-1.598.44c-1.168 0-2.789-.683-2.789-3.49 0-2.806 1.621-3.489 2.789-3.489zM5.005 22.8c0-1.21-.957-1.77-1.932-2.338-.72-.419-1.864-.828-1.864-1.652 0-.823.664-1.173 1.406-1.173.435-.02.86.126 1.19.41.328.284.533.683.573 1.114h.256v-1.538a4.227 4.227 0 00-1.928-.455c-1.277 0-2.482.764-2.514 2.047-.023 1.124.66 1.542 1.978 2.275.875.478 1.786 1.11 1.786 1.82 0 .791-.714 1.305-1.625 1.305a1.898 1.898 0 01-1.402-.519 1.874 1.874 0 01-.581-1.369H.1v1.783c.65.421 1.412.643 2.189.637 1.703 0 2.72-1.037 2.72-2.352m22.926-5.463v.191c.334 0 .847.068.847.964v5.35c0 .91-.513.97-.847.97v.19h5.527v-1.524h-.197c-.114.528-.275.983-.97.983h-2.203v-3.39h1.323a.733.733 0 01.81.505c.033.111.04.228.019.342h.197l.233-1.365.037-.227h-.179c-.165.204-.325.227-.696.227h-1.744v-2.675h1.831a.92.92 0 01.663.221.91.91 0 01.313.62h.192V17.35h-5.156v-.018zm19.059 0v.191c.151.046.495.228.188.81l-1.544 2.73-1.653-2.867c-.229-.4-.087-.655.174-.655v-.209h-2.518v.191c.522 0 .847.455 1.227 1.055l1.9 3.14v2.12c0 .909-.517.968-.851.968v.191h2.985v-.19c-.334 0-.847-.07-.847-.97v-2.274l1.988-3.308A1.44 1.44 0 0149 17.5v-.168h-2.006zM2.986 14.375c-.335 0-.847-.068-.847-.969V11.41H3.2l1.31 1.77c.696.955 1.868 2.056 3.439 1.396l-.032-.177c-.458.1-1.118-.273-1.804-1.042l-1.928-2.375a2.716 2.716 0 001.342-2.275c0-1.241-.852-1.819-2.542-1.819H0v.21c.334 0 .847.068.847.964v5.331c0 .91-.513.97-.847.97v.19h2.986v-.177zm-.83-3.762V7.356h.596c1.04 0 1.557.769 1.557 1.76 0 .992-.517 1.76-1.557 1.76h-.595v-.263zm9.32 4.103c1.067 0 2.09-.42 2.843-1.17a3.98 3.98 0 001.178-2.824 3.98 3.98 0 00-1.178-2.824 4.034 4.034 0 00-2.843-1.17 4.03 4.03 0 00-2.843 1.17 3.98 3.98 0 00-1.177 2.824 3.98 3.98 0 001.177 2.824 4.034 4.034 0 002.843 1.17zm-.16-7.437c1.612-.087 2.665 1.405 2.748 3.307.082 1.901-.82 3.503-2.432 3.584-1.612.082-2.67-1.405-2.748-3.311-.078-1.906.81-3.499 2.432-3.58zm5.385.855l1.896 3.139v2.12c0 .91-.513.968-.847.968v.191h2.986v-.177c-.334 0-.852-.068-.852-.969v-2.274l1.992-3.308a1.8 1.8 0 011.25-.727v-.192H20.76v.192c.183 0 .687 0 .256.81l-1.525 2.729-1.671-2.903c-.23-.4-.087-.655.174-.655v-.19h-2.688v.209c.526 0 1.016.454 1.374 1.055m5.553 6.223v.191h2.335v-.19c-.53 0-.604-.287-.49-.674l.5-1.365h2.747l.522 1.365c.183.496.12.655-.252.655v.191h2.707v-.173c-.527 0-.866-.168-1.255-1.06l-2.62-6.423h-.366l-2.688 6.514c-.38.91-.742.955-1.14.955v.014zm4.9-2.547h-2.368l1.164-3.153 1.204 3.153zm6.366 2.724h3.462V13.01h-.193c-.119.528-.279.983-.975.983h-2.29v-5.95c0-.91.518-.965.852-.965v-.19h-2.99v.209c.334 0 .847.068.847.964v5.331c0 .91-.513.97-.847.97v.19h2.134zM5.697 3.962c-.178 0-.458-.036-.458-.514V2.083h2.089v1.365c0 .478-.27.514-.458.514v.1h1.58v-.1c-.18 0-.458-.036-.458-.514V.614c0-.455.27-.514.458-.514V0H6.888v.1c.179 0 .458.036.458.514v1.142H5.248V.614c0-.455.27-.514.458-.514V0H4.113v.1c.178 0 .458.036.458.514v2.843c0 .478-.275.514-.458.514v.1h1.584v-.109zM.888.273h.545v3.184c0 .478-.274.514-.458.514v.1H2.56v-.1c-.179 0-.458-.036-.458-.514V.273h.559c.586 0 .613.296.687.505h.1V0H.096v.792h.106C.275.582.298.287.888.287m8.747.327v2.843c0 .478-.27.514-.458.514v.1h2.94v-.818h-.105c-.06.282-.147.523-.513.523h-1.19v-1.82h.71c.398 0 .457.255.457.455h.105l.124-.732.023-.123h-.096c-.087.109-.174.123-.371.123h-.916V.273h.97a.46.46 0 01.474.267c.027.06.04.123.04.188h.105V0H9.186v.1c.179 0 .458.036.458.514" fill="#fff"/><path fill-rule="evenodd" clip-rule="evenodd" d="M11.604 30.715a1.199 1.199 0 01-.39.852 1.215 1.215 0 01-.887.317H8.43v-.1c.174 0 .458-.036.458-.51V28.45c0-.455-.275-.514-.458-.514v-.096h1.63c.975 0 1.15.523 1.15.805a1.2 1.2 0 01-.527.974 1.138 1.138 0 01.916 1.096h.004zm-2.07-2.656h.426c.458 0 .692.332.678.832a.742.742 0 01-.22.569.575.575 0 01-.39.1h-.49l-.004-1.501zm0 3.584v.019h.532c.252 0 .494-.1.673-.278a.943.943 0 000-1.338.956.956 0 00-.673-.277h-.527l-.005 1.874z" fill="#fff"/><path d="M17.14 29.792v-1.365c0-.477.276-.514.459-.514v-.1h-1.59v.1c.18 0 .459.037.459.514v2.834c0 .455-.275.51-.458.51v.104h1.584v-.104c-.178 0-.458-.032-.458-.51v-1.474l.005.005zm11.005-.005v-1.364c0-.478.27-.514.458-.514v-.1h-1.589v.1c.179 0 .458.036.458.514v2.825c0 .455-.27.51-.458.51v.1h1.58v-.1c-.178 0-.458-.033-.458-.51v-1.47l.01.01zm-4.831 1.979c-.179 0-.458-.036-.458-.51v-1.364h2.083v1.365c0 .455-.274.51-.458.51v.1h1.576v-.1c-.179 0-.458-.037-.458-.51v-2.825c0-.455.27-.51.458-.51v-.1H24.5v.1c.174 0 .458.037.458.51v1.137h-2.093v-1.137c0-.455.27-.51.458-.51v-.1h-1.585v.1c.174 0 .458.037.458.51v2.825c0 .455-.275.51-.458.51v.1h1.576v-.1zm-2.29-1.069c0-.632-.499-.91-1.012-1.223-.375-.223-.98-.455-.98-.87 0-.413.348-.613.742-.613a.887.887 0 01.62.218c.17.149.276.357.296.582h.137v-.81a2.27 2.27 0 00-1.012-.236 1.214 1.214 0 00-.882.266 1.199 1.199 0 00-.437.807c0 .592.344.81 1.04 1.188.458.254.916.587.916.964 0 .378-.371.683-.852.683a.995.995 0 01-.961-.598.977.977 0 01-.078-.39h-.133v.91c.34.224.74.34 1.15.337.892 0 1.423-.546 1.423-1.238m-7.551 1.192h1.832v-.8h-.101c-.064.277-.147.518-.513.518H13.45v-3.152c0-.478.275-.514.458-.514v-.1h-1.585v.1c.179 0 .458.036.458.514v2.825c0 .455-.27.51-.458.51v.1h1.127zm16.825-.718c0 .418.073.56.183.596.093.022.188.034.284.036v.086h-1.328v-.086c.083-.002.166-.01.247-.027.142-.041.156-.196.16-.665v-3.266h.27s.944 1.02 1.732 1.82a51.42 51.42 0 011.163 1.224v-2.411c0-.328-.055-.428-.183-.483a1.184 1.184 0 00-.289-.032v-.095h1.306v.095a1.383 1.383 0 00-.202 0c-.151.046-.192.16-.197.455v3.476h-.27s-1.076-1.07-1.64-1.62c-.563-.55-1.236-1.319-1.236-1.319v2.216zM2.958 28.791c0-.655-.458-.973-1.346-.973H.032v.1c.178 0 .458.036.458.514v2.83c0 .454-.27.513-.458.513v.105h1.58v-.105c-.179 0-.458-.036-.458-.51v-1.05h.348c.306-.01.601-.117.842-.305a1.395 1.395 0 00.605-1.119h.009zm-1.48 1.142h-.324v-1.865h.325c.55 0 .824.405.824.932a.814.814 0 01-.486.84.83.83 0 01-.338.07m6.196-2.088H6.44v.096h.174c.178.04.22.123.229.31.009.186 0 .322 0 1.136v.669c0 .555 0 1.037-.316 1.333a1.112 1.112 0 01-.705.296 1.127 1.127 0 01-.678-.205c-.266-.21-.421-.541-.421-1.32v-1.874a.38.38 0 01.282-.327.387.387 0 01.153-.01v-.1H3.563v.1a.387.387 0 01.39.196.38.38 0 01.045.146v1.902a1.763 1.763 0 00.48 1.423c.341.266.769.397 1.2.369.41.019.813-.12 1.123-.387a2.03 2.03 0 00.513-1.615v-1.71c0-.169.055-.282.196-.31h.142l.023-.118zm30.861 2.02h-1.493v.096c.165 0 .417.031.458.423v1.132c-.248.15-.534.228-.824.223-.632 0-1.512-.364-1.512-1.888s.88-1.892 1.512-1.892a1.368 1.368 0 011.401.96h.1v-.956a4.929 4.929 0 00-1.433-.272 2.304 2.304 0 00-1.712.586 2.24 2.24 0 000 3.153 2.293 2.293 0 001.712.587 5.067 5.067 0 001.434-.273v-1.315c0-.455.274-.455.458-.455v-.109h-.101z" fill="#fff"/></svg>