<?xml version="1.0" standalone="no"?><!-- Generator: Gravit.io --><svg xmlns="http://www.w3.org/2000/svg" xmlns:xlink="http://www.w3.org/1999/xlink" style="isolation:isolate" viewBox="0 0 657 85" width="657" height="85"><defs><clipPath id="_clipPath_YvgSvL1AdyrZRr3uWfP7JFN6elx3KW2X"><rect width="657" height="85"/></clipPath></defs><g clip-path="url(#_clipPath_YvgSvL1AdyrZRr3uWfP7JFN6elx3KW2X)"><clipPath id="_clipPath_Pn7FZ1GmszDUiICMGsHCFR7JIt6KslK7"><rect x="0" y="0" width="790" height="85" transform="matrix(1,0,0,1,0,0)" fill="rgb(255,255,255)"/></clipPath><g clip-path="url(#_clipPath_Pn7FZ1GmszDUiICMGsHCFR7JIt6KslK7)"><g><path d=" M 9.3 77.636 L 9.3 50.874 L 3.603 50.874 L 3.603 77.636 L 9.3 77.636 L 9.3 77.636 Z  M 38.55 77.636 L 38.55 50.874 L 32.852 50.874 L 32.852 67.686 L 20.454 50.874 L 14.596 50.874 L 14.596 77.636 L 20.294 77.636 L 20.294 60.183 L 33.053 77.636 L 38.55 77.636 L 38.55 77.636 Z  M 55.762 77.636 L 55.762 55.89 L 63.546 55.89 L 63.546 50.874 L 42.201 50.874 L 42.201 55.89 L 50.025 55.89 L 50.025 77.636 L 55.762 77.636 L 55.762 77.636 Z  M 86.135 77.636 L 86.135 72.621 L 72.895 72.621 L 72.895 66.562 L 85.854 66.562 L 85.854 61.547 L 72.895 61.547 L 72.895 55.89 L 86.135 55.89 L 86.135 50.874 L 67.197 50.874 L 67.197 77.636 L 86.135 77.636 L 86.135 77.636 Z  M 112.255 77.636 L 106.236 67.445 C 109.125 66.763 112.094 64.235 112.094 59.501 C 112.094 54.525 108.684 50.874 103.107 50.874 L 90.589 50.874 L 90.589 77.636 L 96.286 77.636 L 96.286 68.127 L 100.459 68.127 L 105.715 77.636 L 112.255 77.636 L 112.255 77.636 Z  M 102.264 63.112 L 96.286 63.112 L 96.286 55.89 L 102.264 55.89 C 104.551 55.89 106.277 57.254 106.277 59.501 C 106.277 61.748 104.551 63.112 102.264 63.112 Z  M 122.085 77.636 L 122.085 66.562 L 135.044 66.562 L 135.044 61.547 L 122.085 61.547 L 122.085 55.89 L 135.325 55.89 L 135.325 50.874 L 116.387 50.874 L 116.387 77.636 L 122.085 77.636 L 122.085 77.636 Z  M 164.254 77.636 L 153.942 50.874 L 146.8 50.874 L 136.449 77.636 L 142.949 77.636 L 144.634 73.102 L 156.109 73.102 L 157.754 77.636 L 164.254 77.636 L 164.254 77.636 Z  M 154.544 68.087 L 146.199 68.087 L 150.371 56.572 L 154.544 68.087 L 154.544 68.087 Z  M 178.701 78.118 C 184.599 78.118 187.969 74.868 189.895 71.537 L 185 69.17 C 183.877 71.377 181.469 73.062 178.701 73.062 C 173.846 73.062 170.315 69.331 170.315 64.275 C 170.315 59.22 173.846 55.488 178.701 55.488 C 181.469 55.488 183.877 57.214 185 59.38 L 189.895 56.973 C 188.009 53.643 184.599 50.433 178.701 50.433 C 170.676 50.433 164.457 56.05 164.457 64.275 C 164.457 72.5 170.676 78.118 178.701 78.118 Z  M 212.243 77.636 L 212.243 72.621 L 199.003 72.621 L 199.003 66.562 L 211.962 66.562 L 211.962 61.547 L 199.003 61.547 L 199.003 55.89 L 212.243 55.89 L 212.243 50.874 L 193.305 50.874 L 193.305 77.636 L 212.243 77.636 L 212.243 77.636 Z  M 497.752 35.601 C 504.975 35.601 508.465 31.91 508.465 27.015 C 508.465 17.024 493.098 19.873 493.098 15.62 C 493.098 14.015 494.462 12.932 496.91 12.932 C 499.638 12.932 502.527 13.855 504.694 15.861 L 507.863 11.688 C 505.215 9.241 501.684 7.957 497.431 7.957 C 491.132 7.957 487.28 11.648 487.28 16.102 C 487.28 26.172 502.688 22.923 502.688 27.657 C 502.688 29.182 501.163 30.626 498.033 30.626 C 494.342 30.626 491.413 28.981 489.527 27.015 L 486.438 31.348 C 488.926 33.876 492.617 35.601 497.752 35.601 Z  M 524.996 35.601 C 533.1 35.601 538.998 29.824 538.998 21.759 C 538.998 13.694 533.1 7.917 524.996 7.917 C 516.931 7.917 511.033 13.694 511.033 21.759 C 511.033 29.824 516.931 35.601 524.996 35.601 Z  M 524.996 30.546 C 520.061 30.546 516.891 26.734 516.891 21.759 C 516.891 16.744 520.061 12.972 524.996 12.972 C 529.931 12.972 533.141 16.744 533.141 21.759 C 533.141 26.734 529.931 30.546 524.996 30.546 Z  M 555.97 35.601 C 561.868 35.601 565.239 32.351 567.165 29.021 L 562.27 26.654 C 561.146 28.861 558.739 30.546 555.97 30.546 C 551.115 30.546 547.585 26.814 547.585 21.759 C 547.585 16.704 551.115 12.972 555.97 12.972 C 558.739 12.972 561.146 14.697 562.27 16.864 L 567.165 14.457 C 565.279 11.126 561.868 7.917 555.97 7.917 C 547.946 7.917 541.727 13.534 541.727 21.759 C 541.727 29.984 547.946 35.601 555.97 35.601 Z  M 576.272 35.12 L 576.272 8.358 L 570.575 8.358 L 570.575 35.12 L 576.272 35.12 L 576.272 35.12 Z  M 600.506 35.12 L 600.506 30.104 L 587.266 30.104 L 587.266 24.046 L 600.226 24.046 L 600.226 19.031 L 587.266 19.031 L 587.266 13.373 L 600.506 13.373 L 600.506 8.358 L 581.569 8.358 L 581.569 35.12 L 600.506 35.12 L 600.506 35.12 Z  M 616.876 35.12 L 616.876 13.373 L 624.66 13.373 L 624.66 8.358 L 603.315 8.358 L 603.315 13.373 L 611.139 13.373 L 611.139 35.12 L 616.876 35.12 L 616.876 35.12 Z  M 641.472 35.12 L 641.472 24.166 L 651.703 8.358 L 645.203 8.358 L 638.623 19.111 L 631.962 8.358 L 625.463 8.358 L 635.774 24.166 L 635.774 35.12 L 641.472 35.12 L 641.472 35.12 Z  M 368.839 35.12 L 362.82 24.929 C 365.709 24.247 368.678 21.719 368.678 16.984 C 368.678 12.009 365.268 8.358 359.691 8.358 L 347.172 8.358 L 347.172 35.12 L 352.87 35.12 L 352.87 25.611 L 357.043 25.611 L 362.299 35.12 L 368.839 35.12 L 368.839 35.12 Z  M 358.848 20.595 L 352.87 20.595 L 352.87 13.373 L 358.848 13.373 C 361.135 13.373 362.86 14.738 362.86 16.984 C 362.86 19.231 361.135 20.595 358.848 20.595 Z  M 385.65 35.601 C 393.755 35.601 399.653 29.824 399.653 21.759 C 399.653 13.694 393.755 7.917 385.65 7.917 C 377.585 7.917 371.687 13.694 371.687 21.759 C 371.687 29.824 377.585 35.601 385.65 35.601 Z  M 385.65 30.546 C 380.715 30.546 377.545 26.734 377.545 21.759 C 377.545 16.744 380.715 12.972 385.65 12.972 C 390.585 12.972 393.795 16.744 393.795 21.759 C 393.795 26.734 390.585 30.546 385.65 30.546 Z  M 416.825 35.12 L 416.825 24.166 L 427.057 8.358 L 420.557 8.358 L 413.977 19.111 L 407.316 8.358 L 400.816 8.358 L 411.128 24.166 L 411.128 35.12 L 416.825 35.12 L 416.825 35.12 Z  M 454.5 35.12 L 444.189 8.358 L 437.047 8.358 L 426.695 35.12 L 433.195 35.12 L 434.88 30.586 L 446.355 30.586 L 448 35.12 L 454.5 35.12 L 454.5 35.12 Z  M 444.791 25.571 L 436.445 25.571 L 440.618 14.055 L 444.791 25.571 L 444.791 25.571 Z  M 474 35.12 L 474 30.104 L 462.685 30.104 L 462.685 8.358 L 456.988 8.358 L 456.988 35.12 L 474 35.12 L 474 35.12 Z  M 272.745 35.12 L 272.745 13.373 L 280.529 13.373 L 280.529 8.358 L 259.184 8.358 L 259.184 13.373 L 267.008 13.373 L 267.008 35.12 L 272.745 35.12 L 272.745 35.12 Z  M 308.254 35.12 L 308.254 8.358 L 302.516 8.358 L 302.516 18.87 L 289.877 18.87 L 289.877 8.358 L 284.18 8.358 L 284.18 35.12 L 289.877 35.12 L 289.877 23.885 L 302.516 23.885 L 302.516 35.12 L 308.254 35.12 L 308.254 35.12 Z  M 332.447 35.12 L 332.447 30.104 L 319.207 30.104 L 319.207 24.046 L 332.167 24.046 L 332.167 19.031 L 319.207 19.031 L 319.207 13.373 L 332.447 13.373 L 332.447 8.358 L 313.51 8.358 L 313.51 35.12 L 332.447 35.12 L 332.447 35.12 Z  M 209.632 35.601 C 217.737 35.601 223.635 29.824 223.635 21.759 C 223.635 13.694 217.737 7.917 209.632 7.917 C 201.568 7.917 195.67 13.694 195.67 21.759 C 195.67 29.824 201.568 35.601 209.632 35.601 Z  M 209.632 30.546 C 204.697 30.546 201.528 26.734 201.528 21.759 C 201.528 16.744 204.697 12.972 209.632 12.972 C 214.567 12.972 217.777 16.744 217.777 21.759 C 217.777 26.734 214.567 30.546 209.632 30.546 Z  M 233.345 35.12 L 233.345 24.046 L 246.304 24.046 L 246.304 19.031 L 233.345 19.031 L 233.345 13.373 L 246.585 13.373 L 246.585 8.358 L 227.647 8.358 L 227.647 35.12 L 233.345 35.12 L 233.345 35.12 Z  M 8.378 35.601 C 13.874 35.601 17.806 32.672 17.806 26.333 L 17.806 8.358 L 12.109 8.358 L 12.109 26.253 C 12.109 28.861 10.464 30.546 7.936 30.546 C 6.091 30.546 4.726 29.623 3.683 28.62 L 1.196 32.993 C 3.121 34.879 5.689 35.601 8.378 35.601 Z  M 35.781 35.601 C 43.886 35.601 49.784 29.824 49.784 21.759 C 49.784 13.694 43.886 7.917 35.781 7.917 C 27.717 7.917 21.819 13.694 21.819 21.759 C 21.819 29.824 27.717 35.601 35.781 35.601 Z  M 35.781 30.546 C 30.846 30.546 27.676 26.734 27.676 21.759 C 27.676 16.744 30.846 12.972 35.781 12.972 C 40.716 12.972 43.926 16.744 43.926 21.759 C 43.926 26.734 40.716 30.546 35.781 30.546 Z  M 65.873 35.601 C 74.018 35.601 77.95 31.067 77.95 24.407 L 77.95 8.358 L 72.132 8.358 L 72.132 24.247 C 72.132 27.978 70.006 30.546 65.873 30.546 C 61.741 30.546 59.574 27.978 59.574 24.247 L 59.574 8.358 L 53.796 8.358 L 53.796 24.447 C 53.796 31.027 57.728 35.601 65.873 35.601 Z  M 104.872 35.12 L 98.854 24.929 C 101.743 24.247 104.712 21.719 104.712 16.984 C 104.712 12.009 101.301 8.358 95.724 8.358 L 83.206 8.358 L 83.206 35.12 L 88.903 35.12 L 88.903 25.611 L 93.076 25.611 L 98.332 35.12 L 104.872 35.12 L 104.872 35.12 Z  M 94.882 20.595 L 88.903 20.595 L 88.903 13.373 L 94.882 13.373 C 97.169 13.373 98.894 14.738 98.894 16.984 C 98.894 19.231 97.169 20.595 94.882 20.595 Z  M 132.958 35.12 L 132.958 8.358 L 127.261 8.358 L 127.261 25.169 L 114.863 8.358 L 109.005 8.358 L 109.005 35.12 L 114.702 35.12 L 114.702 17.666 L 127.461 35.12 L 132.958 35.12 L 132.958 35.12 Z  M 163.21 35.12 L 152.899 8.358 L 145.757 8.358 L 135.406 35.12 L 141.905 35.12 L 143.591 30.586 L 155.066 30.586 L 156.711 35.12 L 163.21 35.12 L 163.21 35.12 Z  M 153.501 25.571 L 145.155 25.571 L 149.328 14.055 L 153.501 25.571 L 153.501 25.571 Z  M 182.71 35.12 L 182.71 30.104 L 171.395 30.104 L 171.395 8.358 L 165.698 8.358 L 165.698 35.12 L 182.71 35.12 L 182.71 35.12 Z " fill-rule="evenodd" fill="rgb(163,39,143)"/></g></g></g></svg>