<?xml version="1.0" encoding="utf-8"?>
<!-- Generator: Adobe Illustrator 20.0.0, SVG Export Plug-In . SVG Version: 6.00 Build 0)  -->
<svg version="1.1" id="Layer_1" xmlns="http://www.w3.org/2000/svg" xmlns:xlink="http://www.w3.org/1999/xlink" x="0px" y="0px"
	 width="194.7px" height="25px" viewBox="0 0 194.7 25" style="enable-background:new 0 0 194.7 25;" xml:space="preserve">
<style type="text/css">
	.st0{fill:#E30613;}
</style>
<g>
	<path d="M121.2,5.4c0-1.3-0.6-2.6-1.8-3.2c-1.1-0.6-2.4-0.6-3.6-0.6h-2.1v13.6h1.7V9.4h0.7l4,5.7h2.1l-4.3-5.9
		C119.9,9,121.2,7.4,121.2,5.4z M116,8h-0.5V3.1h0.5c1.7,0,3.7,0.3,3.7,2.4C119.6,7.7,117.7,8,116,8z"/>
	<polygon points="125.6,15.2 132.9,15.2 132.9,13.6 127.3,13.6 127.3,8.5 132.8,8.5 132.8,6.9 127.3,6.9 127.3,3.1 132.9,3.1 
		132.9,1.6 125.6,1.6 	"/>
	<path d="M139,1.6h-1.9v13.6h1.7V9.5h1c2.6,0,4.8-1.1,4.8-4C144.5,3,143.2,1.6,139,1.6z M139.3,7.9h-0.5V3.1h0.5
		c1.7,0,3.7,0.3,3.7,2.4C142.9,7.6,141,7.9,139.3,7.9z"/>
	<path d="M172.5,5.4c0-1.3-0.6-2.6-1.8-3.2c-1.1-0.6-2.4-0.6-3.6-0.6h-2.1v13.6h1.7V9.4h0.7l4,5.7h2.1l-4.3-5.9
		C171.2,9,172.5,7.4,172.5,5.4z M167.3,8h-0.5V3.1h0.5c1.7,0,3.7,0.3,3.7,2.4C170.9,7.7,169,8,167.3,8z"/>
	<polygon points="175.3,3.1 178.5,3.1 178.5,15.2 180.2,15.2 180.2,3.1 183.4,3.1 183.4,1.6 175.3,1.6 	"/>
	<path d="M191.3,7.1l-1-0.4c-0.8-0.3-1.9-0.9-1.9-1.9c0-1.2,1.2-1.9,2.3-1.9c1,0,1.7,0.4,2.2,1.3l1.4-0.8c-0.7-1.3-2-2.1-3.5-2.1
		c-2.1,0-4,1.3-4,3.5c0,1.9,1.4,2.8,3,3.4l0.9,0.4c1.2,0.5,2.3,1.1,2.3,2.6c0,1.4-1,2.6-2.5,2.6c-1.5,0-2.6-1.1-2.6-2.6l-1.7,0.4
		c0.3,2.2,2,3.8,4.2,3.8c2.4,0,4.3-1.8,4.3-4.2C194.7,8.9,193.2,7.9,191.3,7.1z"/>
	<path class="st0" d="M153,19.3l1-0.4c-0.1-0.3-0.2-0.5-0.3-0.7l-1,0.4c-0.2-0.3-0.4-0.6-0.6-0.9l0.7-0.9c-0.2-0.2-0.4-0.3-0.6-0.5
		l-0.7,0.9c-0.3-0.2-0.6-0.3-1-0.4l0.2-1.1c-0.1,0-0.3-0.1-0.4-0.1c-0.1,0-0.3,0-0.4,0l-0.2,1.1c-0.4,0-0.7,0-1.1,0.1l-0.4-1
		c-0.3,0.1-0.5,0.2-0.7,0.3l0.4,1c-0.3,0.2-0.6,0.4-0.9,0.6l-0.9-0.7c-0.2,0.2-0.3,0.4-0.5,0.6l0.9,0.7c-0.2,0.3-0.3,0.6-0.4,1
		l-1.1-0.2c0,0.1-0.1,0.3-0.1,0.4c0,0.1,0,0.3,0,0.4l1.1,0.2c0,0.4,0,0.7,0.1,1.1l-1,0.4c0.1,0.3,0.2,0.5,0.3,0.7l1-0.4
		c0.2,0.3,0.4,0.6,0.6,0.9l-0.7,0.9c0.2,0.2,0.4,0.3,0.6,0.5l0.7-0.9c0.3,0.2,0.6,0.3,1,0.4l-0.2,1.1c0.1,0,0.3,0.1,0.4,0.1
		c0.1,0,0.3,0,0.4,0l0.2-1.1c0.4,0,0.7,0,1.1-0.1l0.4,1c0.3-0.1,0.5-0.2,0.7-0.3l-0.4-1c0.3-0.2,0.6-0.4,0.9-0.6l0.9,0.7
		c0.2-0.2,0.3-0.4,0.5-0.6l-0.9-0.7c0.2-0.3,0.3-0.6,0.4-1l1.1,0.2c0-0.1,0.1-0.3,0.1-0.4c0-0.1,0-0.3,0-0.4l-1.1-0.2
		C153.1,20,153.1,19.7,153,19.3z M152.4,20.7c0,0.2-0.1,0.5-0.2,0.7l0,0.1c-0.2,0.5-0.5,0.8-0.9,1.1l-0.1,0
		c-0.4,0.3-0.8,0.5-1.3,0.5l-0.1,0c-0.2,0-0.5,0-0.7,0c-0.2,0-0.5-0.1-0.7-0.2l-0.1,0c-0.5-0.2-0.8-0.5-1.1-0.9l0-0.1
		c-0.3-0.4-0.5-0.8-0.5-1.3l0-0.1c0-0.2,0-0.5,0-0.7c0-0.2,0.1-0.5,0.2-0.7l0-0.1c0.2-0.5,0.5-0.8,0.9-1.1l0.1,0
		c0.4-0.3,0.9-0.5,1.3-0.5l0.1,0c0.2,0,0.5,0,0.7,0c0.2,0,0.5,0.1,0.7,0.2l0.1,0c0.5,0.2,0.8,0.5,1.1,0.9l0,0.1
		c0.3,0.4,0.5,0.8,0.5,1.3l0,0.1C152.4,20.2,152.4,20.5,152.4,20.7z"/>
	<path class="st0" d="M161,6.4l1.6-0.6l-0.4-1.1l-1.6,0.6c-0.2-0.4-0.5-0.9-0.8-1.2l1.2-1.2L160,2.1l-1.2,1.2
		c-0.4-0.3-0.8-0.6-1.2-0.8l0.6-1.6l-1.1-0.4L156.5,2c-0.5-0.1-1-0.2-1.5-0.3V0h-1.2v1.7c-0.5,0-1,0.1-1.5,0.3l-0.6-1.6l-1.1,0.4
		l0.6,1.6c-0.4,0.2-0.9,0.5-1.2,0.8l-1.2-1.2l-0.8,0.8l1.2,1.2c-0.3,0.4-0.6,0.8-0.8,1.2l-1.6-0.6l-0.4,1.1l1.6,0.6
		c-0.1,0.5-0.2,1-0.3,1.5H146V9h1.7c0,0.5,0.1,1,0.3,1.5l-1.6,0.6l0.4,1.1l1.6-0.6c0.2,0.4,0.5,0.9,0.8,1.2l-1.2,1.2l0.8,0.8
		l1.2-1.2c0.4,0.3,0.8,0.6,1.2,0.8l-0.6,1.6l1.1,0.4l0.6-1.6c0.5,0.1,1,0.2,1.5,0.3v1.7h1.2v-1.7c0.5,0,1-0.1,1.5-0.3l0.6,1.6
		l1.1-0.4l-0.6-1.6c0.4-0.2,0.9-0.5,1.2-0.8l1.2,1.2l0.8-0.8l-1.2-1.2c0.3-0.4,0.6-0.8,0.8-1.2l1.6,0.6l0.4-1.1l-1.6-0.6
		c0.1-0.5,0.2-1,0.3-1.5h1.7V7.9h-1.7C161.2,7.4,161.1,6.9,161,6.4z M154.5,14c-3.1,0-5.6-2.5-5.6-5.6c0-3.1,2.5-5.6,5.6-5.6
		c3.1,0,5.6,2.5,5.6,5.6C160.1,11.5,157.6,14,154.5,14z"/>
	<path d="M6.6,8.6L4.1,7.3C3,6.8,1.6,6.2,1.6,4.8c0-1.4,1.1-2.6,2.5-2.6c1.3,0,2.1,0.6,2.7,1.6l0.6-0.5C6.9,2.1,5.6,1.4,4.2,1.4
		c-2,0-3.4,1.4-3.4,3.4c0,1.1,0.5,1.9,1.4,2.4l2.4,1.3c1.2,0.6,2.7,1.2,2.7,2.7c0,1.8-1.6,3.2-3.3,3.2c-1.6,0-2.7-1-3.2-2.4L0,12.3
		c0.6,1.7,2.1,2.9,4,2.9c2.2,0,4.2-1.7,4.2-3.9C8.2,10.1,7.7,9.3,6.6,8.6z"/>
	<path d="M11.7,8.3c0,3.8,3.3,6.9,7,6.9c1.7,0,3.2-0.6,4.5-1.7v-1.2c-1,1.2-3,2.1-4.5,2.1c-1.6,0-3.2-0.8-4.3-1.9
		c-1.1-1.1-1.8-2.6-1.8-4.2c0-3.3,2.8-6.2,6.1-6.2c1.7,0,3.5,0.9,4.5,2.1V3.2c-1.2-1.1-2.8-1.7-4.5-1.7C14.9,1.4,11.7,4.5,11.7,8.3z
		"/>
	<rect x="27.8" y="1.6" width="0.9" height="13.4"/>
	<polygon points="33.6,15 40,15 40,14.2 34.5,14.2 34.5,8.1 39.9,8.1 39.9,7.3 34.5,7.3 34.5,2.4 40,2.4 40,1.6 33.6,1.6 	"/>
	<polygon points="56.1,13.3 44.8,1.4 44.8,15 45.6,15 45.6,3.5 56.9,15.5 56.9,1.6 56.1,1.6 	"/>
	<polygon points="60.6,2.4 64.1,2.4 64.1,15 64.9,15 64.9,2.4 68.4,2.4 68.4,1.6 60.6,1.6 	"/>
	<rect x="72.1" y="1.6" width="0.9" height="13.4"/>
	<polygon points="77.9,15 78.8,15 78.8,8.1 83.2,8.1 83.2,7.3 78.8,7.3 78.8,2.4 83.3,2.4 83.3,1.6 77.9,1.6 	"/>
	<rect x="87.9" y="1.6" width="0.9" height="13.4"/>
	<path d="M93,8.3c0,3.8,3.3,6.9,7,6.9c1.7,0,3.2-0.6,4.5-1.7v-1.2c-1,1.2-3,2.1-4.5,2.1c-1.6,0-3.2-0.8-4.3-1.9
		c-1.1-1.1-1.8-2.6-1.8-4.2c0-3.3,2.8-6.2,6.1-6.2c1.7,0,3.5,0.9,4.5,2.1V3.2c-1.2-1.1-2.8-1.7-4.5-1.7C96.2,1.4,93,4.5,93,8.3z"/>
</g>
</svg>
