<?xml version="1.0" encoding="utf-8"?>
<!-- Generator: Adobe Illustrator 20.0.0, SVG Export Plug-In . SVG Version: 6.00 Build 0)  -->
<svg version="1.1" id="Layer_1" xmlns="http://www.w3.org/2000/svg" xmlns:xlink="http://www.w3.org/1999/xlink" x="0px" y="0px"
	 width="311.5px" height="40px" viewBox="0 0 311.5 40" style="enable-background:new 0 0 311.5 40;" xml:space="preserve">
<style type="text/css">
	.st0{fill:#E30613;}
</style>
<g>
	<path d="M193.9,8.7c0-2.1-1-4.1-2.9-5.2c-1.7-1-3.8-1-5.7-1H182v21.7h2.7v-9.2h1.1l6.4,9.2h3.3l-6.9-9.5
		C191.8,14.4,193.9,11.8,193.9,8.7z M185.6,12.8h-0.9V4.9h0.7c2.7,0,5.9,0.5,5.9,3.9C191.4,12.3,188.4,12.8,185.6,12.8z"/>
	<polygon points="201,24.3 212.7,24.3 212.7,21.8 203.7,21.8 203.7,13.6 212.4,13.6 212.4,11.1 203.7,11.1 203.7,5 212.7,5 
		212.7,2.5 201,2.5 	"/>
	<path d="M222.4,2.5h-3.1v21.7h2.7v-9.1h1.6c4.1,0,7.6-1.8,7.6-6.3C231.2,4.8,229.1,2.5,222.4,2.5z M222.9,12.7H222V4.9h0.7
		c2.7,0,5.9,0.4,5.9,3.8C228.7,12.2,225.7,12.7,222.9,12.7z"/>
	<path d="M276,8.7c0-2.1-1-4.1-2.9-5.2c-1.7-1-3.8-1-5.7-1h-3.3v21.7h2.7v-9.2h1.1l6.4,9.2h3.3l-6.9-9.5
		C273.9,14.4,276,11.8,276,8.7z M267.7,12.8h-0.9V4.9h0.7c2.7,0,5.9,0.5,5.9,3.9C273.4,12.3,270.4,12.8,267.7,12.8z"/>
	<polygon points="280.5,5 285.6,5 285.6,24.3 288.3,24.3 288.3,5 293.5,5 293.5,2.5 280.5,2.5 	"/>
	<path d="M306.1,11.4l-1.6-0.6c-1.4-0.5-3-1.4-3-3.1c0-1.9,1.9-3.1,3.6-3.1c1.6,0,2.7,0.7,3.5,2l2.2-1.3c-1.2-2.1-3.2-3.3-5.6-3.3
		c-3.3,0-6.4,2.1-6.4,5.6c0,3,2.3,4.4,4.7,5.5l1.5,0.6c1.9,0.8,3.7,1.8,3.7,4.1c0,2.3-1.7,4.2-4,4.2c-2.3,0-4.2-1.7-4.2-4.1
		l-2.7,0.6c0.5,3.5,3.2,6.1,6.7,6.1c3.9,0,6.9-2.8,6.9-6.8C311.5,14.3,309.2,12.6,306.1,11.4z"/>
	<path class="st0" d="M244.8,30.9l1.7-0.7c-0.1-0.4-0.3-0.8-0.5-1.2l-1.7,0.7c-0.3-0.5-0.6-1-1-1.4l1.1-1.4c-0.3-0.3-0.6-0.6-1-0.8
		l-1.1,1.4c-0.5-0.3-1-0.5-1.6-0.7l0.3-1.8c-0.2,0-0.4-0.1-0.6-0.1c-0.2,0-0.4-0.1-0.6-0.1l-0.3,1.8c-0.6,0-1.2,0.1-1.7,0.2
		l-0.7-1.7c-0.4,0.1-0.8,0.3-1.2,0.5l0.7,1.7c-0.5,0.3-1,0.6-1.4,1l-1.4-1.1c-0.3,0.3-0.6,0.6-0.8,1l1.4,1.1c-0.3,0.5-0.5,1-0.7,1.6
		l-1.8-0.3c0,0.2-0.1,0.4-0.1,0.6c0,0.2,0,0.4-0.1,0.6l1.8,0.3c0,0.6,0.1,1.2,0.2,1.7l-1.7,0.7c0.1,0.4,0.3,0.8,0.5,1.2l1.7-0.7
		c0.3,0.5,0.6,1,1,1.4l-1.1,1.4c0.3,0.3,0.6,0.6,1,0.8l1.1-1.4c0.5,0.3,1,0.5,1.6,0.7l-0.3,1.8c0.2,0,0.4,0.1,0.6,0.1
		c0.2,0,0.4,0,0.6,0.1l0.3-1.8c0.6,0,1.2-0.1,1.7-0.2l0.7,1.7c0.4-0.1,0.8-0.3,1.2-0.5l-0.7-1.7c0.5-0.3,1-0.6,1.4-1l1.4,1.1
		c0.3-0.3,0.6-0.6,0.8-1l-1.4-1.1c0.3-0.5,0.5-1,0.7-1.6l1.8,0.3c0-0.2,0.1-0.4,0.1-0.6c0-0.2,0.1-0.4,0.1-0.6l-1.8-0.3
		C245,32.1,244.9,31.5,244.8,30.9z M243.9,33.1c-0.1,0.4-0.2,0.8-0.3,1.1l0,0.1c-0.3,0.7-0.8,1.3-1.4,1.8l-0.1,0.1
		c-0.6,0.5-1.4,0.8-2.1,0.9l-0.1,0c-0.4,0-0.8,0-1.2,0c-0.4-0.1-0.8-0.2-1.1-0.3l-0.1,0c-0.7-0.3-1.4-0.8-1.8-1.4l-0.1-0.1
		c-0.5-0.6-0.8-1.4-0.9-2.1l0-0.1c0-0.4,0-0.8,0-1.2c0.1-0.4,0.2-0.8,0.3-1.1l0-0.1c0.3-0.7,0.8-1.3,1.4-1.8l0.1-0.1
		c0.6-0.5,1.4-0.8,2.1-0.9l0.1,0c0.4,0,0.8,0,1.2,0c0.4,0.1,0.8,0.2,1.1,0.3l0.1,0c0.7,0.3,1.3,0.8,1.8,1.4l0.1,0.1
		c0.5,0.6,0.8,1.4,0.9,2.1l0,0.1C243.9,32.3,243.9,32.7,243.9,33.1z"/>
	<path class="st0" d="M257.5,10.2l2.5-1l-0.7-1.7l-2.5,1c-0.4-0.7-0.8-1.4-1.3-2l1.9-1.9l-1.3-1.3l-1.9,1.9c-0.6-0.5-1.3-1-2-1.3
		l1-2.5l-1.7-0.7l-1,2.5c-0.7-0.2-1.5-0.4-2.4-0.5V0h-1.9v2.7c-0.8,0.1-1.6,0.2-2.4,0.5l-1-2.5l-1.7,0.7l1,2.5
		c-0.7,0.4-1.4,0.8-2,1.3l-1.9-1.9L237,4.6l1.9,1.9c-0.5,0.6-1,1.3-1.3,2l-2.5-1l-0.7,1.7l2.5,1c-0.2,0.7-0.4,1.5-0.5,2.4h-2.7v1.9
		h2.7c0.1,0.8,0.2,1.6,0.5,2.4l-2.5,1l0.7,1.7l2.5-1c0.4,0.7,0.8,1.4,1.3,2l-1.9,1.9l1.3,1.3l1.9-1.9c0.6,0.5,1.3,1,2,1.3l-1,2.5
		l1.7,0.7l1-2.5c0.8,0.2,1.5,0.4,2.4,0.5V27h1.9v-2.7c0.8-0.1,1.6-0.2,2.3-0.5l1,2.5l1.7-0.7l-1-2.5c0.7-0.4,1.4-0.8,2-1.3l1.9,1.9
		l1.3-1.3l-1.9-1.9c0.5-0.6,1-1.3,1.3-2l2.5,1l0.7-1.7l-2.5-1c0.2-0.8,0.4-1.5,0.5-2.4h2.7v-1.9H258C257.9,11.8,257.8,11,257.5,10.2
		z M247.2,22.4c-4.9,0-8.9-4-8.9-8.9c0-4.9,4-8.9,8.9-8.9c4.9,0,8.9,4,8.9,8.9C256.1,18.4,252.1,22.4,247.2,22.4z"/>
	<path d="M10.6,13.8l-4.1-2.1c-1.7-0.8-3.9-1.8-3.9-4c0-2.3,1.7-4.1,4.1-4.1c2,0,3.4,1,4.4,2.5l1-0.8c-1-1.9-3.1-3-5.3-3
		c-3.2,0-5.5,2.3-5.5,5.5c0,1.7,0.8,3,2.2,3.9l3.9,2.1c1.9,0.9,4.3,1.9,4.3,4.4c0,2.9-2.5,5.1-5.3,5.1c-2.6,0-4.3-1.6-5.2-3.9
		L0,19.7c1,2.8,3.3,4.6,6.3,4.6c3.5,0,6.7-2.7,6.7-6.3C13.1,16.2,12.2,14.8,10.6,13.8z"/>
	<path d="M18.7,13.3c0,6,5.2,11,11.2,11c2.7,0,5.1-1,7.2-2.7v-1.9c-1.6,1.9-4.7,3.3-7.2,3.3c-2.5,0-5.1-1.3-6.9-3
		c-1.8-1.8-2.9-4.1-2.9-6.6c0-5.3,4.4-9.9,9.8-9.9c2.7,0,5.6,1.4,7.2,3.4V5.1c-1.9-1.8-4.5-2.8-7.1-2.8C23.8,2.3,18.7,7.2,18.7,13.3
		z"/>
	<rect x="44.4" y="2.5" width="1.4" height="21.5"/>
	<polygon points="53.8,24.1 64.1,24.1 64.1,22.8 55.2,22.8 55.2,12.9 63.9,12.9 63.9,11.7 55.2,11.7 55.2,3.8 64.1,3.8 64.1,2.5 
		53.8,2.5 	"/>
	<polygon points="89.7,21.3 71.6,2.3 71.6,24.1 73,24.1 73,5.6 91.1,24.8 91.1,2.5 89.7,2.5 	"/>
	<polygon points="96.9,3.8 102.5,3.8 102.5,24.1 103.9,24.1 103.9,3.8 109.4,3.8 109.4,2.5 96.9,2.5 	"/>
	<rect x="115.3" y="2.5" width="1.4" height="21.5"/>
	<polygon points="124.7,24.1 126,24.1 126,12.9 133.1,12.9 133.1,11.7 126,11.7 126,3.8 133.3,3.8 133.3,2.5 124.7,2.5 	"/>
	<rect x="140.7" y="2.5" width="1.4" height="21.5"/>
	<path d="M148.8,13.3c0,6,5.2,11,11.2,11c2.7,0,5.1-1,7.2-2.7v-1.9c-1.6,1.9-4.7,3.3-7.2,3.3c-2.5,0-5.1-1.3-6.9-3
		c-1.8-1.8-2.9-4.1-2.9-6.6c0-5.3,4.4-9.9,9.8-9.9c2.7,0,5.6,1.4,7.2,3.4V5.1c-1.9-1.8-4.5-2.8-7.1-2.8
		C153.9,2.3,148.8,7.2,148.8,13.3z"/>
</g>
</svg>
