<?xml version="1.0" encoding="utf-8"?>
<!-- Generator: Adobe Illustrator 19.2.1, SVG Export Plug-In . SVG Version: 6.00 Build 0)  -->
<svg version="1.1" id="Layer_1" xmlns="http://www.w3.org/2000/svg" xmlns:xlink="http://www.w3.org/1999/xlink" x="0px" y="0px"
	 viewBox="0 0 300 106.5" style="enable-background:new 0 0 300 106.5;" xml:space="preserve">
<style type="text/css">
	.st0{fill:#FFFFFF;}
	.st1{fill:#F9AE1D;}
</style>
<g>
	<path class="st0" d="M40.9,54c-0.6,0-0.8,0.1-1.2,1.9c-0.9,3.6-1.1,4.4-1.1,5s0.3,1.1,1.2,1.2c0.8,0.2,1.3,0.2,1.3,0.7
		s-0.2,0.6-0.8,0.6c-0.7,0-1.6-0.2-2.5-0.2c-1.1,0-2.1,0.2-2.4,0.2c-0.4,0-0.5-0.2-0.5-0.6c0-0.3,0.3-0.5,0.6-0.6
		c0.4-0.1,1-0.3,1.2-0.9c1.9-6.1,4-14.6,5.9-22.5c0.1-0.6,0.3-1.1,0.4-1.6c0.1-0.7,0.3-1.1,1.1-1.1s1,0.3,1.1,1
		c2.2,7.8,4.4,15.6,6.5,23.4c0.3,0.9,0.7,1.5,1.1,1.7c0.5,0.2,1.1,0.3,1.1,0.7c0,0.3-0.3,0.4-1,0.4c-1,0-1.8-0.2-2.9-0.2
		c-1.1,0-2.3,0.2-3.2,0.2c-0.6,0-0.9-0.1-0.9-0.6c0-0.4,0.4-0.6,1-0.6c0.5,0,1-0.2,1-1c0-0.5-0.4-1.9-1.3-5.3
		c-0.4-1.5-0.5-1.8-1.2-1.8L40.9,54L40.9,54z M45,52.8c0.8,0,0.8-0.2,0.8-0.4s0-0.5-0.2-0.9c-0.3-1.3-1-3.7-1.9-7.1
		c-0.2-0.9-0.4-1.1-0.6-1.1c-0.3,0-0.3,0.3-0.7,1.7c-0.8,3.3-1.3,5.1-1.5,6.2c-0.2,1-0.3,1.3-0.3,1.4c0,0.2,0,0.3,0.8,0.3H45V52.8z"
		/>
	<path class="st0" d="M55.1,48.2c0-1.2-0.2-1.4-1.2-1.5c-0.6-0.1-0.9-0.1-0.9-0.5c0-0.3,0.4-0.5,1.3-0.8c1.5-0.6,2.5-1.2,3-1.6
		c0.4-0.3,0.6-0.4,0.8-0.4s0.3,0.3,0.3,0.7v1.3c0,1,0,1.1,0.3,1.1s1-0.7,1.9-1.4s2-1.4,3.3-1.4c2.8,0,3.5,1.7,4,2.6
		c0.2,0.3,0.3,0.4,0.4,0.4s0.2-0.1,0.5-0.3c0.9-0.8,2.6-2.6,5.2-2.6c1.2,0,2.3,0.4,3.2,1.1c0.9,0.8,1.5,2,1.5,3.5v12.1
		c0,1.2,0.3,1.5,1.3,1.8c0.7,0.2,1,0.3,1,0.6c0,0.4-0.2,0.6-0.7,0.6c-0.8,0-2-0.2-3.4-0.2c-1.3,0-2.5,0.2-3.3,0.2
		c-0.4,0-0.8-0.1-0.8-0.5c0-0.3,0.3-0.5,0.7-0.6c1.3-0.3,1.8-0.6,1.8-2.3V49.4c0-2.3-1.2-3.4-3.2-3.4c-0.9,0-1.8,0.3-2.4,0.8
		c-0.6,0.6-1,1.3-1,2.3v11.7c0,1.1,0.2,1.2,1.5,1.5c0.5,0.1,0.7,0.2,0.7,0.5c0,0.5-0.4,0.6-0.9,0.6c-0.6,0-1.6-0.2-3-0.2
		c-1.3,0-2.3,0.2-3.1,0.2c-0.6,0-0.8-0.2-0.8-0.5c0-0.2,0.2-0.5,0.5-0.6c1.3-0.3,1.6-0.4,1.6-2.1V49.7c0-1.1-0.2-2-0.5-2.6
		c-0.4-0.8-1.2-1.2-2.2-1.2s-2,0.4-2.7,1c-0.7,0.7-1.2,1.6-1.2,2.6v11.3c0,0.9,0.3,1.2,1.2,1.4c0.7,0.2,0.9,0.2,0.9,0.6
		c0,0.4-0.3,0.5-0.7,0.5c-0.3,0-0.8-0.2-3.5-0.2c-1.9,0-2.2,0.2-2.7,0.2c-0.6,0-0.8-0.3-0.8-0.6s0.2-0.5,0.7-0.6
		c1.3-0.2,1.5-0.6,1.5-2.1L55.1,48.2L55.1,48.2z"/>
	<path class="st0" d="M86.1,52.8c-0.8,0-1,0.3-1,1c0,4.4,1.8,7.8,4.7,7.8c1.9,0,3-1,3.6-2.4c0.3-0.8,0.4-1.3,0.8-1.3
		c0.3,0,0.4,0.1,0.4,0.6c0,0.6-0.2,1.4-0.6,2.1c-0.8,1.8-2.8,3.2-5.1,3.2c-4.7,0-7.5-4.1-7.5-9.7c0-7,3.5-10.6,7.5-10.6
		c3.3,0,5.8,2.6,5.8,6.8c0,2.4,0,2.6-1.2,2.6L86.1,52.8L86.1,52.8z M85.1,50.4c0,0.8,0.1,1,1.6,1c0.8,0,1.5-0.1,2-0.2
		c1.3-0.2,2.1-0.5,2.3-0.9c0.3-0.3,0.5-0.8,0.5-1.8c0-2.5-1.1-4-2.8-4C86.6,44.6,85.1,47.4,85.1,50.4L85.1,50.4z"/>
	<path class="st0" d="M98.1,48.6c0-1.4-0.4-1.7-1.5-1.7c-0.3,0-0.5-0.1-0.5-0.5s0.3-0.6,0.9-0.7c0.8-0.3,1.9-0.6,2.9-1.5
		c0.5-0.6,0.8-0.9,1.1-0.9c0.2,0,0.3,0.2,0.3,0.6c0,0.6,0,1.3,0,2.1c0,0.6,0,1,0.2,1c0.4,0,0.6-0.9,1.2-1.9c0.6-0.9,1.4-1.9,2.9-1.9
		c1.6,0,2.5,1.3,2.5,3.2c0,1.6-0.6,2.8-2,2.8c-1.1,0-1.5-0.8-1.6-1.7c-0.1-0.7-0.2-1.4-0.7-1.4c-0.8,0-1.3,0.8-1.7,1.8
		c-0.4,1-0.6,2-0.6,2.7v8.8c0,1.9,0.2,2.4,1.5,2.6c1.1,0.2,1.5,0.3,1.5,0.7s-0.3,0.5-1,0.5c-0.5,0-1-0.2-3.7-0.2
		c-2.1,0-2.7,0.2-3.2,0.2s-0.9-0.1-0.9-0.5s0.4-0.5,1-0.7c1-0.1,1.2-0.3,1.2-2V48.6H98.1z"/>
	<path class="st0" d="M110.6,48.2c0-1.1-0.3-1.4-1.5-1.7c-0.4-0.1-0.6-0.3-0.6-0.5c0-0.3,0.3-0.5,1.3-0.9c1.3-0.4,2.3-1,3.2-1.4
		c0.4-0.3,0.7-0.4,0.8-0.4c0.3,0,0.3,0.2,0.3,0.6v2V60c0,1.3,0,1.8,1.4,2.1c0.8,0.2,1,0.3,1,0.7c0,0.3-0.2,0.5-0.7,0.5
		c-0.8,0-1.5-0.2-3.5-0.2s-2.8,0.2-3.5,0.2c-0.4,0-0.6-0.2-0.6-0.5s0.2-0.6,0.8-0.7c1.4-0.3,1.6-0.4,1.6-2L110.6,48.2L110.6,48.2z
		 M112.3,40.8c-1,0-2-0.9-2-2.5c0-1.7,0.9-2.6,2-2.6s2,0.9,2,2.6C114.4,39.9,113.5,40.8,112.3,40.8L112.3,40.8z"/>
	<path class="st0" d="M117.3,54.2c0-6.3,3.6-10.8,8.5-10.8c1.1,0,2.4,0.2,3.3,0.7c1,0.6,1,0.7,1,1.8c0,0.6,0,1.1,0,1.6
		c0,0.4-0.1,1.1-0.1,1.5c-0.1,0.9-0.4,1-1,1c-0.7,0-0.8-1-1.5-2.8c-0.5-1.5-1-2.2-2.3-2.2c-2.3,0-4.2,3.2-4.2,7.7
		c0,6.3,2.1,8.7,4.6,8.7c1.5,0,2.5-0.6,3.3-1.9c0.5-0.9,0.9-2.1,1.2-2.1s0.5,0.3,0.5,0.6c0,2.3-2,5.7-6.1,5.7
		C120,63.7,117.3,59.9,117.3,54.2L117.3,54.2z"/>
	<path class="st0" d="M141.3,47.2c0-2-0.5-2.6-1.6-2.6c-1.9,0-2.8,1.6-3.4,3.7c-0.3,0.9-0.8,1.7-1.4,2.1c-0.5,0.4-1,0.6-1.7,0.6
		c-0.8,0-1.2-0.3-1.2-1.1c0-2.5,3.5-6.4,8.6-6.4c1.6,0,2.6,0.2,3.2,0.8c0.7,0.5,0.9,1.4,0.9,2.5v12.8c0,1.1,0.4,1.5,1.1,1.5
		c0.8,0,1.1-0.4,1.3-0.8c0.2-0.4,0.3-0.9,0.6-0.9s0.3,0.2,0.3,0.7c0,0.9-1.2,3.6-3.7,3.6c-1.8,0-2.3-1.4-2.5-2.3
		c-0.1-0.3-0.3-0.6-0.5-0.6c-0.3,0-1,0.8-2,1.6c-0.9,0.8-2.2,1.4-3.8,1.4c-1.9,0-3.3-1.4-3.3-3.9c0-2.1,1.1-3.6,4.6-6
		c1.4-0.9,2.4-1.5,3-2c1.1-0.7,1.4-1.1,1.4-2L141.3,47.2L141.3,47.2z M135.9,59.2c0,1.6,0.8,2.4,2,2.4c0.9,0,1.6-0.5,2.4-1.3
		c0.8-0.8,1-1.3,1-2.4v-4.7c0-0.5-0.1-0.6-0.3-0.6s-0.4,0-1,0.5c-0.9,0.6-1.7,1.3-2.3,2C136.6,56.3,135.9,57.6,135.9,59.2
		L135.9,59.2z"/>
	<path class="st0" d="M150.1,48.2c0-1.2-0.2-1.4-1.2-1.5c-0.8-0.1-1-0.2-1-0.5s0.4-0.5,1.3-0.8c1.5-0.6,2.5-1.2,3.1-1.6
		c0.4-0.3,0.6-0.4,0.8-0.4s0.3,0.3,0.3,0.7v1.7c0,0.6,0.1,0.7,0.2,0.7c0.4,0,1-0.7,1.9-1.4s2.1-1.4,3.7-1.4c1.3,0,2.5,0.4,3.4,1.3
		c0.8,0.9,1.4,2.1,1.4,3.8v11.7c0,1.4,0.5,1.7,1.3,1.8s1,0.2,1,0.6c0,0.4-0.3,0.5-0.8,0.5c-0.3,0-1.2-0.2-3.3-0.2
		c-2,0-2.5,0.2-3,0.2s-0.7-0.1-0.7-0.6c0-0.3,0.3-0.4,0.7-0.5c1-0.2,1.4-0.5,1.4-1.4V49.2c0-1-0.3-1.8-0.7-2.3
		c-0.5-0.7-1.3-1.1-2.3-1.1s-2,0.4-2.7,1s-1.2,1.5-1.2,2.4v11.6c0,0.9,0.3,1.2,1.1,1.4c1.1,0.2,1.3,0.2,1.3,0.6
		c0,0.4-0.3,0.5-0.6,0.5s-0.9-0.2-3.5-0.2c-2.2,0-2.5,0.2-3.1,0.2c-0.5,0-0.8-0.2-0.8-0.6c0-0.3,0.3-0.6,0.7-0.6
		c1.3-0.1,1.5-0.6,1.5-2.1V48.2H150.1z"/>
</g>
<g>
	<path class="st0" d="M181.5,59.9c0,1.1,0.2,1.8,1.2,2c0.9,0.2,1.6,0.3,1.6,0.9c0,0.3-0.3,0.5-1,0.5c-0.6,0-1-0.2-3.8-0.2
		s-3.1,0.2-3.7,0.2c-0.5,0-1,0-1-0.6c0-0.5,0.7-0.6,1.5-0.8c1.1-0.3,1.2-0.5,1.2-1.9V39.2c0-1.1-0.3-1.4-1-1.5
		c-1.4-0.3-1.8-0.1-1.8-0.8c0-0.4,0.4-0.6,1-0.6c1.1,0,2.2,0.2,3.7,0.2c1.6,0,2.8-0.2,3.8-0.2c0.6,0,1,0.1,1,0.6s-0.5,0.5-1.8,0.7
		c-0.8,0.1-1.1,0.6-1.1,1.5v20.8H181.5z"/>
	<path class="st0" d="M187.8,48.2c0-1.2-0.2-1.4-1.2-1.5c-0.8-0.1-1-0.2-1-0.5s0.4-0.5,1.3-0.8c1.5-0.6,2.5-1.2,3.1-1.6
		c0.4-0.3,0.6-0.4,0.8-0.4s0.3,0.3,0.3,0.7v1.7c0,0.6,0.1,0.7,0.2,0.7c0.4,0,1-0.7,1.9-1.4s2.1-1.4,3.7-1.4c1.3,0,2.5,0.4,3.4,1.3
		c0.8,0.9,1.4,2.1,1.4,3.8v11.7c0,1.4,0.5,1.7,1.3,1.8s1,0.2,1,0.6c0,0.4-0.3,0.5-0.8,0.5c-0.3,0-1.2-0.2-3.3-0.2
		c-2,0-2.5,0.2-3,0.2s-0.7-0.1-0.7-0.6c0-0.3,0.2-0.4,0.7-0.5c1-0.2,1.4-0.5,1.4-1.4V49.2c0-1-0.3-1.8-0.7-2.3
		c-0.5-0.7-1.3-1.1-2.3-1.1s-2,0.4-2.7,1s-1.2,1.5-1.2,2.4v11.6c0,0.9,0.3,1.2,1.1,1.4c1.1,0.2,1.3,0.2,1.3,0.6
		c0,0.4-0.3,0.5-0.6,0.5s-0.9-0.2-3.5-0.2c-2.2,0-2.5,0.2-3.1,0.2c-0.5,0-0.8-0.2-0.8-0.6c0-0.3,0.3-0.6,0.7-0.6
		c1.3-0.1,1.5-0.6,1.5-2.1V48.2H187.8z"/>
	<path class="st0" d="M204.7,48.7c0-3.8,3.1-5.4,6.3-5.4c1.3,0,2.6,0.2,3.4,0.7c0.2,0.1,0.2,0.4,0.3,1c0,0.4,0,0.9,0,1.6v1.1
		c0,0.7-0.2,1.1-0.5,1.1c-0.5,0-0.6-0.7-1.2-2.2c-0.5-1.1-1.1-2-2.4-2c-1.6,0-2.8,1.1-2.8,2.6c0,2,2,3.1,3.9,4.4
		c2,1.3,3.9,2.8,3.9,5.8c0,4.2-3,6.3-6.8,6.3c-1.3,0-2.1-0.1-2.8-0.3c-0.3-0.1-0.6-0.2-0.9-0.3c-0.3-0.1-0.4-0.3-0.5-1.3
		c0-0.5,0-1.3,0-2.4c0-2,0.1-2.4,0.5-2.4c0.5,0,0.6,0.6,1.2,2.4c0.7,1.7,1.6,3.1,3.1,3.1c1.8,0,2.9-1.3,2.9-3.1c0-2.6-1.9-3.7-3.8-5
		C206.7,53.2,204.7,51.8,204.7,48.7L204.7,48.7z"/>
	<path class="st0" d="M222.2,59.5c0,1.6,0.5,1.9,1.3,1.9s1.2-0.6,1.5-1.1c0.3-0.6,0.5-1.1,0.9-1.1c0.3,0,0.4,0.1,0.4,0.4
		c0,0.6-0.8,4.1-4.2,4.1c-1.1,0-2-0.3-2.6-0.9c-0.6-0.6-0.9-1.7-0.9-3V46.1c0-0.4-0.2-0.6-0.5-0.6s-0.7,0-1,0
		c-0.4,0-0.7-0.1-0.7-0.6c0-0.3,0.2-0.6,0.8-1.1c1.2-1.1,2.1-2.2,3.6-4.8c0.4-0.8,0.5-1,0.8-1c0.2,0,0.4,0.1,0.4,0.9V43
		c0,0.7,0.2,0.9,0.8,0.9h1.9c0.7,0,0.9,0.1,0.9,0.7c0,0.6-0.2,0.9-1,0.9h-2c-0.5,0-0.7,0.2-0.7,0.9v13.1H222.2z"/>
	<path class="st0" d="M228.7,48.2c0-1.1-0.3-1.4-1.5-1.7c-0.4-0.1-0.6-0.3-0.6-0.5c0-0.3,0.3-0.5,1.3-0.9c1.3-0.4,2.3-1,3.2-1.4
		c0.4-0.3,0.7-0.4,0.8-0.4c0.3,0,0.3,0.2,0.3,0.6v2V60c0,1.3,0,1.8,1.4,2.1c0.8,0.2,1,0.3,1,0.7c0,0.3-0.2,0.5-0.7,0.5
		c-0.8,0-1.5-0.2-3.5-0.2s-2.8,0.2-3.5,0.2c-0.4,0-0.6-0.2-0.6-0.5s0.2-0.6,0.8-0.7c1.4-0.3,1.6-0.4,1.6-2V48.2z M230.5,40.8
		c-1,0-2-0.9-2-2.5c0-1.7,0.9-2.6,2-2.6s2,0.9,2,2.6C232.5,39.9,231.6,40.8,230.5,40.8L230.5,40.8z"/>
	<path class="st0" d="M241,59.5c0,1.6,0.5,1.9,1.3,1.9s1.2-0.6,1.5-1.1c0.3-0.6,0.5-1.1,0.9-1.1c0.3,0,0.4,0.1,0.4,0.4
		c0,0.6-0.8,4.1-4.2,4.1c-1.1,0-2-0.3-2.6-0.9c-0.6-0.6-0.9-1.7-0.9-3V46.1c0-0.4-0.2-0.6-0.5-0.6s-0.7,0-1,0
		c-0.4,0-0.7-0.1-0.7-0.6c0-0.3,0.2-0.6,0.8-1.1c1.2-1.1,2.1-2.2,3.6-4.8c0.4-0.8,0.5-1,0.8-1c0.2,0,0.4,0.1,0.4,0.9V43
		c0,0.7,0.2,0.9,0.8,0.9h1.9c0.7,0,0.9,0.1,0.9,0.7c0,0.6-0.2,0.9-1,0.9h-2c-0.5,0-0.7,0.2-0.7,0.9v13.1H241z"/>
	<path class="st0" d="M250.7,58.1c0,2.1,1.2,3.2,3.1,3.2c1.1,0,2.3-0.5,3-1.4c0.5-0.6,0.8-1.3,0.8-2.1V46.7c0-1.1-0.1-1.5-1.1-1.7
		c-1-0.1-1.3-0.1-1.3-0.7c0-0.3,0.3-0.6,0.8-0.6c0.6,0,1.3,0.1,2,0.1c0.8,0,1.5-0.1,2.3-0.1c0.4,0,0.7,0.1,0.7,1v1.6V59
		c0,1.4,0.3,1.8,1,1.9c0.8,0.1,1,0.2,1,0.6c0,0.3-0.3,0.5-1.2,0.8c-1.8,0.6-2.9,1.1-3.5,1.4c-0.3,0.1-0.4,0.1-0.5,0.1
		s-0.2-0.2-0.2-0.5v-2c0-0.5-0.1-0.6-0.3-0.6s-0.3,0.1-0.6,0.3c-0.9,0.8-2.4,2.4-4.9,2.4c-1.3,0-2.5-0.3-3.4-1.1
		c-0.8-0.8-1.5-1.9-1.5-3.6V46.3c0-0.9-0.3-1.1-1.2-1.2c-0.8-0.1-1-0.3-1-0.7c0-0.3,0.2-0.6,0.8-0.6c0.8,0,1.6,0.1,2.4,0.1
		c0.5,0,1.4-0.1,1.8-0.1c0.6,0,0.7,0.4,0.7,1.5v12.8H250.7z"/>
	<path class="st0" d="M269.5,59.5c0,1.6,0.5,1.9,1.3,1.9s1.2-0.6,1.5-1.1c0.3-0.6,0.5-1.1,0.9-1.1c0.3,0,0.4,0.1,0.4,0.4
		c0,0.6-0.8,4.1-4.2,4.1c-1.1,0-2-0.3-2.6-0.9c-0.6-0.6-0.9-1.7-0.9-3V46.1c0-0.4-0.2-0.6-0.5-0.6s-0.7,0-1,0
		c-0.4,0-0.7-0.1-0.7-0.6c0-0.3,0.2-0.6,0.8-1.1c1.2-1.1,2.1-2.2,3.6-4.8c0.4-0.8,0.5-1,0.8-1c0.2,0,0.4,0.1,0.4,0.9V43
		c0,0.7,0.2,0.9,0.8,0.9h1.9c0.7,0,0.9,0.1,0.9,0.7c0,0.6-0.2,0.9-1,0.9h-2c-0.5,0-0.7,0.2-0.7,0.9v13.1H269.5z"/>
	<path class="st0" d="M278.4,52.8c-0.8,0-1,0.3-1,1c0,4.4,1.8,7.8,4.7,7.8c1.9,0,3-1,3.6-2.4c0.3-0.8,0.4-1.3,0.8-1.3
		c0.2,0,0.4,0.1,0.4,0.6c0,0.6-0.2,1.4-0.6,2.1c-0.8,1.8-2.8,3.2-5.1,3.2c-4.7,0-7.5-4.1-7.5-9.7c0-7,3.5-10.6,7.5-10.6
		c3.3,0,5.8,2.6,5.8,6.8c0,2.4,0,2.6-1.2,2.6L278.4,52.8L278.4,52.8z M277.4,50.4c0,0.8,0.1,1,1.6,1c0.8,0,1.5-0.1,2-0.2
		c1.3-0.2,2.1-0.5,2.3-0.9c0.3-0.3,0.5-0.8,0.5-1.8c0-2.5-1.1-4-2.8-4C278.9,44.6,277.4,47.4,277.4,50.4L277.4,50.4z"/>
</g>
<g>
	<path class="st0" d="M29.9,84.9c0,1.8-0.6,3.6-1.6,5.1c-1.1,1.8-2.8,3-4.6,3c-2.3,0-3.6-1.9-3.6-4.9c0-3.9,2.8-8.1,6.1-8.1
		C28.5,80,29.9,81.9,29.9,84.9L29.9,84.9z M27.9,83.4c0-1.8-0.6-2.6-1.6-2.6c-0.9,0-1.9,1.2-2.7,3C22.8,85.4,22,88,22,89.6
		c0,1.8,0.6,2.6,1.6,2.6s1.9-1.2,2.8-3C27.2,87.7,27.9,85,27.9,83.4L27.9,83.4z"/>
	<path class="st0" d="M41,75.2c0,0.8-0.5,1.3-1.1,1.3c-0.7,0-1.1-0.5-1.1-1.1c0-0.3,0.1-0.5,0.1-0.6c-0.1-0.2-0.2-0.3-0.4-0.3
		c-0.4,0-0.8,0.3-1.2,0.8c-0.5,0.7-0.9,1.7-1.2,3c-0.2,0.8-0.3,1.5-0.5,2.2h1.9c0.2,0,0.2,0,0.2,0.2c0,0.1-0.1,0.2-0.1,0.3
		c0,0.2-0.1,0.2-0.3,0.2h-2c-0.5,2.2-1.1,4.4-1.6,6.6c-0.8,3.2-1.5,5.9-2.5,7.8s-2.2,2.9-4,2.9c-1,0-1.9-0.5-1.9-1.8
		c0-0.8,0.4-1.3,1.1-1.3c0.6,0,0.8,0.3,0.9,0.8c0.1,0.4-0.1,0.9,0,1.1c0.1,0.3,0.2,0.4,0.5,0.4c0.6,0,1-0.4,1.5-1.7
		c0.5-1.3,1.1-3.7,2.2-7.9c0.5-1.9,1.2-4.9,1.7-6.8h-1.7c-0.1,0-0.2-0.1-0.2-0.2s0.1-0.2,0.1-0.3c0.1-0.2,0.1-0.2,0.3-0.2h1.6
		c0.4-1.7,1.1-3.7,2.2-5c1-1.3,2.2-1.8,3.6-1.8C40.2,73.7,41,74.2,41,75.2L41,75.2z"/>
</g>
<g>
	<path class="st0" d="M47.6,73.7c0-1.3-0.5-1.8-1.8-1.8c-0.3,0-0.6,0-0.7-0.1c-0.1,0-0.2-0.1-0.2-0.3c0-0.4,0.8-0.7,1.7-0.9
		c2-0.5,4-0.7,6-0.7c3.2,0,5.2,0.6,6.6,1.5c1.8,1.1,2.5,2.9,2.5,4.8c0,3.1-2.3,5-5,5.9v0.1c0.6,0.1,1.3,0.3,1.9,0.5
		c2.5,1,4.5,3.1,4.5,6.8c0,2.3-0.7,4.3-2,5.7c-1.3,1.3-3.2,2-5.7,2c-1.7,0-3.4-0.2-5-0.2c-1.5,0-3.3,0.2-4,0.2c-0.6,0-1-0.2-1-0.6
		s0.8-0.6,1.3-0.7c0.8-0.2,1-0.6,1-1.6L47.6,73.7L47.6,73.7z M51.4,81.3c0,0.5,0.2,0.6,1,0.6c1.1,0,2.1-0.2,3.1-0.7
		c1.5-0.8,2.2-2.5,2.2-4.8c0-3.2-1.3-5.3-4-5.3c-1.9,0-2.3,0.5-2.3,1.5V81.3z M51.4,93.4c0,1.7,0.6,2.8,2.6,2.8c1.8,0,3.2-0.8,4-2.3
		c0.6-1.1,0.9-2.6,0.9-4.5c0-1.6-0.4-3-1-4C57,83.9,55.5,83,53.7,83c-2,0-2.2,0.1-2.3,0.4V93.4z"/>
	<path class="st0" d="M66.5,82.2c0-1.1-0.3-1.4-1.5-1.7c-0.4-0.1-0.6-0.3-0.6-0.5c0-0.3,0.3-0.5,1.3-0.9c1.3-0.4,2.3-1,3.2-1.4
		c0.4-0.3,0.7-0.4,0.8-0.4c0.3,0,0.3,0.2,0.3,0.6v2V94c0,1.3,0,1.8,1.4,2.1c0.8,0.2,1,0.3,1,0.7c0,0.3-0.2,0.5-0.7,0.5
		c-0.8,0-1.5-0.2-3.5-0.2s-2.8,0.2-3.5,0.2c-0.4,0-0.6-0.2-0.6-0.5s0.2-0.6,0.8-0.7c1.4-0.3,1.6-0.4,1.6-2L66.5,82.2L66.5,82.2z
		 M68.3,74.8c-1,0-2-0.9-2-2.5c0-1.7,0.9-2.6,2-2.6s2,0.9,2,2.6C70.4,74,69.4,74.8,68.3,74.8L68.3,74.8z"/>
	<path class="st0" d="M81.1,97.7c-4.5,0-7.6-4.6-7.6-10.2s3.1-10.2,7.7-10.2s7.7,4.6,7.7,10.2S85.7,97.7,81.1,97.7L81.1,97.7z
		 M81.2,96.5c2.6,0,3.8-4.4,3.8-8.5c0-4.8-1.3-9.4-4-9.4s-3.8,4.4-3.8,8.5C77.2,91.9,78.5,96.5,81.2,96.5L81.2,96.5z"/>
	<path class="st0" d="M92.3,71.4c0-0.8-0.2-1.1-1.1-1.2c-0.8-0.2-1-0.2-1-0.6c0-0.3,0.2-0.5,0.8-0.6c1.7-0.6,2.8-1,3.5-1.3
		c0.6-0.3,0.8-0.4,1-0.4c0.3,0,0.3,0.3,0.3,0.9v26.6c0,1.1,0.4,1.1,1.7,1.5c0.5,0.1,0.8,0.2,0.8,0.6c0,0.3-0.3,0.6-0.6,0.6
		c-0.4,0-0.9-0.2-3.6-0.2c-2.5,0-3,0.2-3.5,0.2c-0.3,0-0.7-0.1-0.7-0.6c0-0.3,0.4-0.6,0.7-0.6c1.4-0.2,1.6-0.6,1.6-1.7L92.3,71.4
		L92.3,71.4z"/>
	<path class="st0" d="M106.8,97.7c-4.5,0-7.6-4.6-7.6-10.2s3.1-10.2,7.7-10.2s7.7,4.6,7.7,10.2S111.5,97.7,106.8,97.7L106.8,97.7z
		 M107,96.5c2.6,0,3.8-4.4,3.8-8.5c0-4.8-1.3-9.4-4-9.4S103,83,103,87.1C102.9,91.9,104.3,96.5,107,96.5L107,96.5z"/>
	<path class="st0" d="M116.9,83.9c0-3.3,2.3-6.5,6.2-6.5c1.3,0,2.3,0.5,3.1,0.9c0.4,0.2,0.9,0.3,1.5,0.3h2.2c0.8,0,1.3,0.2,1.3,0.9
		c0,0.6-0.1,0.9-1,0.9h-1c-0.4,0-0.7,0-0.7,0.2s0.2,0.5,0.3,1.1c0.2,0.7,0.3,1.5,0.3,2.6c0,3-1.5,5.8-4.4,6.4
		c-4.1,1.1-4.8,1.5-4.8,2.5s1.1,1.3,2,1.4c1,0,1.9,0,2.9,0c4.8,0.1,6.6,1.9,6.6,5.4c0,4-4.2,6.7-8.8,6.7c-2.7,0-6.6-1.2-6.6-5
		c0-1.6,0.8-2.5,1.7-3c0.9-0.6,1.7-0.8,1.7-1s-0.8-0.9-1.5-1.6c-0.8-0.8-1.5-1.5-1.5-1.9c0-0.8,0.6-1.1,1.8-1.8
		c0.6-0.3,2.3-1.2,2.3-1.4c0-0.2-0.5-0.3-1.2-0.9C117.5,88.5,116.9,86.4,116.9,83.9L116.9,83.9z M123.5,105.3c1.5,0,2.7-0.4,3.5-1.2
		c0.9-0.8,1.4-2,1.4-3.4c0-2.4-1.8-3-4.5-3c-1.4,0-2.7,0.1-3.1,0.3c-1.1,0.6-1.5,2.1-1.5,3.2C119.2,103.7,121,105.3,123.5,105.3
		L123.5,105.3z M123.3,90c1.3,0,2.5-1.5,2.5-5.3c0-3.9-1.2-6.3-3-6.3c-1.3,0-2.5,1.5-2.5,5.3C120.3,87.6,121.5,90,123.3,90L123.3,90
		z"/>
	<path class="st0" d="M134.1,82.2c0-1.1-0.3-1.4-1.5-1.7c-0.4-0.1-0.6-0.3-0.6-0.5c0-0.3,0.3-0.5,1.3-0.9c1.3-0.4,2.3-1,3.2-1.4
		c0.4-0.3,0.7-0.4,0.8-0.4c0.3,0,0.3,0.2,0.3,0.6v2V94c0,1.3,0,1.8,1.4,2.1c0.8,0.2,1,0.3,1,0.7c0,0.3-0.2,0.5-0.7,0.5
		c-0.8,0-1.5-0.2-3.5-0.2s-2.8,0.2-3.5,0.2c-0.4,0-0.6-0.2-0.6-0.5s0.2-0.6,0.8-0.7c1.4-0.3,1.6-0.4,1.6-2V82.2z M135.9,74.8
		c-1,0-2-0.9-2-2.5c0-1.7,0.9-2.6,2-2.6s2,0.9,2,2.6C138,74,137,74.8,135.9,74.8L135.9,74.8z"/>
	<path class="st0" d="M140.8,88.2c0-6.3,3.6-10.8,8.5-10.8c1.1,0,2.4,0.2,3.3,0.7c1,0.6,1,0.7,1,1.8c0,0.6,0,1.1,0,1.6
		c0,0.4-0.1,1.1-0.1,1.5c-0.1,0.9-0.4,1-1,1c-0.7,0-0.8-1-1.5-2.8c-0.5-1.5-1-2.2-2.3-2.2c-2.3,0-4.2,3.2-4.2,7.7
		c0,6.3,2.1,8.7,4.6,8.7c1.5,0,2.5-0.6,3.3-1.9c0.5-0.9,0.9-2.1,1.2-2.1s0.5,0.3,0.5,0.6c0,2.3-2,5.7-6.1,5.7
		C143.6,97.7,140.8,93.9,140.8,88.2L140.8,88.2z"/>
	<path class="st0" d="M164.9,81.2c0-2-0.5-2.6-1.6-2.6c-1.9,0-2.8,1.6-3.4,3.7c-0.3,0.9-0.8,1.7-1.4,2.1c-0.5,0.4-1,0.6-1.7,0.6
		c-0.8,0-1.2-0.3-1.2-1.1c0-2.5,3.5-6.4,8.6-6.4c1.6,0,2.6,0.2,3.2,0.8c0.7,0.5,0.9,1.4,0.9,2.5v12.8c0,1.1,0.4,1.5,1.1,1.5
		c0.8,0,1.1-0.4,1.3-0.8s0.3-0.9,0.6-0.9c0.2,0,0.3,0.2,0.3,0.7c0,0.9-1.2,3.6-3.7,3.6c-1.8,0-2.3-1.4-2.5-2.3
		c-0.1-0.3-0.3-0.6-0.5-0.6c-0.3,0-1,0.8-2,1.6c-0.9,0.8-2.2,1.4-3.8,1.4c-1.9,0-3.3-1.4-3.3-3.9c0-2.1,1.1-3.6,4.6-6
		c1.4-0.9,2.4-1.5,3-2c1.1-0.7,1.4-1.1,1.4-2L164.9,81.2L164.9,81.2z M159.5,93.2c0,1.6,0.8,2.4,2,2.4c0.9,0,1.6-0.5,2.4-1.3
		c0.8-0.8,1-1.3,1-2.4v-4.7c0-0.5-0.1-0.6-0.3-0.6s-0.4,0-1,0.5c-0.9,0.6-1.7,1.3-2.3,2C160.2,90.3,159.5,91.6,159.5,93.2
		L159.5,93.2z"/>
	<path class="st0" d="M174,71.4c0-0.8-0.2-1.1-1.1-1.2c-0.8-0.2-1-0.2-1-0.6c0-0.3,0.2-0.5,0.8-0.6c1.7-0.6,2.8-1,3.5-1.3
		c0.6-0.3,0.8-0.4,1-0.4s0.3,0.3,0.3,0.9v26.6c0,1.1,0.4,1.1,1.7,1.5c0.5,0.1,0.8,0.2,0.8,0.6c0,0.3-0.3,0.6-0.6,0.6
		c-0.4,0-0.9-0.2-3.6-0.2c-2.5,0-3,0.2-3.5,0.2c-0.3,0-0.7-0.1-0.7-0.6c0-0.3,0.4-0.6,0.7-0.6c1.4-0.2,1.6-0.6,1.6-1.7V71.4H174z"/>
</g>
<g>
	<path class="st0" d="M202.7,89.6c0,5.1-3.8,8.2-8.6,8.2c-2.1,0-4.5-0.5-5.3-1.2c-0.5-0.5-0.6-1.3-0.7-3.7c0-1.2,0-2.8,0.1-3.7
		c0.1-0.4,0.3-0.5,0.5-0.5c0.5,0,0.6,0.3,0.8,0.7c1,4.6,2.5,7.1,5.3,7.1c2.5,0,4.3-2.3,4.3-5.1c0-3.1-2-4.8-4.3-6.4
		c-0.6-0.4-1.2-0.8-1.8-1.2c-2.4-1.7-4.7-3.7-4.7-7.3c0-3.8,3.6-6.6,7.6-6.6c1.9,0,4.1,0.6,4.8,1.1c0.3,0.2,0.4,0.3,0.4,1.4v2.8
		c0,2.1,0,2.3-0.5,2.3c-0.6,0-0.6-0.7-0.9-1.6c-1-3.3-2.3-4.8-4.2-4.8s-3.5,1.6-3.5,3.7c0,3.7,2.8,5.3,5.6,7.1
		C200.2,83.7,202.7,85.6,202.7,89.6L202.7,89.6z"/>
	<path class="st0" d="M204,88.2c0-6.3,3.6-10.8,8.5-10.8c1.1,0,2.4,0.2,3.3,0.7c1,0.6,1,0.7,1,1.8c0,0.6,0,1.1,0,1.6
		c0,0.4-0.1,1.1-0.1,1.5c-0.1,0.9-0.4,1-1,1c-0.7,0-0.8-1-1.5-2.8c-0.5-1.5-1-2.2-2.3-2.2c-2.3,0-4.2,3.2-4.2,7.7
		c0,6.3,2.1,8.7,4.6,8.7c1.5,0,2.5-0.6,3.3-1.9c0.5-0.9,0.9-2.1,1.2-2.1s0.5,0.3,0.5,0.6c0,2.3-2,5.7-6.1,5.7
		C206.7,97.7,204,93.9,204,88.2L204,88.2z"/>
	<path class="st0" d="M220.5,82.2c0-1.1-0.3-1.4-1.5-1.7c-0.4-0.1-0.6-0.3-0.6-0.5c0-0.3,0.3-0.5,1.3-0.9c1.3-0.4,2.3-1,3.2-1.4
		c0.4-0.3,0.7-0.4,0.8-0.4c0.3,0,0.3,0.2,0.3,0.6v2V94c0,1.3,0,1.8,1.4,2.1c0.8,0.2,1,0.3,1,0.7c0,0.3-0.2,0.5-0.7,0.5
		c-0.8,0-1.5-0.2-3.5-0.2s-2.8,0.2-3.5,0.2c-0.4,0-0.6-0.2-0.6-0.5s0.2-0.6,0.8-0.7c1.4-0.3,1.6-0.4,1.6-2V82.2z M222.3,74.8
		c-1,0-2-0.9-2-2.5c0-1.7,0.9-2.6,2-2.6s2,0.9,2,2.6C224.4,74,223.4,74.8,222.3,74.8L222.3,74.8z"/>
	<path class="st0" d="M231.9,86.8c-0.8,0-1,0.3-1,1c0,4.4,1.8,7.8,4.7,7.8c1.9,0,3-1,3.6-2.4c0.3-0.8,0.4-1.3,0.8-1.3
		c0.2,0,0.4,0.1,0.4,0.6c0,0.6-0.2,1.4-0.6,2.1c-0.8,1.8-2.8,3.2-5.1,3.2c-4.7,0-7.5-4.1-7.5-9.7c0-7,3.5-10.6,7.5-10.6
		c3.3,0,5.8,2.6,5.8,6.8c0,2.4,0,2.6-1.2,2.6L231.9,86.8L231.9,86.8z M231,84.5c0,0.8,0.1,1,1.6,1c0.8,0,1.5-0.1,2-0.2
		c1.3-0.2,2.1-0.5,2.3-0.9c0.3-0.3,0.5-0.8,0.5-1.8c0-2.5-1.1-4-2.8-4C232.5,78.6,231,81.4,231,84.5L231,84.5z"/>
	<path class="st0" d="M243.6,82.2c0-1.2-0.2-1.4-1.2-1.5c-0.8-0.1-1-0.2-1-0.5s0.4-0.5,1.3-0.8c1.5-0.6,2.5-1.2,3.1-1.6
		c0.4-0.3,0.6-0.4,0.8-0.4s0.3,0.3,0.3,0.7v1.7c0,0.6,0.1,0.7,0.2,0.7c0.4,0,1-0.7,1.9-1.4c0.9-0.7,2.1-1.4,3.7-1.4
		c1.3,0,2.5,0.4,3.4,1.3c0.8,0.9,1.4,2.1,1.4,3.8v11.7c0,1.4,0.5,1.7,1.3,1.8c0.8,0.1,1,0.2,1,0.6s-0.3,0.5-0.8,0.5
		c-0.3,0-1.2-0.2-3.3-0.2c-2,0-2.5,0.2-3,0.2s-0.7-0.1-0.7-0.6c0-0.3,0.2-0.4,0.7-0.5c1-0.2,1.4-0.5,1.4-1.4V83.2
		c0-1-0.3-1.8-0.7-2.3c-0.5-0.7-1.3-1.1-2.3-1.1s-2,0.4-2.7,1s-1.2,1.5-1.2,2.4v11.6c0,0.9,0.3,1.2,1.1,1.4c1.1,0.2,1.3,0.2,1.3,0.6
		s-0.3,0.5-0.6,0.5s-0.9-0.2-3.5-0.2c-2.2,0-2.5,0.2-3.1,0.2c-0.5,0-0.8-0.2-0.8-0.6c0-0.3,0.3-0.6,0.7-0.6c1.3-0.1,1.5-0.6,1.5-2.1
		V82.2H243.6z"/>
	<path class="st0" d="M260.5,88.2c0-6.3,3.6-10.8,8.5-10.8c1.1,0,2.4,0.2,3.3,0.7c1,0.6,1,0.7,1,1.8c0,0.6,0,1.1,0,1.6
		c0,0.4-0.1,1.1-0.1,1.5c-0.1,0.9-0.4,1-1,1c-0.7,0-0.8-1-1.5-2.8c-0.5-1.5-1-2.2-2.3-2.2c-2.3,0-4.2,3.2-4.2,7.7
		c0,6.3,2.1,8.7,4.6,8.7c1.5,0,2.5-0.6,3.3-1.9c0.5-0.9,0.9-2.1,1.2-2.1c0.3,0,0.5,0.3,0.5,0.6c0,2.3-2,5.7-6.1,5.7
		C263.2,97.7,260.5,93.9,260.5,88.2L260.5,88.2z"/>
	<path class="st0" d="M279.3,86.8c-0.8,0-1,0.3-1,1c0,4.4,1.8,7.8,4.7,7.8c1.9,0,3-1,3.6-2.4c0.3-0.8,0.4-1.3,0.8-1.3
		c0.2,0,0.4,0.1,0.4,0.6c0,0.6-0.2,1.4-0.6,2.1c-0.8,1.8-2.8,3.2-5.1,3.2c-4.7,0-7.5-4.1-7.5-9.7c0-7,3.5-10.6,7.5-10.6
		c3.3,0,5.8,2.6,5.8,6.8c0,2.4,0,2.6-1.2,2.6L279.3,86.8L279.3,86.8z M278.3,84.5c0,0.8,0.1,1,1.6,1c0.8,0,1.5-0.1,2-0.2
		c1.3-0.2,2.1-0.5,2.3-0.9c0.3-0.3,0.5-0.8,0.5-1.8c0-2.5-1.1-4-2.8-4C279.8,78.6,278.3,81.4,278.3,84.5L278.3,84.5z"/>
	<path class="st0" d="M289,82.8c0-3.8,3.1-5.4,6.3-5.4c1.3,0,2.6,0.2,3.4,0.7c0.2,0.1,0.2,0.4,0.3,1c0,0.4,0,0.9,0,1.6v1.1
		c0,0.7-0.2,1.1-0.5,1.1c-0.5,0-0.6-0.7-1.2-2.2c-0.5-1.1-1.1-2-2.4-2c-1.6,0-2.8,1.1-2.8,2.6c0,2,2,3.1,3.9,4.4
		c2,1.3,3.9,2.8,3.9,5.8c0,4.2-3,6.3-6.8,6.3c-1.3,0-2.1-0.1-2.8-0.3c-0.3-0.1-0.6-0.2-0.9-0.3c-0.3-0.1-0.4-0.3-0.5-1.3
		c0-0.5,0-1.3,0-2.4c0-2,0.1-2.4,0.5-2.4c0.5,0,0.6,0.6,1.2,2.4c0.7,1.7,1.6,3.1,3.1,3.1c1.8,0,2.9-1.3,2.9-3.1c0-2.6-1.9-3.7-3.8-5
		C290.9,87.2,289,85.8,289,82.8L289,82.8z"/>
</g>
<g>
	<path class="st1" d="M27.6,52.2c0.2-0.2,0.4-0.3,0.7-0.5c-0.2-0.3-0.4-0.5-0.7-0.8C27.6,51.4,27.6,51.8,27.6,52.2z"/>
	<path class="st1" d="M9.2,33.3C9.1,33.2,9.1,33.1,9,33C9.1,33.1,9.2,33.2,9.2,33.3z"/>
	<path class="st1" d="M30.8,43.7c-0.2,0-0.4,0-0.7,0c0,0.2,0,0.4,0,0.7c0.2,0,0.4,0,0.7,0c0.2,0,0.4,0,0.7,0
		c-0.2-0.2-0.4-0.4-0.5-0.5C30.9,43.8,30.9,43.8,30.8,43.7z"/>
	<path class="st1" d="M30.8,46.3c-0.2-0.4-0.4-0.9-0.7-1.3c-0.4,0-0.9,0-1.3,0s-0.9,0-1.3,0c-0.2,0-0.4,0-0.7,0c0-0.2,0-0.4,0-0.7
		c0-0.2,0-0.4,0-0.7c-0.2,0-0.4,0-0.7,0c0-0.2,0-0.4,0-0.7c-0.9,0-1.7,0-2.6,0c-0.1,0.1-0.2,0.2-0.3,0.3c-0.1,0.2-0.2,0.5-0.2,0.7
		c-0.1,0-0.1,0.1-0.2,0.1c-0.3,0.2-0.4,0.4-0.6,0.7c0-0.2,0-0.4,0-0.5c-0.2-0.2-0.6-0.3-0.7-0.7c0-0.1,0-0.2,0-0.3
		C21.4,43.1,21.2,43,21,43c-0.3,0-0.6,0-0.8,0.1c-0.3,0.3-0.6,0.6-0.7,1c-0.2-0.1-0.4-0.2-0.6-0.3c0.2-0.4,0.4-0.7,0.6-1.1
		c0.2,0,0.4,0,0.7,0c0-0.2,0-0.4,0-0.7c0.2,0,0.4,0,0.7,0c0,0.1,0.1,0.3,0.1,0.4c0.1,0.2,0.3,0.4,0.6,0.6c0-0.1,0-0.2,0-0.3
		c0.2-0.3,0.4-0.3,0.7,0c0.2,0,0.4,0,0.7,0c0.2,0,0.4,0,0.7,0c0-0.2,0-0.4,0-0.7c0-0.4,0-0.9,0-1.3c-0.1-0.5,0.3-1.3-0.7-1.3
		c0-0.4,0-0.9,0-1.3c0-0.2,0-0.4,0-0.7c-0.2,0-0.4,0-0.7,0c-0.2-0.2-0.4-0.4-0.7-0.7c-0.1-1-0.8-0.6-1.3-0.7c-0.4,0-0.8,0-1.3,0
		c0,0.5,0,0.9,0,1.3c-0.2,0.2-0.4,0.4-0.7,0.7c-0.2,0-0.4,0-0.7,0c-0.2,0.2-0.5,0.3-0.6,0.5c-0.2,0.2-0.4,0.5-0.7,0.8
		c-0.4,0-0.9,0-1.3,0c-0.1,0.2-0.1,0.5-0.2,0.5c-1.5,0-2.5,0.8-3.1,2.1c-0.2,0-0.4,0-0.7,0c0,0.2,0,0.4,0,0.7
		c-0.2,0.2-0.4,0.4-0.7,0.7c-0.2,0-0.4,0-0.7,0c0,0.2,0,0.4,0,0.7c-0.2,0.2-0.4,0.5-0.7,0.7c-0.2,0.2-0.4,0.4-0.7,0.7
		c-0.2,0.2-0.4,0.4-0.7,0.7c-0.2,0.2-0.5,0.4-0.7,0.7c-0.2,0-0.4,0-0.7,0c-0.2,0-0.4,0-0.7,0c-0.2,0.2-0.3,0.5-0.5,0.6
		C5,48.1,4.5,48.5,4,49c0,0-0.1,0-0.2,0.1c-0.2,0.2-0.3,0.3-0.5,0.5c0,0.2,0,0.4,0,0.7C3.6,50,3.8,49.8,4,49.6
		c1-0.7,2.1-0.6,3.2-0.7c0.5,0,1.3,0.4,1.4-0.6c0.2,0,0.4,0,0.7,0c0,0.8,0.7,0.8,1,0.6c0.5-0.4,0.6-1-0.4-1.2c0,0-0.1,0-0.1-0.1
		c0,0,0.1,0,0.1,0.1c0-0.2,0-0.4,0-0.7c0.2-0.2,0.5-0.4,0.7-0.7c0.2,0,0.4,0,0.7,0c0,0.4,0,0.8,0,1.1c0.3,0.1,0.4,0.2,0.5,0.2
		c0.7-0.2,1.7,0.6,2.1-0.6c-0.1,0-0.3,0-0.4,0c-0.7-0.2-1.5-0.3-0.9-1.3c0.2-0.2,0.4-0.4,0.7-0.7c0.2,0,0.4,0,0.7,0
		c1,0.1,0.6,0.8,0.7,1.3c0.4,0,0.9,0,1.3,0c0.3-0.2,0.7-0.4,1.1-0.6c0,0.2,0,0.4,0.1,0.5c1.1,0.2,2.2,0.7,3.2-0.3
		c0.2-0.2,0.4-0.5,0.5-0.8c0-0.1,0-0.1,0.1-0.2c0.5,0,1,0,1.6,0c0,0.1-0.1,0.2-0.1,0.2c-0.1,0.4-0.1,0.8,0,1.3
		c0.1,0.3,0.2,0.5,0.4,0.7c0.1,0.1,0.2,0.1,0.3,0.2c0,0,0.1,0,0.2,0c0-0.2,0-0.3,0-0.5c0.2,0,0.4,0,0.7,0c0.2-0.3,0.4-0.3,0.7,0
		c0,0.2,0,0.4,0,0.7c-0.4,0-0.9,0-1.3,0l0,0c-0.1,0-0.2,0-0.2,0c-0.4,0-0.7,0.1-1,0.3c-0.3,0.3-0.4,0.6-0.5,1s-0.1,0.7,0,1.1
		c0,0.1,0,0.2,0,0.3c-0.2,0.1-0.4,0.2-0.4,0.6c-0.4,0.4-0.4,0.9-0.2,1.4c0.3,0.3,0.6,0.3,0.8,0c0.2-0.7,0.4-1.3,0.7-2
		c0.2-0.3,0.4-0.3,0.7,0c0.5,0.7,0.5,1.3,0,2c-0.2,0.2-0.5,0.4-0.7,0.7c-0.2,0-0.4,0-0.7,0c-0.2,0-0.4,0-0.7,0c-0.1,0-0.1,0-0.2,0
		c0,0.1-0.1,0.2-0.1,0.3c0,0.3,0,0.6,0,0.9c-0.4,0.1-0.7,0.2-0.9,0.3c0.4,0.8,0.8,1.6,1.2,2.4c-0.2,0.2-0.4,0.4-0.7,0.7
		c-0.2,0.2-0.4,0.3-0.7,0.5c0.2,0.3,0.4,0.5,0.7,0.8c-0.6,0.8-0.7,1.7-0.7,2.6c-0.2,0-0.4,0-0.7,0c0,0.4,0,0.8,0,1.7
		c0.7-0.5,1-0.8,1.3-1c0.4,0,0.9,0,1.3,0c0.6-0.8,0.7-1.7,0.7-2.6c0.2-0.2,0.4-0.4,0.7-0.7c0-0.2,0-0.4,0-0.7
		c0.5-0.1,1.3,0.3,1.3-0.7c1-0.1,0.6-0.8,0.7-1.3c0.2,0,0.4,0,0.7,0c0-0.2,0-0.4,0-0.7c0.4-0.4,1.2-2.4,1.3-3.3c0-0.4,0-0.9,0-1.3
		c0.2-0.2,0.4-0.4,0.7-0.7c1.3-0.3,0.4-1.3,0.7-2c0.4,0.5,0.8,0.9,1.2,1.3c1.7-0.3,1.5-1.5,1.5-2.6c0.2-0.1,0.4-0.1,0.5-0.2
		C31.2,46.6,31,46.5,30.8,46.3z M20.4,37.8c0,0.2,0,0.4,0,0.7c0.1,0,0.2,0,0.3,0c0,0,0,0.1,0.1,0.1l0.2,0.2c0.1,0.1,0.2,0.2,0.2,0.3
		l-0.1,0.1c-0.2-0.2-0.4-0.4-0.7-0.7c-0.2-0.1-0.4-0.3-0.5-0.4C20,38,20.2,37.9,20.4,37.8z M17.2,43.6c0-0.1,0-0.2,0-0.3
		c0.4-0.1,0.7-0.2,1.1-0.2c0,0.2,0,0.4,0,0.6C17.9,43.6,17.6,43.6,17.2,43.6z"/>
	<path class="st1" d="M4.6,46.9c0-0.4,0-0.7,0-1.1c-0.2,0-0.4,0-0.6,0.1c0.1,0.4,0.2,0.7,0.3,1.1C4.3,46.9,4.5,46.9,4.6,46.9z"/>
	<path class="st1" d="M5.8,45.8c-0.1,0.2-0.3,0.4-0.4,0.5C5.5,46.6,5.8,46.8,6,47c0-0.2,0-0.4,0-0.7C5.9,46.2,5.8,46,5.8,45.8z"/>
	<path class="st1" d="M15.8,27.4c-1.2,0-1.6,0-2,0c-0.2,0.1-0.4,0.1-0.5,0.2c0.2,0.1,0.4,0.3,0.5,0.4c0.2,0.2,0.4,0.4,0.7,0.7
		c0-0.2,0-0.4,0-0.7C14.7,27.9,14.9,27.8,15.8,27.4z"/>
	<path class="st1" d="M9.2,9C9,8.8,8.8,8.6,8.6,8.4c-1,0-0.6,0.8-0.7,1.3c0.2,0,0.4,0,0.7,0c0.2,0.2,0.4,0.4,0.7,0.7
		c0-0.2,0-0.4,0-0.7C9.2,9.5,9.2,9.3,9.2,9z"/>
	<path class="st1" d="M26.9,9.7c0-0.2,0-0.4,0-0.7c-0.1-0.2-0.1-0.4-0.2-0.5c-0.1,0.2-0.3,0.4-0.4,0.5c-0.2,0-0.4,0-0.7,0
		C25.7,10,26.4,9.6,26.9,9.7z"/>
	<path class="st1" d="M34.1,17.6c0,0.2,0,0.4,0,0.7c0.2-0.2,0.4-0.4,0.7-0.7c0-0.2,0-0.4,0-0.7c-0.1-1-0.8-0.6-1.3-0.7
		c0,0.2,0,0.4,0,0.7c0.2,0.2,0.4,0.4,0.5,0.5C34,17.5,34.1,17.5,34.1,17.6z"/>
	<path class="st1" d="M27.3,3.5c-0.2,0.6-0.3,0.8-0.4,0.9c-0.1,0-0.1,0.1-0.2,0.2c-0.2,0.2-0.3,0.3-0.5,0.5c0.1,1,0.8,0.6,1.3,0.7
		c0-0.2,0-0.4,0-0.7C27.5,4.7,27.4,4.3,27.3,3.5z"/>
	<path class="st1" d="M28.2,1.2c0.2-0.2,0.4-0.4,0.7-0.7c-0.1-0.2-0.1-0.4-0.2-0.5c-0.1,0.2-0.3,0.4-0.4,0.5C27.8,0.6,27,0.2,27,1.2
		c0,0.2,0,0.4,0,0.7c0.1,1,0.8,0.6,1.3,0.7c0-0.2,0-0.4,0-0.7S28.2,1.4,28.2,1.2z"/>
	<path class="st1" d="M26.4,12.5c0.2,0.1,0.4,0.3,0.5,0.4c0.2,0,0.4,0,0.7,0c-0.2-0.2-0.4-0.4-0.7-0.7
		C26.7,12.4,26.5,12.5,26.4,12.5z"/>
	<path class="st1" d="M47.8,12.3c0,0.2,0,0.4,0,0.7s0,0.4,0,0.7c0.2-0.2,0.4-0.4,0.7-0.7c0-0.2,0-0.4,0-0.7c0.2-0.1,0.4-0.2,0.7-0.3
		C48.5,11.6,48,11.4,47.8,12.3z"/>
	<path class="st1" d="M43.9,26.7c-0.1-1.5-0.5-1.8-2-2c0-0.2,0-0.4,0-0.7s0-0.4,0-0.7c0.2-0.2,0.4-0.4,0.7-0.7
		c1-0.1,0.6-0.8,0.7-1.3c0.2-0.2,0.4-0.3,0.7-0.5c-0.2-0.3-0.4-0.5-0.7-0.8c0,0-0.1,0-0.1-0.1c0,0,0.1,0,0.1,0.1c0-0.2,0-0.4,0-0.7
		c1-0.1,0.6-0.8,0.7-1.3c0-0.1,0-0.1,0-0.2c0.1,0,0.2-0.1,0.2-0.1c0.2-0.1,0.5-0.2,0.7-0.3c0.2-0.1,0.3-0.2,0.4-0.4
		c0.2,0.6,0.8,0.3,1.3,0.3c0.2,0,0.4,0,0.7,0c0-0.9,0-1.7,0-2.6c0-0.2,0-0.4,0-0.7c-0.2-0.3-0.4-0.4-0.7-0.4c0,0,0,0,0-0.1
		s0-0.1,0-0.2c0.4-0.4,0.4-0.8,0.1-1.2l0,0c0.1,0.1,0.1,0.1,0.2,0.2c0.1-0.1,0.2-0.2,0.3-0.2c0-0.2,0-0.4,0-0.7c0-0.2,0-0.4,0-0.7
		c0.2-0.2,0.4-0.4,0.7-0.7c1-0.1,0.6-0.8,0.7-1.3c0.7-0.6,1.4-1.1,2-1.6c-0.1-0.7-0.2-1.2-0.2-1.6c-0.4,0-0.6,0-1,0
		c-0.1,0.7-0.2,1.3-0.4,2c-0.5,0-0.8,0-1.1,0C47.4,8,47,8.2,46.5,8.4c-0.2,0.2-0.4,0.4-0.7,0.7c0,0.2,0,0.4,0,0.7
		c-0.4-0.2-0.8-0.4-1.2-0.6c0,0.4,0,0.7,0,1.2c0.5,0,0.9,0,1.2,0c0,0.2,0,0.4,0,0.7c-0.2,0.2-0.4,0.4-0.7,0.7c0,0.2,0,0.4,0,0.7
		c-0.6,0-1.2,0-2,0c0,0.8,0,1.4,0,2c-0.2,0.2-0.4,0.4-0.7,0.7c-0.4,0-0.9,0-1.3,0c0,0.4,0,0.8,0,0.8c-0.7,1-1.8-0.1-2,1.2
		c0,0.2,0,0.4,0,0.7c-0.2,0.2-0.4,0.4-0.7,0.7c-1,0.1-0.6,0.8-0.7,1.3c-0.2,0.2-0.4,0.4-0.7,0.7c-0.2,0.2-0.4,0.4-0.7,0.7
		c-0.2,0.2-0.4,0.4-0.7,0.7c-0.4,0-0.9,0-1.3,0c-0.4,0-0.9,0-1.3,0c0-0.9,0-1.7,0-2.6c-0.4-0.5-0.8-1-1.1-1.3c0.2-1,0.3-1.8,0.4-2.6
		c-1.4-0.5-0.3-1.1-0.1-1.8c-0.6-0.5-1.3-1-1.9-1.5c0-1.9,0-3.8,0-5.7c0-0.3-0.4-0.5-0.6-0.8c-0.1-0.4-0.1-0.8-0.2-1.2
		c-0.1-0.5-0.3-0.9-0.4-1.4c1-0.1,0.6-0.8,0.7-1.3C30.1,1,30,0.8,30,0.7c-0.1,0.2-0.3,0.4-0.4,0.5c-0.2,0.4-0.4,0.9-0.7,1.3
		c-0.2,0-0.4,0-0.7,0c0,0.8,0.1,1.7,0,2.5c0,0.3-0.4,0.5-0.6,0.8c0,0.6-0.1,1.2,0,1.8c0,0.3,0.4,0.5,0.6,0.8s0.4,0.7,0.6,1
		C28.4,9.6,28,9.8,27.6,10c0,0.4,0,0.7,0,1c0.1,0.2,0.3,0.5,0.4,0.7c0.3,0.7,0.8,1.5-0.4,1.9c-1.9,0.5-1.2,2.1-1.3,3.3v0.2h0.2
		c0,0,0,0,0.1,0l0,0c0,0.2,0.1,0.3,0.3,0.4c0.5,0,0.7,0.1,0.3,0.7c-0.5,0.9-0.7,1.8,0.3,2.6c0,0.4,0,0.8,0,1.1
		c-0.3,0.1-0.4,0.2-0.5,0.2c-2.3-0.6-4.5-1.3-6.1-3.3c0-0.1,0-0.2-0.1-0.4c-0.2,0.1-0.4,0.2-0.6,0.4c-1.3-0.3-0.4-1.3-0.7-2
		c-1.1-0.3-2-1.4-3.3-1.3c0-0.2,0-0.4,0-0.7s0-0.4,0-0.7c-0.2-0.1-0.3-0.3-0.3-0.5c-0.1-0.2-0.3-0.3-0.5-0.4
		c-0.2-0.1-0.3-0.1-0.5-0.1c0-0.1,0-0.2,0-0.3c-0.2,0-0.4,0-0.7,0c-0.2,0-0.4,0-0.7,0c-0.2-0.2-0.5-0.4-0.7-0.7
		c-0.1-0.5,0.3-1.3-0.7-1.3c-0.1-1-0.8-0.6-1.3-0.7c0-0.2,0-0.4,0-0.7c-0.1-0.2-0.1-0.4-0.2-0.5c-0.1,0.2-0.3,0.4-0.4,0.5
		C10,9.6,9.8,9.8,9.5,10.1c-0.2,0-0.4,0-0.7,0c0,0.2,0,0.4,0,0.7c0,0.2,0,0.4,0,0.7c0.1,0.5-0.3,1.3,0.7,1.3c0,0.2,0,0.4,0,0.7
		c0.2,0,0.4,0,0.7,0c0.2,0.4,0.4,0.9,0.7,1.3c0,0.2,0,0.4,0,0.7c0.7,0.2,1.3,0.4,2,0.7c0,0.2,0,0.4,0,0.7c0.2,0.1,0.4,0.2,0.6,0.3
		c0,0.2,0.1,0.3,0.2,0.5c0.2,0.2,0.4,0.4,0.6,0.6c0,0.8,0,1.7,0,2.5c0.7,0.1,1.3,0.1,1.8,0.2c0.2,0.7,0.8,1,1.3,1.5s0.6,1.5,1.5,1.7
		c0.6,0.5,0,1.4,0.7,2c0,0.4,0,0.9,0,1.3c0.1,0.1,0.3,0.2,0.4,0.4c0,0.1,0,0.1-0.1,0.2v0.1c-0.1,0-0.2,0-0.3,0c0,0.2,0,0.4,0,0.7
		c-0.2,0-0.4,0-0.7,0c-0.2-0.2-0.4-0.4-0.7-0.7c-0.1-0.1-0.2-0.2-0.3-0.3c-0.1,0.1-0.1,0.1-0.2,0.2c0,0,0-0.1,0.1-0.1
		c0.1-0.1,0-0.3-0.2-0.4c-0.2,0.2-0.4,0.4-0.7,0.7c-0.2,0-0.4,0-0.7,0c-0.2,0.2-0.4,0.4-0.7,0.7c-0.4,0-0.9,0-1.3,0
		c-0.1,1-0.8,0.6-1.3,0.7c-0.3-0.2-0.5-0.6-0.8-0.6c-0.6-0.1-1.2,0-1.8,0c-0.3-0.2-0.5-0.6-0.8-0.6c-0.8-0.1-1.7,0-2.5,0
		c-0.4,0-0.9,0-1.3,0c-0.9,0-1.7,0-2.6,0c-0.2,0.2-0.4,0.4-0.7,0.7c-0.2,0-0.4,0-0.7,0c0-0.4-0.3-0.2-0.7,0
		c-0.1-0.1-0.2-0.4-0.3-0.6c-0.6-0.2-0.9,0-0.7,0.7c0.1,1,0.8,0.6,1.3,0.7c0.2,0.2,0.3,0.3,0.5,0.5l0.1,0.1c0.2,0,0.4,0,0.7,0
		c0.2,0,0.4,0,0.7,0c0,0.2,0,0.4,0,0.7c0.7,0.9,1.3,0.9,2,0c0.7,0,1.3,0,2,0c0.2,0,0.4,0,0.7,0c0.3,0,0.7,0,1,0
		c0.1,0,0.1,0.1,0.2,0.1l0.1,0.1c0,0.1,0,0.3,0,0.4c0,0.4,0,0.9,0,1.3c0.4,0,0.9,0,1.3,0c0.2-0.2,0.4-0.4,0.7-0.7
		c0.2,0.1,0.2,0.3,0.2,0.4c-0.1,0.1-0.1,0.2-0.2,0.2c-0.2,0-0.4,0-0.7,0c0.2,0.2,0.4,0.4,0.7,0.7c0.5,1.2,1.2,0.6,2,0.4
		c0-0.4,0-0.7,0-1c0.2,0,0.5,0,0.7,0c0.1,0,0.2,0,0.3,0c0.2,0.4,0.4,0.9,0.6,1.3c0.4,0,0.7,0,1,0c0.4-0.3,0.8-0.5,1.3-0.7
		c0.2,0,0.4,0,0.7,0c0.2,0.2,0.4,0.4,0.7,0.7c0,0.2,0,0.4,0,0.7c0.2,0,0.4,0,0.7,0c0.2,0.2,0.4,0.4,0.7,0.7c0.1,0,0.1-0.1,0.2-0.2
		v-0.1c0.2,0.1,0.3,0.2,0.5,0.3c0.2,0,0.4,0,0.7,0c0-0.4,0-0.9,0-1.3c-1-0.1-0.6-0.8-0.7-1.3c0.2,0,0.4,0,0.7,0
		c-0.1-0.5,0.3-1.3-0.7-1.3c-0.1-0.5,0.3-1.3-0.7-1.3c0-0.2,0-0.4,0-0.7c1-0.1,0.6-0.8,0.7-1.3c0.2-0.2,0.4-0.4,0.7-0.7
		c0.3,0,0.7,0,0.8,0c0.8-0.9,1.4-1.7,2.1-2.5c1.8,0.4,2.4-1.6,3.7-2.1c0.3-0.2,0.6-0.7,0.8-0.6c0.5,0.1,1,0.4,1.8,0.8
		c0-0.7,0-1.1,0-1.5c0.9,0,1.7,0,2.6,0c0.3,1.3,1.3,0.4,2,0.7c0.4,0.2,0.9,0.4,1.3,0.7c0.2,0,0.4,0,0.7,0c0.3,1.3,1.3,0.4,2,0.7
		c0.2,0,0.4,0,0.7,0c0.1,1,0.8,0.6,1.3,0.7c0.2,0.2,0.3,0.6,0.5,0.6c1.1,0,0.8,0.8,0.8,1.3c0.2,0,0.4,0,0.6,0
		C43,26.7,43.5,26.7,43.9,26.7z M12,11.4c-0.1,0.1-0.1,0.2-0.2,0.2c-0.2,0-0.4,0-0.7,0L11,11.5v-0.3l0.2-0.2c0.2,0,0.4,0,0.7,0
		C12,11.2,12.1,11.3,12,11.4z M5.3,30c-0.2,0.3-0.4,0.3-0.7,0c-0.2,0-0.4,0-0.7,0c0-0.2,0-0.4,0-0.7c0.4,0,0.9,0,1.3,0
		C5.3,29.5,5.3,29.8,5.3,30z M19.1,30L19.1,30L19.1,30C19.2,30,19.1,30,19.1,30z M26.8,17c0-0.1,0-0.1,0-0.1L27,17H26.8z M27.6,16.9
		c-0.2-0.1-0.3-0.3-0.2-0.4c0.1-0.1,0.1-0.2,0.2-0.2c0-0.2,0-0.4,0-0.7c0.2,0.3,0.4,0.5,0.7,0.8C28,16.6,27.8,16.7,27.6,16.9z
		 M29.5,8.4c0.1,0,0.1,0,0.2,0c-0.1,0.1-0.1,0.1-0.2,0.2C29.5,8.5,29.5,8.5,29.5,8.4z"/>
	<path class="st1" d="M60.3,23.4c-0.4,0-0.9,0-1.3,0c-0.5-0.3-1.1-0.5-1.6-0.8c-0.3,0.6-0.5,1-0.6,1.4c-0.4,0-0.7,0-1,0
		c-0.1-0.5,0.3-1.3-0.7-1.3c-0.4,0.2-0.4,0.4,0,0.7c-0.2,0.4-0.4,0.9-0.7,1.3c-1.1-0.8-2.2-0.8-3.3,0c-0.1,0-0.2,0-0.4,0
		c0-0.2-0.1-0.4-0.3-0.7c-1.1,0-2.2,0.1-3.3,0.1c0,0.6,0,0.9,0,1.2c0.1,0.1,0.1,0.2,0.2,0.2c-0.3,0.1-0.6,0.1-0.9-0.2
		c-0.5,0.1-1,0.2-1.4,0.4c-0.4,0.2-0.8,0.6-1.2,0.9c-0.3,1.3-1.3,0.4-2,0.7c0.1-0.1,0.3-0.2,0.4-0.3c-0.1-0.1-0.3-0.2-0.4-0.3
		c-0.2,0-0.4,0-0.7,0c-0.1-0.2-0.1-0.4-0.2-0.5c-0.1,0.2-0.3,0.4-0.4,0.5c0,0.2,0,0.4,0,0.7c0.1,0.5-0.3,1.3,0.7,1.3
		c0.2,0.3,0.4,0.3,0.7,0c0-0.2,0-0.4,0-0.7c0.4,0.3,0.8,0.6,1.3,0.9c0,1,0,1.9,0,2.8c0.7,0.8,1.3,1.5,2,2.2c0.3-0.3,0.7-0.2,1-0.3
		c0.4-0.1,0.7-0.3,0.9-0.7c0-0.1,0-0.2,0.1-0.4c0.4-1.3,2.4,0,2.5-1.7c-0.1-0.2-0.3-0.4-0.7-0.9c0.7,0,1.1,0,1.5,0
		c0.2-0.2,0.4-0.4,0.7-0.7C51,29.3,51,29.5,51,29.7c-0.1-0.1-0.3,0-0.4,0.2c0.1,1.4,0.1,1.4,1.3,1c0-0.3,0-0.6,0-1
		c0.3-0.2,0.5-0.5,0.8-0.6c0.4-0.1,1.1,0.2,1.1-0.7c1.3-0.5,2.4-1.6,3.9-1.3c0.1-0.5-0.3-1.3,0.7-1.3c0.5-0.1,1.3,0.3,1.3-0.7
		c0.2,0,0.4,0,0.7,0c0.2,0,0.4,0,0.7,0c-0.1-0.1-0.3-0.3-0.4-0.4c0-0.1-0.1-0.1-0.2-0.2c0.2-0.2,0.4-0.4,0.7-0.7
		C61.1,23.5,61,23.2,60.3,23.4z"/>
	<path class="st1" d="M61.6,22.1c0-0.2,0-0.4,0-0.7c-0.2,0-0.4,0-0.7,0c-0.2,0-0.4,0-0.7,0c0.2,0.2,0.4,0.4,0.7,0.7
		C61.1,22.1,61.4,22.1,61.6,22.1z"/>
	<path class="st1" d="M62.9,22.1c-0.2,0-0.4,0-0.7,0c0,0.2,0,0.3,0,0.5c-0.1,0-0.2-0.1-0.3-0.1c-0.1,0.1-0.2,0.2-0.4,0.3
		c-0.4,0.4-0.4,0.9,0,1.3c0.4,0.2,0.7,0.4,1.3,0.7c0-0.6,0-0.9,0-1.3c0-0.2,0-0.4,0-0.7c0.1,0,0.1-0.1,0.2-0.2
		C63.1,22.4,63,22.3,62.9,22.1z"/>
</g>
</svg>
