<?xml version="1.0" encoding="iso-8859-1"?>
<!-- Generator: Adobe Illustrator 19.1.0, SVG Export Plug-In . SVG Version: 6.00 Build 0)  -->
<svg version="1.1" id="Layer_1" xmlns="http://www.w3.org/2000/svg" xmlns:xlink="http://www.w3.org/1999/xlink" x="0px" y="0px"
	 viewBox="0 0 300 43.157" style="enable-background:new 0 0 300 43.157;" xml:space="preserve">
<g>
	<path style="fill:#FFFFFF;" d="M5.984,10.457c0-6.468-1.209-7.616-3.022-7.616C1.874,2.841,0,2.478,0,1.572
		c0-0.846,0.362-1.028,2.297-1.028c2.962,0,5.923,0.483,8.885,0.483s5.924-0.483,8.885-0.483c10.578,0,17.106,2.297,17.106,10.094
		c0,5.44-4.352,7.435-9.067,8.643v0.121c6.588,0.484,12.391,2.176,12.391,11.484c0,6.649-5.621,11.726-20.128,11.726
		c-5.742,0-9.067-0.483-11.787-0.483c-2.116,0-3.022,0.483-4.533,0.483c-1.39,0-2.72,0-2.72-0.786c0-1.209,1.088-1.148,2.115-1.632
		c2.418-1.148,2.539-3.264,2.539-5.863V10.457z M15.171,15.171c0,2.78,1.934,3.627,5.198,3.627c4.594,0,7.435-1.753,7.435-6.588
		c0-4.715-2.781-8.946-8.341-8.946c-3.627,0-4.291,1.572-4.291,4.473V15.171z M15.171,34.574c0,2.841,0.181,4.835,5.681,4.835
		c5.984,0,9.852-2.72,9.852-8.825c0-8.039-6.226-9.248-13.177-9.248c-1.33,0-2.357,0.544-2.357,2.236V34.574z"/>
	<path style="fill:#FFFFFF;" d="M47.33,22.304c0-1.088-0.846-1.511-1.693-1.571c-1.632-0.121-1.753-0.544-1.753-1.269
		c0-0.967,1.148-1.33,2.297-1.451c1.753-0.181,5.259-1.451,6.891-2.236c0.484-0.242,1.209-0.544,1.813-0.544
		c0.484,0,0.604,0.846,0.604,3.626v17.65c0,2.599,1.209,3.264,2.357,3.687c1.148,0.423,2.357,0.484,2.357,1.451
		s-0.786,0.967-1.511,0.967c-2.236,0-4.473-0.483-6.709-0.483c-2.236,0-4.473,0.483-6.709,0.483c-1.028,0-1.33-0.483-1.33-0.967
		c0-0.967,0.725-1.209,1.692-1.451c0.846-0.242,1.693-0.846,1.693-2.236V22.304z M55.973,5.44c0,1.632-3.022,5.138-4.715,5.138
		c-1.692,0-4.715-3.506-4.715-5.138c0-1.693,3.022-5.44,4.715-5.44C52.951,0,55.973,3.748,55.973,5.44z"/>
	<path style="fill:#FFFFFF;" d="M91.817,28.288c0,7.858-6.165,14.869-14.748,14.869c-8.22,0-15.716-5.38-15.716-13.962
		c0-8.281,6.528-13.962,15.292-13.962C83.718,15.232,91.817,19.886,91.817,28.288z M69.514,28.106
		c0,7.072,3.687,12.633,7.737,12.633c5.138,0,6.407-4.775,6.407-9.852c0-7.677-3.204-13.237-7.737-13.237
		C70.783,17.65,69.514,22.425,69.514,28.106z"/>
	<path style="fill:#FFFFFF;" d="M95.99,31.733c-0.121-0.544-0.423-1.39-0.423-1.934c0-0.423,0.242-0.907,1.269-0.907
		c1.209,0,1.511,1.632,1.934,2.539c2.236,4.775,6.588,9.006,12.27,9.006c4.231,0,7.677-2.599,7.677-7.012
		c0-9.852-22.425-5.077-22.425-21.578C96.293,5.621,101.37,0,108.502,0c5.138,0,8.22,2.357,10.215,2.357
		c0.665,0,1.994-0.846,2.539-0.846c0.786,0,0.967,0.363,0.967,1.148c-0.121,3.445,0.846,8.946,0.846,9.611
		c0,0.786-0.363,1.33-1.209,1.33c-1.088,0-1.33-0.967-1.813-2.478c-1.39-4.412-6.528-8.402-11.122-8.402
		c-3.687,0-6.891,2.116-6.891,5.561c0,10.275,22.425,4.835,22.425,21.518c0,5.863-4.594,13.358-13.6,13.358
		c-3.868,0-7.253-1.269-10.94-1.995c-0.604-0.121-1.571-0.181-1.813-1.028L95.99,31.733z"/>
	<path style="fill:#FFFFFF;" d="M146.524,38.684c5.017,0,6.83-3.748,8.039-3.748c0.423,0,0.907,0.423,0.907,0.786
		c0,2.962-7.012,7.435-13.721,7.435c-7.797,0-12.996-5.863-12.996-13.479c0-8.281,7.737-14.446,15.655-14.446
		c4.171,0,9.308,2.176,9.308,4.775c0,1.571-1.088,2.297-2.297,3.143c-0.665,0.483-2.539,1.813-3.385,1.813
		c-1.572,0-1.088-1.39-1.874-3.445c-0.725-1.995-2.599-3.566-4.896-3.566c-4.171,0-4.775,4.231-4.775,7.495
		C136.49,31.129,139.996,38.684,146.524,38.684z"/>
	<path style="fill:#FFFFFF;" d="M161.576,22.304c0-1.088-0.846-1.511-1.693-1.571c-1.632-0.121-1.753-0.544-1.753-1.269
		c0-0.967,1.148-1.33,2.297-1.451c1.753-0.181,5.259-1.451,6.891-2.236c0.484-0.242,1.209-0.544,1.813-0.544
		c0.484,0,0.604,0.846,0.604,3.626v17.65c0,2.599,1.209,3.264,2.358,3.687c1.148,0.423,2.357,0.484,2.357,1.451
		s-0.786,0.967-1.511,0.967c-2.237,0-4.473-0.483-6.71-0.483c-2.236,0-4.473,0.483-6.709,0.483c-1.028,0-1.33-0.483-1.33-0.967
		c0-0.967,0.726-1.209,1.693-1.451c0.846-0.242,1.693-0.846,1.693-2.236V22.304z M170.22,5.44c0,1.632-3.022,5.138-4.715,5.138
		c-1.692,0-4.715-3.506-4.715-5.138c0-1.693,3.022-5.44,4.715-5.44C167.198,0,170.22,3.748,170.22,5.44z"/>
	<path style="fill:#FFFFFF;" d="M183.882,27.985v2.297c0,4.715,4.896,8.643,9.55,8.643c4.836,0,8.16-3.385,8.583-3.385
		c0.303,0,0.605,0.363,0.605,0.665c0,2.055-5.561,6.951-13.056,6.951c-8.523,0-13.902-4.654-13.902-13.358
		c0-7.918,5.5-14.567,13.66-14.567c5.863,0,13.177,4.11,13.177,10.759c0,1.39-0.544,1.995-3.325,1.995H183.882z M193.975,25.568
		c0.302,0,0.363-1.028,0.363-1.511c0-3.506-1.935-6.407-5.32-6.407c-3.687,0-5.379,3.929-5.379,6.77c0,0.967,0.665,1.148,1.39,1.148
		H193.975z"/>
	<path style="fill:#FFFFFF;" d="M208.907,21.578c0-1.028-0.846-1.33-1.692-1.451c-0.907-0.121-1.753-0.242-1.753-1.148
		c0-0.726,1.148-1.088,2.297-1.33c2.538-0.544,4.473-0.967,6.891-1.874c0.483-0.181,1.209-0.544,1.813-0.544
		c0.302,0,0.484,0.665,0.484,1.451v3.808h0.121c2.599-3.506,5.198-5.258,9.127-5.258c5.984,0,10.275,4.05,10.275,11.484V38.08
		c0,1.33,0.967,1.934,1.813,2.116c0.967,0.181,1.692,0.544,1.692,1.451c0,0.604-0.302,0.967-1.39,0.967
		c-2.055,0-4.11-0.483-6.165-0.483c-2.056,0-4.111,0.483-6.166,0.483c-0.846,0-1.33-0.181-1.33-0.967
		c0-0.907,0.726-1.269,1.693-1.451c1.148-0.181,1.692-0.786,1.692-2.116V26.112c0-3.264-1.33-6.528-5.621-6.528
		c-4.292,0-5.622,3.264-5.622,6.528v10.517c0,2.539,1.209,3.203,2.358,3.566c1.209,0.363,2.357,0.544,2.357,1.451
		c0,0.665-0.423,0.967-1.511,0.967c-2.237,0-4.473-0.483-6.71-0.483c-2.236,0-4.472,0.483-6.709,0.483
		c-1.088,0-1.33-0.362-1.33-0.967c0-0.907,0.726-1.269,1.693-1.451c0.846-0.181,1.692-0.786,1.692-2.116V21.578z"/>
	<path style="fill:#FFFFFF;" d="M260.71,38.684c5.017,0,6.83-3.748,8.039-3.748c0.423,0,0.907,0.423,0.907,0.786
		c0,2.962-7.011,7.435-13.721,7.435c-7.797,0-12.995-5.863-12.995-13.479c0-8.281,7.737-14.446,15.656-14.446
		c4.17,0,9.308,2.176,9.308,4.775c0,1.571-1.088,2.297-2.297,3.143c-0.665,0.483-2.538,1.813-3.384,1.813
		c-1.572,0-1.088-1.39-1.874-3.445c-0.726-1.995-2.599-3.566-4.896-3.566c-4.17,0-4.775,4.231-4.775,7.495
		C250.676,31.129,254.182,38.684,260.71,38.684z"/>
	<path style="fill:#FFFFFF;" d="M281.262,27.985v2.297c0,4.715,4.896,8.643,9.55,8.643c4.836,0,8.16-3.385,8.583-3.385
		c0.303,0,0.604,0.363,0.604,0.665c0,2.055-5.561,6.951-13.056,6.951c-8.523,0-13.902-4.654-13.902-13.358
		c0-7.918,5.5-14.567,13.66-14.567c5.863,0,13.177,4.11,13.177,10.759c0,1.39-0.544,1.995-3.324,1.995H281.262z M291.357,25.568
		c0.302,0,0.363-1.028,0.363-1.511c0-3.506-1.935-6.407-5.319-6.407c-3.687,0-5.38,3.929-5.38,6.77c0,0.967,0.665,1.148,1.39,1.148
		H291.357z"/>
</g>
</svg>
