<?xml version="1.0" encoding="utf-8"?>
<!-- Generator: Adobe Illustrator 19.1.0, SVG Export Plug-In . SVG Version: 6.00 Build 0)  -->
<svg version="1.1" id="Layer_1" xmlns="http://www.w3.org/2000/svg" xmlns:xlink="http://www.w3.org/1999/xlink" x="0px" y="0px"
	 viewBox="0 0 625 30.1029" style="enable-background:new 0 0 625 30.1029;" xml:space="preserve">
<style type="text/css">
	.st0{fill:#1D1D1B;}
	.st1{fill:#39368C;}
</style>
<g>
	<path class="st0" d="M2.0232,0.4491c0.7198,0,3.7329,0.09,6.1163,0.09c0.2246,0,0.4497,0.3602,0.4497,0.5403
		c0.1351,0.8993,0.8093,2.4729,2.698,6.6105c1.439,2.9681,5.5316,12.0965,7.4653,15.6499c0.0445,0.134,0.3596,0,0.4497-0.1801
		c1.8887-3.4183,6.6555-14.0764,8.7688-18.0328c0.5397-1.0794,1.0344-2.7441,1.5741-4.0475
		c0.045-0.1351,0.2701-0.5403,0.4947-0.5403c2.3834-0.045,5.5316-0.045,5.9813-0.045c0.4497,0,0.8993,0.045,0.8993,0.3152
		c0,0.3152-0.5397,0.5403-0.9444,0.6292c-2.8781,0.4952-3.1482,1.2595-3.1482,2.3839c-0.1795,9.6236,0.3152,15.2898,0.4046,18.2579
		c0.1351,5.441,0.4947,5.8462,3.1932,6.4304c0.7643,0.1801,1.0344,0.4052,1.0344,0.7192c0,0.3152-0.2251,0.4502-1.3495,0.4502
		c-1.259,0-3.6424-0.2251-5.441-0.2251c-1.394,0-2.5185,0.1351-3.5078,0.1351c-0.8993,0-1.0344-0.1801-1.0344-0.4941
		c0-0.3602,0.3596-0.4952,0.9444-0.6303c1.394-0.269,2.2039-1.0344,2.2934-2.9231c0.3602-6.2503-0.0445-12.8158-0.0445-19.6964
		c0-0.1801-0.2251-0.2251-0.2251-0.1801c-2.2483,4.2276-7.6899,16.3242-8.7693,18.573c-1.0344,2.2928-1.5736,3.7324-1.9337,4.6767
		c-0.2696,0.8093-0.5842,1.1695-0.8093,1.1695c-0.2696,0-0.6748-0.7654-0.8993-1.4846c-0.2251-0.6292-0.8093-1.8887-2.1138-5.0819
		c-2.1583-4.8568-4.6768-10.792-7.2853-16.6382C6.8801,6.1163,6.7005,7.0157,6.6555,7.4648
		c-0.2701,2.653-0.6748,13.8062-0.6748,17.0434c0,3.1032,0.9894,3.1032,2.8781,3.8224c0.3596,0.1351,1.0794,0.3602,1.0794,0.7654
		c0,0.4491-0.8993,0.4941-1.1695,0.4941c-0.4947,0-2.0682-0.1351-4.092-0.1351c-1.9788,0-3.0131,0.2251-3.5078,0.2251
		C0.3596,29.6802,0,29.5451,0,29.23c0-0.4491,0.4497-0.4941,1.1239-0.7643c2.0688-0.7192,2.5185-1.2134,2.9231-4.3166
		C4.5867,19.7864,5.396,9.3085,5.396,4.7218c0-0.6292-0.6292-2.1588-1.304-2.5179C3.5523,1.8887,2.653,1.6636,1.7536,1.3935
		C1.349,1.2595,1.0344,1.0794,1.0344,0.7643C1.0344,0.5392,1.349,0.4491,2.0232,0.4491z"/>
	<path class="st0" d="M60.6352,20.106c0,4.5329-2.8331,7.4066-4.6949,8.5398c-1.6191,0.9312-3.4809,1.4572-5.1808,1.4572
		c-5.9094,0-10.1589-4.3309-10.1589-9.7137c0-3.7236,1.6186-6.2734,4.0069-7.9743c1.6186-1.1728,4.0069-1.8613,5.8281-1.8613
		C57.8022,10.5537,60.6352,16.3824,60.6352,20.106z M46.6714,12.6983c-1.8212,1.5384-2.469,4.1694-2.469,7.1244
		c0,6.4754,4.0882,9.3897,7.0832,9.3897c0.7692,0,2.0238-0.3646,3.1169-1.2946c1.6998-1.4165,2.5904-4.2507,2.5904-7.3264
		c0-3.7236-2.3883-9.1877-7.0426-9.1877C48.5738,11.4036,47.5213,11.9296,46.6714,12.6983z"/>
	<path class="st0" d="M67.9847,11.2016c2.1451,0,2.955-0.1219,3.5216-0.1219c0.4854,0,0.7687,0.1219,0.7687,0.3239
		c0,0.2427-0.202,0.3646-0.8905,0.4854c-1.4566,0.2833-1.5785,0.9312-1.6998,2.2269c-0.1213,1.3353-0.202,2.9539-0.202,6.0702
		c0,4.7767,0.1213,6.3546,0.2427,6.9212c0.1213,0.4052,0.7286,0.8499,1.2145,0.9312c0.9306,0.1219,2.2664,0.2427,4.8568,0.2427
		c0.8905,0,1.9425-1.0113,3.157-3.2372c0.202-0.4052,0.4854-0.6479,0.6072-0.6479c0.202,0,0.364,0.3239,0.1614,1.0113
		c-0.2833,0.9312-0.688,2.5498-0.9306,3.5622c-0.0807,0.2833-0.6072,0.6072-0.8499,0.6072c-0.3646,0-3.319-0.1219-10.4022-0.1219
		c-0.9713,0-2.1045,0.1625-3.3997,0.1625c-0.6072,0-0.8499-0.1625-0.8499-0.3646c0-0.202,0.2427-0.4052,0.7687-0.526
		c2.0238-0.3239,2.2264-0.8499,2.3071-2.1457c0.0406-0.8905,0.162-3.157,0.162-6.3953c0-3.9257-0.0406-4.6142-0.0807-5.9494
		c-0.0406-1.3759-0.2833-2.105-1.9837-2.3477c-0.4854-0.1208-0.7687-0.2427-0.7687-0.4854c0-0.1219,0.2833-0.3239,0.7286-0.3239
		C65.0303,11.0797,66.5276,11.2016,67.9847,11.2016z"/>
	<path class="st0" d="M94.0648,18.0822c0.202-0.7291,0.4046-1.0124,0.6473-1.0124c0.2026,0,0.3239,0.1625,0.3239,0.7291
		c0,0.202-0.0813,1.1332-0.0813,1.9425c0,1.4978,0.0813,2.2258,0.1219,2.6716c0,0.4447-0.2432,0.8093-0.4052,0.8093
		c-0.2427,0-0.4447-0.3239-0.5666-0.8499c-0.2833-1.2145-0.9306-1.6197-1.7405-1.6592c-0.3234,0-1.4566-0.0406-3.157-0.0406
		c-0.1213,0-0.2427,0.1614-0.2427,0.2427c-0.0807,0.526-0.0406,4.209,0.0813,5.3828c0.0401,0.5666,0.0807,1.0124,0.2427,1.2145
		c0.162,0.2833,0.8093,0.8905,1.4165,0.8905c1.2952,0,4.0069-0.0406,4.6949-0.202c1.2952-0.3239,2.1451-1.5384,2.7117-2.7935
		c0.162-0.4041,0.4052-0.6072,0.6072-0.6072c0.2026,0,0.2432,0.4052,0.2026,0.7291c-0.162,1.052-0.688,2.631-0.9713,3.6424
		c-0.0813,0.2427-0.5265,0.4865-0.9312,0.4865c-0.4859,0-4.4116-0.0813-9.3903-0.2031c-2.0238-0.0406-3.0357,0.2031-4.2902,0.2031
		c-0.7692,0-0.9713-0.1219-0.9713-0.3239c0-0.2031,0.2427-0.3646,0.8905-0.4865c1.8618-0.3635,2.4284-1.0113,2.5498-2.5091
		c0.0807-0.8499,0.1213-2.6716,0.1213-7.1233c0-4.3309-0.0807-4.736-0.162-5.8286c-0.0807-0.9312-0.4453-1.2551-1.8618-1.5384
		c-0.4854-0.1208-0.8499-0.2427-0.8499-0.4447c0-0.202,0.2026-0.3646,0.8905-0.3646c1.0525,0,1.5379,0.1625,3.3596,0.1625
		c0.9713,0,3.6424,0,3.6424,0c4.0069,0,4.9381-0.0813,5.7474-0.3239c0.0813,0,0.2833,0.2833,0.2833,0.4447
		c0,0.9312,0.0813,2.5102,0.2026,3.1164c0.0406,0.2438,0,0.8499-0.3239,0.8499c-0.2833,0-0.4453-0.3228-0.6072-0.9707
		c-0.4447-1.4165-1.3759-1.9425-2.995-2.0238c-1.052-0.0813-2.995-0.1219-3.8856-0.1219c-0.162,0-0.3234,0.2427-0.364,0.5666
		c-0.0813,1.4572-0.1213,5.262-0.0813,5.9505c0.0406,0.3635,0.0813,0.728,0.3239,0.728h1.6598
		C92.931,19.4175,93.6195,19.256,94.0648,18.0822z"/>
	<path class="st0" d="M117.2954,10.9589c0.8093,0.1614,1.4978,0.3228,1.9831,0.3228c0.162,0,0.3239,0.2031,0.3239,0.4052
		c0,1.5384,0.2026,2.3477,0.2026,3.5216c0,0.5666-0.1213,0.8499-0.4046,0.8499c-0.2432,0-0.3646-0.4458-0.4453-0.7291
		c-0.2833-1.254-0.8098-2.1446-1.7811-2.8331c-1.0119-0.728-2.3878-1.1332-4.2095-1.1332c-2.5498,0-4.0069,1.3353-4.9375,2.3477
		c-1.0525,1.2551-1.9024,3.7236-1.9024,6.1921c0,2.631,1.0119,4.9381,2.2664,6.4359c1.2952,1.4572,3.3997,2.7123,5.626,2.7123
		c2.469,0,4.0475-0.6885,5.1808-3.157c0.4046-0.7698,0.526-0.9718,0.7286-0.9718c0.3239,0,0.2427,0.526,0.2427,0.9312
		c0,0.4854-0.162,1.3353-0.2833,1.9831c-0.0406,0.2427-0.2427,0.8499-0.8905,1.1332c-1.1739,0.5666-3.2377,1.1332-5.7068,1.1332
		c-3.3596,0-6.476-1.1332-8.3378-3.2383c-1.3358-1.4572-2.3883-3.5216-2.3883-6.6379c0-2.3071,0.8505-5.4234,3.8861-7.6086
		c1.4566-1.0926,3.845-2.0644,7.2446-2.0644C114.8263,10.5537,116.4861,10.7964,117.2954,10.9589z"/>
	<path class="st0" d="M128.206,11.2016c1.2952,0,2.8737-0.1219,3.4804-0.1219c0.5265,0,0.8098,0.202,0.8098,0.3646
		c0,0.202-0.3239,0.4447-0.7692,0.526c-1.2139,0.3239-2.1045,0.6072-2.1045,2.1457c-0.0406,2.6299-0.1213,5.6661,0,8.5398
		c0.1213,2.5498,1.0926,3.7642,1.7805,4.3715c0.9312,0.7687,2.3477,1.2946,3.6429,1.2946c3.3997,0,5.788-0.8093,5.788-8.5804
		c0.0406-1.6186,0-5.0194,0-5.3027c-0.162-1.6592-0.688-2.1852-2.2264-2.5091c-0.9306-0.202-1.0119-0.3239-1.0119-0.526
		c0-0.1614,0.162-0.3239,0.7286-0.3239c1.2145,0,1.7405,0.1219,2.995,0.1219c1.2952,0,1.8217-0.1219,2.7523-0.1219
		c0.6479,0,0.7692,0.202,0.7692,0.3239c0,0.1614-0.2427,0.3646-0.7286,0.4854c-1.5379,0.4052-1.6592,0.9718-1.7811,2.5102
		c-0.0807,1.1728-0.2427,3.6424-0.3234,6.1109c-0.1214,3.6841-0.8905,6.1932-2.5503,7.8118
		c-1.3353,1.2145-3.2783,1.7811-5.4234,1.7811s-4.1689-0.6885-5.1402-1.6186c-1.2145-1.0937-2.2664-2.0644-2.3477-7.4077
		c-0.0807-3.6017-0.0807-7.3253-0.2427-7.9732c-0.1213-0.4447-0.3646-0.8093-1.5785-1.1739
		c-0.6072-0.1614-0.8098-0.3646-0.8098-0.526c0-0.2833,0.4859-0.3239,0.8505-0.3239
		C125.413,11.0797,126.9509,11.2016,128.206,11.2016z"/>
	<path class="st0" d="M152.6109,11.2016c2.1451,0,2.9549-0.1219,3.5216-0.1219c0.4854,0,0.7687,0.1219,0.7687,0.3239
		c0,0.2427-0.2021,0.3646-0.8905,0.4854c-1.4566,0.2833-1.5785,0.9312-1.6998,2.2269c-0.1213,1.3353-0.202,2.9539-0.202,6.0702
		c0,4.7767,0.1213,6.3546,0.2427,6.9212c0.1213,0.4052,0.7286,0.8499,1.2145,0.9312c0.9306,0.1219,2.2664,0.2427,4.8568,0.2427
		c0.8905,0,1.9425-1.0113,3.157-3.2372c0.202-0.4052,0.4854-0.6479,0.6072-0.6479c0.2021,0,0.364,0.3239,0.1614,1.0113
		c-0.2833,0.9312-0.688,2.5498-0.9306,3.5622c-0.0807,0.2833-0.6072,0.6072-0.8499,0.6072c-0.3646,0-3.319-0.1219-10.4022-0.1219
		c-0.9713,0-2.1045,0.1625-3.3997,0.1625c-0.6072,0-0.8499-0.1625-0.8499-0.3646c0-0.202,0.2427-0.4052,0.7687-0.526
		c2.0238-0.3239,2.2264-0.8499,2.3071-2.1457c0.0406-0.8905,0.162-3.157,0.162-6.3953c0-3.9257-0.0406-4.6142-0.0807-5.9494
		c-0.0406-1.3759-0.2833-2.105-1.9837-2.3477c-0.4854-0.1208-0.7687-0.2427-0.7687-0.4854c0-0.1219,0.2833-0.3239,0.7286-0.3239
		C149.6565,11.0797,151.1538,11.2016,152.6109,11.2016z"/>
	<path class="st0" d="M175.5258,12.6983c0.1213-0.202,0.162-0.6874,0.162-0.8499c0-0.1208,0-0.1614,0-0.3635
		c0-0.1219,0.2427-0.4052,0.364-0.4458c0.2432-0.0406,1.4171-0.0802,1.6598,0c0.1213,0,0.3239,0.2427,0.3239,0.3646
		c0.0807,0.4447,0.2021,0.8093,0.526,1.6998c0.6473,1.7811,4.2095,11.05,4.9381,12.7093c0.89,1.9425,0.8499,2.2665,2.8331,2.9143
		c0.4859,0.1614,0.6473,0.2427,0.6473,0.4447c0,0.2427-0.364,0.4052-0.8093,0.4052c-0.6072,0-1.5379-0.1219-3.2783-0.1219
		c-1.7811,0-2.469,0.1219-3.4403,0.1219c-0.7286,0-0.8905-0.202-0.8905-0.4052c0-0.2427,0.4046-0.4041,0.8905-0.526
		c0.8093-0.2427,1.2546-0.4447,1.2546-1.1739c0-0.4041-0.9306-2.5498-1.5379-4.3715c-0.0813-0.3239-0.3646-0.6072-0.7692-0.6468
		c-0.9306-0.0406-4.4522,0-4.8568,0c-0.3239,0-0.5666,0.4041-0.6072,0.4854c-0.364,0.8499-1.2546,3.7236-1.2546,4.2902
		c0,0.6885,0.4453,1.0926,1.9831,1.4978c0.4859,0.1208,0.688,0.3646,0.688,0.4854c0,0.2427-0.4046,0.3646-0.7687,0.3646
		c-0.7286,0-1.7811-0.1219-3.0357-0.1219c-1.0525,0-1.9024,0.1219-2.6716,0.1219c-0.7286,0-1.0926-0.1625-1.0926-0.3646
		c0-0.2427,0.2427-0.4447,0.8499-0.5666c1.3759-0.3646,1.7811-0.6072,3.0763-3.359
		C171.6402,23.3431,175.0805,13.9128,175.5258,12.6983z M176.1331,14.52c-0.0406-0.0406-0.2026,0.0406-0.2833,0.1219
		c-0.5666,1.4978-1.8217,4.9776-2.1451,5.9494c-0.0406,0.1614,0.0401,0.4052,0.202,0.4052
		c0.3646,0.0395,3.6023,0.0395,4.2502-0.0406c0.1213,0,0.2833-0.0813,0.162-0.3646
		C177.7522,18.9727,176.8616,16.4625,176.1331,14.52z"/>
	<path class="st0" d="M194.341,11.1609c1.3358,0,2.3477-0.1625,3.8449-0.1625c1.7405,0,4.2902,0.4052,5.5047,1.4978
		c0.9306,0.8093,1.4572,2.105,1.4572,3.3997c0,2.8737-2.2664,3.7642-3.5616,4.3309c-0.0813,0.0406-0.1219,0.2833,0,0.5666
		c0.526,1.1332,2.7924,4.1288,3.6418,5.1006c1.0937,1.2946,2.3883,2.5904,3.8455,2.9132c0.4854,0.0406,0.8905,0.1219,0.8905,0.4052
		c0,0.2427-0.2427,0.3239-0.4854,0.4458c-0.4052,0.202-1.4572,0.202-1.903,0.202c-1.8206,0-3.4804-0.7291-5.0995-2.631
		c-1.2546-1.4978-2.3878-3.1164-3.521-4.7756c-0.6879-0.9312-1.0931-1.7009-2.3477-1.7009c-0.2427,0-0.688,0.1219-0.688,0.2833
		c0,0.5271-0.0406,4.4934,0.0807,5.5047c0.162,0.9312,0.3239,1.7405,1.8217,2.105c0.4854,0.1219,0.8499,0.2833,0.8499,0.526
		c0,0.2031-0.2432,0.4052-1.0525,0.4052c-0.8499,0-2.3477-0.1219-3.3596-0.1219c-1.1733,0-2.3878,0.1219-3.1971,0.1219
		c-0.6073,0-1.0525-0.1219-1.0525-0.4052c0-0.2427,0.3239-0.3646,0.8905-0.4854c1.5785-0.4052,1.8212-0.8499,1.9425-1.9831
		c0.1213-0.9312,0.162-4.2902,0.162-7.4066c0-3.2383,0-4.534-0.0807-5.5453c-0.0813-0.9312-0.3646-1.4978-1.9024-1.8217
		c-0.8093-0.1614-0.8499-0.2833-0.8499-0.4447c0-0.1625,0.2833-0.3646,0.8905-0.3646L194.341,11.1609z M196.4861,12.1317
		c-0.3239,0.1219-0.3646,0.5666-0.4453,1.0531c-0.1213,1.052-0.1213,2.7518-0.1213,6.0307c0,0.2427,0.1213,0.6072,0.3239,0.6479
		c0.4046,0.0802,1.052,0.1208,1.3759,0.1208c0.3239,0,2.1451-0.202,2.6716-0.5666c0.526-0.3239,1.6186-1.2145,1.6186-3.2778
		c0-1.7405-1.052-4.1694-4.2496-4.1694C197.1334,11.9702,196.7288,12.0515,196.4861,12.1317z"/>
	<path class="st1" d="M236.1482,29.006c-1.4385,0.4041-2.608,0.4941-3.8674,0.4941c-0.9894,0-2.9681-0.045-5.082-0.045
		c-2.5179,0-3.5973,0.1351-4.7218,0.1351c-0.6292,0-0.9894-0.1351-0.9894-0.4941c0-0.2701,0.7203-0.4952,1.1244-0.5853
		c1.6636-0.4041,2.2039-0.8993,2.3389-3.6874c0.09-1.3935,0.1351-3.1932,0.1351-10.8381c0-6.2053,0.045-8.2291-0.1351-9.8476
		c-0.1801-2.0688-0.8993-2.474-2.8781-2.6091c-0.5853-0.045-1.1694-0.179-1.1694-0.4941s0.4052-0.4952,1.0794-0.4952l2.743-0.045
		c1.6186-0.045,4.2727-0.269,7.0157-0.269c2.8781,0,4.8118,0.4491,6.4304,1.3485c2.4729,1.4396,3.1482,3.8224,3.1482,5.4421
		c0,2.743-1.4846,4.6768-3.8675,5.8012c-0.1801,0.0889,0.045,0.269,0.09,0.269c3.7774,1.1695,6.2503,4.0475,6.2503,7.6899
		C243.7931,25.6777,240.1958,27.9716,236.1482,29.006z M230.9323,14.1653c-1.0794,0-1.6197,0.045-1.9788,0.1801
		c-0.1801,0.045-0.2701,0.3602-0.2701,0.6292c0,2.8331-0.045,6.9707,0.09,10.2089c0.045,0.7192,0.2701,1.4385,0.7643,1.7536
		c1.0794,0.7192,2.4729,1.4835,3.7774,1.4835c3.6874,0,6.4754-3.0571,6.4754-7.1046
		C239.7906,16.7733,235.8331,14.1653,230.9323,14.1653z M230.8873,1.0794c-0.3602,0-1.0344,0.09-1.5296,0.3141
		c-0.09,0.045-0.4941,0.4052-0.5392,1.2595c0,1.5747-0.1801,8.8594-0.09,9.8037c0,0.09,0.045,0.6292,0.9444,0.6292
		c1.3045,0,2.788-0.09,4.1376-0.5842c2.5629-0.9894,3.7774-2.8781,3.7774-5.5311C237.5878,2.788,234.3046,1.0794,230.8873,1.0794z"
		/>
	<path class="st1" d="M251.9816,11.2016c1.4572,0,2.5904-0.1625,3.4008-0.1625c0.6061,0,0.9301,0.0813,0.9301,0.3239
		c0,0.2833-0.4447,0.4458-1.052,0.5666c-1.3759,0.2833-1.4165,0.8499-1.5384,2.0238c-0.1208,0.9718-0.1614,1.8624-0.1614,5.7474
		c0,3.9257,0.0406,4.9787,0.1219,6.3546c0.1208,1.9831,0.2833,2.2258,1.8206,2.631c0.6479,0.202,0.8093,0.3646,0.8093,0.5666
		c0,0.202-0.3239,0.3239-0.8093,0.3239c-0.9312,0-2.1446-0.1219-3.6017-0.1219c-1.3364,0-2.9143,0.1625-3.4403,0.1625
		c-0.4458,0-0.8104-0.1625-0.8104-0.4052c0-0.1614,0.1219-0.2833,0.8905-0.526c1.2551-0.4458,1.8624-0.7687,1.903-1.6592
		c0.0406-0.8499,0.1208-3.5622,0.1208-7.4879c0-3.1976-0.0406-4.534-0.0406-5.586c0-1.3353-0.3228-1.6186-2.0227-2.0644
		c-0.4052-0.1208-0.8104-0.1614-0.8104-0.4447c0-0.2427,0.3646-0.3646,0.8905-0.3646
		C249.6349,11.0797,250.8077,11.2016,251.9816,11.2016z"/>
	<path class="st1" d="M279.4732,20.106c0,4.5329-2.8331,7.4066-4.6943,8.5398c-1.6197,0.9312-3.4809,1.4572-5.1808,1.4572
		c-5.9099,0-10.1595-4.3309-10.1595-9.7137c0-3.7236,1.6186-6.2734,4.0069-7.9743c1.6186-1.1728,4.0069-1.8613,5.8286-1.8613
		C276.6402,10.5537,279.4732,16.3824,279.4732,20.106z M265.51,12.6983c-1.8217,1.5384-2.4696,4.1694-2.4696,7.1244
		c0,6.4754,4.0882,9.3897,7.0838,9.3897c0.7686,0,2.0238-0.3646,3.1164-1.2946c1.6998-1.4165,2.5904-4.2507,2.5904-7.3264
		c0-3.7236-2.3883-9.1877-7.0421-9.1877C267.4119,11.4036,266.3599,11.9296,265.51,12.6983z"/>
	<path class="st1" d="M286.8227,11.2016c2.1446,0,2.955-0.1219,3.5216-0.1219c0.4854,0,0.7686,0.1219,0.7686,0.3239
		c0,0.2427-0.202,0.3646-0.8905,0.4854c-1.4572,0.2833-1.579,0.9312-1.6998,2.2269c-0.1219,1.3353-0.2021,2.9539-0.2021,6.0702
		c0,4.7767,0.1208,6.3546,0.2427,6.9212c0.1208,0.4052,0.728,0.8499,1.2145,0.9312c0.9301,0.1219,2.2664,0.2427,4.8568,0.2427
		c0.8905,0,1.9425-1.0113,3.157-3.2372c0.2021-0.4052,0.4854-0.6479,0.6073-0.6479c0.202,0,0.3635,0.3239,0.1614,1.0113
		c-0.2833,0.9312-0.6885,2.5498-0.9312,3.5622c-0.0802,0.2833-0.6072,0.6072-0.8499,0.6072c-0.3646,0-3.3184-0.1219-10.4022-0.1219
		c-0.9707,0-2.1039,0.1625-3.3997,0.1625c-0.6072,0-0.8499-0.1625-0.8499-0.3646c0-0.202,0.2427-0.4052,0.7686-0.526
		c2.0238-0.3239,2.2269-0.8499,2.3071-2.1457c0.0406-0.8905,0.1625-3.157,0.1625-6.3953c0-3.9257-0.0406-4.6142-0.0813-5.9494
		c-0.0406-1.3759-0.2833-2.105-1.9831-2.3477c-0.4854-0.1208-0.7687-0.2427-0.7687-0.4854c0-0.1219,0.2833-0.3239,0.728-0.3239
		C283.8678,11.0797,285.3656,11.2016,286.8227,11.2016z"/>
	<path class="st1" d="M322.1262,20.106c0,4.5329-2.8331,7.4066-4.6943,8.5398c-1.6197,0.9312-3.4809,1.4572-5.1808,1.4572
		c-5.9099,0-10.1595-4.3309-10.1595-9.7137c0-3.7236,1.6186-6.2734,4.0069-7.9743c1.6186-1.1728,4.0069-1.8613,5.8286-1.8613
		C319.2932,10.5537,322.1262,16.3824,322.1262,20.106z M308.1629,12.6983c-1.8217,1.5384-2.4696,4.1694-2.4696,7.1244
		c0,6.4754,4.0882,9.3897,7.0837,9.3897c0.7687,0,2.0238-0.3646,3.1164-1.2946c1.6999-1.4165,2.5904-4.2507,2.5904-7.3264
		c0-3.7236-2.3883-9.1877-7.042-9.1877C310.0648,11.4036,309.0128,11.9296,308.1629,12.6983z"/>
	<path class="st1" d="M341.6337,10.9589c0.7291,0.1614,1.6998,0.202,2.3071,0.0395c0.2021-0.0395,0.3239,0.3239,0.3239,0.4052
		c-0.2021,1.3759,0.1219,3.2789,0.1219,4.0882c0,0.4854-0.1219,0.8905-0.4458,0.8905c-0.1208,0-0.2833-0.1625-0.4854-0.8905
		c-0.2833-1.1739-0.9718-2.3477-2.0238-2.9956c-1.0926-0.6479-2.9143-1.0926-4.6142-1.0926c-1.6592,0-3.359,0.7687-4.6142,2.1457
		c-1.2957,1.4967-2.0644,3.5205-2.0644,6.2327c0,5.6661,3.2383,9.4304,8.0138,9.4304c0.4052,0,1.3364-0.0813,2.0644-0.4854
		c0.3646-0.2031,0.7686-1.2145,0.8093-1.903c0.0406-0.4854,0.1219-2.0633-0.0406-2.7518c-0.2021-0.9718-0.526-1.4165-2.0633-1.6592
		c-0.7698-0.1219-1.0531-0.2833-1.0531-0.4865c0-0.2833,0.3239-0.4041,0.9312-0.4041c0.5666,0,2.5497,0.1614,3.7642,0.1614
		c0.8093,0,1.6999-0.1614,2.6717-0.1614c0.6468,0,0.8093,0.1208,0.8093,0.4041c0,0.1625-0.2021,0.2833-0.7687,0.4458
		c-1.1343,0.2833-1.2957,1.052-1.2957,2.3883c0,2.7518,0.1219,3.0757,0.6072,3.2778c0.3239,0.1219,0.3646,0.2833,0.3646,0.3646
		c0,0.1208-0.1625,0.3239-0.3646,0.4041c-0.8499,0.2844-1.5384,0.4458-2.3071,0.6479c-1.3353,0.3646-2.955,0.6479-5.0995,0.6479
		c-2.631,0-5.788-1.0926-7.5691-2.6716c-1.5791-1.3759-3.0351-3.8444-3.0351-7.0827c0-2.7529,1.254-6.2734,4.9776-8.3784
		c1.5384-0.8093,3.8049-1.4165,5.8693-1.4165C338.7194,10.5537,340.7432,10.7558,341.6337,10.9589z"/>
	<path class="st1" d="M352.6991,11.2016c1.3353,0,2.3872-0.1219,3.3184-0.1219c0.4052,0,0.6885,0.0813,0.6885,0.3239
		c0,0.1219-0.2032,0.4052-0.7698,0.526c-1.2946,0.2833-1.254,0.7687-0.8894,1.5384c1.0926,2.1852,2.5904,4.5735,3.6423,6.3953
		c0.0813,0.1208,0.2427,0.0802,0.3239-0.0406c0.728-1.0124,3.0757-5.1808,3.5611-6.1932c0.4052-0.9312,0.0813-1.3353-1.2134-1.7405
		c-0.5271-0.1614-0.6885-0.3239-0.6885-0.3635c0-0.1625,0.1219-0.4458,0.728-0.4458c0.6885,0,1.8624,0.1219,2.9956,0.1219
		c1.4572,0,1.8624-0.1219,2.7123-0.1219c0.4854,0,0.6874,0.1219,0.6874,0.3239c0,0.2833-0.4041,0.4052-0.728,0.4854
		c-1.579,0.4052-2.0644,0.4458-3.6435,2.7123c-0.8093,1.2145-3.1164,4.9787-3.9257,6.3953
		c-0.0406,0.1208-0.1614,0.526-0.2021,1.1739c-0.0406,0.4854,0,3.2778,0.0802,4.209c0.0406,1.052,0.3239,1.9425,1.9843,2.3071
		c0.5666,0.1208,0.8905,0.2833,0.8905,0.526s-0.0812,0.3646-0.9312,0.3646c-1.4978,0-2.3477-0.1219-3.8048-0.1219
		c-1.1332,0-2.2258,0.1219-3.2789,0.1219c-0.4854,0-0.8905-0.1219-0.8905-0.4052c0-0.1614,0.2438-0.3239,0.7291-0.4447
		c1.6998-0.4052,1.9425-0.8499,2.105-1.579c0.1614-1.052,0.1208-3.0351,0.0802-4.1683c0-0.6479-0.0802-1.3364-0.2833-1.7811
		c-0.8093-1.7811-2.8331-5.4234-3.683-6.5973c-1.1739-1.6998-1.4978-2.2665-3.3184-2.7529
		c-0.4865-0.1208-0.6885-0.3228-0.6885-0.4447c0-0.2427,0.3239-0.3239,0.6885-0.3239
		C349.7848,11.0797,351.5253,11.2016,352.6991,11.2016z"/>
	<path class="st1" d="M381.3357,17.3509c0.0879-0.146,0.1164-0.4963,0.1164-0.6138c0-0.0878,0-0.1164,0-0.2624
		c0-0.0878,0.1757-0.2932,0.2635-0.3217c0.1757-0.0296,1.0234-0.0582,1.1991,0c0.0878,0,0.2339,0.1757,0.2339,0.2624
		c0.0582,0.3217,0.1461,0.5853,0.3799,1.2288c0.4678,1.2859,3.0406,7.9809,3.5666,9.18c0.6435,1.4034,0.6138,1.6372,2.0468,2.105
		c0.3503,0.1164,0.4678,0.1757,0.4678,0.3217c0,0.1757-0.2635,0.2921-0.5853,0.2921c-0.4381,0-1.1102-0.0878-2.3675-0.0878
		c-1.287,0-1.7833,0.0878-2.485,0.0878c-0.5271,0-0.6435-0.146-0.6435-0.2921c0-0.1757,0.2921-0.2921,0.6435-0.3799
		c0.5842-0.1757,0.9059-0.3217,0.9059-0.8477c0-0.2932-0.672-1.8426-1.1112-3.1581c-0.0582-0.2339-0.2625-0.4381-0.5556-0.4678
		c-0.672-0.0296-3.2152,0-3.5084,0c-0.2339,0-0.4085,0.2921-0.4381,0.3514c-0.2635,0.6138-0.9059,2.6892-0.9059,3.0988
		c0,0.4963,0.3206,0.7895,1.4319,1.0816c0.3514,0.0878,0.4974,0.2635,0.4974,0.3503c0,0.1757-0.2921,0.2635-0.5556,0.2635
		c-0.526,0-1.287-0.0878-2.1929-0.0878c-0.7599,0-1.3737,0.0878-1.9293,0.0878c-0.526,0-0.7896-0.1164-0.7896-0.2635
		c0-0.1746,0.1757-0.3206,0.6138-0.4085c0.9938-0.2635,1.287-0.4392,2.2225-2.4268
		C378.529,25.0408,381.014,18.2282,381.3357,17.3509z M381.7739,18.6675c-0.0285-0.0296-0.146,0.0286-0.2042,0.0868
		c-0.4096,1.0827-1.3155,3.5962-1.5494,4.2979c-0.0297,0.1175,0.0285,0.2932,0.1461,0.2932
		c0.2635,0.0285,2.6024,0.0285,3.0702-0.0296c0.0868,0,0.2043-0.0582,0.1164-0.2635
		C382.9433,21.8827,382.301,20.0708,381.7739,18.6675z"/>
	<path class="st1" d="M395.2639,16.2692c0.0879,0,0.4381,0.1757,0.5842,0.3514c0.146,0.2339,1.5494,1.8415,2.5728,2.9824
		c1.959,2.1918,3.5677,4.0047,5.6134,6.1394c0.235,0.2042,0.2054-0.0878,0.2054-0.3514c0-3.5666-0.0582-6.3151-0.1461-6.8993
		c-0.1175-0.8192-0.3799-1.3155-1.8711-1.6954c-0.4974-0.1175-0.6731-0.2339-0.6731-0.381c0-0.0867,0.1757-0.2339,0.5853-0.2339
		c0.5842,0,1.6076,0.0878,2.3675,0.0878c0.9948,0,1.7251-0.1164,2.0765-0.1164c0.4381,0,0.5842,0.1164,0.5842,0.2339
		c0,0.1757-0.1164,0.2921-0.6138,0.4096c-1.1113,0.2921-1.2859,0.7302-1.3737,1.9875c-0.1461,1.7547-0.0582,5.4674-0.0582,6.6665
		c0,1.9579,0.0582,3.5084,0.0582,3.7423c0,0.2921-0.3799,0.7017-0.5556,0.7017c-0.1175,0-0.5556-0.3514-0.9356-0.8192
		c-0.6435-0.7895-1.4615-1.7536-2.4268-2.9231c-0.8477-0.9652-4.064-4.6493-5.9055-6.6665
		c-0.1461-0.146-0.2054,0.1175-0.2054,0.2339c-0.0582,1.6076-0.0582,5.497,0.0593,6.7829c0.1746,1.9293,0.6138,1.9886,1.6076,2.3686
		c0.4974,0.2042,0.5842,0.2042,0.5842,0.3503c0,0.1757-0.1461,0.3217-0.5545,0.3217c-0.5853,0-1.6669-0.0878-2.5146-0.0878
		c-0.9652,0-1.4912,0.0878-1.9294,0.0878c-0.381,0-0.6731-0.0582-0.6731-0.2921c0-0.2053,0.2054-0.2921,0.6435-0.4096
		c0.9652-0.2339,1.579-0.4096,1.6669-1.7251c0.0582-1.2573,0.2043-3.9762,0.2339-6.7247c0-1.1102-0.0593-1.4901-0.0879-1.8415
		c-0.0879-1.1398-0.7313-1.4912-2.1643-1.7536c-0.2339-0.0878-0.4678-0.2339-0.4678-0.3514c0-0.1164,0.1757-0.2921,0.6731-0.2921
		C392.8667,16.1528,394.8246,16.2692,395.2639,16.2692z"/>
	<path class="st1" d="M410.6667,16.1814c0.4974,0,0.6149,0,1.3155,0c1.1991,0,2.8067-0.146,3.918-0.1746
		c2.8946-0.0593,4.6493,0.7302,5.7595,1.5198c1.3166,0.9652,2.3982,2.9824,2.3982,4.9699c0,3.0702-1.6669,5.1753-3.6259,6.2283
		c-1.6658,0.8763-3.1866,0.9356-4.0344,0.9356c-1.5208,0-3.2163-0.1471-4.7953-0.1471c-0.1746,0-0.9059,0-1.5197,0
		c-0.4392,0-0.5853-0.0582-0.5853-0.2339c0-0.1746,0.1461-0.2624,0.6435-0.3206c1.2277-0.1757,1.433-0.7895,1.4912-1.7547
		c0.0582-0.8774,0.0879-1.8711,0.0879-4.0926c0-1.6087,0-4.0355-0.0582-4.9414c-0.0593-0.9356-0.1472-1.2277-1.287-1.4034
		c-0.4096-0.0878-0.4963-0.2042-0.4963-0.3514C409.8783,16.2692,410.0826,16.1814,410.6667,16.1814z M414.3508,16.8831
		c-0.2339,0.1175-0.3503,0.2932-0.3799,0.5853c-0.0582,0.4381-0.0878,3.918-0.0878,5.7595c0,1.7833,0,3.0702,0.146,3.918
		c0.0593,0.4381,0.2635,0.9356,0.5853,1.198c0.5842,0.4974,1.5197,0.761,2.0457,0.761c0.4678,0,1.2288-0.0593,2.2807-0.6435
		c1.433-0.8477,2.6903-3.2163,2.6903-5.6134c0-1.6954-0.6435-3.2448-1.6372-4.3561c-0.9949-1.1113-2.3686-1.8711-4.0937-1.8711
		C415.4917,16.6206,414.9064,16.6788,414.3508,16.8831z"/>
	<path class="st0" d="M437.0735,0.4052c0.8543,0,3.1921,0.134,4.9019,0.134c0.5392,0,4.9008,0,5.396,0
		c5.396,0,6.6555-0.3591,8.005-0.5392c0.179,0,0.5392,0.4491,0.5392,0.6742c0,0.3152,0.4502,3.3733,0.4502,4.5428
		c0,0.4041-0.3602,0.7643-0.5403,0.7643c-0.0901,0-0.4041-0.2251-0.8093-1.6197c-0.4502-1.6186-1.3045-2.2028-3.2383-2.3828
		c-1.0344-0.09-3.1471-0.1351-7.4198-0.1351c-0.2701,0-0.4491,0.3602-0.5392,0.8543c-0.1351,0.6742-0.1801,7.1507-0.1801,10.1189
		c0,0.4491,0.1801,0.7643,0.3591,0.7643h2.519c4.2265,0,5.0819-0.3602,5.6211-2.653c0.09-0.4502,0.3602-0.9444,0.5842-0.9444
		c0.4052,0,0.4952,0.4041,0.4502,1.0783c-0.045,0.9894-0.0901,2.2039-0.0901,3.3283c0,1.2595,0.0901,2.9231,0.1801,3.8675
		c0,0.6292-0.2251,0.8993-0.4052,0.8993c-0.2701,0-0.4941-0.2701-0.7192-1.1244c-0.3152-1.4385-0.7192-2.4729-2.4729-2.653
		c-0.9894-0.09-3.8224-0.2251-5.262-0.2251c-0.6292,0-0.7643,0.4952-0.7643,0.6742v8.3652c0,1.7086,0.1351,2.2028,0.5392,2.608
		c1.0794,1.0344,0.9894,1.1695,4.5867,1.1695c6.0713,0,6.7906-0.045,8.0501-1.8437c0.3151-0.4052,0.7643-0.9444,1.3045-2.1138
		c0.4041-0.7643,0.6292-0.9894,0.8543-0.9894c0.2701,0,0.3591,0.6292,0.3591,0.8543c0,0.4502-1.2134,4.5417-1.3484,4.9469
		c-0.1801,0.5392-0.5853,0.9444-1.0794,0.8993c-1.7536-0.1351-7.5098-0.2701-15.83-0.2701c-2.2478,0-4.0915,0.3602-5.3059,0.3602
		c-0.5392,0-0.9444-0.1351-0.9444-0.4502c0-0.224,0.2701-0.4041,1.1245-0.5842c2.4729-0.4952,3.4172-1.0344,3.7774-3.8675
		c0.2251-1.8437,0.2251-4.4516,0.2251-10.8381c0-6.3404,0-7.9589-0.0901-9.5336c-0.1351-2.608-1.2145-2.788-3.0582-3.1921
		c-0.7643-0.1801-0.9894-0.3602-0.9894-0.5853C435.814,0.4941,436.1742,0.4052,437.0735,0.4052z"/>
	<path class="st0" d="M464.4818,11.2016c1.2145,0,1.6998-0.0813,2.9143-0.0813c0.6874,0,0.8906,0.202,0.8906,0.3239
		c0,0.2833-0.3646,0.526-0.8906,0.6072c-1.4978,0.2833-1.6998,0.6072-1.1332,2.1039c0.4854,1.377,4.0069,9.5116,4.4922,10.5241
		c0.1219,0.202,0.3239,0,0.3646-0.0813c0.3646-0.728,3.8049-8.4992,4.2902-9.8762c0.5666-1.7405,0.6479-2.3466-1.4165-2.7924
		c-0.3646-0.0813-0.7686-0.2833-0.7686-0.526c0-0.1614,0.2427-0.3239,0.8895-0.3239c0.9312,0,1.7009,0.1219,2.7122,0.1219
		c0.9718,0,1.9832-0.1625,2.9143-0.1625c0.7686,0,0.8093,0.1625,0.8093,0.3646c0,0.2427-0.2833,0.4052-0.9718,0.6072
		c-1.3759,0.4447-1.9019,1.0113-2.833,2.9945c-0.7687,1.4978-2.1039,4.2913-3.9663,8.6211
		c-0.9312,2.0644-2.0238,4.8173-2.2258,5.4245c-0.2427,0.6874-0.6479,1.0113-0.8093,1.0113c-0.3646,0-0.4458-0.3239-0.5666-0.6874
		c-0.1625-0.4458-0.9312-2.6716-1.6603-4.534c-1.4572-3.8049-3.6423-8.3378-4.4516-10.0782
		c-0.9312-2.1039-1.3759-2.5091-2.7529-2.9143c-0.6062-0.1208-0.7687-0.3228-0.7687-0.4447c0-0.2427,0.2833-0.4052,0.9312-0.4052
		C461.8507,10.9984,463.3891,11.2016,464.4818,11.2016z"/>
	<path class="st0" d="M501.7892,20.106c0,4.5329-2.8342,7.4066-4.6954,8.5398c-1.6186,0.9312-3.4809,1.4572-5.1808,1.4572
		c-5.9099,0-10.1595-4.3309-10.1595-9.7137c0-3.7236,1.6197-6.2734,4.0069-7.9743c1.6197-1.1728,4.0069-1.8613,5.8286-1.8613
		C498.955,10.5537,501.7892,16.3824,501.7892,20.106z M487.8249,12.6983c-1.8217,1.5384-2.4685,4.1694-2.4685,7.1244
		c0,6.4754,4.0882,9.3897,7.0827,9.3897c0.7686,0,2.0238-0.3646,3.1164-1.2946c1.6998-1.4165,2.5904-4.2507,2.5904-7.3264
		c0-3.7236-2.3872-9.1877-7.0421-9.1877C489.7278,11.4036,488.6748,11.9296,487.8249,12.6983z"/>
	<path class="st0" d="M509.1387,11.2016c2.1457,0,2.955-0.1219,3.5216-0.1219c0.4854,0,0.7687,0.1219,0.7687,0.3239
		c0,0.2427-0.2021,0.3646-0.8906,0.4854c-1.4572,0.2833-1.5779,0.9312-1.6998,2.2269c-0.1208,1.3353-0.2021,2.9539-0.2021,6.0702
		c0,4.7767,0.1208,6.3546,0.2427,6.9212c0.1219,0.4052,0.728,0.8499,1.2145,0.9312c0.9312,0.1219,2.2664,0.2427,4.8568,0.2427
		c0.8906,0,1.9425-1.0113,3.157-3.2372c0.2021-0.4052,0.4854-0.6479,0.6072-0.6479c0.2021,0,0.3646,0.3239,0.1614,1.0113
		c-0.2833,0.9312-0.6874,2.5498-0.9312,3.5622c-0.0802,0.2833-0.6061,0.6072-0.8499,0.6072c-0.3635,0-3.3184-0.1219-10.4011-0.1219
		c-0.9718,0-2.105,0.1625-3.4008,0.1625c-0.6072,0-0.8499-0.1625-0.8499-0.3646c0-0.202,0.2427-0.4052,0.7697-0.526
		c2.0238-0.3239,2.2258-0.8499,2.3071-2.1457c0.0395-0.8905,0.1614-3.157,0.1614-6.3953c0-3.9257-0.0406-4.6142-0.0813-5.9494
		c-0.0406-1.3759-0.2833-2.105-1.9831-2.3477c-0.4854-0.1208-0.7687-0.2427-0.7687-0.4854c0-0.1219,0.2833-0.3239,0.728-0.3239
		C506.1838,11.0797,507.6815,11.2016,509.1387,11.2016z"/>
	<path class="st0" d="M527.1506,11.2016c1.2957,0,2.8737-0.1219,3.4809-0.1219c0.526,0,0.8093,0.202,0.8093,0.3646
		c0,0.202-0.3229,0.4447-0.7687,0.526c-1.2145,0.3239-2.105,0.6072-2.105,2.1457c-0.0395,2.6299-0.1208,5.6661,0,8.5398
		c0.1219,2.5498,1.0937,3.7642,1.7811,4.3715c0.9312,0.7687,2.3477,1.2946,3.6434,1.2946c3.3997,0,5.7869-0.8093,5.7869-8.5804
		c0.0406-1.6186,0-5.0194,0-5.3027c-0.1614-1.6592-0.6874-2.1852-2.2258-2.5091c-0.9312-0.202-1.0114-0.3239-1.0114-0.526
		c0-0.1614,0.1614-0.3239,0.728-0.3239c1.2145,0,1.7405,0.1219,2.9956,0.1219c1.2946,0,1.8206-0.1219,2.7518-0.1219
		c0.6479,0,0.7687,0.202,0.7687,0.3239c0,0.1614-0.2427,0.3646-0.728,0.4854c-1.5384,0.4052-1.6592,0.9718-1.7811,2.5102
		c-0.0802,1.1728-0.2427,3.6424-0.324,6.1109c-0.1208,3.6841-0.8905,6.1932-2.5497,7.8118
		c-1.3353,1.2145-3.2778,1.7811-5.4235,1.7811c-2.1445,0-4.1683-0.6885-5.1401-1.6186c-1.2145-1.0937-2.2664-2.0644-2.3477-7.4077
		c-0.0812-3.6017-0.0812-7.3253-0.2427-7.9732c-0.1219-0.4447-0.3646-0.8093-1.579-1.1739
		c-0.6072-0.1614-0.8093-0.3646-0.8093-0.526c0-0.2833,0.4865-0.3239,0.8499-0.3239
		C524.3582,11.0797,525.8966,11.2016,527.1506,11.2016z"/>
	<path class="st0" d="M565.2564,10.5537c0.1625-0.1625,0.4865,0.1208,0.4865,0.4052c-0.0812,0.526-0.3239,2.1446-0.3239,3.8038
		c0,0.4458-0.324,0.7291-0.526,0.7291c-0.2427,0-0.3646-0.2833-0.526-0.8499c-0.4458-1.579-0.6478-1.9831-2.105-2.105
		c-1.0927-0.0813-3.3997-0.1219-4.2902-0.1219c-0.0813,0-0.2833,0.2438-0.2833,0.6479v11.05c0,1.254,0,2.1852,0.0406,2.7518
		c0.1208,1.1332,0.3635,1.4978,2.1445,1.8217c0.6072,0.1208,0.8093,0.3239,0.8093,0.5666c0,0.2427-0.4447,0.3646-1.0926,0.3646
		c-0.9312,0-2.955-0.1625-3.8049-0.1625c-1.1738,0-2.2664,0.1625-3.683,0.1625c-0.5259,0-0.9312-0.0813-0.9312-0.3646
		c0-0.2833,0.4052-0.4854,0.8499-0.5666c2.2676-0.3646,2.3071-1.2551,2.429-3.6424c0.1219-2.0238,0.2427-7.7712,0.2427-12.1426
		c0-0.2031-0.0812-0.4865-0.3239-0.4865c0,0-1.9019,0-2.631,0c-1.3759,0-2.1852,0.0813-2.5091,0.2438
		c-0.6479,0.3228-1.0114,1.3759-1.2947,1.9425c-0.3239,0.6479-0.4052,0.8093-0.6885,0.8093c-0.1614,0-0.4447-0.202-0.2833-1.2145
		c0.1219-1.0113,0.4448-3.0351,0.4448-3.5611c0-0.3646,0.4865-0.4865,0.6072-0.3239c0.5666,0.7687,1.2145,0.8905,4.0069,0.8905
		h9.5116C563.6378,11.2016,564.8929,10.8776,565.2564,10.5537z"/>
	<path class="st0" d="M573.5689,11.2016c1.4572,0,2.5904-0.1625,3.3997-0.1625c0.6072,0,0.9312,0.0813,0.9312,0.3239
		c0,0.2833-0.4447,0.4458-1.0519,0.5666c-1.3759,0.2833-1.4166,0.8499-1.5385,2.0238c-0.1208,0.9718-0.1614,1.8624-0.1614,5.7474
		c0,3.9257,0.0406,4.9787,0.1208,6.3546c0.1219,1.9831,0.2833,2.2258,1.8218,2.631c0.6478,0.202,0.8093,0.3646,0.8093,0.5666
		c0,0.202-0.3239,0.3239-0.8093,0.3239c-0.9312,0-2.1457-0.1219-3.6028-0.1219c-1.3353,0-2.9132,0.1625-3.4403,0.1625
		c-0.4447,0-0.8093-0.1625-0.8093-0.4052c0-0.1614,0.1219-0.2833,0.8905-0.526c1.2551-0.4458,1.8624-0.7687,1.9019-1.6592
		c0.0406-0.8499,0.1219-3.5622,0.1219-7.4879c0-3.1976-0.0406-4.534-0.0406-5.586c0-1.3353-0.3239-1.6186-2.0237-2.0644
		c-0.4041-0.1208-0.8093-0.1614-0.8093-0.4447c0-0.2427,0.3646-0.3646,0.8906-0.3646
		C571.2212,11.0797,572.3951,11.2016,573.5689,11.2016z"/>
	<path class="st0" d="M601.0606,20.106c0,4.5329-2.8342,7.4066-4.6954,8.5398c-1.6185,0.9312-3.4809,1.4572-5.1807,1.4572
		c-5.9099,0-10.1595-4.3309-10.1595-9.7137c0-3.7236,1.6196-6.2734,4.0069-7.9743c1.6197-1.1728,4.0069-1.8613,5.8286-1.8613
		C598.2264,10.5537,601.0606,16.3824,601.0606,20.106z M587.0963,12.6983c-1.8217,1.5384-2.4685,4.1694-2.4685,7.1244
		c0,6.4754,4.0882,9.3897,7.0826,9.3897c0.7687,0,2.0238-0.3646,3.1164-1.2946c1.6998-1.4165,2.5904-4.2507,2.5904-7.3264
		c0-3.7236-2.3873-9.1877-7.0421-9.1877C588.9993,11.4036,587.9462,11.9296,587.0963,12.6983z"/>
	<path class="st0" d="M608.5265,11.2016c0.1208,0,0.6072,0.2427,0.8093,0.4854c0.202,0.3239,2.1456,2.5498,3.5622,4.1288
		c2.7112,3.0351,4.938,5.5442,7.7711,8.4992c0.324,0.2833,0.2833-0.1208,0.2833-0.4854c0-4.9381-0.0812-8.743-0.2031-9.5523
		c-0.1614-1.1332-0.526-1.8217-2.5904-2.3477c-0.6874-0.1614-0.9301-0.3239-0.9301-0.526c0-0.1219,0.2427-0.3239,0.8093-0.3239
		c0.8093,0,2.2258,0.1219,3.2778,0.1219c1.377,0,2.3884-0.1625,2.8737-0.1625c0.6072,0,0.8104,0.1625,0.8104,0.3239
		c0,0.2427-0.1625,0.4052-0.8499,0.5666c-1.5385,0.4052-1.7811,1.0124-1.903,2.7529c-0.202,2.4279-0.0812,7.568-0.0812,9.2283
		c0,2.7112,0.0812,4.8568,0.0812,5.1808c0,0.4041-0.5259,0.9707-0.7686,0.9707c-0.1625,0-0.7687-0.4854-1.2958-1.1332
		c-0.8905-1.0926-2.0237-2.4279-3.359-4.0475c-1.1739-1.3353-5.6255-6.4359-8.1764-9.2283c-0.202-0.202-0.2833,0.1625-0.2833,0.3239
		c-0.0802,2.2258-0.0802,7.6097,0.0812,9.3897c0.2427,2.6716,0.8499,2.7529,2.2258,3.2789
		c0.6885,0.2833,0.8104,0.2833,0.8104,0.4854c0,0.2438-0.2031,0.4458-0.7697,0.4458c-0.8093,0-2.3071-0.1219-3.481-0.1219
		c-1.3353,0-2.0633,0.1219-2.6705,0.1219c-0.5271,0-0.9312-0.0813-0.9312-0.4052c0-0.2833,0.2833-0.4041,0.8906-0.5666
		c1.3353-0.3239,2.1852-0.5666,2.3071-2.3883c0.0813-1.7394,0.2833-5.5036,0.324-9.3085c0-1.5384-0.0813-2.0644-0.1219-2.5498
		c-0.1208-1.579-1.0114-2.0644-2.9956-2.429c-0.3228-0.1208-0.6468-0.3239-0.6468-0.4854c0-0.1625,0.2427-0.4052,0.9301-0.4052
		C605.207,11.0391,607.9193,11.2016,608.5265,11.2016z"/>
</g>
</svg>
