<?xml version="1.0" encoding="utf-8"?>
<!-- Generator: Adobe Illustrator 19.2.1, SVG Export Plug-In . SVG Version: 6.00 Build 0)  -->
<svg version="1.1" id="Layer_1" xmlns="http://www.w3.org/2000/svg" xmlns:xlink="http://www.w3.org/1999/xlink" x="0px" y="0px"
	 viewBox="0 0 300 258" style="enable-background:new 0 0 300 258;" xml:space="preserve">
<style type="text/css">
	.st0{fill:#FFFFFF;}
</style>
<g>
	<polyline class="st0" points="41.8,248.6 44.2,246 51.2,252.4 56.2,246.8 50.6,241.8 53,239.4 58.4,244.4 64,238.4 56.8,231.8 
		59.2,229.2 69.2,238.4 51.8,257.6 41.8,248.6 	"/>
</g>
<g>
	<path class="st0" d="M51.8,258l-10.4-9.4l2.8-3l7,6.4l4.6-5l-5.6-5l2.8-3l5.6,5l5-5.4l-7.2-6.4l2.8-3.2l10.6,9.6L51.8,258z
		 M42.4,248.6l9.4,8.4l16.8-18.6l-9.4-8.6l-1.8,2l7.2,6.4l-6,6.6l-5.6-5l-1.8,2l5.6,5l-5.4,6l-7-6.4L42.4,248.6z"/>
</g>
<g>
	<polyline class="st0" points="34.6,240.4 44.2,222.6 29.6,234.4 27.6,232 47.8,215.6 50,218.4 39.4,238.2 55.4,225 57.6,227.6 
		37.4,244 34.6,240.4 	"/>
</g>
<g>
	<path class="st0" d="M37.4,244.4l-3.2-4l0.2-0.2l8.8-16.2l-13.4,10.8l-2.4-3l0.2-0.2L48,215l2.6,3.2l-9.8,18.4l15-12.2l2.4,3
		L37.4,244.4z M35,240.4l2.4,3L57,227.6l-1.6-2l-15.8,12.8L39,238l10.6-19.6l-2-2.4L28,231.8l1.6,2L44,222.4l0.6,0.4L35,240.4z"/>
</g>
<g>
	<polyline class="st0" points="17.4,215.6 20.6,213.6 23.2,218.2 42.4,206.6 44.2,210 25.2,221.4 27.8,225.8 24.8,227.8 17.4,215.6 
			"/>
</g>
<g>
	<path class="st0" d="M24.6,228.2l-7.8-12.8l3.8-2.2l2.6,4.4l19-11.4l2.4,4l-19,11.4l2.6,4.4L24.6,228.2z M18,215.6l7,11.6l2.6-1.6
		l-2.6-4.4l19-11.4l-1.6-2.6l-19,11.4l-2.6-4.4L18,215.6z"/>
</g>
<g>
	<path class="st0" d="M18.6,204.8c2.4,0,5.6-1.4,7-2c1.4-0.6,4.6-2,6.2-3.6c1.2-1.2,1.8-2.4,1-4.2s-2.4-2-3.8-2c-2.4,0-5.8,1.4-7,2
		c-1.6,0.8-4.6,2-6.4,3.8c-1,1-2,2.2-1.2,4.2C15.6,204.6,17.2,204.8,18.6,204.8 M20.8,191.2c4.8-2,12.8-4.2,15.6,2.4
		c2.8,6.4-3.4,10.6-9,13c-5.4,2.4-13,4-15.6-2.4C8.8,197.6,15.2,193.6,20.8,191.2z"/>
</g>
<g>
	<path class="st0" d="M18.8,209c-3.2,0-6-1.2-7.6-4.8c-0.8-2-1-4-0.2-5.8c1.2-3,4.4-5.4,9.4-7.6c8.2-3.6,13.8-2.6,16,2.6
		c2.2,5.2-1,10-9.2,13.4C24.8,208,21.6,209,18.8,209z M29.2,189.4c-2.6,0-5.6,1-8.2,2l0,0c-4.8,2-8,4.6-9,7.2
		c-0.6,1.6-0.6,3.4,0.2,5.2c2.6,6.2,9.6,4.6,15.2,2.4c5.4-2.4,11.4-6.4,8.8-12.6C34.6,190.6,32,189.4,29.2,189.4z"/>
</g>
<g>
	<path class="st0" d="M18.4,205.2c-1.4,0-3-0.4-4-2.4c-0.8-2,0.2-3.4,1.2-4.6c1.2-1.2,3.4-2.6,6.4-3.8c1.6-0.8,4.8-1.8,7.2-2h0.2
		c1.4,0,3,0.2,3.8,2.2c0.8,2.2,0,3.6-1.2,4.6c-1.8,1.8-5,3.2-6.4,3.8C22.8,204.4,20.4,205.2,18.4,205.2L18.4,205.2
		C18.6,205.2,18.6,205.2,18.4,205.2z M29.6,193.4h-0.2c-2.2,0-5.2,1.2-6.8,2c-2.8,1.2-5,2.4-6.2,3.6c-1,1-1.8,2-1,3.8
		c0.6,1.6,2,1.8,3.2,1.8h0.2c1.6,0,4-0.6,7-2c1.2-0.6,4.4-2,6.2-3.6c1.4-1.4,1.6-2.4,1-3.8C32,193.6,30.8,193.4,29.6,193.4z"/>
</g>
<g>
	<polyline class="st0" points="4.8,182.8 22.2,174.2 3,173.6 1.8,168.2 27.2,162.8 27.8,166.2 6.2,170.8 29,171.6 29.6,174.4 
		9,184.4 30.8,179.8 31.4,182.8 6,188.2 4.8,182.8 	"/>
</g>
<g>
	<path class="st0" d="M5.8,188.8l-1.4-6.2l0.2-0.2l16-7.8l-18.2-0.8l-1.2-6l26-5.6l1,4.2l-19,4l20.2,0.6l0.6,3.2l-0.2,0.2l-17.8,9
		l19-4l0.8,3.8L5.8,188.8z M5.2,183l1,5l24.6-5.2l-0.6-2.4L9,185l-0.2-0.6l20.2-9.8l-0.4-2.2l-22.4-0.8v-0.8l21.2-4.6l-0.6-2.8
		l-24.6,5l1,4.8l19,0.8l0.2,0.6L5.2,183z"/>
</g>
<g>
	<path class="st0" d="M6.6,154.4c2.2,0.8,5.6,0.8,7.2,0.8c1.6,0,5-0.2,7.2-1c1.6-0.6,2.6-1.6,2.6-3.4c0-2-1.4-2.8-2.6-3.2
		c-2.4-0.8-5.8-0.8-7.2-0.8c-1.8,0-5,0.2-7.2,1c-1.2,0.6-2.6,1.4-2.6,3.4C4,153,5.2,154,6.6,154.4 M13.6,142.6
		c5.4,0,13.4,0.8,13.6,8c0.2,7-7.2,8.6-13.2,8.6C8,159.4,0.6,158,0.4,151C0.2,144.2,7.6,142.6,13.6,142.6z"/>
</g>
<g>
	<path class="st0" d="M13.2,159.8c-3.4,0-6.2-0.4-8.4-1.4c-3.2-1.6-4.8-4-4.8-7.2c0-5.8,4.6-8.8,13.6-9l0,0c0.2,0,0.4,0,0.6,0
		c8.6,0,13.2,3,13.2,8.4c0,3.2-1.4,5.8-4.6,7.2c-2.2,1.2-5.4,1.8-9,1.8C13.8,159.8,13.4,159.8,13.2,159.8z M13.6,143
		c-6,0.2-13,1.6-13,8.2c0,3,1.6,5.2,4.4,6.4c2.2,1,5.2,1.4,8.8,1.4s6.6-0.6,8.8-1.8c2.8-1.4,4.2-3.6,4.2-6.6
		c-0.2-6.4-6.8-7.8-12.6-7.8C14,143,13.8,143,13.6,143L13.6,143z"/>
</g>
<g>
	<path class="st0" d="M13.2,155.6c-3,0-5.2-0.2-6.6-0.8l0,0c-1.4-0.6-2.8-1.4-3-3.6c0-2.2,1.4-3.2,2.8-3.8c2-0.8,5.2-1,7.4-1.2
		c1.8,0,5.2,0,7.4,0.8c1.2,0.4,2.8,1.4,3,3.6c0,2.4-1.4,3.2-2.8,3.8c-2.2,0.8-5.6,1-7.4,1.2C13.6,155.6,13.4,155.6,13.2,155.6z
		 M6.8,154.2c1,0.4,3.2,1,7.2,0.8c1.8,0,5-0.2,7-1c1.8-0.8,2.4-1.6,2.4-3.2c0-1.8-1.2-2.4-2.4-3c-2.2-0.8-5.4-0.8-7.2-0.8
		c-2.2,0-5.2,0.2-7.2,1c-1.2,0.6-2.4,1.2-2.4,3C4.2,153,5.4,153.6,6.8,154.2L6.8,154.2z"/>
</g>
<g>
	<polyline class="st0" points="1.8,131.8 24,134.6 25,126.4 28.6,126.8 27,138.8 1.4,135.6 1.8,131.8 	"/>
</g>
<g>
	<path class="st0" d="M27.4,139.2H27l-26-3.4l0.6-4.6H2l21.8,2.8l1-8.2l4.2,0.6v0.4L27.4,139.2z M1.8,135.2l25,3.2l1.4-11.4
		l-2.8-0.4l-1,8.2H24L2.2,132L1.8,135.2z"/>
</g>
<g>
	<path class="st0" d="M10.6,115.2c2,1.4,5.2,2.4,6.8,2.8c1.4,0.4,4.8,1.2,7.2,1c1.8-0.2,3-0.8,3.4-2.6c0.6-1.8-0.6-3-1.6-4
		c-2-1.4-5.4-2.4-6.8-2.8c-1.8-0.4-5-1.2-7.2-1c-1.4,0.2-2.8,0.6-3.4,2.6C8.4,113.2,9.4,114.4,10.6,115.2 M20.8,105.8
		c5.2,1.4,12.6,4.6,10.6,11.6c-1.8,6.8-9.4,6.2-15.2,4.6s-12.6-5-10.6-11.6C7.4,103.6,15,104.2,20.8,105.8z"/>
</g>
<g>
	<path class="st0" d="M23,123.4c-2,0-4.2-0.4-6.8-1c-8.6-2.4-12.4-6.6-11-12.2c1.6-5.6,7-7.2,15.6-4.8l0,0c3.4,1,6.2,2.2,8.2,3.8
		c2.8,2.2,3.8,5,2.8,8.2C30.8,121.4,27.8,123.4,23,123.4z M14,105.2c-3.6,0-7,1.2-8,5.2c-1.8,6.4,4.6,9.6,10.4,11.2
		c5.8,1.6,13,2.2,14.8-4.2c0.8-3,0-5.4-2.6-7.6c-1.8-1.4-4.4-2.8-7.8-3.6l0,0C18.6,105.6,16.2,105.2,14,105.2z"/>
</g>
<g>
	<path class="st0" d="M23.8,119.6c-2.4,0-5.6-0.8-6.4-1c-1.8-0.4-5-1.4-6.8-3l0,0c-1.2-0.8-2.4-2.2-1.8-4.4c0.6-2.2,2.4-2.6,3.8-2.8
		c1.8-0.2,4.2,0.2,7.4,1c2.2,0.6,5,1.6,6.8,3c1,0.8,2.4,2.2,1.8,4.4c-0.6,2.2-2.2,2.6-3.8,2.8C24.4,119.6,24,119.6,23.8,119.6z
		 M10.8,115c1.8,1.4,5,2.4,6.6,2.8c1,0.2,4.6,1.2,7,1c1.8-0.2,2.8-0.8,3.2-2.4c0.4-1.8-0.6-2.8-1.6-3.6c-1.4-1-3.6-2-6.6-2.8
		s-5.4-1.2-7.2-1c-1.4,0.2-2.6,0.6-3.2,2.2C8.8,113.2,9.8,114.2,10.8,115L10.8,115z"/>
</g>
<g>
	<path class="st0" d="M29,86.2l12.2,5.6l-0.8,1.8l-3.2-1c0.8,1,2.4,3.2,0.8,6.6c-2.8,6-10.4,4.4-15.4,2c-4.2-2-12.2-6.6-8.8-13.8
		c2.2-4.8,6.4-4.6,10.4-3.6l-0.6,3.6c-2.4-0.6-5.2-1.2-6.6,1.4c-1.6,3.2,1.8,6,7,8.4c4,1.8,9.2,3.6,11-0.2c1.6-3.6-3-5.8-4.4-6.6
		l-1.8,3.8l-3-1.4L29,86.2"/>
</g>
<g>
	<path class="st0" d="M31,104c-3.4,0-6.6-1.4-8.4-2.2c-4.8-2.2-12.4-7-9-14.2c2.4-5.2,7-4.8,10.8-3.8h0.4L24,88.2h-0.4
		c-2.4-0.6-5-1.2-6.2,1.2c-0.6,1.4-0.4,2.8,1,4.2c1.2,1.2,3,2.4,5.8,3.8c5.8,2.6,9.2,2.6,10.6,0c1.4-2.8-1.6-4.8-4-5.8L29,95.4
		l-3.8-1.8l3.6-7.8l12.8,6l-1.2,2.4L38,93.4c0.8,1.2,1.6,3.2,0.4,6C37.2,102.2,34.6,103.8,31,104C31.2,104,31,104,31,104z
		 M20.4,83.8c-2.4,0-4.6,1-6,4c-3,6.6,4.2,11.2,8.6,13.2c1.6,0.8,4.8,2,8,2h0.2c3.2,0,5.4-1.4,6.6-4c1.4-3.2,0-5.2-0.8-6.2L36.4,92
		l4,1.2L41,92l-11.6-5.4l-3,6.4l2.4,1.2l1.6-3.8l0.4,0.2c1.6,0.8,6.4,3,4.6,7C33.2,102.2,26.2,99,24,98c-2.8-1.4-4.8-2.6-6.2-4
		c-1.4-1.6-1.8-3.2-1-5c1.4-2.8,4.2-2.4,6.6-1.8l0.4-2.8C22.8,84.2,21.4,83.8,20.4,83.8z"/>
</g>
<g>
	<polyline class="st0" points="23,71.8 45.2,85.4 43.2,88.6 21,75.2 23,71.8 	"/>
</g>
<g>
	<path class="st0" d="M43.4,89.2L43,89L20.6,75.2l2.4-4l0.4,0.2L45.8,85L43.4,89.2z M21.6,75l21.6,13l1.6-2.6l-21.6-13L21.6,75z"/>
</g>
<g>
	<path class="st0" d="M50.2,64.4c1.4,1.6,6.2,6.2,2.2,11.4c-4.6,6-12.4,1.2-15.8-1.4c-3.2-2.4-10.2-8.8-5.6-15
		c4-5.2,9.8-1.8,11.6-0.6L40.8,62c-1.6-1.2-4.8-3-6.8-0.6c-2.4,3.2,2,7.2,5.2,9.6c3.6,2.8,8.2,5.2,10.4,2.4c1.4-1.8,0.6-3.8-2-6.6
		L50.2,64.4"/>
</g>
<g>
	<path class="st0" d="M46.8,79C46,79,45,78.8,44,78.6c-3-0.8-5.8-2.6-7.6-4c-1.8-1.4-4.4-3.6-5.8-6.2c-2-3.4-1.8-6.4,0.2-9.2
		c4.2-5.4,10.2-2,12-0.8l0.4,0.2L43,59l-2,3.6l-0.4-0.2c-2.4-1.4-5-2.6-6.6-0.6C32.4,64,34,67,39.2,71c2.2,1.6,4,2.8,5.6,3.2
		c2,0.6,3.4,0.4,4.2-0.8c1.2-1.6,0.6-3.2-2-6l-0.2-0.2l3.2-3l0.2,0.2l0,0l0.2-0.2c1.6,1.6,6.4,6.4,2.2,11.8C51.2,78,49.2,79,46.8,79
		z M36.6,57c-1.8,0-3.6,0.6-5,2.6c-2,2.6-2,5.4-0.2,8.4c1.4,2.6,4,4.6,5.6,6c1.8,1.4,4.4,3.2,7.2,3.8c3.4,0.8,6,0,8-2.4
		c3.6-4.6-0.2-9-2-10.6l-2,2c2.4,2.4,3.6,4.6,1.8,6.8c-1.2,1.4-2.8,1.8-5,1.2c-1.6-0.6-3.6-1.6-5.8-3.4c-2-1.6-8.4-6.4-5.4-10.2
		c2-2.6,5.2-1,7.2,0.2l1.4-2.6C41,58.2,38.8,57,36.6,57z"/>
</g>
<g>
	<path class="st0" d="M58.2,54L48,47.4l6.4,10.4L58.2,54 M47,42.6l22.6,14.2l-2.8,2.8L61.2,56l-4.8,4.8l3.4,5.6L57.2,69L43.8,45.8
		L47,42.6z"/>
</g>
<g>
	<path class="st0" d="M57,69.4L43.4,45.6l3.6-3.4l23.2,14.6L66.8,60l-5.6-3.6l-4.4,4.4l3.4,5.6L57,69.4z M44.2,45.8l13,22.6l2.2-2
		l-3.6-5.6l5.2-5.2l5.6,3.6l2.2-2.2l-22-13.8L44.2,45.8z"/>
</g>
<g>
	<path class="st0" d="M54.4,58.4L54.2,58l-6.4-10.4l0.6-0.4L59,54L54.4,58.4z M49.2,48.6l5.4,8.6l3.2-3L49.2,48.6z"/>
</g>
<g>
	<polyline class="st0" points="58.6,32.6 72.2,50.4 78.8,45.2 81,48.2 71.4,55.6 55.6,35 58.6,32.6 	"/>
</g>
<g>
	<path class="st0" d="M71.2,56L71,55.8L55,35l3.6-2.8l0.2,0.2L72,49.8l6.6-5l2.6,3.4v0.2L71.2,56z M56.2,35l15.2,20l9-7l-1.8-2.2
		l-6.6,5v-0.2L58.8,33.2L56.2,35z"/>
</g>
<g>
	<path class="st0" d="M91.2,21c-1.8-1.8-3.4-2.8-5.4-1.8c-2.2,1-2,3.2-1.4,4.4c1,2,3,2,6,1.8c3-0.2,7-0.4,9.4,4.2
		c1.6,3.4,1.4,8-3.6,10.6c-5.8,2.8-9.4-1.6-10.4-3l2.6-2.4c0.8,1,3,3.8,6.4,2.2c2.8-1.4,2.2-4,1.8-5c-1-2.2-3.2-2.2-5.4-2
		c-2.8,0.2-4,0.2-5.6-0.4c-1.4-0.4-3.2-1.6-4.2-3.8c-1.6-3.2-1.2-7.6,3.2-9.8c5-2.4,8,1,9.2,2.4L91.2,21"/>
</g>
<g>
	<path class="st0" d="M92.4,41.4c-3.8,0-6-2.8-7-4l-0.2-0.2l0.2-0.2l2.8-2.8l0.2,0.4c0.8,1,2.8,3.6,6,2c2.8-1.4,2-3.8,1.6-4.6
		c-1-2-2.8-2-5.2-1.8c-2.8,0.2-4,0.2-5.8-0.4c-0.8-0.2-3-1.2-4.4-4c-1-2-1.2-4.2-0.6-6c0.6-1.8,2-3.2,3.8-4.2
		c5.2-2.6,8.4,1.2,9.6,2.4l0.2,0.2l0.4,0.4l-2.6,2.8l-0.2-0.2c-1.6-1.8-3-2.6-5-1.6c-0.8,0.4-1.2,0.8-1.4,1.6
		c-0.2,0.8,0,1.8,0.2,2.4c1,1.8,2.6,1.8,5.6,1.6h0.2c3-0.2,7.4-0.4,9.8,4.4c1,1.8,1.2,4,0.6,5.8c-0.6,2.2-2.2,4-4.4,5.2
		C95,41.2,93.6,41.4,92.4,41.4z M86.2,37.2c1.4,1.6,4.6,5.2,9.8,2.6c2.2-1,3.6-2.6,4-4.6c0.4-1.6,0.2-3.6-0.6-5.4
		c-2.2-4.4-6.2-4.2-9-4h-0.2c-3,0.2-5.2,0.2-6.4-2c-0.4-0.6-0.6-1.8-0.2-2.8c0.2-0.8,0.8-1.6,1.8-2c2.2-1.2,3.8-0.2,5.6,1.6l2-2
		c-1.4-1.4-4.2-4.2-8.6-2c-1.8,0.8-3,2.2-3.6,3.8c-0.6,1.6-0.4,3.6,0.4,5.4c1.2,2.6,3.2,3.4,4,3.6c1.6,0.6,2.8,0.4,5.6,0.2
		c2.4-0.2,4.6-0.2,5.8,2.2c0.8,1.6,0.8,4.2-2,5.6c-3.4,1.6-5.6-0.8-6.6-2L86.2,37.2z"/>
</g>
<g>
	<path class="st0" d="M104,14.4c-0.2,2.4,0.8,5.6,1.2,7.2c0.4,1.4,1.6,4.8,3,6.6c1.2,1.4,2.2,2,4,1.4c1.8-0.6,2.2-2.2,2.4-3.6
		c0.2-2.4-0.8-5.8-1.2-7.2c-0.6-1.6-1.6-4.8-3-6.6c-0.8-1-2-2.2-4-1.6C104.6,11.4,104.2,13,104,14.4 M117.4,17.8c1.6,5,3,13-4,15.2
		c-6.6,2.2-10.2-4.4-12-10.2c-1.8-5.6-2.8-13.2,4-15.4C112,5.4,115.6,12,117.4,17.8z"/>
</g>
<g>
	<path class="st0" d="M111,33.8c-1.2,0-2.2-0.2-3.2-0.8c-3.6-1.8-5.6-6.4-6.8-10c-1.2-3.6-1.6-6.6-1.2-9.2c0.4-3.4,2.2-5.6,5.4-6.6
		c3.2-1,5.8-0.2,8.2,2.2c1.8,1.8,3.2,4.6,4.2,8.2l0,0c2.8,8.6,1.2,14-4.2,15.8C112.8,33.8,111.8,33.8,111,33.8z M107.8,7.4
		c-0.8,0-1.6,0.2-2.4,0.4c-2.8,1-4.4,3-5,6c-0.4,2.4,0,5.4,1.2,8.8c1,3.4,3,8,6.4,9.6c1.6,0.8,3.4,1,5.2,0.4c6.2-2,5.4-9.2,3.6-14.8
		c-1.2-3.6-2.6-6.2-4.2-8C111.4,8.4,109.6,7.4,107.8,7.4z"/>
</g>
<g>
	<path class="st0" d="M111.2,30.2c-1.4,0-2.4-0.8-3.2-1.8c-1.4-1.8-2.6-5-3.2-6.8c-1-3-1.4-5.6-1.4-7.4l0,0c0.2-1.4,0.6-3.2,2.6-3.8
		c2.2-0.6,3.4,0.6,4.4,1.6c1.4,1.8,2.4,4.6,3.2,6.8c1,3,1.4,5.6,1.2,7.4c0,1.4-0.4,3.2-2.6,3.8C112,30.2,111.6,30.2,111.2,30.2z
		 M104.4,14.4L104.4,14.4c-0.2,1.6,0.4,4,1.2,7c0.6,1.6,1.6,4.8,3,6.4c1.2,1.4,2.2,1.8,3.6,1.4c1.8-0.6,2-2,2.2-3.2
		c0-1.6-0.4-4-1.2-7c-0.6-1.6-1.6-4.8-3-6.6c-0.8-1-1.8-2-3.6-1.4C104.8,11.8,104.4,13.2,104.4,14.4z"/>
</g>
<g>
	<path class="st0" d="M138.4,18.8c0,2.2,0.2,8.6-6,9.8c-7.4,1.2-9.8-7.6-10.6-11.8c-0.6-4-1.6-13.4,6.2-14.8c6.4-1,8.4,5.4,9,7.4
		l-3.4,1.2C133,8.4,132,5,128.8,5.4c-4,0.6-3.4,6.6-2.8,10.6c0.8,4.6,2.4,9.4,6,8.8c2.4-0.4,3-2.4,3-6.2L138.4,18.8"/>
</g>
<g>
	<path class="st0" d="M131,29c-3.2,0-7.8-2-9.6-12.2c-0.8-5.2-1.2-13.8,6.4-15.2c0.6,0,1-0.2,1.4-0.2c5.6,0,7.2,5.8,7.8,7.8l0.2,0.4
		l-0.4,0.2L133,11l-0.2-0.4C132,8,131,5.4,128.4,5.8c-2.8,0.4-3.6,3.8-2.4,10.2c0.8,4.2,1.8,7,3.4,8c0.6,0.4,1.4,0.6,2.2,0.6
		c2-0.4,2.8-2,2.6-5.8v-0.4h4.4v0.4h-0.4h0.4c0,2.2,0.2,9-6.4,10.2C132,29,131.6,29,131,29z M129.4,2.2c-0.4,0-0.8,0-1.4,0.2
		c-7,1.2-6.6,9.4-5.8,14.4c0.8,4.8,3.2,12.6,10.2,11.4c5.8-1,5.8-6.6,5.8-9h-2.8c0,3.4-0.6,5.8-3.2,6.2c-1,0.2-2,0-2.8-0.6
		c-1.8-1.2-3-4-3.6-8.4c-0.4-2.6-1.8-10.2,3-11.2c3.4-0.6,4.6,2.8,5.2,5l2.8-1C135.8,7,134.2,2.2,129.4,2.2z"/>
</g>
<g>
	<polyline class="st0" points="145.2,0.6 146.8,26.4 142.8,26.8 141.2,1 145.2,0.6 	"/>
</g>
<g>
	<path class="st0" d="M142.6,27.2v-0.4L141,0.6l4.6-0.2v0.4l1.6,26.2L142.6,27.2z M141.6,1.2l1.6,25.2l3.2-0.2L144.8,1L141.6,1.2z"
		/>
</g>
<g>
	<polyline class="st0" points="165.2,0.8 165.2,4.2 155.6,4 155.4,11.4 163,11.6 162.8,15 155.4,14.8 155,22.8 164.8,23.2 
		164.6,26.6 151.2,26.2 152,0.4 165.2,0.8 	"/>
</g>
<g>
	<path class="st0" d="M165,27h-0.4l-13.8-0.4v-0.4L151.6,0h0.4l13.8,0.4l-0.2,4.2l-9.4-0.4L156,11l7.4,0.2l-0.2,4.2h-0.4l-7-0.2
		l-0.2,7.4l9.6,0.4L165,27z M151.4,25.8l12.8,0.4v-2.8l-9.6-0.4v-0.4l0.2-8.4h0.4l7,0.2v-2.6l-7.4-0.2v-0.4l0.2-7.8l9.4,0.4V1.2
		l-12.6-0.4L151.4,25.8z"/>
</g>
<g>
	<polyline class="st0" points="182.2,3.2 181.6,6.8 176.4,6 173.2,28 169.4,27.4 172.6,5.4 167.6,4.6 168,1 182.2,3.2 	"/>
</g>
<g>
	<path class="st0" d="M173.4,28.4l-4.6-0.6l3.2-22L167,5l0.6-4.4l14.8,2.2l-0.6,4.4l-5.2-0.8L173.4,28.4z M169.8,27.2l3,0.4l3.2-22
		l5.2,0.8l0.4-2.8l-13.4-2L168,4.4l5,0.8L169.8,27.2z"/>
</g>
<g>
	<polyline class="st0" points="187.2,4.4 188.6,16 195.6,6.6 199.2,7.6 189,20.4 186.4,31 182.6,30 185.4,19.4 183.2,3.4 187.2,4.4 
			"/>
</g>
<g>
	<path class="st0" d="M186.6,31.4l-4.4-1.2l2.8-10.8L182.8,3l4.8,1.2L189,15l6.6-8.8l4.4,1.2l-10.4,13.2L186.6,31.4z M183,29.6
		l3,0.8l2.8-10.4l9.8-12.4l-2.8-0.8l-7.4,9.8L187,4.4l-3.4-0.8l2.2,15.6l0,0L183,29.6z"/>
</g>
<g>
	<path class="st0" d="M214.2,19.8c-1.8,1.6-3.4,4.6-4,6c-0.6,1.4-2.2,4.6-2.4,6.8c-0.2,1.8,0.2,3,1.8,3.8c1.8,0.8,3,0,4.2-0.8
		c1.8-1.6,3.4-4.8,4-6c0.8-1.6,2.2-4.6,2.4-7c0.2-1.4,0-3-1.8-3.8C216.8,18,215.4,18.8,214.2,19.8 M221.6,31.6
		c-2.4,4.8-7,11.6-13.4,8.2c-6.2-3.2-4.2-10.4-1.6-15.8c2.6-5.4,7.2-11.4,13.6-8.2C226.4,19,224.2,26.2,221.6,31.6z"/>
</g>
<g>
	<path class="st0" d="M211.4,41c-1.2,0-2.4-0.2-3.6-0.8C202.6,37.6,202,32,206,24c1.6-3.4,3.6-5.8,5.6-7.4c2.6-2.2,5.6-2.4,8.4-1
		c3,1.4,4.4,4,4.4,7.4c0,2.6-1,5.4-2.6,8.8l0,0c-1.6,3.2-3.4,5.6-5.2,7.2C215,40.4,213.2,41,211.4,41z M216.8,15.4
		c-1.6,0-3,0.6-4.6,1.8c-1.8,1.4-3.6,4-5.4,7.2c-2.6,5.4-4.6,12.2,1.4,15.2c2.8,1.4,5.4,1,7.8-1c1.8-1.4,3.6-3.8,5-7l0,0
		c1.6-3.4,2.6-6.2,2.6-8.6c0-3.2-1.2-5.4-3.8-6.6C218.8,15.6,217.8,15.4,216.8,15.4z"/>
</g>
<g>
	<path class="st0" d="M211.2,37.4c-0.6,0-1-0.2-1.6-0.4c-2-1-2.2-2.8-2-4.2c0.2-2.4,1.6-5.4,2.4-7c1.4-3,2.8-5,4.2-6.2l0,0
		c1-1,2.6-2,4.6-0.8c2,1,2.2,2.8,2,4.2c-0.2,1.8-1,4.2-2.4,7c-0.8,1.6-2.4,4.6-4.2,6.2C213.4,36.6,212.4,37.4,211.2,37.4z M214.6,20
		c-1.2,1.2-2.6,3.2-4,6c-0.8,1.6-2.2,4.6-2.4,6.8c-0.2,1.8,0.4,2.8,1.6,3.6c1.6,0.8,2.8,0,3.8-0.8c1.6-1.6,3.2-4.4,4-6
		c1.4-2.8,2.2-5.2,2.4-6.8c0-1.4,0-2.8-1.6-3.6C216.8,18.4,215.6,19.2,214.6,20L214.6,20z"/>
</g>
<g>
	<polyline class="st0" points="244.2,31.2 242.2,34 234.6,28.8 230.2,35.2 236.2,39.4 234.4,42.2 228.4,38 222,47.4 218.8,45.2 
		233.4,23.8 244.2,31.2 	"/>
</g>
<g>
	<path class="st0" d="M222,47.8l-3.8-2.6l0.2-0.2l15-21.6l0.2,0.2l11,7.6l-2.4,3.4l-0.2-0.2l-7.2-5l-4,5.8l6,4.2l-2.4,3.4l-0.2-0.2
		l-5.6-4L222,47.8z M219.2,45l2.6,1.8l6.4-9.2l0.2,0.2l5.6,4l1.6-2.2l-6-4.2l0.2-0.2l4.6-6.6l0.2,0.2l7.2,5l1.6-2.2l-10-7L219.2,45z
		"/>
</g>
<g>
	<path class="st0" d="M250.4,59l6.8-10l-10.4,6.2L250.4,59 M262,47.8l-14.6,22.4l-2.6-2.8l3.6-5.6l-4.6-5l-5.6,3.6l-2.6-2.6l23.4-13
		L262,47.8z"/>
</g>
<g>
	<path class="st0" d="M247.6,70.8l-3.2-3.4l3.6-5.6l-4.2-4.6l-5.8,3.6l-3-3.2l0.4-0.2l23.6-13l3.4,3.6l-0.2,0.2L247.6,70.8z
		 M245.2,67.4l2.2,2.4L261.6,48l-2.6-2.8l-22.8,12.6l2,2.2l5.6-3.4l5,5.4L245.2,67.4z"/>
</g>
<g>
	<path class="st0" d="M250.4,59.6l-4.2-4.4l10.8-6.4l0.4,0.6L250.4,59.6z M247.4,55.2l3,3.2L256,50L247.4,55.2z"/>
</g>
<g>
	<polyline class="st0" points="273.8,62.4 260.6,76.6 279,70.4 282,75 260.2,89.2 258.2,86 276.8,74 255.2,81.4 253.6,79 
		269.2,62.4 250.8,74.6 249,71.8 270.6,57.8 273.8,62.4 	"/>
</g>
<g>
	<path class="st0" d="M260.2,89.6l-2.4-3.6l0.4-0.2l16-10.4l-19,6.6l-1.8-2.8l13.8-14.6l-16.4,10.6l-2.2-3.4l0.4-0.2l22-14.4
		l3.4,5.4l-0.4,0.2l-12,13l17.2-5.8l3.4,5.2l-0.4,0.2L260.2,89.6z M258.8,86.2l1.6,2.4l21.2-13.8l-2.6-4l-18,6l-0.6-0.4l13-13.8
		l-2.8-4.2l-21.2,13.8l1.4,2L269,62.4l0.4,0.6L254,79.4l1.2,1.8l21.2-7.4l0.4,0.6L258.8,86.2z"/>
</g>
<g>
	<polyline class="st0" points="291,95.4 287.8,96.8 284.2,88 277.2,90.8 280.2,97.8 277,99 274.2,92.2 266.6,95.4 270.4,104.2 
		267.2,105.6 262,93.2 285.8,83 291,95.4 	"/>
</g>
<g>
	<path class="st0" d="M267,106l-0.2-0.4l-5.4-12.8l0.4-0.2l24.2-10l0.2,0.4l5.4,12.6l-3.8,1.6l-0.2-0.4l-3.6-8.4l-6.2,2.6l3,6.8
		l-3.8,1.6l-3-6.8l-6.8,2.8l3.8,9L267,106z M262.4,93.4l5,11.8l2.6-1l-3.8-9l0.4-0.2l7.8-3.2l2.8,6.8l2.4-1l-3-6.8l7.6-3.2l0.2,0.4
		l3.6,8.4l2.4-1l-5-11.6L262.4,93.4z"/>
</g>
<g>
	<path class="st0" d="M290.8,106l-8.2,2.2l0.8,2.8c0.6,2.6,2.8,3.2,5.2,2.6c4-1,3.2-4,3-4.8L290.8,106 M294.8,108.2
		c0.6,2.2,0.6,3.8,0,5.2s-2.2,3.2-5.2,3.8c-4.6,1.2-6.6-1-7.4-1.8l-10.2,7.2l-1-4l9.6-6.2l-1-3.6l-10.4,2.8l-1-3.8l25-6.4
		L294.8,108.2z"/>
</g>
<g>
	<path class="st0" d="M271.6,123.4l-1.2-4.8l0.2-0.2l9.4-6.2l-0.8-3l-10.4,2.8l-1.2-4.4h0.4l25.4-6.6l1.8,7.2c0.6,2.4,0.6,4,0,5.4
		c-0.4,1-1.8,3.2-5.4,4c-4.4,1.2-6.6-0.8-7.6-1.6L271.6,123.4z M271.2,119l0.8,3.2l10-7.2l0.2,0.2c0.8,0.8,2.8,2.8,7.2,1.8
		c3.4-0.8,4.6-2.8,5-3.6c0.6-1.2,0.6-2.8,0-5l-1.6-6.4l-24.4,6.2l0.8,3l10.4-2.8l1,4.2L271.2,119z"/>
</g>
<g>
	<path class="st0" d="M286.8,114.2c-2,0-3.4-1-3.8-3.2l-0.8-3.2l8.8-2.2l0.8,3.2c0.2,0.4,0.4,1.4,0,2.4c-0.4,1.4-1.4,2.2-3.2,2.6
		C288,114.2,287.4,114.2,286.8,114.2z M283,108.4l0.6,2.6c0.6,2.2,2.2,3,4.8,2.4c1.6-0.4,2.4-1.2,2.8-2.2c0.2-0.8,0-1.8,0-2
		l-0.6-2.6L283,108.4z"/>
</g>
<g>
	<polyline class="st0" points="298.2,126 272.4,129.6 272,125.8 297.6,122.2 298.2,126 	"/>
</g>
<g>
	<path class="st0" d="M272.2,130l-0.6-4.6h0.4l26-3.6l0.6,4.6h-0.4L272.2,130z M272.4,126l0.4,3.2l25-3.4l-0.4-3L272.4,126z"/>
</g>
<g>
	<path class="st0" d="M281.6,149c-2.2-0.2-8.6-1-8.8-7.4c-0.2-7.6,8.8-8.6,13.2-8.8c4.2,0,13.6,0.4,13.6,8.2
		c0.2,6.6-6.4,7.4-8.6,7.8l-0.6-3.6c2.2-0.2,5.8-0.8,5.8-4c0-4-6-4.4-10.2-4.2c-4.6,0.2-9.6,1-9.6,4.6c0,2.4,2,3.4,5.8,3.8
		L281.6,149"/>
</g>
<g>
	<path class="st0" d="M282,149.4h-0.4c-6-0.6-9-3.2-9.2-7.8c0-3.4,1.6-6,5.2-7.6c2.8-1.2,6-1.6,8.4-1.6c5.2-0.2,13.8,0.8,14,8.6
		c0.2,6.8-6.6,7.8-9,8.2h-0.4l-0.2-0.4l-0.6-4h0.4c2.6-0.4,5.6-1,5.4-3.6c0-2.8-3.2-4-9.8-4c-2.8,0-5,0.4-6.4,1
		c-2,0.8-2.8,1.8-2.8,3.4c0,2,1.6,3,5.4,3.4h0.4L282,149.4z M286.6,133.2c-0.2,0-0.4,0-0.8,0c-2.2,0-5.4,0.4-8,1.6
		c-3.2,1.4-4.8,3.8-4.6,6.8c0.2,5.8,5.8,6.8,8.2,7l0.4-2.8c-3.4-0.4-5.6-1.4-5.6-4.2c0-1.8,1-3.2,3.2-4c1.6-0.6,3.8-1,6.6-1
		c2.6,0,10.4-0.2,10.6,4.6c0,3.4-3.6,4-5.8,4.4l0.4,2.8c2.6-0.4,8.2-1.6,8-7.4C299.2,134.4,291.6,133.2,286.6,133.2z"/>
</g>
<g>
	<path class="st0" d="M281.8,162.2l12.2-1l-11.4-4.2L281.8,162.2 M297.6,164.2l-26.4,2.8l0.6-3.8l6.6-0.6l0.8-6.8l-6.2-2.2l0.4-3.6
		l24.8,10L297.6,164.2z"/>
</g>
<g>
	<path class="st0" d="M270.8,167.4l0.6-4.6l6.6-0.6l0.8-6.2l-6.2-2.2l0.6-4.4l25.4,10.4l-0.6,4.8h-0.2L270.8,167.4z M272,163.4
		l-0.4,3.2l25.8-2.8l0.4-3.8l-24-9.8l-0.4,3l6.2,2.2l-1,7.4L272,163.4z"/>
</g>
<g>
	<path class="st0" d="M281.4,162.6l0.8-6.2l11.8,4.4v0.8L281.4,162.6z M282.8,157.4l-0.6,4.4l10-0.8L282.8,157.4z"/>
</g>
<path class="st0" d="M219,206.2c13.2-13.4,34-25.2,34-25.2c16-6.6,11.4,5.4,11.4,5.4c-5.2,13.4-15.6,13.6-15.6,13.6
	c-4.4,0.6-2.8-5.4-2.8-5.4c-4,1.4-2,4.8-2,4.8c2.8,5.8,12.8-0.6,12.8-0.6c9.2-6,9.2-15.6,9.2-15.6c-0.8-11-15.2-2.4-15.2-2.4
	c-12.6,6.8-33,24.4-33,24.4L219,206.2 M217,204.8c12.6-17,31-28,31-28c13-6,12.6,2,12.6,2c-0.8,8.6-5,11.2-5,11.2c-6.8,4.4-6-2-6-2
	c-5.2,6.2,3,5.6,3,5.6c8.2-1.6,9-12.2,9-12.2c1.6-14.6-16-4.2-16-4.2c-18.4,12.6-30.4,27.2-30.4,27.2L217,204.8z M108.4,257.8
	c17.8,1.4,45.6-4.6,45.6-4.6c3.6-1,2.2-3.6,2.2-3.6c-7-9.6-1.6-14.4-1.6-14.4c1.4-2.6-2.6-2-2.6-2c-19.8,3.6-45.6,11.8-45.6,11.8
	C88.8,256,108.4,257.8,108.4,257.8z M166.6,229.8c-4.2,1.8-6.2,7-6.2,7c-3.2,6.6,4.2,12.2,4.2,12.2c2.2,1.2,4.2,0.2,4.2,0.2
	c2.8-0.6,25.2-11.8,25.2-11.8c3.2-1.4,0.6-4,0.6-4c-2.6-5,1.8-11.8,1.8-11.8c1.8-7.2-5.2-3.6-5.2-3.6L166.6,229.8z M203,213.4
	c0,0,10.6-11.4,14.4-5.2c0,0-0.2,3.6-0.6,6.8c0,0,0,3.2-3.4,6c0,0-6.6,5.6-8.8,6.6c0,0-4,3.4-4.2-0.2
	C200.6,227.6,199.8,218.8,203,213.4z M153.2,81.4C158,72.8,170.6,65,170.6,65c13-4.6,8.8,13.6,8.8,13.6c-2,10.2-9.8,43-9.8,43
	c5.2,27.4,29.6,63.4,29.6,63.4c-2-16,1-56,1-56c2.6-28.2,5.2-61.4,5.2-61.4c-1.4-32-30.2-19-30.2-19c-12.4,4.6-25.8,24.2-25.8,24.2
	L153.2,81.4z M98.6,120.2C98.4,96.6,109.8,73,109.8,73c5.6-9.8,9.6,0.4,9.6,0.4c6.6,23,18.6,72.4,18.6,72.4
	c8.6,32.4,20.4,50.8,20.4,50.8c1.2,2.8-2.6,2.2-2.6,2.2c-2.6-0.6-7.2,0.4-7.2,0.4c2.2,4.6,7.2,15.4,7.2,15.4
	c2.8,8.8-6.8,8.6-6.8,8.6c24.2,4.2,45.2-13.8,45.2-13.8c9.2-8.4,3-19.6,3-19.6c-2.6-7-5.2-10.2-5.2-10.2
	c-13-14.8-26.8-58.2-26.8-58.2c-6.8-21.2-18.6-48.4-18.6-48.4c-24.4-48-40.2-14.8-40.2-14.8c-13.4,26-14.8,55.6-14.8,55.6
	L98.6,120.2z M77.2,102.6c3.4-5.8,11.6,7,11.6,7L90.6,99c-12-16-21-0.4-21-0.4L77.2,102.6z M152.2,215c0,0-12.8-31.4-30.2-57.6
	c0,0-17.6-29.2-34.4-43c0,0-20.4-19.6-30.6-12.4c0,0-18.4,9-8.4,48.2c0,0,11.6,48.2,49.6,61.4c0,0,30.6,10.8,52,8
	C150.2,219.6,154.6,219.4,152.2,215z M122.2,191.2c-5.4,1.6-22.2-2.4-22.2-2.4c-18.2-3.4-32.6-23.2-32.6-23.2
	c-18-29.4-9.8-44.6-9.8-44.6c6.6-16.2,29,8.2,29,8.2c20.6,20.8,38,59.8,38,59.8C124.8,191,122.2,191.2,122.2,191.2z"/>
</svg>
