<?xml version="1.0" encoding="utf-8"?>
<!-- Generator: Adobe Illustrator 19.1.0, SVG Export Plug-In . SVG Version: 6.00 Build 0)  -->
<svg version="1.1" id="Layer_1" xmlns="http://www.w3.org/2000/svg" xmlns:xlink="http://www.w3.org/1999/xlink" x="0px" y="0px"
	 viewBox="0 0 300 56.7" style="enable-background:new 0 0 300 56.7;" xml:space="preserve">
<style type="text/css">
	.st0{fill:#15499F;}
	.st1{fill:#555555;}
	.st2{fill:url(#SVGID_1_);}
</style>
<g>
	<path class="st0" d="M83.1,5.7v3.2h-9.8v6.9H81V19h-7.7v7.6h10v3.3h-14V5.7H83.1z"/>
	<path class="st0" d="M90.6,5.7l8,17.4V5.7h3.3v24.1h-3.7l-8.9-19.3v19.3h-3.3V5.7H90.6z"/>
	<path class="st0" d="M118.1,5.7v3.4h-5.4v20.7h-4V9.1h-5.3V5.7H118.1z"/>
	<path class="st0" d="M136.4,17.8c0,5-1.1,12.5-8.6,12.5c-7.2,0-8.7-6.9-8.7-12.5c0-5.5,1.4-12.5,8.7-12.5
		C135,5.3,136.4,12.1,136.4,17.8z M124.3,11c-0.9,2.1-1,5.3-1,6.8c0,1.4,0.1,4.7,1,6.7c0.7,1.6,1.6,2.5,3.5,2.5c2,0,2.9-1.2,3.4-2.5
		c0.9-2.1,1-5.4,1-6.7c0-1.7-0.1-4.7-1-6.8c-0.5-1.2-1.4-2.5-3.5-2.5C125.7,8.5,124.9,9.7,124.3,11z"/>
	<path class="st0" d="M146.1,5.7l4.8,17.4l4.9-17.4h5.7v24.1h-3.8V9.2L152,29.8h-2.9l-5.6-20.6v20.6h-3.3V5.7H146.1z"/>
	<path class="st0" d="M182.6,17.8c0,5-1.1,12.5-8.6,12.5c-7.2,0-8.7-6.9-8.7-12.5c0-5.5,1.4-12.5,8.7-12.5
		C181.2,5.3,182.6,12.1,182.6,17.8z M170.5,11c-0.9,2.1-1,5.3-1,6.8c0,1.4,0.1,4.7,1,6.7c0.7,1.6,1.6,2.5,3.5,2.5
		c2,0,2.9-1.2,3.4-2.5c0.9-2.1,1-5.4,1-6.7c0-1.7-0.1-4.7-1-6.8c-0.5-1.2-1.4-2.5-3.5-2.5C171.9,8.5,171,9.7,170.5,11z"/>
	<path class="st0" d="M190.4,5.7v20.8h8.5v3.4h-12.5V5.7H190.4z"/>
	<path class="st0" d="M217.7,17.8c0,5-1.1,12.5-8.6,12.5c-7.2,0-8.7-6.9-8.7-12.5c0-5.5,1.4-12.5,8.7-12.5
		C216.3,5.3,217.7,12.1,217.7,17.8z M205.6,11c-0.9,2.1-1,5.3-1,6.8c0,1.4,0.1,4.7,1,6.7c0.7,1.6,1.6,2.5,3.5,2.5
		c2,0,2.9-1.2,3.4-2.5c0.9-2.1,1-5.4,1-6.7c0-1.7-0.1-4.7-1-6.8c-0.5-1.2-1.4-2.5-3.5-2.5C207,8.5,206.2,9.7,205.6,11z"/>
	<path class="st0" d="M237.8,17.4V30h-2.1l-0.5-3.1c-0.7,1.1-2,3.3-5.8,3.3c-6.8,0-8.6-7.1-8.6-12.2c0-4.4,1-12.8,9-12.8
		c5.6,0,7.2,3.6,7.9,7.3l-3.6,0.9c-0.5-2.2-1.1-5-4.2-5c-3.7,0-4.8,3.9-4.8,9.2c0,4.1,0.7,9.2,4.9,9.2c4.2,0,4.2-4.7,4.2-6.3h-4.3
		v-3.2H237.8z"/>
	<path class="st0" d="M245.9,5.7v24.1h-4V5.7H245.9z"/>
	<path class="st0" d="M266.3,22.2c-0.3,2-1.2,8-7.9,8c-7.8,0-8.7-8.4-8.7-12.4c0-3.8,0.8-12.6,8.8-12.6c6.7,0,7.6,6.2,7.8,8.2
		l-3.7,0.5c-0.3-2-0.7-5.5-4.1-5.5c-4.2,0-4.6,5.6-4.6,9.4c0,4.3,0.8,9,4.6,9c2.5,0,3.5-1.7,4.1-5.2L266.3,22.2z"/>
	<path class="st0" d="M278.6,5.7l6.4,24.1H281l-1.5-6h-7l-1.5,6h-3.8l7-24.1H278.6z M278.7,20.6L276,9.6l-2.7,11.1H278.7z"/>
	<path class="st0" d="M291.5,5.7v20.8h8.5v3.4h-12.5V5.7H291.5z"/>
	<path class="st1" d="M74.9,41.6c-0.4-1.1-0.9-2.5-2.8-2.5c-1.9,0-2.3,1.4-2.3,2.1c0,1.4,1.1,1.9,3,2.6c1.6,0.6,3.9,1.5,3.9,4.2
		c0,1.7-1.2,4-4.4,4c-1.2,0-2.5-0.4-3.4-1.2c-1-0.9-1.2-2-1.4-2.7l1.5-0.4c0.2,0.9,0.7,2.9,3.3,2.9c2.1,0,2.6-1.4,2.6-2.4
		c0-1.6-1.4-2.2-2.7-2.7c-1.6-0.6-2.2-0.9-3-1.5c-0.7-0.6-1.2-1.7-1.2-2.7c0-1.7,1.2-3.6,4.1-3.6c3.1,0,3.8,2.4,4.1,3.4L74.9,41.6z"
		/>
	<path class="st1" d="M88.8,44.9c0,3-0.7,7.2-4.9,7.2c-4.3,0-4.9-4.4-4.9-7.2c0-2.9,0.7-7.2,4.9-7.2C88.1,37.7,88.8,41.8,88.8,44.9z
		 M81.6,40.5c-0.6,1.2-0.8,2.9-0.8,4.3c0,1.6,0.2,3.2,0.8,4.3c0.5,1,1.2,1.5,2.4,1.5c1.2,0,1.9-0.6,2.3-1.5c0.6-1.2,0.8-2.9,0.8-4.3
		c0-1.6-0.2-3.2-0.8-4.3c-0.5-0.9-1.1-1.5-2.4-1.5C82.7,39.1,82.1,39.6,81.6,40.5z"/>
	<path class="st1" d="M100.2,47.8c-0.4,2.1-1.1,4.2-4.3,4.2c-4.2,0-4.8-4.4-4.8-7.1c0-1.9,0.3-7.2,4.9-7.2c3.4,0,4,2.9,4.3,4.2
		l-1.6,0.4c-0.3-1.3-0.6-3.2-2.6-3.2c-3,0-3.1,4.4-3.1,5.8c0,1.9,0.3,5.8,3.1,5.8c1.6,0,2.1-0.8,2.6-3.2L100.2,47.8z"/>
	<path class="st1" d="M104.5,38v13.8h-1.7V38H104.5z"/>
	<path class="st1" d="M115.4,38v1.4h-5.8v4.6h4.6v1.4h-4.6v5.1h6v1.4h-7.7V38H115.4z"/>
	<path class="st1" d="M124.3,38v1.4H121v12.4h-1.7V39.4H116V38H124.3z"/>
	<path class="st1" d="M125.6,38l3,6.3l3-6.3h1.5l-3.8,8v5.8h-1.7v-5.8l-3.8-8H125.6z"/>
	<path class="st1" d="M149.4,44.9c0,3-0.7,7.2-4.9,7.2c-4.3,0-4.9-4.4-4.9-7.2c0-2.9,0.7-7.2,4.9-7.2
		C148.6,37.7,149.4,41.8,149.4,44.9z M142.1,40.5c-0.6,1.2-0.8,2.9-0.8,4.3c0,1.6,0.2,3.2,0.8,4.3c0.5,1,1.2,1.5,2.4,1.5
		c1.2,0,1.9-0.6,2.3-1.5c0.6-1.2,0.8-2.9,0.8-4.3c0-1.6-0.2-3.2-0.8-4.3c-0.5-0.9-1.1-1.5-2.4-1.5C143.3,39.1,142.6,39.6,142.1,40.5
		z"/>
	<path class="st1" d="M159.5,38v1.4h-5.6v4.6h4.6v1.4h-4.6v6.4h-1.7V38H159.5z"/>
	<path class="st1" d="M170.6,38l3.7,13.8h-1.7l-1-3.9h-4.1l-1,3.9h-1.7l3.9-13.8H170.6z M171.2,46.5l-1.7-6.9l-1.7,6.9H171.2z"/>
	<path class="st1" d="M176.6,38h2.4l3.2,11.1l3.2-11.1h2.4v13.8h-1.6V39.8l-3.6,11.9h-1.2l-3.5-12v12h-1.4V38z"/>
	<path class="st1" d="M198.7,38v1.4h-5.8v4.6h4.6v1.4h-4.6v5.1h6v1.4h-7.7V38H198.7z"/>
	<path class="st1" d="M205.3,38c0.2,0,1.8,0,2.8,0.8c0.7,0.5,1.3,1.5,1.3,3c0,2.5-1.7,3.3-2.3,3.6l2.6,6.4h-1.8l-2.3-6h-2.6v6h-1.7
		V38H205.3z M202.9,39.4v5h2.1c1.9,0,2.7-1.2,2.7-2.6c0-2-1.5-2.4-2.6-2.4H202.9z"/>
	<path class="st1" d="M214,38v13.8h-1.7V38H214z"/>
	<path class="st1" d="M226,47.8c-0.4,2.1-1.1,4.2-4.3,4.2c-4.2,0-4.8-4.4-4.8-7.1c0-1.9,0.3-7.2,4.9-7.2c3.4,0,4,2.9,4.3,4.2
		l-1.6,0.4c-0.3-1.3-0.6-3.2-2.6-3.2c-3,0-3.1,4.4-3.1,5.8c0,1.9,0.3,5.8,3.1,5.8c1.6,0,2.1-0.8,2.6-3.2L226,47.8z"/>
	<path class="st1" d="M233.3,38l3.7,13.8h-1.7l-1-3.9h-4.1l-1,3.9h-1.7l3.9-13.8H233.3z M233.9,46.5l-1.7-6.9l-1.7,6.9H233.9z"/>
</g>
<linearGradient id="SVGID_1_" gradientUnits="userSpaceOnUse" x1="13.4993" y1="498.4278" x2="40.6814" y2="451.3473" gradientTransform="matrix(1 0 0 -1 0 502)">
	<stop  offset="0" style="stop-color:#ED2129"/>
	<stop  offset="0.2393" style="stop-color:#F26A25"/>
	<stop  offset="0.2915" style="stop-color:#F59824"/>
	<stop  offset="0.3508" style="stop-color:#F8C623"/>
	<stop  offset="0.3965" style="stop-color:#FAE222"/>
	<stop  offset="0.4228" style="stop-color:#FBED22"/>
	<stop  offset="0.4874" style="stop-color:#F9EC23"/>
	<stop  offset="0.5163" style="stop-color:#F2EA24"/>
	<stop  offset="0.5382" style="stop-color:#E5E528"/>
	<stop  offset="0.5565" style="stop-color:#D3DF2C"/>
	<stop  offset="0.5725" style="stop-color:#BBD732"/>
	<stop  offset="0.587" style="stop-color:#9ECD39"/>
	<stop  offset="0.6001" style="stop-color:#7DC142"/>
	<stop  offset="0.6121" style="stop-color:#56B44B"/>
	<stop  offset="0.613" style="stop-color:#53B34C"/>
	<stop  offset="0.6329" style="stop-color:#4DA156"/>
	<stop  offset="0.6738" style="stop-color:#438168"/>
	<stop  offset="0.7184" style="stop-color:#3B6777"/>
	<stop  offset="0.7671" style="stop-color:#355282"/>
	<stop  offset="0.8222" style="stop-color:#30448A"/>
	<stop  offset="0.8891" style="stop-color:#2E3C8F"/>
	<stop  offset="1" style="stop-color:#2D3990"/>
</linearGradient>
<path class="st2" d="M46.4,42.9c3.5-3.6,9.1-6.7,9.1-6.7c4.3-1.8,3.1,1.4,3.1,1.4c-1.4,3.6-4.2,3.6-4.2,3.6
	c-1.2,0.2-0.7-1.4-0.7-1.4c-1.1,0.4-0.5,1.3-0.5,1.3c0.7,1.6,3.4-0.2,3.4-0.2c2.5-1.6,2.5-4.2,2.5-4.2c-0.2-2.9-4.1-0.6-4.1-0.6
	c-3.4,1.8-8.8,6.5-8.8,6.5L46.4,42.9 M45.9,42.5c3.4-4.5,8.3-7.5,8.3-7.5c3.5-1.6,3.4,0.5,3.4,0.5c-0.2,2.3-1.3,3-1.3,3
	c-1.8,1.2-1.6-0.5-1.6-0.5c-1.4,1.7,0.8,1.5,0.8,1.5c2.2-0.4,2.4-3.3,2.4-3.3c0.4-3.9-4.3-1.1-4.3-1.1c-4.9,3.4-8.1,7.3-8.1,7.3
	L45.9,42.5z M16.8,56.7C21.6,57,29,55.4,29,55.4c1-0.3,0.6-1,0.6-1c-1.9-2.6-0.4-3.9-0.4-3.9c0.4-0.7-0.7-0.5-0.7-0.5
	c-5.3,1-12.2,3.2-12.2,3.2C11.6,56.2,16.8,56.7,16.8,56.7z M32.4,49.2c-1.1,0.5-1.7,1.9-1.7,1.9c-0.9,1.8,1.1,3.3,1.1,3.3
	c0.6,0.3,1.1,0.1,1.1,0.1c0.7-0.2,6.7-3.2,6.7-3.2c0.9-0.4,0.2-1.1,0.2-1.1c-0.7-1.3,0.5-3.2,0.5-3.2c0.5-1.9-1.4-1-1.4-1L32.4,49.2
	z M42.1,44.8c0,0,2.8-3.1,3.9-1.4c0,0-0.1,1-0.2,1.8c0,0,0,0.9-0.9,1.6c0,0-1.8,1.5-2.4,1.8c0,0-1.1,0.9-1.1-0.1
	C41.5,48.6,41.2,46.2,42.1,44.8z M28.8,9.5c1.3-2.3,4.7-4.4,4.7-4.4c3.5-1.2,2.4,3.6,2.4,3.6c-0.5,2.7-2.6,11.5-2.6,11.5
	c1.4,7.3,7.9,17,7.9,17c-0.5-4.3,0.3-15,0.3-15c0.7-7.5,1.4-16.4,1.4-16.4c-0.4-8.6-8.1-5.1-8.1-5.1c-3.3,1.2-6.9,6.5-6.9,6.5
	L28.8,9.5z M14.2,19.9c-0.1-6.3,3-12.6,3-12.6c1.5-2.6,2.6,0.1,2.6,0.1c1.8,6.2,5,19.4,5,19.4c2.3,8.7,5.5,13.6,5.5,13.6
	c0.3,0.7-0.7,0.6-0.7,0.6c-0.7-0.2-1.9,0.1-1.9,0.1c0.6,1.2,1.9,4.1,1.9,4.1c0.7,2.4-1.8,2.3-1.8,2.3c6.5,1.1,12.1-3.7,12.1-3.7
	c2.5-2.2,0.8-5.2,0.8-5.2c-0.7-1.9-1.4-2.7-1.4-2.7c-3.5-4-7.2-15.6-7.2-15.6c-1.8-5.7-5-12.9-5-12.9c-6.6-12.8-10.8-4-10.8-4
	c-3.6,7-4,14.9-4,14.9L14.2,19.9z M8.4,15.1c0.9-1.6,3.1,1.9,3.1,1.9l0.5-2.8c-3.2-4.3-5.6-0.1-5.6-0.1L8.4,15.1z M28.5,45.2
	c0,0-3.4-8.4-8.1-15.4c0,0-4.7-7.8-9.2-11.5c0,0-5.5-5.2-8.2-3.3c0,0-4.9,2.4-2.2,12.9c0,0,3.1,12.9,13.3,16.4c0,0,8.2,2.9,13.9,2.1
	C28,46.4,29.2,46.4,28.5,45.2z M20.5,38.9c-1.4,0.4-5.9-0.6-5.9-0.6C9.7,37.3,5.8,32,5.8,32C1,24.1,3.2,20.1,3.2,20.1
	C5,15.7,11,22.3,11,22.3c5.5,5.6,10.2,16,10.2,16C21.2,38.8,20.5,38.9,20.5,38.9z"/>
</svg>
