<?xml version="1.0" encoding="utf-8"?>
<!-- Generator: Adobe Illustrator 19.2.1, SVG Export Plug-In . SVG Version: 6.00 Build 0)  -->
<svg version="1.1" id="Layer_1" xmlns="http://www.w3.org/2000/svg" xmlns:xlink="http://www.w3.org/1999/xlink" x="0px" y="0px"
	 viewBox="0 0 300 19.8" style="enable-background:new 0 0 300 19.8;" xml:space="preserve">
<style type="text/css">
	.st0{fill:#FFFFFF;}
</style>
<path class="st0" d="M91.4,3h5V0.2h-8v19.3h3v-8h3.9V8.8h-3.9V3z M77.2,14.9c0,3.1,1.6,4.9,4.6,4.9c3,0,4.6-1.8,4.6-4.9v-10
	c0-3.1-1.6-4.9-4.6-4.9c-3,0-4.6,1.8-4.6,4.9V14.9z M80.3,4.7c0-1.4,0.6-1.9,1.6-1.9c1,0,1.6,0.5,1.6,1.9v10.4
	c0,1.4-0.6,1.9-1.6,1.9c-1,0-1.6-0.5-1.6-1.9V4.7z M63.9,19.5h8v-2.8h-5V0.2h-3V19.5z M57,3.6l1.5,9.8h-2.9L57,3.6z M59.4,0.2h-4.4
	l-3.1,19.3h2.8l0.5-3.5h3.7l0.5,3.5h3.1L59.4,0.2z M47.3,19.5h3.1V0.2h-2.7v11.6L44.6,0.2h-3.8v19.3h2.7v-14L47.3,19.5z M34.3,3
	c1.1,0,1.5,0.6,1.5,2v1.9c0,1.5-0.7,2-1.8,2h-1.2V3H34.3z M39.2,19.5c-0.3-0.7-0.3-1.4-0.3-2.3v-3c0-2-0.5-3.5-2-4.1
	c1.4-0.6,2-1.9,2-3.9V4.7c0-3-1.4-4.4-4.5-4.4h-4.6v19.3h3v-7.9h1c1.4,0,2,0.7,2,2.5v3c0,1.6,0.1,1.9,0.3,2.4H39.2z M18.7,0.2v14.7
	c0,3.1,1.5,4.9,4.5,4.9s4.5-1.8,4.5-4.9V0.2h-2.9v14.9c0,1.4-0.6,1.9-1.6,1.9c-1,0-1.6-0.5-1.6-1.9V0.2H18.7z M7.6,14.9
	c0,3.1,1.6,4.9,4.6,4.9c3,0,4.6-1.8,4.6-4.9v-10c0-3.1-1.6-4.9-4.6-4.9c-3,0-4.6,1.8-4.6,4.9V14.9z M10.7,4.7c0-1.4,0.6-1.9,1.6-1.9
	c1,0,1.6,0.5,1.6,1.9v10.4c0,1.4-0.6,1.9-1.6,1.9c-1,0-1.6-0.5-1.6-1.9V4.7z M0,19.5c0.5,0.1,0.9,0.1,1.5,0.1c2.3,0,4.4-1,4.4-4.9
	V0.2h-3v14.7c0,1.5-0.8,1.8-1.7,1.8c-0.3,0-0.7,0-1,0V19.5z"/>
<path class="st0" d="M293.1,19.5h3v-6.4L300,0.2h-2.9L294.8,9l-2.3-8.8h-3.2l3.8,12.9V19.5z M284.5,11.6h1.4v3.6
	c0,1.4-0.6,1.9-1.6,1.9c-1,0-1.6-0.5-1.6-1.9V4.7c0-1.4,0.6-1.9,1.6-1.9c1,0,1.6,0.5,1.6,1.9v2.1h2.9V4.9c0-3.1-1.5-4.9-4.5-4.9
	c-3,0-4.5,1.8-4.5,4.9v10c0,3.1,1.5,4.9,4.5,4.9c3,0,4.5-1.8,4.5-4.9V8.8h-4.2V11.6z M268.8,14.9c0,3.1,1.6,4.9,4.6,4.9
	c3,0,4.6-1.8,4.6-4.9v-10c0-3.1-1.6-4.9-4.6-4.9c-3,0-4.6,1.8-4.6,4.9V14.9z M271.8,4.7c0-1.4,0.6-1.9,1.6-1.9c1,0,1.6,0.5,1.6,1.9
	v10.4c0,1.4-0.6,1.9-1.6,1.9c-1,0-1.6-0.5-1.6-1.9V4.7z M259.7,19.5h8v-2.8h-5V0.2h-3V19.5z M248.5,14.9c0,3.1,1.6,4.9,4.6,4.9
	c3,0,4.6-1.8,4.6-4.9v-10c0-3.1-1.6-4.9-4.6-4.9c-3,0-4.6,1.8-4.6,4.9V14.9z M251.6,4.7c0-1.4,0.6-1.9,1.6-1.9c1,0,1.6,0.5,1.6,1.9
	v10.4c0,1.4-0.6,1.9-1.6,1.9c-1,0-1.6-0.5-1.6-1.9V4.7z M238,0.2h-4.2v19.3h2.6V5.9l2.3,13.6h2.9l2.1-13.8v13.8h2.9V0.2h-4.2
	L240.3,14L238,0.2z M222.7,14.9c0,3.1,1.6,4.9,4.6,4.9c3,0,4.6-1.8,4.6-4.9v-10c0-3.1-1.6-4.9-4.6-4.9c-3,0-4.6,1.8-4.6,4.9V14.9z
	 M225.7,4.7c0-1.4,0.6-1.9,1.6-1.9c1,0,1.6,0.5,1.6,1.9v10.4c0,1.4-0.6,1.9-1.6,1.9c-1,0-1.6-0.5-1.6-1.9V4.7z M212.2,3h3.2v16.5h3
	V3h3.2V0.2h-9.4V3z M207.8,19.5h3.1V0.2h-2.7v11.6l-3.1-11.6h-3.8v19.3h2.7v-14L207.8,19.5z M194.2,3h5.2V0.2h-8.3v19.3h8.3v-2.8
	h-5.2v-5.7h4.2V8.4h-4.2V3z M182.2,12.4v2.8c0,1.4-0.6,1.9-1.6,1.9c-1,0-1.6-0.5-1.6-1.9V4.7c0-1.4,0.6-1.9,1.6-1.9
	c1,0,1.6,0.5,1.6,1.9v2.1h2.9V4.9c0-3.1-1.5-4.9-4.5-4.9S176,1.8,176,4.9v10c0,3.1,1.5,4.9,4.5,4.9s4.5-1.8,4.5-4.9v-2.6H182.2z
	 M171,19.5h3V0.2h-3V19.5z M160.3,0.2h-4.2v19.3h2.6V5.9l2.3,13.6h2.9L166,5.7v13.8h2.9V0.2h-4.2L162.5,14L160.3,0.2z M145,14.9
	c0,3.1,1.6,4.9,4.6,4.9c3,0,4.6-1.8,4.6-4.9v-10c0-3.1-1.6-4.9-4.6-4.9c-3,0-4.6,1.8-4.6,4.9V14.9z M148,4.7c0-1.4,0.6-1.9,1.6-1.9
	c1,0,1.6,0.5,1.6,1.9v10.4c0,1.4-0.6,1.9-1.6,1.9c-1,0-1.6-0.5-1.6-1.9V4.7z M139.9,19.5h3.1V0.2h-2.7v11.6l-3.1-11.6h-3.8v19.3h2.7
	v-14L139.9,19.5z M122.3,14.9c0,3.1,1.6,4.9,4.6,4.9c3,0,4.6-1.8,4.6-4.9v-10c0-3.1-1.6-4.9-4.6-4.9c-3,0-4.6,1.8-4.6,4.9V14.9z
	 M125.3,4.7c0-1.4,0.6-1.9,1.6-1.9c1,0,1.6,0.5,1.6,1.9v10.4c0,1.4-0.6,1.9-1.6,1.9c-1,0-1.6-0.5-1.6-1.9V4.7z M117.8,12.4v2.8
	c0,1.4-0.6,1.9-1.6,1.9c-1,0-1.6-0.5-1.6-1.9V4.7c0-1.4,0.6-1.9,1.6-1.9c1,0,1.6,0.5,1.6,1.9v2.1h2.9V4.9c0-3.1-1.5-4.9-4.5-4.9
	c-3,0-4.5,1.8-4.5,4.9v10c0,3.1,1.5,4.9,4.5,4.9c3,0,4.5-1.8,4.5-4.9v-2.6H117.8z M104.8,3h5.2V0.2h-8.3v19.3h8.3v-2.8h-5.2v-5.7
	h4.2V8.4h-4.2V3z"/>
</svg>
