<?xml version="1.0" encoding="utf-8"?>
<!-- Generator: Adobe Illustrator 23.0.3, SVG Export Plug-In . SVG Version: 6.00 Build 0)  -->
<svg version="1.1" id="Layer_1" xmlns="http://www.w3.org/2000/svg" xmlns:xlink="http://www.w3.org/1999/xlink" x="0px" y="0px"
	 viewBox="0 0 19 24" style="enable-background:new 0 0 19 24;" xml:space="preserve">
<style type="text/css">
	.st0{fill:#FAFAFA;}
	.st1{fill:#FC0D1B;}
</style>
<path class="st0" d="M12.6,1L18,6.4V21c0,0.3-0.1,2-2,2H3c-1.8,0-2-1.5-2-2V3c0-1.8,1.5-2,2-2H12.6"/>
<path class="st1" d="M5,18.6L5,18.6c-0.2,0-0.3-0.1-0.5-0.2C4,18.1,4,17.6,4,17.4c0.1-0.8,1-1.6,2.9-2.4c0.7-1.6,1.4-3.5,1.8-5.1
	c-0.5-1-0.9-2.4-0.6-3.2c0.1-0.3,0.3-0.5,0.5-0.6C8.7,6,9,6,9.1,6c0.2,0,0.5,0.3,0.6,0.5s0.5,0.6-0.2,3.2c0.6,1.3,1.6,2.7,2.4,3.6
	c0.6-0.1,1.2-0.2,1.6-0.2c0.7,0,1.2,0.2,1.4,0.5s0.1,0.6-0.2,1s-0.6,0.6-1.1,0.6c-0.6,0-1.3-0.4-2-1.1c-1.4,0.3-2.9,0.8-4.2,1.3
	c-0.4,0.8-0.8,1.5-1.1,2C5.8,18.3,5.4,18.6,5,18.6z M6.3,16.1c-1,0.6-1.4,1-1.5,1.3c0,0,0,0.2,0.2,0.3C5.1,17.8,5.5,17.6,6.3,16.1z
	 M12.8,14c0.4,0.3,0.5,0.4,0.7,0.4c0.1,0,0.4,0,0.6-0.2c0.1-0.1,0.1-0.2,0.1-0.2c-0.1,0-0.1-0.1-0.6-0.1C13.4,14,13.1,14,12.8,14z
	 M9.2,10.9c-0.3,1.2-0.8,2.5-1.3,3.6c1-0.4,2.1-0.7,3.1-1C10.4,12.8,9.7,11.9,9.2,10.9z M8.9,6.9c0,0-0.6,0.8,0,1.5
	C9.4,7.4,8.9,6.9,8.9,6.9z"/>
<g>
	<path class="st1" d="M12.6,1L18,6.4V21c0,0.3-0.1,2-2,2H3c-1.8,0-2-1.5-2-2V3c0-1.8,1.5-2,2-2H12.6 M13,0H3c0,0-3,0-3,3v18
		c0,0,0,3,3,3h13c3,0,3-3,3-3V6L13,0L13,0z"/>
</g>
</svg>
