<?xml version="1.0" encoding="utf-8"?>
<!-- Generator: Adobe Illustrator 22.0.1, SVG Export Plug-In . SVG Version: 6.00 Build 0)  -->
<!DOCTYPE svg PUBLIC "-//W3C//DTD SVG 1.1//EN" "http://www.w3.org/Graphics/SVG/1.1/DTD/svg11.dtd">
<svg version="1.1" id="Layer_1" xmlns="http://www.w3.org/2000/svg" xmlns:xlink="http://www.w3.org/1999/xlink" x="0px" y="0px"
	 viewBox="0 0 566.9 226.8" style="enable-background:new 0 0 566.9 226.8;" xml:space="preserve">
<style type="text/css">
	.st0{fill-rule:evenodd;clip-rule:evenodd;fill:#1D1D1B;}
</style>
<path class="st0" d="M46.1,108.5V87.1c0-12,0-15.8-0.8-20.8c-0.8-5.2-5.2-7.4-10.2-8.6c-2.2-0.6-2-2.8,0.2-2.8
	c6.6,0,11.2,0.6,17.4,0.6h20.6c10.6,0,17.4-0.2,19.2-0.8c1-0.6,1.8-0.8,2-0.8c0.4,0,1,0.4,0.8,1.4c-1,4.8-1.4,12.2-1,17.2
	c0.2,2.6-2.4,3-2.8,0.6c-0.8-4.4-3.8-8.8-7.6-9.8c-4-1.2-7.6-1.4-14.8-1.4h-5.2c-4.2,0-4.6,0.4-5,3.6c-0.2,1.8-0.4,7.2-0.4,13.4
	v10.8c0,2.4,0,2.2,4.2,2.6h4.2c11.2,0,15.8-0.6,17.6-1.2c2.4-0.8,4-2.6,4.6-3.6c0.6-1,2-0.6,1.8,0.8c-0.4,3.2-1,8.2-1,20
	c0,1.6-2.2,1.8-2.4,0.2c-0.2-1.2-0.8-3-2-5.2c-2-3.4-7-4.6-17.4-4.6h-6c-3,0-3.6,0.2-3.6,2.6v9.4c0,14,0.4,19,1.8,21
	c1.4,2.2,5.8,2.6,13.8,2.6c4.8,0,9.6-0.2,12.6-0.8c3-0.4,5.4-1.8,7.4-3.8c1.6-2,2.8-5,3.6-7.4c0.6-1.6,2.6-1.4,2.6,0.2
	c0,2-0.8,9.6-2,15.6c-0.6,2.6-1.8,2.8-7.2,2.8l-41.4-0.6c-5.8,0-11,0.6-18.4,0.6c-2.2,0-2.2-2.4-0.6-2.6c6.8-1.4,13-2.6,14.4-8.2
	C45.5,128.1,46.1,123.9,46.1,108.5L46.1,108.5z M59.2,10.8c32.2,1,57,18.8,83.5,51.8c7.5,9.2,15,19.7,22,29.7c1,1.2,1.5,1.2,3.5-1.5
	c5.2-7,10.8-14.8,15.3-22.2c3.8-7.2,1.8-8.7-7-11.7c-2.7-0.8-2.5-3.2,0.3-3.2c9,0,14.2,0.8,20,0.8c6,0,11.8-0.8,18.5-0.8
	c3,0,2.8,2.5,0.2,3.2c-13,4.5-14.5,5.8-23.7,16.2c-8.8,9.8-14.5,17-20.8,24.8c-1,1.5-1,2,0.2,3.8c13.8,19.2,25.5,37,40.5,55
	c27.5,33.2,53.2,53.2,82,53.2c19.8,0,28.2-6,33.5-13c3.2-4.2,4.5-8.2,5.8-11.8c0.8-1.8,1.8-1.5,2.8-0.5s1.2,2.5,0.8,4.5
	c-8,21.5-29,30-50,30c-38,0-66-27.2-85-49.5c-10.2-12.2-16.5-21.8-23-30.8l-17.2-25c-1-1.5-1.5-1.8-2.5-0.5
	c-4.5,5.7-14.2,19.2-20.8,30c-6.2,10.5-3.2,11.2,5,14.5c2.7,1,2.7,3.2-0.5,3.2c-6.2,0-12.8-0.8-19-0.8c-6,0-11,0.8-17,0.8
	c-3,0-2.8-2.2-0.5-3.2c13.3-4.8,14.5-6.5,28.8-24l19.2-24.5c2-2.5,2-3,1-4.5c-11.8-17-27.5-38.2-40.3-51.5
	C91.7,29.5,70,18.8,47.5,18.8c-20.8,0-28.8,12.2-30.8,24.8c-0.5,2.8-2.5,3.2-4,2c-1.8-1.2-3.3-4-1.8-7.8c1.5-4,5.5-9.8,11.8-14.8
	C32.5,15,42.5,10.8,59.2,10.8L59.2,10.8z M240,108.5V87.1c0-12,0-15.8-0.8-20.8c-0.8-5.2-5.2-7.4-10.2-8.6c-2.2-0.6-2-2.8,0.2-2.8
	c6.6,0,11.2,0.6,17.4,0.6h20.6c10.6,0,17.4-0.2,19.2-0.8c1-0.6,1.8-0.8,2-0.8c0.4,0,1,0.4,0.8,1.4c-1,4.8-1.4,12.2-1,17.2
	c0.2,2.6-2.4,3-2.8,0.6c-0.8-4.4-3.8-8.8-7.6-9.8c-4-1.2-7.6-1.4-14.8-1.4h-5.2c-4.2,0-4.6,0.4-5,3.6c-0.2,1.8-0.4,7.2-0.4,13.4
	v10.8c0,2.4,0,2.2,4.2,2.6h4.2c11.2,0,15.8-0.6,17.6-1.2c2.4-0.8,4-2.6,4.6-3.6s2-0.6,1.8,0.8c-0.4,3.2-1,8.2-1,20
	c0,1.6-2.2,1.8-2.4,0.2c-0.2-1.2-0.8-3-2-5.2c-2-3.4-7-4.6-17.4-4.6h-6c-3,0-3.6,0.2-3.6,2.6v9.4c0,14,0.4,19,1.8,21
	c1.4,2.2,5.8,2.6,13.8,2.6c4.8,0,9.6-0.2,12.6-0.8c3-0.4,5.4-1.8,7.4-3.8c1.6-2,2.8-5,3.6-7.4c0.6-1.6,2.6-1.4,2.6,0.2
	c0,2-0.8,9.6-2,15.6c-0.6,2.6-1.8,2.8-7.2,2.8l-41.4-0.6c-5.8,0-11,0.6-18.4,0.6c-2.2,0-2.2-2.4-0.6-2.6c6.8-1.4,13-2.6,14.4-8.2
	C239.4,128.1,240,123.9,240,108.5L240,108.5z M327.4,55.5H355l14.4-0.2c3.6-0.2,7.4-1.4,10-3.2c1.2-0.8,2.6-0.2,2.2,1.2
	c-2.2,5.4-2.2,10.6-2.6,18c-0.2,1.8-2,2.2-2.8,0.4c-1.4-3.6-2.8-7-7.8-8.4c-3.4-0.8-8-1.4-17.4-1.4c-2.6,0-2.8,0.6-3,2.2
	c-0.4,1.8-0.8,8.8-0.8,22v19c0,13.4,0,18.4,0.6,23.2c1,6.6,4.4,7.4,12.2,10c2,0.6,1.8,2.6-0.8,2.6c-6.8,0-12-0.6-19.8-0.6
	c-6,0-10.4,0.6-18.6,0.6c-2.4,0-2.4-2-0.4-2.6c7-2,12.6-2.8,13.2-8.2c0.4-2.8,1.2-9,1.2-24V86.3c0-14.2-0.4-18.8-0.4-20.4
	c0-3.4-0.4-4-3-4c-4,0-17-0.2-21.6,2.2c-3,1.8-5,5.8-5.8,8.4c-0.6,2-2.8,1.6-2.8-0.6c0-1.8,1.2-9.8,1.2-18.2c0-2.4,1.4-2.6,2.6-1.4
	c1.2,1.2,2.8,1.8,5,2.4C312,55.3,316,55.5,327.4,55.5L327.4,55.5z M403.4,108.5V87.1c0-12,0-15.8-0.8-20.8
	c-0.8-5.2-5.2-7.4-10.2-8.6c-2.2-0.6-2-2.8,0.2-2.8c6.6,0,11.2,0.6,17.4,0.6h20.6c10.6,0,17.4-0.2,19.2-0.8c1-0.6,1.8-0.8,2-0.8
	c0.4,0,1,0.4,0.8,1.4c-1,4.8-1.4,12.2-1,17.2c0.2,2.6-2.4,3-2.8,0.6c-0.8-4.4-3.8-8.8-7.6-9.8c-4-1.2-7.6-1.4-14.8-1.4h-5.2
	c-4.2,0-4.6,0.4-5,3.6c-0.2,1.8-0.4,7.2-0.4,13.4v10.8c0,2.4,0,2.2,4.2,2.6h4.2c11.2,0,15.8-0.6,17.6-1.2c2.4-0.8,4-2.6,4.6-3.6
	s2-0.6,1.8,0.8c-0.4,3.2-1,8.2-1,20c0,1.6-2.2,1.8-2.4,0.2c-0.2-1.2-0.8-3-2-5.2c-2-3.4-7-4.6-17.4-4.6h-6c-3,0-3.6,0.2-3.6,2.6v9.4
	c0,14,0.4,19,1.8,21c1.4,2.2,5.8,2.6,13.8,2.6c4.8,0,9.6-0.2,12.6-0.8c3-0.4,5.4-1.8,7.4-3.8c1.6-2,2.8-5,3.6-7.4
	c0.6-1.6,2.6-1.4,2.6,0.2c0,2-0.8,9.6-2,15.6c-0.6,2.6-1.8,2.8-7.2,2.8l-41.4-0.6c-5.8,0-11,0.6-18.4,0.6c-2.2,0-2.2-2.4-0.6-2.6
	c6.8-1.4,13-2.6,14.4-8.2C402.8,128.1,403.4,123.9,403.4,108.5L403.4,108.5z M479.4,113.3V81.9c0-7.2-0.6-12-0.8-15.4
	c-0.4-2.6-1-3.6-1.6-4.4c-1.4-1.4-5.8-2-9.6-2.4c-2.6-0.2-2.4-2.2,0-2.6c2.8-0.4,19-2.6,31.8-2.6c30-0.8,31.4,16.8,31.4,22.6
	c0,8.4-4.8,14.8-8.4,17l-4,2.6c-1,0.6-1.4,1.2-0.6,3c6.8,14.2,16.6,26.8,23.6,32.4c6.6,5.4,11.8,6.8,12.6,7c0.8,0.2,1,1.4,0.4,1.6
	c-0.8,0.4-4.2,1.2-8.4,1.2c-7.4,0-15-2.4-19.6-6.4c-7.4-7-12.6-16.4-18.6-28c-1.8-3.8-3.2-4.2-5.4-4c-2.8,0.2-6,0.6-9.2,0.6
	c-1,0-1.2,0.4-1.2,4.2v8.4c0,6.4,0.2,8.6,0.6,11c1.2,6.4,2.6,8.2,11.4,10.6c2.2,0.6,2.2,2.6-0.2,2.6c-5.4,0-11.2-0.6-17-0.6
	c-6,0-12.2,0.6-17.8,0.6c-2.2,0-2.6-2-0.4-2.6c7.6-2,9.4-3.6,10.2-9.4C478.8,126.1,479.4,121.1,479.4,113.3L479.4,113.3z
	 M491.8,75.1v19.4c0,2.2,0.2,2.8,1.8,3c2.6,0.2,5,0.2,9.2,0.2c6.6,0,15.2-3.6,15.2-15c0-12-8-22.6-22-22.6c-2.8,0-3.2,0.6-3.6,2
	C492,63.3,491.8,65.9,491.8,75.1L491.8,75.1z"/>
<path class="st0" d="M140.2,26.9v-9.4c0-3.1-0.1-3.6-0.3-4.2c-0.4-0.9-1.6-1.2-2.6-1.5c-0.5-0.1-0.5-0.7,0.1-0.7
	c2.3,0,3.1,0.2,4.6,0.2c1.7,0,2.7-0.2,4.7-0.2c0.7,0,0.7,0.6,0.2,0.7c-1.2,0.2-1.8,0.6-2.1,1.2c-0.7,1-0.9,3.9-0.9,7.9v4.2
	c0,3.1,0.8,5.4,2,6.4c1,1,2.8,2.1,5.4,2.1c1.3,0,3.3-0.1,4.7-1.6c1.5-1.4,2.3-4.1,2.3-9.3v-4.2c0-2.6-0.3-3.8-0.6-4.6
	c-0.5-1.1-1.4-1.5-3.1-2.1c-0.5-0.2-0.4-0.7,0.1-0.7c1.7,0,3.2,0.2,4.9,0.2c1.4,0,2.6-0.2,3.8-0.2c0.6,0,0.7,0.6,0.1,0.7
	c-1,0.2-1.8,0.7-2.3,1.9c-0.3,0.7-0.5,1.9-0.6,4.3l-0.3,6.7c-0.3,6.8-4.4,11.3-11,11.3c-3.1,0-5.8-0.9-7.4-2.9
	C140.7,31.9,140.2,30.2,140.2,26.9L140.2,26.9z M198.2,23.5v4.1c0,4.3,0.1,6.7,0.2,7.2c0.1,1-0.2,1.1-0.6,1.1
	c-0.5,0-1.1-0.4-1.5-0.7c-0.7-0.6-1.3-1.1-1.4-1.3l-14.1-16.9c-0.2-0.2-0.3,0.1-0.3,0.5c-0.1,0.5-0.1,1.5-0.1,4v4.8
	c0,6.7,1.1,7.5,2.3,7.9l1.7,0.6c0.5,0.2,0.5,0.8-0.3,0.7c-1.4-0.1-2.9-0.2-4.4-0.2c-1.6,0-3.2,0.2-4.4,0.2c-0.7,0-0.7-0.5-0.2-0.7
	l1.1-0.5c0.9-0.3,1.8-1,2.1-1.9c0.3-1.1,0.5-4.7,0.5-8.9v-5.9c0-2.5-0.2-3-0.6-3.8c-0.7-1.2-2.3-1.7-3.5-2.1
	c-0.5-0.1-0.5-0.7,0.1-0.7c1.6,0,3,0.2,4.3,0.2c0.5,0,0.9,0,1.6-0.1c0.9-0.1,1,0,1.1,0.3c0.2,0.6,0.5,1.3,1.5,2.5
	c1.6,2.2,6.3,7.9,12.9,14.9c0.4,0.4,0.5,0.3,0.5-0.2v-5.6c0-3.5-0.2-5.4-0.4-7.5c-0.3-2.7-0.9-3.1-3.7-3.9c-0.6-0.1-0.5-0.7,0.1-0.7
	c1.5,0,3.2,0.2,4.9,0.2c1.5,0,2.8-0.2,4.1-0.2c0.7,0,0.7,0.5,0.1,0.7c-1.4,0.6-2.4,1.1-2.8,3.2C198.5,16.7,198.2,19.7,198.2,23.5
	L198.2,23.5z M217,25.9v-5.1c0-3.4,0-5.6-0.2-6.8c-0.3-1.5-1.6-1.9-2.7-2.2c-0.5-0.1-0.4-0.7,0.3-0.7c2.3,0,3.3,0.2,5,0.2
	c1.3,0,2.3-0.2,3.9-0.2c0.7,0,0.7,0.6,0.1,0.7c-1,0.2-2.3,0.7-2.5,2.1c-0.3,1.4-0.3,3.5-0.3,7v5.1c0,3.4,0,5.5,0.3,6.9
	c0.3,1.3,1.5,1.8,2.8,2.1c0.5,0.1,0.5,0.7-0.2,0.7c-1.9,0-3.2-0.2-4.8-0.2c-1.4,0-2.8,0.2-4.6,0.2c-0.6,0-0.7-0.6-0.1-0.7
	c1.1-0.2,2.4-0.7,2.7-1.8C217,31.4,217,29.4,217,25.9L217,25.9z M256,19.1l-4.8,10.7c-1,2.3-1.5,3.6-1.9,4.3
	c-0.9,1.7-1.6,2.3-1.8,2.3c-0.3,0-0.5-0.2-0.6-0.7l-2.5-7l-4.4-11.5c-1.5-3.6-1.9-4.2-3.3-5l-1-0.5c-0.5-0.2-0.6-0.7,0.2-0.7
	c1.7,0,2.8,0.2,4.2,0.2c1.8,0,3.4-0.2,5.1-0.2c0.7,0,0.7,0.6,0.2,0.7l-1.5,0.6c-1.5,0.7-1.1,1.7-0.3,4c1.7,4.8,3.5,9.3,5.2,13.2
	c0.3,0.8,0.5,0.9,0.9,0c1.8-3.6,4.8-11.2,5.6-13.7c0.7-2.5,0.3-3.2-1.4-3.8l-0.6-0.2c-0.5-0.2-0.4-0.7,0.2-0.7c1.6,0,3,0.2,4.4,0.2
	c1.4,0,2.9-0.2,4.2-0.2c0.7,0,0.6,0.5,0.1,0.7l-1.3,0.6C259,13.1,258.1,14.5,256,19.1L256,19.1z M276.8,26.4v-6.1
	c0-3.4,0-4.5-0.2-5.9c-0.2-1.5-1.5-2.1-2.9-2.4c-0.6-0.2-0.6-0.8,0.1-0.8c1.9,0,3.2,0.2,5,0.2h5.9c3,0,5-0.1,5.5-0.2
	c0.3-0.2,0.5-0.2,0.6-0.2c0.1,0,0.3,0.1,0.2,0.4c-0.3,1.4-0.4,3.5-0.3,4.9c0.1,0.7-0.7,0.9-0.8,0.2c-0.2-1.3-1.1-2.5-2.2-2.8
	c-1.1-0.3-2.2-0.4-4.2-0.4h-1.5c-1.2,0-1.3,0.1-1.4,1c-0.1,0.5-0.1,2.1-0.1,3.8V21c0,0.7,0,0.6,1.2,0.7h1.2c3.2,0,4.5-0.2,5-0.3
	c0.7-0.2,1.1-0.7,1.3-1c0.2-0.3,0.6-0.2,0.5,0.2c-0.1,0.9-0.3,2.3-0.3,5.7c0,0.5-0.6,0.5-0.7,0.1c-0.1-0.3-0.2-0.9-0.6-1.5
	c-0.6-1-2-1.3-5-1.3h-1.7c-0.9,0-1,0.1-1,0.7V27c0,4,0.1,5.4,0.5,6c0.4,0.6,1.7,0.7,3.9,0.7c1.4,0,2.7-0.1,3.6-0.2
	c0.9-0.1,1.5-0.5,2.1-1.1c0.5-0.6,0.8-1.4,1-2.1c0.2-0.5,0.7-0.4,0.7,0.1c0,0.6-0.2,2.7-0.6,4.4c-0.2,0.7-0.5,0.8-2.1,0.8l-11.8-0.2
	c-1.7,0-3.1,0.2-5.2,0.2c-0.6,0-0.6-0.7-0.2-0.7c1.9-0.4,3.7-0.7,4.1-2.3C276.6,32,276.8,30.8,276.8,26.4L276.8,26.4z M307.7,27.8
	v-8.9c0-2.1-0.2-3.4-0.2-4.4c-0.1-0.7-0.3-1-0.5-1.3c-0.4-0.4-1.7-0.6-2.7-0.7c-0.7-0.1-0.7-0.6,0-0.7c0.8-0.1,5.4-0.7,9.1-0.7
	c8.5-0.2,8.9,4.8,8.9,6.4c0,2.4-1.4,4.2-2.4,4.8l-1.1,0.7c-0.3,0.2-0.4,0.3-0.2,0.9c1.9,4,4.7,7.6,6.7,9.2c1.9,1.5,3.4,1.9,3.6,2
	c0.2,0.1,0.3,0.4,0.1,0.5c-0.2,0.1-1.2,0.3-2.4,0.3c-2.1,0-4.3-0.7-5.6-1.8c-2.1-2-3.6-4.7-5.3-8c-0.5-1.1-0.9-1.2-1.5-1.1
	c-0.8,0.1-1.7,0.2-2.6,0.2c-0.3,0-0.3,0.1-0.3,1.2v2.4c0,1.8,0.1,2.5,0.2,3.1c0.3,1.8,0.7,2.3,3.2,3c0.6,0.2,0.6,0.7-0.1,0.7
	c-1.5,0-3.2-0.2-4.8-0.2c-1.7,0-3.5,0.2-5.1,0.2c-0.6,0-0.7-0.6-0.1-0.7c2.2-0.6,2.7-1,2.9-2.7C307.5,31.4,307.7,30,307.7,27.8
	L307.7,27.8z M311.2,16.9v5.5c0,0.6,0.1,0.8,0.5,0.9c0.7,0.1,1.4,0.1,2.6,0.1c1.9,0,4.3-1,4.3-4.3c0-3.4-2.3-6.4-6.3-6.4
	c-0.8,0-0.9,0.2-1,0.6C311.3,13.5,311.2,14.3,311.2,16.9L311.2,16.9z M348.4,10.6c2.2,0,3.3,0.7,3.8,1.1c0.6,0.4,0.6,0.9,0.6,1.2
	c0,0.3-0.1,0.6-0.2,1c-0.1,0.5-0.2,1.2-0.2,2.2c0,0.6-0.7,0.6-0.8-0.1c-0.1-0.5-0.3-1.1-1-2c-1-1.1-2.3-1.7-3.9-1.7
	c-1.9,0-3.4,1.3-3.4,3.6c0,3.1,2.3,4.3,4.7,5.2c3.4,1.2,6.3,2.5,6.3,6.6c0,3.2-2,5.4-3.5,6.5c-1.8,1.3-3.8,1.9-5.6,1.9
	c-1.8,0-3.3-0.4-4.4-1c-1-0.7-1.7-1.4-1.9-2.2c-0.1-0.4,0.2-1,0.5-1.4c0.3-0.5,0.7-1.7,1-2.2c0.2-0.4,0.7-0.3,0.7,0.2
	c0,0.3,0,0.9,0.4,1.7c0.7,1.5,3.2,2.9,5.4,2.9c2.7,0,4.2-1.5,4.2-4.4c0-3-2.2-4.4-5.2-5.5c-3.9-1.4-5.7-3.2-5.7-6.2
	c0-1.5,0.5-3.2,2.2-4.9C343.8,11.7,345.9,10.6,348.4,10.6L348.4,10.6z M370,25.9v-5.1c0-3.4,0-5.6-0.2-6.8c-0.3-1.5-1.6-1.9-2.7-2.2
	c-0.5-0.1-0.4-0.7,0.3-0.7c2.3,0,3.3,0.2,5,0.2c1.3,0,2.3-0.2,3.9-0.2c0.7,0,0.7,0.6,0.1,0.7c-1,0.2-2.3,0.7-2.5,2.1
	c-0.3,1.4-0.3,3.5-0.3,7v5.1c0,3.4,0,5.5,0.3,6.9c0.3,1.3,1.5,1.8,2.8,2.1c0.5,0.1,0.5,0.7-0.2,0.7c-1.9,0-3.2-0.2-4.8-0.2
	c-1.4,0-2.8,0.2-4.6,0.2c-0.6,0-0.7-0.6-0.1-0.7c1.1-0.2,2.5-0.7,2.7-1.8C370,31.4,370,29.4,370,25.9L370,25.9z M396.6,11.3h7.9
	l4.1-0.1c1-0.1,2.1-0.4,2.8-0.9c0.3-0.2,0.7-0.1,0.6,0.3c-0.6,1.5-0.6,3-0.7,5.1c-0.1,0.5-0.6,0.6-0.8,0.1c-0.4-1-0.8-2-2.2-2.4
	c-1-0.2-2.3-0.4-5-0.4c-0.7,0-0.8,0.2-0.9,0.6c-0.1,0.5-0.2,2.5-0.2,6.3v5.4c0,3.8,0,5.2,0.2,6.6c0.3,1.9,1.3,2.1,3.5,2.8
	c0.6,0.2,0.5,0.7-0.2,0.7c-1.9,0-3.4-0.2-5.6-0.2c-1.7,0-3,0.2-5.3,0.2c-0.7,0-0.7-0.6-0.1-0.7c2-0.6,3.6-0.8,3.8-2.3
	c0.1-0.8,0.3-2.6,0.3-6.8v-5.6c0-4-0.1-5.4-0.1-5.8c0-1-0.1-1.1-0.9-1.1c-1.1,0-4.8-0.1-6.2,0.6c-0.9,0.5-1.4,1.7-1.7,2.4
	c-0.2,0.6-0.8,0.5-0.8-0.2c0-0.5,0.3-2.8,0.3-5.2c0-0.7,0.4-0.7,0.7-0.4c0.3,0.3,0.8,0.5,1.4,0.7C392.2,11.2,393.3,11.3,396.6,11.3
	L396.6,11.3z M436.2,25.9v2.9c0,2.1,0.1,3.5,0.4,4.1c0.3,1,1.1,1.4,3,2c0.5,0.2,0.5,0.7-0.2,0.7c-1.5,0-3.4-0.2-5-0.2
	c-1.9,0-3.4,0.2-5.2,0.2c-0.6,0-0.7-0.6-0.2-0.7c1.1-0.3,2.6-0.7,3.1-1.5c0.3-0.5,0.6-1.6,0.6-4v-2.9c0-1.1-0.2-1.7-0.6-2.4
	c-1.4-2.9-2.9-5.5-4.6-8.1c-1.9-3-2.2-3.5-3.9-4c-0.6-0.2-0.6-0.7,0-0.7c1.6,0,3.2,0.2,4.3,0.2c1.5,0,2.7-0.2,4.4-0.2
	c0.7,0,0.7,0.6,0.2,0.7c-2.1,0.7-2.5,0.9-1.5,2.8c0.9,1.9,2.7,5,4.3,7.5c0.3,0.4,0.5,0.3,0.7-0.2c1.2-1.9,3.1-5,4-7.3
	c0.8-1.8,0.3-2.2-1.5-2.8c-0.5-0.1-0.4-0.7,0.3-0.7c1.5,0,2.6,0.2,4.1,0.2c1.1,0,2.3-0.2,3.5-0.2c0.6,0,0.7,0.6,0.1,0.7
	c-2.5,0.9-2.9,1.4-4.6,3.6c-2.1,2.7-4.2,6.1-5.2,8C436.4,24.3,436.2,25.1,436.2,25.9L436.2,25.9z M488.3,10.6
	c7.1,0,11.5,5.4,11.5,12.1c0,3.9-1.3,6.8-3.2,8.9c-2.4,2.7-6,4.4-10.2,4.4c-6.7,0-11.7-4.8-11.7-12.4c0-3.6,1.3-7,4.2-9.5
	C481.5,11.8,485,10.6,488.3,10.6L488.3,10.6z M488.1,34.3c5.6,0,7.5-4.6,7.5-10c0-6.4-2.7-11.9-9.3-11.9c-5.9,0-7.5,5.7-7.5,10.5
	C478.9,28.8,481.8,34.3,488.1,34.3L488.1,34.3z M515.1,26.4v-6.1c0-2.9-0.1-4.4-0.2-5.4c-0.2-2-1.4-2.7-3.2-3.1
	c-0.5-0.1-0.5-0.7,0.1-0.7c1.9,0,3.6,0.2,5.5,0.2h7.2c1.6,0,3.3-0.1,4-0.4c0.2-0.1,0.5-0.1,0.5,0.3c-0.2,1.4-0.5,3.5-0.4,4.9
	c0.1,0.6-0.6,0.7-0.8,0.2c-0.2-1-0.9-2.4-2.2-2.8c-1.1-0.3-2.2-0.4-4.2-0.4h-1.7c-0.7,0-0.8,0.2-0.9,0.8c-0.1,0.7-0.2,2.4-0.2,4v3.5
	c0,0.7,0,0.8,1.2,0.8h1.4c2.9,0,4.2-0.1,4.7-0.2c0.6-0.2,1.1-0.4,1.3-0.9c0.2-0.5,0.7-0.3,0.6,0.1c-0.1,0.9-0.3,2.7-0.2,5.8
	c0,0.4-0.7,0.5-0.7,0.1c-0.2-0.5-0.3-1-0.7-1.7c-0.6-1.1-2.1-1.4-5-1.4H520c-1.3,0-1.4,0.1-1.4,0.8v1.7c0,4.1,0.1,5,0.3,5.9
	c0.2,1.3,1.4,1.8,3.5,2.4c0.5,0.1,0.5,0.7-0.3,0.7c-1.3,0-2.6-0.2-4.6-0.2c-1.9,0-3.6,0.2-5.6,0.2c-0.6,0-0.6-0.6-0.2-0.7
	c1.3-0.4,2.7-1,3-2.2C514.9,31.6,515.1,30.7,515.1,26.4L515.1,26.4z"/>
</svg>
