<svg xmlns="http://www.w3.org/2000/svg" height="43" viewBox="0 0 652 56" width="496" version="1.1" fill="#005789">
<path id="logo" d="m625.7 15.9h6.8v3.6h0.2c1.8-2.9 5-4.4 8-4.4 7.6 0 9.6 4.3 9.6 10.8v16.1h-7.2v-14.8c0-4.3-1.3-6.4-4.6-6.4-3.9 0-5.6 2.2-5.6 7.5v13.7h-7.2v-26.1zm-16.4 21.4c4.9 0 6.4-4.2 6.4-8.3 0-4.2-1.5-8.4-6.4-8.4s-6.3 4.2-6.3 8.4c-.1 4.1 1.4 8.3 6.3 8.3zm0-22.2c8.2 0 13.6 5.5 13.6 13.8s-5.3 13.8-13.6 13.8c-8.2 0-13.5-5.5-13.5-13.8-.1-8.3 5.3-13.8 13.5-13.8zm-23.8 .8h7.2v26.2h-7.2v-26.2zm7.2-4.1h-7.2v-5.9h7.2v5.9zm-14.4 4.1h5.3v4.8h-5.3v13c0 2.4 .6 3 3 3 .8 0 1.5-.1 2.2-.2v5.6c-1.2 .2-2.8 .3-4.2 .3-4.4 0-8.2-1-8.2-6.2v-15.5h-4.4v-4.8h4.4v-7.8h7.2v7.8zm-12.8 26.1h-6.8v-3.6h-.2c-1.8 2.9-5 4.4-8 4.4-7.6 0-9.6-4.3-9.6-10.8v-16.1h7.2v14.8c0 4.3 1.3 6.4 4.6 6.4 3.9 0 5.6-2.2 5.6-7.5v-13.7h7.2v26.1zm-35.6-36.1h7.2v36.1h-7.2v-36.1zm-16.6 31.4c4.9 0 6.4-4.2 6.4-8.3 0-4.2-1.5-8.4-6.4-8.4s-6.3 4.2-6.3 8.4c0 4.1 1.4 8.3 6.3 8.3zm0-22.2c8.2 0 13.6 5.5 13.6 13.8s-5.3 13.8-13.6 13.8c-8.2 0-13.5-5.5-13.5-13.8s5.3-13.8 13.5-13.8zm-22.8 26.9h-8l-9-26.2h7.5l5.5 17.9h0.1l5.5-17.9h7.1l-8.7 26.2zm-44.7-36.1h27v6.7h-19.1v7.7h17.6v6.2h-17.5v8.9h19.5v6.7h-27.4v-36.2zm-29.5 4.4c-1.7 0-3.2 1.3-3.2 3.2 0 2.3 1.5 3.7 2.8 5.4 2-1.3 3.7-2.5 3.7-5.2-.1-1.8-1.6-3.4-3.3-3.4zm-2.6 15.8c-2.5 1.1-5.1 3-5.1 6 0 2.6 2.4 4.8 5.2 4.8 2.6 0 4.4-1.3 6.1-3.2l-6.2-7.6zm1e1 12.3c-2.9 2.8-6.1 4.3-10.2 4.3-6.5 0-11.7-4-11.7-10.8 0-5.1 3.8-8.5 8.1-10.5-1.9-2.4-3.4-4.6-3.4-7.7 0-5 4.6-8.2 9.4-8.2 5.5 0 9.9 2.9 9.9 8.7 0 4.2-2.8 7.1-6.4 9l4.7 5.7c0.7-1.3 1.1-2.8 1.3-4.3h6.2c-.4 3.2-1.5 6.4-3.5 8.9l7.3 8.6h-8.8l-2.9-3.7zm-41.6 6.9c-1.6 4.2-4 5.9-9 5.9-1.5 0-2.9-.1-4.4-.3v-5.9c1.4 .1 2.8 .3 4.2 .3 2.5-.3 3.3-2.8 2.5-4.9l-9.2-24.5h7.7l5.9 17.9h0.1l5.7-17.9h7.4l-10.9 29.4zm-23.7-16.7c0-4.2-1.5-8-6.1-8-4 0-5.8 3.5-5.8 7.4 0 3.7 1.4 7.8 5.8 7.8 4.1 0 6.1-3.5 6.1-7.2zm6.9 11.7c0 4.3-1.5 11.6-13.6 11.6-5.2 0-11.2-2.4-11.5-8.4h7.1c0.7 2.7 2.8 3.6 5.4 3.6 4 0 5.8-2.7 5.8-6.5v-3.4h-.2c-1.6 2.7-4.7 4-7.8 4-7.8 0-11.2-6-11.2-13.2 0-6.8 3.9-13 11.2-13 3.4 0 6.1 1.2 7.8 4.2h0.1v-3.5h6.8v24.6zm-41.6-3c4.9 0 6.4-4.2 6.4-8.3 0-4.2-1.5-8.4-6.4-8.4s-6.3 4.2-6.3 8.4c-.1 4.1 1.4 8.3 6.3 8.3zm0-22.2c8.2 0 13.6 5.5 13.6 13.8s-5.3 13.8-13.6 13.8c-8.2 0-13.5-5.5-13.5-13.8s5.3-13.8 13.5-13.8zm-23.8-9.2h7.2v36.1h-7.2v-36.1zm-16.6 31.4c4.9 0 6.4-4.2 6.4-8.3 0-4.2-1.5-8.4-6.4-8.4s-6.3 4.2-6.3 8.4c-.1 4.1 1.4 8.3 6.3 8.3zm0-22.2c8.2 0 13.6 5.5 13.6 13.8s-5.3 13.8-13.6 13.8c-8.2 0-13.5-5.5-13.5-13.8-.1-8.3 5.3-13.8 13.5-13.8zm-22.2 1e1c-.5-2.9-2.3-4.5-5.3-4.5-4.6 0-6.1 4.7-6.1 8.5 0 3.7 1.5 8.2 6 8.2 3.3 0 5.3-2.1 5.7-5.3h6.9c-.9 6.9-5.7 10.7-12.6 10.7-7.9 0-13.2-5.6-13.2-13.4 0-8.1 4.9-14.2 13.4-14.2 6.2 0 11.8 3.2 12.3 9.9h-7.1zm-48.1-19.2h27v6.7h-19.1v7.7h17.5v6.2h-17.5v8.9h19.5v6.7h-27.4v-36.2zm-37.6 1e1h6.8v3.6h0.2c1.8-2.9 5-4.4 8-4.4 7.6 0 9.6 4.3 9.6 10.8v16.1h-7.2v-14.8c0-4.3-1.3-6.4-4.6-6.4-3.9 0-5.6 2.2-5.6 7.5v13.7h-7.2v-26.1zm-11.1 0h7.2v26.2h-7.2v-26.2zm7.2-4.1h-7.2v-5.9h7.2v5.9zm-35.8 21.7c0.1 3.1 2.7 4.4 5.5 4.4 2.1 0 4.7-.8 4.7-3.3 0-2.2-3-2.9-8.1-4-4.1-.9-8.3-2.4-8.3-7 0-6.7 5.8-8.4 11.4-8.4 5.7 0 11 1.9 11.5 8.3h-6.8c-.2-2.8-2.3-3.5-4.9-3.5-1.6 0-4 .3-4 2.4 0 2.6 4 2.9 8.1 3.9 4.2 1 8.3 2.5 8.3 7.3 0 6.9-6 9.1-11.9 9.1-6.1 0-12-2.3-12.3-9.2h6.8zm-22.3-12.9c-4.7 0-6.3 4-6.3 8.3 0 4.1 1.9 8.4 6.3 8.4 4.8 0 6.2-4.1 6.2-8.4s-1.6-8.3-6.2-8.3zm6.3 18.1h-.1c-1.7 2.8-4.6 4-7.9 4-7.9 0-11.7-6.8-11.7-14 0-7 3.9-13.6 11.6-13.6 3.1 0 6.1 1.3 7.7 3.9h0.1v-13.1h7.2v36.1h-6.8v-3.3zm-46.9-22.8h6.8v3.6h0.2c1.8-2.9 5-4.4 8-4.4 7.6 0 9.6 4.3 9.6 10.8v16.1h-7.2v-14.8c0-4.3-1.3-6.4-4.6-6.4-3.9 0-5.6 2.2-5.6 7.5v13.7h-7.2v-26.1zm-9.7 10.2c-.7-3.6-2.2-5.6-5.7-5.6-4.6 0-5.9 3.5-6 5.6h11.7zm-11.7 4.6c0.2 4.6 2.4 6.6 6.4 6.6 2.9 0 5.2-1.8 5.7-3.4h6.3c-2 6.2-6.3 8.8-12.2 8.8-8.2 0-13.4-5.7-13.4-13.8 0-7.8 5.4-13.8 13.4-13.8 8.9 0 13.2 7.5 12.7 15.5h-18.9zm-22.9-14.8h6.8v4.8h0.1c1.3-3.3 4.9-5.6 8.3-5.6 .5 0 1.1 .1 1.6 .3v6.7c-.7-.2-1.7-.3-2.6-.3-5.3 0-7.1 3.8-7.1 8.4v11.8h-7.2v-26.1zm-15.7-3.3h-10.8v-6.7h29.6v6.7h-10.8v29.4h-7.9v-29.4z"/>
</svg>
