<svg xmlns="http://www.w3.org/2000/svg" width="124" height="11.985" viewBox="-9.324 -0.506 124 11.985"><path fill="#666" d="M57.503 4.188c0-2.477-2.122-3.358-4.104-3.358-1.013 0-2.537 0-3.414.03v10.3h2.569V8.015h.781l.439-.014.021-.003.016.017c.425.68.968 1.777 1.142 3.146l1.37.001h.729l.711-.001c-.239-1.576-1.099-3.156-1.593-3.959l-.017-.028.024-.018c.853-.682 1.326-1.734 1.326-2.968zm-2.726.36c0 1.063-.45 1.538-1.458 1.538-.324 0-.536 0-.732-.017l-.033-.002V2.783l.035-.002c.227-.016.523-.016.762-.016 1.189-.001 1.426.683 1.426 1.783zm-6.683 6.612V9.144h-3.688V6.88h3.33V4.888h-3.33V2.855h3.638V.845h-6.097v8.487c0 .011-.015.814.521 1.368.334.348.811.523 1.418.525 1.871.013 3.918-.054 4.208-.065zm-11.517.319c.999 0 2.5-.256 3.619-.832V5.518h-3.389v1.76h1.07v2.104l-.023.01c-.258.093-.874.14-1.131.14-1.357 0-1.886-1.002-1.886-3.567 0-2.255.781-3.351 2.386-3.351.537 0 1.32.239 2.154.657l.695-1.719A6.374 6.374 0 0 0 36.82.618c-1.558 0-2.679.437-3.433 1.333-.747.893-1.108 2.216-1.108 4.045.003 3.996 1.167 5.483 4.298 5.483zm-8.661-.319h2.708V.847H28.35v6.747L25.274.847h-2.81V11.16h2.262V4.653l3.19 6.507zm-10.276 0h2.566V.862H17.64V11.16zm-3.223-3.958l-.017-.029.025-.017c.856-.682 1.329-1.735 1.329-2.967 0-2.477-2.12-3.358-4.105-3.358-1.013 0-2.536 0-3.414.03v10.297h2.569V8.016h.781l.439-.014.02-.001.012.015c.427.681.97 1.776 1.144 3.145l1.37.001h.727l.714-.001c-.238-1.576-1.1-3.155-1.594-3.959zm-1.389-2.654c0 1.063-.451 1.538-1.459 1.538-.322 0-.537 0-.73-.017l-.034-.002V2.783l.034-.002c.227-.016.523-.016.762-.016 1.191-.001 1.427.683 1.427 1.783zm-6.083-.397C6.945 2.009 5.587.83 3.119.83 2.106.83.583.83-.296.86v10.3h2.57V8.015h.78c1.17 0 3.891-.375 3.891-3.864zM4.5 4.548c0 1.063-.451 1.538-1.459 1.538-.323 0-.536 0-.732-.017l-.034-.003V2.783l.034-.002c.228-.016.525-.016.763-.016 1.19-.001 1.428.684 1.428 1.783zM-6.362 2.819c0-.577.374-1.161 1.21-1.161.606 0 1.327.202 2.264.634l.932-1.861C-3.039-.201-4.149-.506-5.35-.506c-2.33 0-3.721 1.25-3.721 3.341s1.626 2.898 2.933 3.547c.948.471 1.766.878 1.766 1.642 0 .661-.59 1.106-1.466 1.106-.703 0-1.561-.26-2.551-.768l-.934 1.993c1.252.71 2.397 1.024 3.703 1.024 2.419 0 3.865-1.341 3.865-3.581 0-2.121-1.626-2.882-2.931-3.493-.899-.419-1.677-.783-1.677-1.488h.001zm117.359 6.325V6.88h3.33V4.888h-3.33V2.855h3.636V.845h-6.096v8.487c0 .011-.017.814.52 1.368.335.348.811.523 1.417.527 1.869.01 3.918-.058 4.202-.068V9.144h-3.685.006zm-5.554-1.945l-.016-.026.024-.02c.856-.679 1.328-1.733 1.328-2.965 0-2.477-2.121-3.358-4.104-3.358-1.014 0-2.537 0-3.416.031v10.297h2.57V8.015h.781l.439-.014.02-.003.013.017c.427.68.972 1.777 1.146 3.146l1.369.001h.724l.716-.001c-.238-1.576-1.1-3.156-1.594-3.959v-.003zm-1.388-2.651c0 1.062-.452 1.537-1.46 1.537-.322 0-.534 0-.73-.016l-.035-.002V2.782l.035-.001c.227-.016.523-.016.763-.016 1.188-.001 1.427.683 1.427 1.783zm-6.694 2.918V.846h-2.66v6.867c0 1.056-.061 1.703-1.244 1.703-1.135 0-1.324-.531-1.324-1.719V.846h-2.661v6.99c0 2.459 1.194 3.555 3.872 3.555 2.74 0 4.017-1.248 4.017-3.926v.001zM85.954 2.949h1.975V.846h-6.966V2.95h2.316v8.211h2.674l.001-8.212zm-7.849 8.211h2.763L78.391.847h-4.006L71.872 11.16h2.622l.368-1.639h2.872l.369 1.639h.002zm-.67-3.587h-2.271l1.07-4.484h.105l.008.027 1.088 4.457zM67.357 11.16h3.036V-.401h-2.47l.103 8.064-3.779-8.064h-2.998V11.16h2.378l-.019-7.98.069.144 3.68 7.836z"/></svg>