<svg id="Layer_1" data-name="Layer 1" xmlns="http://www.w3.org/2000/svg" viewBox="0 0 224.64 49.93"><defs><style>.cls-1{fill:none;}.cls-2{fill:#1E7B85;}.cls-3{fill:#00293f;}</style></defs><title>scribd_logo_horiz_small</title><path class="cls-1" d="M185.74,18.66c0-2.61-2.05-4.29-5.78-4.29H172v9h7.72C183.28,23.36,185.74,21.75,185.74,18.66Z"/><path class="cls-1" d="M140.33,19.63c0-3.24-2.46-5.18-6.68-5.18H125.6V25h8C137.53,25,140.33,23,140.33,19.63Z"/><path class="cls-1" d="M180.26,26H172v9.21h8.76c4,0,6.41-1.75,6.41-4.7S184.81,26,180.26,26Z"/><path class="cls-1" d="M210.77,14.44h-6.12V35.1h6.12c6.6,0,10.81-4.48,10.81-10.29S217.37,14.44,210.77,14.44Z"/><path class="cls-2" d="M4.47,24.61a8.3,8.3,0,0,0,6.68,3,7.15,7.15,0,0,0,5.45-2.1,7,7,0,0,0,2-5,6,6,0,0,0-1.93-4.71,6.11,6.11,0,0,0-4.11-1.71,9.26,9.26,0,0,0-1.79.23,7.51,7.51,0,0,1-1.43.27q-1.59,0-1.59-1.92,0-3.23,3.22-5.55a15.19,15.19,0,0,1,1.93-1.18,16.08,16.08,0,0,1,6.65-1.32,23,23,0,0,1,13,3.78l-2.84,4.08,3.94,2.6,5.34-7.62L37.27,6.11A27.57,27.57,0,0,0,19.52,0C9.12,0,1.85,6.38,1.85,15.52v0.12c0,0.17,0,.35,0,0.53C1.86,19.76,2.77,22.6,4.47,24.61Z"/><path class="cls-2" d="M31.35,22.22a7.15,7.15,0,0,0-5.45,2.1,7,7,0,0,0-2,5A6,6,0,0,0,25.84,34,6.11,6.11,0,0,0,30,35.75a9.22,9.22,0,0,0,1.79-.23,7.5,7.5,0,0,1,1.43-.27q1.59,0,1.59,1.92a6,6,0,0,1-.15,1.34c-1.76,4.32-6.29,6.8-12.83,6.8a25.37,25.37,0,0,1-15.22-5l3.56-4.16L6.41,33.25,0,40.84,1.63,42.3a30.13,30.13,0,0,0,20.15,7.63c0.84,0,1.65,0,2.44-.11A19,19,0,0,0,35.9,45.27q4.67-4.21,4.67-11.63,0-5.38-2.54-8.4A8.3,8.3,0,0,0,31.35,22.22Z"/><rect class="cls-3" x="155.2" y="11.72" width="2.95" height="26.1"/><path class="cls-3" d="M184.58,24.33a6.32,6.32,0,0,0,4.14-6.08c0-4-3.36-6.53-8.5-6.53H169.1v26.1h11.6c5.71,0,9.47-2.65,9.47-7.16C190.17,27,187.67,25.26,184.58,24.33ZM172,14.37H180c3.73,0,5.78,1.68,5.78,4.29,0,3.1-2.46,4.7-6,4.7H172v-9Zm8.76,20.81H172V26h8.24c4.55,0,6.94,1.64,6.94,4.51S184.73,35.18,180.78,35.18Z"/><path class="cls-3" d="M103.58,35.55c-5.74,0-10.11-4.74-10.11-10.81S97.8,14,103.58,14a11.35,11.35,0,0,1,8.2,3.58l2-2.16a13.59,13.59,0,0,0-10.18-4.14c-7.68,0-13.2,6.08-13.2,13.54S96,38.27,103.51,38.27A13.59,13.59,0,0,0,114,33.69L112,31.79C109.51,34.17,107.16,35.55,103.58,35.55Z"/><path class="cls-3" d="M74.08,23.36C68.33,22.13,67,20.75,67,18.25S69.15,14,72.55,14a11.47,11.47,0,0,1,7.53,2.83l1.72-2.27a13.62,13.62,0,0,0-9.17-3.21c-5,0-8.58,3-8.58,7.16s2.76,6.27,8.76,7.57c5.48,1.16,6.79,2.54,6.79,5,0,2.65-2.31,4.48-5.82,4.48a12.43,12.43,0,0,1-9-3.69L63,34A15.27,15.27,0,0,0,73.67,38.2c5.18,0,8.91-2.91,8.91-7.42C82.58,26.75,79.89,24.63,74.08,23.36Z"/><path class="cls-3" d="M143.31,19.52c0-4.7-3.69-7.79-9.44-7.79H122.65v26.1h2.95V27.68h7.46l7.57,10.14h3.62l-8-10.67C140.33,26.42,143.31,23.88,143.31,19.52ZM125.6,25V14.44h8.06c4.21,0,6.68,1.94,6.68,5.18S137.53,25,133.61,25h-8Z"/><path class="cls-3" d="M210.77,11.72h-9.06v26.1h9.06c8.2,0,13.87-5.71,13.87-13.09S219,11.72,210.77,11.72Zm0,23.38h-6.12V14.44h6.12c6.6,0,10.81,4.55,10.81,10.37S217.37,35.1,210.77,35.1Z"/></svg>