<?xml version="1.0" encoding="utf-8"?>
<!-- Generator: Adobe Illustrator 19.1.0, SVG Export Plug-In . SVG Version: 6.00 Build 0)  -->
<svg version="1.1" id="Layer_1" xmlns="http://www.w3.org/2000/svg" xmlns:xlink="http://www.w3.org/1999/xlink" x="0px" y="0px"
	 viewBox="0 25 300 58" style="enable-background:new 0 25 300 58;" xml:space="preserve">
<style type="text/css">
	.st0{fill:#231F20;}
	.st1{fill:#E21B23;}
</style>
<path class="st0" d="M45.8,67.9c-1,1.2-2.3,1.7-3.7,1.7c-1.2,0-2.4-0.5-3.3-1.4s-1.4-2.1-1.4-3.3c0-1.2,0.3-2.1,1-2.8l23.9-32.1
	c1-1.6,2.6-2.8,4.4-3.7c1.7-0.9,3.8-1.4,5.9-1.4c1.9,0,3.8,0.3,5.6,1.2c1.7,0.9,3.1,2.1,4.4,3.5l23.7,31.9c0.3,0.5,0.7,1,1,1.6
	c0.2,0.5,0.3,1.2,0.3,1.7c0,1.2-0.5,2.4-1.4,3.3s-2.1,1.4-3.3,1.4c-1.6,0-2.8-0.7-3.7-1.9l-23-30.3c-0.5-0.5-1-1-1.7-1.7
	s-1.4-0.9-2.1-0.9s-1.4,0.3-2.1,0.9c-0.7,0.7-1.2,1.2-1.6,1.7L45.8,67.9"/>
<path class="st0" d="M200.1,64.9c0,1.2-0.5,2.4-1.4,3.3s-2.1,1.4-3.3,1.4s-2.4-0.5-3.3-1.4s-1.4-2.1-1.4-3.3V43.6c0-2.6-0.2-4-0.5-4
	c-0.3,0-1.2,0.9-2.8,2.6l-21.6,24.4c-0.9,1-1.9,1.7-3.1,2.3c-1.2,0.5-2.6,0.7-4,0.7s-2.8-0.2-4-0.7c-1.2-0.5-2.3-1.2-3.1-2.3
	l-21.6-24.4c-1.6-1.7-2.4-2.6-2.8-2.6c-0.3,0-0.5,1.4-0.5,4v21.3c0,1.2-0.5,2.4-1.4,3.3c-0.9,0.9-2.1,1.4-3.3,1.4
	c-1.4,0-2.4-0.5-3.3-1.4s-1.4-2.1-1.4-3.3V36.3c0-2.6,0.7-4.9,2.3-6.6s3.5-2.8,6.1-2.8c1.6,0,3,0.3,4.2,1.2c1.2,0.9,2.4,1.7,3.5,2.8
	L156,56.5c0.3,0.3,0.7,0.7,1.2,1c0.5,0.3,1,0.5,1.6,0.5s1-0.2,1.6-0.5s0.9-0.7,1.2-1L184,30.9h0.2c0.9-1.2,2.1-2.3,3.3-3
	c1.2-0.7,2.8-1,4.4-1c2.6,0,4.7,0.9,6.1,2.8c1.6,1.7,2.3,4,2.3,6.6v28.6"/>
<path class="st1" d="M217.9,68.2c-0.9,0.9-2.1,1.4-3.3,1.4c-1.4,0-2.4-0.5-3.3-1.4s-1.4-2.1-1.4-3.3V31.6c0-1.2,0.5-2.4,1.4-3.3
	c0.9-0.9,2.1-1.4,3.3-1.4c1.2,0,2.4,0.5,3.3,1.4c0.9,0.9,1.4,2.1,1.4,3.3v33.3C219.2,66.3,218.7,67.4,217.9,68.2"/>
<path class="st0" d="M237.4,67.9c-1,1.2-2.3,1.7-3.7,1.7c-1.4,0-2.4-0.5-3.3-1.4s-1.4-2.1-1.4-3.3c0-1.2,0.3-2.1,1-2.8l23.9-32.1
	c1-1.6,2.6-2.8,4.4-3.7c1.7-0.9,3.8-1.4,5.9-1.4c1.9,0,3.8,0.3,5.6,1.2c1.7,0.9,3.1,2.1,4.4,3.5L298,61.6c0.3,0.5,0.7,1,1,1.6
	c0.2,0.5,0.3,1.2,0.3,1.7c0,1.2-0.5,2.4-1.4,3.3c-0.9,0.9-2.1,1.4-3.3,1.4c-1.6,0-2.8-0.7-3.7-1.9l-23.2-30.3c-0.5-0.5-1-1-1.7-1.7
	c-0.7-0.7-1.4-0.9-2.1-0.9c-0.7,0-1.4,0.3-2.1,0.9c-0.7,0.7-1.2,1.2-1.6,1.7L237.4,67.9"/>
<path class="st0" d="M3.1,71.5c-1.9,0-3.1,2.1-3.1,3.7C0,81.6,9.8,83,13.6,83c5.4,0,14.6-2.1,14.6-15.7V31.6c0-3.1-1.7-5.1-4.7-5.1
	s-4.7,1.9-4.7,5.1v34.7c0,2.4,0,8-5.8,8c-2.1,0-4-0.9-5.8-1.7C5.8,72.1,4.5,71.5,3.1,71.5"/>
<g>
	<path class="st0" d="M38.9,77h0.8l2,5.4h-0.8l-0.6-1.6h-2.1l-0.6,1.6h-0.7L38.9,77z M40.1,80.2l-0.8-2.4l-0.9,2.4H40.1z"/>
	<path class="st0" d="M44.5,80.6c0,0.3,0.1,0.6,0.2,0.7c0.2,0.4,0.6,0.5,1.2,0.5c0.3,0,0.5,0,0.7-0.1c0.4-0.1,0.6-0.4,0.6-0.8
		c0-0.3-0.1-0.5-0.3-0.6c-0.2-0.1-0.5-0.2-0.8-0.3l-0.7-0.2c-0.5-0.1-0.8-0.2-1-0.4c-0.3-0.2-0.5-0.6-0.5-1c0-0.5,0.2-0.9,0.5-1.2
		c0.3-0.3,0.8-0.5,1.4-0.5c0.5,0,1,0.1,1.4,0.4c0.4,0.3,0.6,0.7,0.6,1.3h-0.7c0-0.3-0.1-0.5-0.2-0.7c-0.2-0.3-0.6-0.4-1.1-0.4
		c-0.4,0-0.7,0.1-0.9,0.3c-0.2,0.2-0.3,0.4-0.3,0.6c0,0.3,0.1,0.5,0.3,0.6c0.1,0.1,0.5,0.2,0.9,0.3l0.7,0.2c0.4,0.1,0.6,0.2,0.8,0.3
		c0.3,0.3,0.5,0.6,0.5,1.1c0,0.6-0.2,1-0.6,1.3c-0.4,0.3-0.9,0.4-1.5,0.4c-0.7,0-1.2-0.2-1.5-0.5c-0.4-0.3-0.5-0.8-0.5-1.4H44.5z"/>
	<path class="st0" d="M52.8,77.4c0.4,0.4,0.6,0.8,0.6,1.2h-0.7c-0.1-0.3-0.2-0.6-0.5-0.8c-0.2-0.2-0.6-0.3-1-0.3
		c-0.5,0-0.9,0.2-1.3,0.6s-0.5,0.9-0.5,1.7c0,0.6,0.1,1.1,0.4,1.5c0.3,0.4,0.7,0.6,1.3,0.6c0.5,0,0.9-0.2,1.2-0.6
		c0.1-0.2,0.3-0.5,0.3-0.9h0.7c-0.1,0.6-0.3,1-0.6,1.4c-0.4,0.5-1,0.7-1.7,0.7c-0.6,0-1.1-0.2-1.6-0.6c-0.6-0.5-0.8-1.3-0.8-2.3
		c0-0.8,0.2-1.4,0.6-2c0.4-0.6,1.1-0.8,1.9-0.8C51.9,76.8,52.5,77,52.8,77.4z"/>
	<path class="st0" d="M54.5,77h0.7v2.2H58V77h0.7v5.4H58v-2.5h-2.8v2.5h-0.7V77z"/>
	<path class="st0" d="M64.3,77.8c0.4,0.5,0.5,1.1,0.5,1.8c0,0.8-0.2,1.5-0.6,2c-0.5,0.6-1.2,0.9-2,0.9c-0.8,0-1.5-0.3-2-0.8
		c-0.4-0.5-0.6-1.2-0.6-2c0-0.7,0.2-1.3,0.5-1.9c0.5-0.7,1.1-1,2.1-1C63.1,76.8,63.8,77.2,64.3,77.8z M63.6,81.2
		c0.3-0.5,0.4-1,0.4-1.6c0-0.6-0.2-1.1-0.5-1.5c-0.3-0.4-0.8-0.6-1.4-0.6c-0.6,0-1,0.2-1.4,0.6c-0.4,0.4-0.5,0.9-0.5,1.7
		c0,0.6,0.2,1.1,0.5,1.5c0.3,0.4,0.8,0.6,1.5,0.6C62.9,81.9,63.4,81.6,63.6,81.2z"/>
	<path class="st0" d="M65.7,77h0.7v4.7h2.7v0.6h-3.4V77z"/>
	<path class="st0" d="M71.4,77h0.8l2,5.4h-0.8l-0.6-1.6h-2.1l-0.6,1.6h-0.7L71.4,77z M72.6,80.2l-0.8-2.4l-0.9,2.4H72.6z"/>
	<path class="st0" d="M74.9,77h2.4c0.4,0,0.7,0.1,1,0.2c0.5,0.2,0.7,0.7,0.7,1.3c0,0.3-0.1,0.6-0.2,0.8c-0.1,0.2-0.3,0.4-0.6,0.5
		c0.2,0.1,0.4,0.2,0.5,0.3c0.1,0.1,0.2,0.4,0.2,0.7l0,0.7c0,0.2,0,0.4,0.1,0.5c0,0.2,0.1,0.3,0.2,0.3v0.1h-0.9c0,0,0-0.1-0.1-0.2
		c0-0.1,0-0.2,0-0.4l0-0.9c0-0.4-0.1-0.6-0.4-0.7c-0.1-0.1-0.3-0.1-0.6-0.1h-1.6v2.3h-0.7V77z M77.3,79.5c0.3,0,0.6-0.1,0.8-0.2
		c0.2-0.1,0.3-0.4,0.3-0.7c0-0.4-0.1-0.6-0.4-0.8c-0.1-0.1-0.3-0.1-0.6-0.1h-1.7v1.8H77.3z"/>
	<path class="st0" d="M80.3,77H81v4.7h2.7v0.6h-3.4V77z"/>
	<path class="st0" d="M83.5,77h0.8l1.5,2.6l1.5-2.6h0.9l-2,3.2v2.2h-0.7v-2.2L83.5,77z"/>
	<path class="st0" d="M93.5,80.8c0,0.5-0.1,0.8-0.2,1.1c-0.2,0.5-0.7,0.7-1.4,0.7c-0.4,0-0.7-0.1-1-0.3c-0.3-0.2-0.4-0.6-0.4-1.2
		v-0.4h0.7V81c0,0.3,0.1,0.5,0.2,0.7c0.1,0.1,0.3,0.2,0.6,0.2c0.4,0,0.6-0.1,0.8-0.4c0.1-0.2,0.1-0.5,0.1-0.9V77h0.7V80.8z"/>
	<path class="st0" d="M99,77.8c0.4,0.5,0.5,1.1,0.5,1.8c0,0.8-0.2,1.5-0.6,2c-0.5,0.6-1.2,0.9-2,0.9c-0.8,0-1.5-0.3-2-0.8
		c-0.4-0.5-0.6-1.2-0.6-2c0-0.7,0.2-1.3,0.5-1.9c0.5-0.7,1.1-1,2.1-1C97.8,76.8,98.5,77.2,99,77.8z M98.4,81.2
		c0.3-0.5,0.4-1,0.4-1.6c0-0.6-0.2-1.1-0.5-1.5c-0.3-0.4-0.8-0.6-1.4-0.6c-0.6,0-1,0.2-1.4,0.6C95.2,78.4,95,79,95,79.8
		c0,0.6,0.2,1.1,0.5,1.5c0.3,0.4,0.8,0.6,1.5,0.6C97.6,81.9,98.1,81.6,98.4,81.2z"/>
	<path class="st0" d="M101.2,77v3.3c0,0.4,0.1,0.7,0.2,1c0.2,0.4,0.6,0.6,1.1,0.6c0.6,0,1-0.2,1.3-0.6c0.1-0.2,0.2-0.5,0.2-0.9V77
		h0.7v3c0,0.7-0.1,1.2-0.3,1.5c-0.3,0.6-0.9,1-1.9,1s-1.5-0.3-1.9-1c-0.2-0.4-0.3-0.9-0.3-1.5v-3H101.2z"/>
	<path class="st0" d="M105.9,77h2.4c0.4,0,0.7,0.1,1,0.2c0.5,0.2,0.7,0.7,0.7,1.3c0,0.3-0.1,0.6-0.2,0.8c-0.1,0.2-0.3,0.4-0.6,0.5
		c0.2,0.1,0.4,0.2,0.5,0.3c0.1,0.1,0.2,0.4,0.2,0.7l0,0.7c0,0.2,0,0.4,0.1,0.5c0,0.2,0.1,0.3,0.2,0.3v0.1h-0.9c0,0,0-0.1-0.1-0.2
		c0-0.1,0-0.2,0-0.4l0-0.9c0-0.4-0.1-0.6-0.4-0.7c-0.1-0.1-0.3-0.1-0.6-0.1h-1.6v2.3h-0.7V77z M108.3,79.5c0.3,0,0.6-0.1,0.8-0.2
		c0.2-0.1,0.3-0.4,0.3-0.7c0-0.4-0.1-0.6-0.4-0.8c-0.1-0.1-0.3-0.1-0.6-0.1h-1.7v1.8H108.3z"/>
	<path class="st0" d="M111.2,77h0.9l2.7,4.3V77h0.7v5.4h-0.8l-2.7-4.3v4.3h-0.7V77z"/>
	<path class="st0" d="M118.2,77h0.8l2,5.4h-0.8l-0.6-1.6h-2.1l-0.6,1.6h-0.7L118.2,77z M119.4,80.2l-0.8-2.4l-0.9,2.4H119.4z"/>
	<path class="st0" d="M121.6,77h0.7v4.7h2.7v0.6h-3.4V77z"/>
	<path class="st0" d="M132,77.8c0.4,0.5,0.5,1.1,0.5,1.8c0,0.8-0.2,1.5-0.6,2c-0.5,0.6-1.2,0.9-2,0.9c-0.8,0-1.5-0.3-2-0.8
		c-0.4-0.5-0.6-1.2-0.6-2c0-0.7,0.2-1.3,0.5-1.9c0.5-0.7,1.1-1,2.1-1C130.9,76.8,131.6,77.2,132,77.8z M131.4,81.2
		c0.3-0.5,0.4-1,0.4-1.6c0-0.6-0.2-1.1-0.5-1.5c-0.3-0.4-0.8-0.6-1.4-0.6c-0.6,0-1,0.2-1.4,0.6c-0.4,0.4-0.5,0.9-0.5,1.7
		c0,0.6,0.2,1.1,0.5,1.5c0.3,0.4,0.8,0.6,1.5,0.6C130.6,81.9,131.1,81.6,131.4,81.2z"/>
	<path class="st0" d="M133.5,77h3.7v0.7h-3v1.6h2.6v0.6h-2.6v2.4h-0.7V77z"/>
	<path class="st0" d="M140.3,77h0.7v5.4h-0.7V77z"/>
	<path class="st0" d="M142.2,77h0.9l2.7,4.3V77h0.7v5.4h-0.8l-2.7-4.3v4.3h-0.7V77z"/>
	<path class="st0" d="M147.7,77h3.7v0.7h-3v1.6h2.6v0.6h-2.6v2.4h-0.7V77z"/>
	<path class="st0" d="M156.6,77.8c0.4,0.5,0.5,1.1,0.5,1.8c0,0.8-0.2,1.5-0.6,2c-0.5,0.6-1.2,0.9-2,0.9c-0.8,0-1.5-0.3-2-0.8
		c-0.4-0.5-0.6-1.2-0.6-2c0-0.7,0.2-1.3,0.5-1.9c0.5-0.7,1.1-1,2.1-1C155.4,76.8,156.1,77.2,156.6,77.8z M156,81.2
		c0.3-0.5,0.4-1,0.4-1.6c0-0.6-0.2-1.1-0.5-1.5c-0.3-0.4-0.8-0.6-1.4-0.6c-0.6,0-1,0.2-1.4,0.6c-0.4,0.4-0.5,0.9-0.5,1.7
		c0,0.6,0.2,1.1,0.5,1.5c0.3,0.4,0.8,0.6,1.5,0.6C155.2,81.9,155.7,81.6,156,81.2z"/>
	<path class="st0" d="M158.1,77h2.4c0.4,0,0.7,0.1,1,0.2c0.5,0.2,0.7,0.7,0.7,1.3c0,0.3-0.1,0.6-0.2,0.8c-0.1,0.2-0.3,0.4-0.6,0.5
		c0.2,0.1,0.4,0.2,0.5,0.3c0.1,0.1,0.2,0.4,0.2,0.7l0,0.7c0,0.2,0,0.4,0.1,0.5c0,0.2,0.1,0.3,0.2,0.3v0.1h-0.9c0,0,0-0.1-0.1-0.2
		c0-0.1,0-0.2,0-0.4l0-0.9c0-0.4-0.1-0.6-0.4-0.7c-0.1-0.1-0.3-0.1-0.6-0.1h-1.6v2.3h-0.7V77z M160.5,79.5c0.3,0,0.6-0.1,0.8-0.2
		c0.2-0.1,0.3-0.4,0.3-0.7c0-0.4-0.1-0.6-0.4-0.8c-0.1-0.1-0.3-0.1-0.6-0.1h-1.7v1.8H160.5z"/>
	<path class="st0" d="M163.4,77h1l1.5,4.5l1.5-4.5h1v5.4h-0.7v-3.2c0-0.1,0-0.3,0-0.5c0-0.3,0-0.5,0-0.8l-1.5,4.5h-0.7l-1.5-4.5V78
		c0,0.1,0,0.3,0,0.6c0,0.3,0,0.5,0,0.6v3.2h-0.7V77z"/>
	<path class="st0" d="M171.2,77h0.8l2,5.4h-0.8l-0.6-1.6h-2.1l-0.6,1.6h-0.7L171.2,77z M172.4,80.2l-0.8-2.4l-0.9,2.4H172.4z"/>
	<path class="st0" d="M178,77v0.6h-1.8v4.7h-0.7v-4.7h-1.8V77H178z"/>
	<path class="st0" d="M178.8,77h0.7v5.4h-0.7V77z"/>
	<path class="st0" d="M184.6,77.4c0.4,0.4,0.6,0.8,0.6,1.2h-0.7c-0.1-0.3-0.2-0.6-0.5-0.8c-0.2-0.2-0.6-0.3-1-0.3
		c-0.5,0-0.9,0.2-1.3,0.6s-0.5,0.9-0.5,1.7c0,0.6,0.1,1.1,0.4,1.5c0.3,0.4,0.7,0.6,1.3,0.6c0.5,0,0.9-0.2,1.2-0.6
		c0.1-0.2,0.3-0.5,0.3-0.9h0.7c-0.1,0.6-0.3,1-0.6,1.4c-0.4,0.5-1,0.7-1.7,0.7c-0.6,0-1.1-0.2-1.6-0.6c-0.6-0.5-0.8-1.3-0.8-2.3
		c0-0.8,0.2-1.4,0.6-2c0.4-0.6,1.1-0.8,1.9-0.8C183.7,76.8,184.2,77,184.6,77.4z"/>
	<path class="st0" d="M186.6,80.6c0,0.3,0.1,0.6,0.2,0.7c0.2,0.4,0.6,0.5,1.2,0.5c0.3,0,0.5,0,0.7-0.1c0.4-0.1,0.6-0.4,0.6-0.8
		c0-0.3-0.1-0.5-0.3-0.6c-0.2-0.1-0.5-0.2-0.8-0.3l-0.7-0.2c-0.5-0.1-0.8-0.2-1-0.4c-0.3-0.2-0.5-0.6-0.5-1c0-0.5,0.2-0.9,0.5-1.2
		c0.3-0.3,0.8-0.5,1.4-0.5c0.5,0,1,0.1,1.4,0.4c0.4,0.3,0.6,0.7,0.6,1.3h-0.7c0-0.3-0.1-0.5-0.2-0.7c-0.2-0.3-0.6-0.4-1.1-0.4
		c-0.4,0-0.7,0.1-0.9,0.3c-0.2,0.2-0.3,0.4-0.3,0.6c0,0.3,0.1,0.5,0.3,0.6c0.1,0.1,0.5,0.2,0.9,0.3l0.7,0.2c0.4,0.1,0.6,0.2,0.8,0.3
		c0.3,0.3,0.5,0.6,0.5,1.1c0,0.6-0.2,1-0.6,1.3c-0.4,0.3-0.9,0.4-1.5,0.4c-0.7,0-1.2-0.2-1.5-0.5c-0.4-0.3-0.5-0.8-0.5-1.4H186.6z"
		/>
	<path class="st0" d="M193.4,77h0.7v5.4h-0.7V77z"/>
	<path class="st0" d="M195.3,77h0.9l2.7,4.3V77h0.7v5.4h-0.8L196,78v4.3h-0.7V77z"/>
	<path class="st0" d="M202.8,77h0.7v2.2h2.8V77h0.7v5.4h-0.7v-2.5h-2.8v2.5h-0.7V77z"/>
	<path class="st0" d="M208.3,77h3.9v0.7H209v1.6h2.9v0.6H209v1.8h3.2v0.6h-4V77z"/>
	<path class="st0" d="M214.8,77h0.8l2,5.4h-0.8l-0.6-1.6h-2.1l-0.6,1.6h-0.7L214.8,77z M216,80.2l-0.8-2.4l-0.9,2.4H216z"/>
	<path class="st0" d="M218.2,77h0.7v4.7h2.7v0.6h-3.4V77z"/>
	<path class="st0" d="M225.8,77v0.6H224v4.7h-0.7v-4.7h-1.8V77H225.8z"/>
	<path class="st0" d="M226.5,77h0.7v2.2h2.8V77h0.7v5.4h-0.7v-2.5h-2.8v2.5h-0.7V77z"/>
	<path class="st0" d="M235.1,77h0.8l2,5.4h-0.8l-0.6-1.6h-2.1l-0.6,1.6h-0.7L235.1,77z M236.3,80.2l-0.8-2.4l-0.9,2.4H236.3z"/>
	<path class="st0" d="M238.5,77h0.9l2.7,4.3V77h0.7v5.4h-0.8l-2.7-4.3v4.3h-0.7V77z"/>
	<path class="st0" d="M244,77h2.1c0.7,0,1.3,0.3,1.7,0.8c0.4,0.5,0.5,1.1,0.5,1.8c0,0.6-0.1,1.1-0.3,1.5c-0.4,0.8-1,1.2-1.9,1.2H244
		V77z M246,81.7c0.2,0,0.4,0,0.6-0.1c0.3-0.1,0.5-0.3,0.7-0.5c0.1-0.2,0.2-0.5,0.3-0.8c0-0.2,0.1-0.4,0.1-0.6c0-0.7-0.1-1.2-0.4-1.6
		c-0.3-0.4-0.7-0.6-1.3-0.6h-1.3v4.1H246z"/>
	<path class="st0" d="M251.4,77h2.3c0.6,0,1.1,0.2,1.4,0.6c0.2,0.2,0.2,0.5,0.2,0.8c0,0.3-0.1,0.6-0.3,0.8c-0.1,0.1-0.2,0.2-0.4,0.3
		c0.3,0.1,0.5,0.2,0.6,0.4c0.2,0.2,0.4,0.6,0.4,1c0,0.3-0.1,0.7-0.3,0.9c-0.3,0.4-0.8,0.6-1.6,0.6h-2.3V77z M253.5,79.3
		c0.3,0,0.6,0,0.7-0.1c0.3-0.1,0.4-0.4,0.4-0.7c0-0.4-0.1-0.6-0.4-0.7c-0.2-0.1-0.4-0.1-0.7-0.1h-1.3v1.7H253.5z M253.7,81.7
		c0.5,0,0.8-0.1,1-0.4c0.1-0.2,0.2-0.4,0.2-0.6c0-0.4-0.2-0.7-0.5-0.8c-0.2-0.1-0.4-0.1-0.7-0.1h-1.5v1.9H253.7z"/>
	<path class="st0" d="M256.6,77h0.7v5.4h-0.7V77z"/>
	<path class="st0" d="M262.9,77.8c0.4,0.5,0.5,1.1,0.5,1.8c0,0.8-0.2,1.5-0.6,2c-0.5,0.6-1.2,0.9-2,0.9c-0.8,0-1.5-0.3-2-0.8
		c-0.4-0.5-0.6-1.2-0.6-2c0-0.7,0.2-1.3,0.5-1.9c0.5-0.7,1.1-1,2.1-1C261.8,76.8,262.5,77.2,262.9,77.8z M262.3,81.2
		c0.3-0.5,0.4-1,0.4-1.6c0-0.6-0.2-1.1-0.5-1.5c-0.3-0.4-0.8-0.6-1.4-0.6c-0.6,0-1,0.2-1.4,0.6c-0.4,0.4-0.5,0.9-0.5,1.7
		c0,0.6,0.2,1.1,0.5,1.5c0.3,0.4,0.8,0.6,1.5,0.6C261.5,81.9,262,81.6,262.3,81.2z"/>
	<path class="st0" d="M264.3,77h1l1.5,4.5l1.5-4.5h1v5.4h-0.7v-3.2c0-0.1,0-0.3,0-0.5c0-0.3,0-0.5,0-0.8l-1.5,4.5h-0.7l-1.5-4.5V78
		c0,0.1,0,0.3,0,0.6c0,0.3,0,0.5,0,0.6v3.2h-0.7V77z"/>
	<path class="st0" d="M270.6,77h3.9v0.7h-3.2v1.6h2.9v0.6h-2.9v1.8h3.2v0.6h-4V77z"/>
	<path class="st0" d="M275.6,77h2.1c0.7,0,1.3,0.3,1.7,0.8c0.4,0.5,0.5,1.1,0.5,1.8c0,0.6-0.1,1.1-0.3,1.5c-0.4,0.8-1,1.2-1.9,1.2
		h-2.1V77z M277.6,81.7c0.2,0,0.4,0,0.6-0.1c0.3-0.1,0.5-0.3,0.7-0.5c0.1-0.2,0.2-0.5,0.3-0.8c0-0.2,0.1-0.4,0.1-0.6
		c0-0.7-0.1-1.2-0.4-1.6c-0.3-0.4-0.7-0.6-1.3-0.6h-1.3v4.1H277.6z"/>
	<path class="st0" d="M281.2,77h0.7v5.4h-0.7V77z"/>
	<path class="st0" d="M286.9,77.4c0.4,0.4,0.6,0.8,0.6,1.2h-0.7c-0.1-0.3-0.2-0.6-0.5-0.8c-0.2-0.2-0.6-0.3-1-0.3
		c-0.5,0-0.9,0.2-1.3,0.6c-0.3,0.4-0.5,0.9-0.5,1.7c0,0.6,0.1,1.1,0.4,1.5c0.3,0.4,0.7,0.6,1.3,0.6c0.5,0,0.9-0.2,1.2-0.6
		c0.1-0.2,0.3-0.5,0.3-0.9h0.7c-0.1,0.6-0.3,1-0.6,1.4c-0.4,0.5-1,0.7-1.7,0.7c-0.6,0-1.1-0.2-1.6-0.6c-0.6-0.5-0.8-1.3-0.8-2.3
		c0-0.8,0.2-1.4,0.6-2c0.4-0.6,1.1-0.8,1.9-0.8C286,76.8,286.5,77,286.9,77.4z"/>
	<path class="st0" d="M288.6,77h0.7v5.4h-0.7V77z"/>
	<path class="st0" d="M290.6,77h0.9l2.7,4.3V77h0.7v5.4H294l-2.7-4.3v4.3h-0.7V77z"/>
	<path class="st0" d="M296,77h3.9v0.7h-3.2v1.6h2.9v0.6h-2.9v1.8h3.2v0.6h-4V77z"/>
</g>
</svg>
