<?xml version="1.0" encoding="utf-8"?>
<!-- Generator: Adobe Illustrator 19.1.0, SVG Export Plug-In . SVG Version: 6.00 Build 0)  -->
<svg version="1.1" id="Layer_1" xmlns="http://www.w3.org/2000/svg" xmlns:xlink="http://www.w3.org/1999/xlink" x="0px" y="0px"
	 viewBox="0 42.3 300 36.7" style="enable-background:new 0 42.3 300 36.7;" xml:space="preserve">
<style type="text/css">
	.st0{fill:#FFFFFF;}
</style>
<path class="st0" d="M280.6,76.9c1.3,1.6,2.1,2,3.4,2c1.8,0,3.7-1.3,5.3-3.6c0.7-1,1.9-3.3,2.9-5.6c0.4-1,1-2.4,1.7-4.2l1.4-3.7
	l1.3-3l0.6-1.6c0.9-2.4,1.6-3.1,2.7-3.3v-1.1c-1.4,0.1-2.5,0.1-3.2,0.1s-1.8-0.1-3.3-0.1V54c0.8,0.1,0.9,0.1,1.2,0.3
	c0.6,0.3,0.9,0.8,0.9,1.5c0,1-0.5,2.8-1.6,5.6l-1.3,3.6l-0.8,2.4c-2-3.8-2.4-4.6-2.9-6l-1.4-3.4c-0.6-1.4-0.8-2-0.8-2.6
	c0-1,0.4-1.3,1.7-1.4v-1.1c-1.5,0.1-2.7,0.1-3.5,0.1c-0.8,0-2-0.1-3.5-0.1V54c1.6,0.4,1.7,0.5,2.3,2.3c0.3,0.8,0.4,1.2,0.4,1.3
	c0.1,0.3,0.3,0.7,0.5,1.2c0.7,1.6,1.3,3,1.7,3.9c1,2.2,1.8,3.9,3.9,8c-0.8,1.9-1.2,2.6-1.8,3.4c-0.3,0.5-0.7,0.9-1.1,1.3
	c-0.8,0.8-1.4,1.1-2.3,1.1c-1.2,0-1.9-0.7-1.9-2c0-0.2,0-0.5,0.1-0.9l0.1-0.5l-0.8-0.3C281.8,74.6,281.6,75.1,280.6,76.9z
	 M269.2,58.5c0-3,1.4-4.9,3.6-4.9c2.5,0,4,2.6,4,6.7c0,2.9-1.3,4.7-3.5,4.7c-2.1,0-3.8-2.2-4-5.5C269.2,59.1,269.2,58.8,269.2,58.5z
	 M264.3,76.4c1.1,0.8,1.6,1.1,2.5,1.5c1.6,0.8,3.6,1.1,5.6,1.1c5,0,8.5-2.4,8.5-5.9c0-1.7-0.9-3.1-2.4-3.7c-1.2-0.5-1.7-0.6-3.8-0.6
	c-0.5,0-1.1,0-1.6,0h-2.4c-1.7,0-2.3-0.2-2.3-0.8c0-0.2,0.1-0.4,0.4-0.8l0.8-0.9l0.8-0.7c1,0.4,1.3,0.5,2.3,0.5c4.2,0,7.1-2.9,7.1-7
	c0-2-0.2-2.7-1.6-4.6c1-0.4,1.2-0.5,1.6-0.5c0.6,0,1,0.5,1,1c0,0.1,0,0.4-0.1,0.7l0.9,0.2c0.4-1.6,0.5-2,1-3.3
	c-0.7-0.4-1-0.4-1.6-0.4c-1.2,0-2.2,0.5-3.5,1.7c-1.5-1.1-2.9-1.6-4.7-1.6c-3.9,0-7.1,3.1-7.1,7c0,1.2,0.3,2.4,0.9,3.3
	c0.6,1,1.1,1.5,2.5,2.4c-2.9,2.7-3.7,3.8-3.7,4.9c0,1,0.9,1.7,2.5,1.8c0.4,0,0.8,0,1.3,0h0.8c2.2-0.1,3-0.1,4.1-0.1
	c3,0,3.6,0.1,4.4,0.8c0.4,0.4,0.7,1,0.7,1.6c0,1.8-2.3,3.1-5.6,3.1c-3.5,0-6.4-1.4-6.4-3c0-0.3,0.1-0.7,0.3-1.1l-0.7-0.4
	C265.8,74.4,265.5,74.9,264.3,76.4z M249.7,61.1c0-4.7,1.7-7.3,4.7-7.3c3.1,0,5.4,3.5,5.4,8.5c0,4.7-1.7,7.2-5,7.2
	c-2.9,0-4.8-2.9-5.1-7.4V61.1z M246.5,62.4c0.3,4.9,3.5,8.2,7.9,8.2c5,0,8.5-3.8,8.5-9.3c0-5.2-3.3-8.8-8-8.8
	c-5.1,0-8.4,3.6-8.4,9.1C246.4,61.9,246.5,62.2,246.5,62.4z M234.6,44.5h0.5c2.9,0,3,0.1,3,3.1v16.8c0,2.7-0.1,3.3-0.4,3.7
	c-0.3,0.5-1.1,0.8-2.7,0.9v1c2-0.1,3.5-0.1,4.5-0.1s2.4,0,4.4,0.1v-1c-2.1,0-2.9-0.5-2.9-1.9v-1.2v-1.3V42.3
	c-2.9,0.6-3.5,0.7-6.4,1.2V44.5z M219.4,61.1c0-4.7,1.7-7.3,4.7-7.3c3.1,0,5.4,3.5,5.4,8.5c0,4.7-1.7,7.2-5,7.2
	c-2.9,0-4.8-2.9-5.1-7.4V61.1z M216.3,62.4c0.3,4.9,3.5,8.2,7.9,8.2c5,0,8.5-3.8,8.5-9.3c0-5.2-3.3-8.8-8-8.8
	c-5.1,0-8.4,3.6-8.4,9.1C216.2,61.9,216.3,62.2,216.3,62.4z M208.2,47.1c0,1.3,0.9,2.2,2,2.2s1.8-0.9,1.8-2.2c0-1.4-0.8-2.3-1.9-2.3
	C209,44.8,208.2,45.8,208.2,47.1z M205.2,54.2c0.6,0,0.9,0,1.2,0c2.1,0,2.4,0.4,2.4,3.2v7l0,1.4l0,1.2c-0.1,1.4-0.9,2-3.1,2v1
	c2-0.1,3.5-0.1,4.5-0.1c1,0,2.4,0,4.3,0.1v-1c-1.7-0.2-2.1-0.4-2.5-1c-0.3-0.6-0.4-0.9-0.4-2.3l0-1.4v-12c-2.7,0.4-3.4,0.5-6.2,0.8
	L205.2,54.2L205.2,54.2z M188.5,56.3c1.7,0,2.5,0,3,0c5.8,0,8.8,2.2,8.8,6.7c0,4.1-2.5,6.4-7.1,6.4c-2,0-3.8-0.5-4.3-1.3
	c-0.4-0.6-0.5-1.4-0.5-3.7L188.5,56.3L188.5,56.3z M188.5,55.2v-5.5c0-2.1,0.1-2.9,0.7-3.5c0.7-0.8,1.8-1.2,3.4-1.2
	c3.3,0,5.5,2.1,5.5,5.2c0,3.4-2.4,5-7.1,5H188.5z M181.5,70.1c2.2-0.1,3.9-0.1,5.1-0.1c1.2,0,2.4,0,4.4,0.1l2.2,0.1
	c0.5,0,0.9,0,1.4,0c2.5,0,3.9-0.3,5.5-1.2c2.2-1.3,3.7-3.8,3.7-6.2c0-2.9-1.8-5.3-4.7-6.3c-1.4-0.5-2-0.6-4.4-0.9v-0.2
	c1.9-0.3,2.6-0.5,3.6-1c1.9-1,3-2.7,3-4.9c0-2.2-1.2-4.2-3.1-5.1c-1.3-0.6-2.1-0.8-3.9-0.8c-1,0-2.5,0.1-3.4,0.2l-1.7,0.1
	c-0.6,0-1.3,0.1-2,0.1c-1.4,0-3.3,0-5.4-0.1v1c2.1,0,2.7,0.3,3.3,0.9c0.4,0.6,0.4,0.9,0.4,2.6l0,15.4c0,2.3-0.1,3.6-0.6,4.1
	c-0.5,0.5-1.6,1-2.7,1c-0.2,0-0.4,0-0.6,0L181.5,70.1L181.5,70.1z M169.3,55c-1.5-1.4-2.2-1.8-3.9-2.1c-0.6-0.1-1.2-0.2-1.8-0.2
	c-5,0-8.8,3.9-8.8,9.1c0,4.7,3.5,8.8,7.5,8.8c2.3,0,4.1-0.8,7.2-3.1l-0.4-0.8c-2.1,1-3.4,1.4-5,1.4c-3.9,0-7.1-3.6-7.1-8.1
	c0-3.6,1.8-5.8,4.8-5.8c2.7,0,5.1,2,5.1,4.3c0,0.2,0,0.6-0.2,1.1l1.1,0.2C168.6,57.6,168.7,57.1,169.3,55z M146.7,47.1
	c0,1.3,0.9,2.2,2,2.2s1.8-0.9,1.8-2.2c0-1.4-0.8-2.3-1.9-2.3C147.6,44.8,146.7,45.8,146.7,47.1z M143.7,54.2c0.6,0,0.9,0,1.2,0
	c2.1,0,2.4,0.4,2.4,3.2v7l0,1.4l0,1.2c-0.1,1.4-0.9,2-3.1,2v1c2-0.1,3.5-0.1,4.5-0.1c1,0,2.4,0,4.3,0.1v-1c-1.7-0.2-2.1-0.4-2.5-1
	c-0.3-0.6-0.4-0.9-0.4-2.3l0-1.4v-12c-2.7,0.4-3.4,0.5-6.2,0.8L143.7,54.2L143.7,54.2z M132.7,54h2.7v9.8l0,2.4c0,1.7,0.8,3.1,2.1,4
	c0.5,0.4,1,0.5,1.4,0.5c0.3,0,0.8-0.1,1.4-0.5l1.5-0.7L143,69l1-0.5l-0.4-1c-1.3,0.7-2.1,0.9-3,0.9s-1.9-0.7-2.2-1.5
	c-0.1-0.4-0.2-0.9-0.2-1.6c0-0.7,0-1.4,0-2V54h5v-1.1h-4.9c0-2.1,0-2.6,0.2-5h-1c-0.3,1.8-0.6,2.6-1.3,3.4c-0.9,1-1.6,1.3-3.5,1.7
	L132.7,54L132.7,54z M125.6,65.2c-1.7,1.4-2,1.5-2.6,1.9c-0.8,0.5-1.7,0.8-2.5,0.8c-1.4,0-2.5-1.1-2.5-2.6c0-1,0.4-1.9,1.2-2.6
	c1-0.9,2.7-1.5,6.4-2.6C125.6,60.1,125.6,65.2,125.6,65.2z M125.6,58.9l-1.2,0.4l-2.1,0.7c-2.2,0.7-3.5,1.3-4.7,2.1
	c-1.6,1.1-2.4,2.6-2.4,4.2c0,2.3,1.6,4.2,3.4,4.2c0.8,0,2.2-0.5,3.4-1.2c0.3-0.2,0.7-0.5,1.4-1c0.7-0.5,1.2-0.9,1.3-1
	c0.2-0.1,0.5-0.4,0.9-0.7v0.1c0,1,0,1.2-0.1,2.3c0.3,0.2,0.5,0.3,0.7,0.5c0.6,0.4,1,0.7,1.1,0.7c0.3,0.2,0.6,0.3,0.9,0.3
	c0.5,0,0.8-0.2,2.5-1.2c0.9-0.6,1.1-0.7,1.7-1.1l-0.3-0.9c-0.9,0.5-1.8,0.8-2.2,0.8c-0.5,0-1-0.4-1.2-0.9c-0.1-0.5-0.1-0.8-0.1-2.4
	v-6.3c0-3.3-0.1-4-0.7-4.8c-0.7-0.8-2.2-1.3-4-1.3c-1.3,0-3.6,0.4-6.1,1c-0.5,1.8-0.7,2.3-1.5,4.2l1,0.6c1.7-3,3.9-4.8,5.9-4.8
	c1,0,1.7,0.4,2.1,1.3c0.3,0.8,0.3,1.2,0.3,2.9L125.6,58.9L125.6,58.9z M82.8,54.4h0.9c2.1,0,2.5,0.5,2.5,3.4v7.1
	c0,2.3-0.1,2.9-0.5,3.4c-0.4,0.5-0.8,0.7-2,0.8c-0.1,0-0.4,0-0.6,0v1c2.1-0.1,3.6-0.1,4.7-0.1c1.1,0,2.7,0,4.8,0.1v-1h-0.1
	c-2.8,0-3.4-0.5-3.4-2.9v-1.4v-7.7c1.8-1.7,3.5-2.6,4.8-2.6c1,0,1.9,0.5,2.3,1.2c0.4,0.8,0.4,1.3,0.4,3.6v0.6v3.1
	c-0.1,1.7-0.1,2.9-0.4,6c0.3,0.2,0.5,0.4,0.7,0.5c0.4,0.3,0.8,0.5,0.9,0.7c0.4,0.3,0.7,0.4,1,0.4c0.5,0,0.9-0.2,2.3-1.1
	c0.9-0.6,1.3-0.8,1.4-0.9c0.2-0.1,0.5-0.3,0.8-0.7l-0.3-0.8l-0.8,0.5l-0.9,0.4c-0.5,0.2-0.9,0.3-1.1,0.3c-0.6,0-0.9-0.3-0.9-1.1V67
	c0-0.3,0-0.7,0.1-1.3c0-1.1,0-1.8,0-2v-3l0.1-2.4v-1.1c2.5-2.2,3.5-2.8,4.8-2.8c1,0,1.9,0.5,2.3,1.3s0.4,1.5,0.4,3.8
	c0,3,0,4.6-0.1,6.8c0,0.6-0.1,1.6-0.1,2.9c0.3,0.2,0.5,0.3,0.6,0.4c1.1,0.8,1.4,1,2,1c0.5,0,1.1-0.3,2.3-1c1.1-0.7,1.3-0.8,2.2-1.3
	l-0.4-0.8c-1.1,0.6-2.1,0.9-2.5,0.9c-0.8,0-1-0.4-1-1.7v-1.1c0.1-1.2,0.1-2.2,0.1-3.2v-2.9c0-1.6,0-2.5,0-2.9c0-0.8-0.2-1.6-0.5-2.2
	c-0.7-1.4-2.1-2.2-3.8-2.2c-1.3,0-2.7,0.5-4,1.4c-0.7,0.5-1,0.8-2.2,1.8c-0.5-2.2-1.8-3.3-4-3.3c-1.3,0-2.5,0.5-3.9,1.4
	c-0.8,0.5-1.3,0.9-2.3,1.9v-3.4c-2.7,0.5-3.4,0.6-6.3,1L82.8,54.4L82.8,54.4z M69.9,55.6c0.9-1.3,2.1-2,3.4-2c1.2,0,2.6,0.8,3.3,1.9
	c0.5,0.8,0.7,1.4,0.9,3.2h-8.6C69,57.1,69.2,56.5,69.9,55.6z M80.7,59.8c-0.4-2.8-0.8-4-2.2-5.3c-1.3-1.3-2.9-1.9-4.7-1.9
	c-4.5,0-7.8,3.8-7.8,9.1c0,5.1,3.1,8.9,7.5,8.9c1.4,0,2.6-0.4,4.5-1.4c1.4-0.7,1.9-1.1,3.3-2.1l-0.5-0.7c-1.4,0.8-2.1,1.1-3.2,1.4
	c-0.7,0.1-1.4,0.3-2.1,0.3c-2.9,0-5.2-1.5-6.1-4c-0.5-1.2-0.6-2-0.7-4.2L80.7,59.8L80.7,59.8z M53.9,54h2.7v9.8l0,2.4
	c0,1.7,0.8,3.1,2.1,4c0.5,0.4,1,0.5,1.4,0.5c0.3,0,0.8-0.1,1.4-0.5l1.5-0.7l1.2-0.6l1-0.5l-0.4-1c-1.3,0.7-2.1,0.9-3,0.9
	s-1.9-0.7-2.2-1.5c-0.1-0.4-0.2-0.9-0.2-1.6c0-0.7,0-1.4,0-2V54h5v-1.1h-4.9c0-2.1,0-2.6,0.2-5h-1c-0.3,1.8-0.6,2.6-1.3,3.4
	c-0.9,1-1.6,1.3-3.5,1.7C53.9,53.1,53.9,54,53.9,54z M38.7,68.2c2.1,1.2,3,1.6,4.2,2c1,0.3,2,0.4,3.1,0.4c3.7,0,6.3-2,6.3-5
	c0-0.8-0.3-1.6-0.6-2.1c-0.5-0.9-0.8-1.1-3.3-2.6l-2-1.2c-1.1-0.7-1.7-1.1-1.8-1.1c-0.3-0.2-0.7-0.5-1.1-0.8
	c-0.9-0.7-1.2-1.1-1.2-1.8c0-1.3,1.3-2.2,3-2.2c1,0,2.2,0.4,2.9,1c1,0.8,1.3,1.6,1.5,3.5l0.9,0.2c0.5-1.8,0.7-2.2,1.2-3.9
	c-1.4-1.1-2-1.4-3.2-1.7c-0.8-0.2-1.6-0.4-2.4-0.4c-3.6,0-6.1,2-6.1,4.9c0,1.5,0.7,2.7,2.2,3.7c0.5,0.3,1.1,0.7,1.8,1.1
	c1.9,1.1,3.3,1.9,4.5,2.8c1,0.7,1.4,1.3,1.4,2.2c0,1.4-1.3,2.3-3.3,2.3c-3,0-5.6-1.9-5.6-4.1c0-0.3,0-0.7,0.1-1.1l-1-0.3
	C39.6,65.8,39.5,66.3,38.7,68.2z M19.3,76.9c1.3,1.6,2.1,2,3.4,2c1.8,0,3.7-1.3,5.3-3.6c0.7-1,1.9-3.3,2.9-5.6c0.4-1,1-2.4,1.7-4.2
	l1.4-3.7l1.3-3l0.6-1.6c0.9-2.4,1.6-3.1,2.7-3.3v-1.1C37.4,53,36.3,53,35.6,53s-1.8-0.1-3.3-0.1V54c0.8,0.1,0.9,0.1,1.2,0.3
	c0.6,0.3,0.9,0.8,0.9,1.5c0,1-0.5,2.8-1.6,5.6l-1.3,3.6l-0.8,2.4c-2-3.8-2.4-4.6-2.9-6L26.4,58c-0.6-1.4-0.8-2-0.8-2.6
	c0-1,0.4-1.3,1.7-1.4v-1.1C25.8,53,24.6,53,23.8,53c-0.8,0-2-0.1-3.5-0.1V54c1.6,0.4,1.7,0.5,2.3,2.3c0.3,0.8,0.4,1.2,0.4,1.3
	c0.1,0.3,0.3,0.7,0.5,1.2c0.7,1.6,1.3,3,1.7,3.9c1,2.2,1.8,3.9,3.9,8c-0.8,1.9-1.2,2.6-1.8,3.4c-0.3,0.5-0.7,0.9-1.1,1.3
	c-0.8,0.8-1.4,1.1-2.3,1.1c-1.2,0-1.9-0.7-1.9-2c0-0.2,0-0.5,0.1-0.9l0.1-0.5l-0.8-0.3C20.6,74.6,20.3,75.1,19.3,76.9z M0,66.7
	c2.3,2.1,3.4,2.7,5.7,3.3c1.3,0.3,2.8,0.5,4,0.5c3.8,0,6.5-1.4,8.1-4.1c0.7-1,1-2.4,1-3.5c0-1.8-0.8-3.4-2.4-4.6
	c-0.7-0.5-1.5-1.1-2.6-1.8l-2.9-1.9c-0.6-0.4-1.4-0.9-2.4-1.6c-2-1.3-2.7-2-3.4-2.8c-0.4-0.7-0.6-1.3-0.6-2c0-2,1.6-3.5,4-3.5
	c1.6,0,3.4,0.6,4.7,1.5c1.4,1,2.1,2.3,2.1,4.2c0,0.5,0,1-0.1,1.6l0.8,0.2c0.7-3,0.9-3.8,1.8-6.7c-2.5-1.2-3.6-1.6-5.3-1.8
	c-0.9-0.1-1.8-0.2-2.8-0.2c-4.8,0-7.9,2.5-7.9,6.3c0,2.1,1.3,4.2,3.7,5.7l3,1.9l3,1.9c2.6,1.7,3.3,2.2,3.9,3.1
	c0.4,0.6,0.7,1.4,0.7,2.2c0,2.6-2.5,4.5-6,4.5c-4.2,0-7.5-2.8-7.5-6.3c0-0.6,0.1-1.2,0.4-2.2l-0.9-0.3L1,63.7L0,66.7z"/>
</svg>
