<?xml version="1.0" encoding="UTF-8" standalone="no"?>
<svg width="12px" height="12px" viewBox="0 0 12 12" version="1.1" xmlns="http://www.w3.org/2000/svg" xmlns:xlink="http://www.w3.org/1999/xlink">
    <!-- Generator: Sketch 47 (45396) - http://www.bohemiancoding.com/sketch -->
    <title>academia_gold</title>
    <desc>Created with Sketch.</desc>
    <defs></defs>
    <g id="Profile-Workstrip-Authors-SPECS-170911-Max" stroke="none" stroke-width="1" fill="none" fill-rule="evenodd">
        <g id="720-(min-768)-Profile-Workstrip-Author" transform="translate(-474.000000, -730.000000)" fill="#F67E00">
            <g id="Paper-Hack-1" transform="translate(360.000000, 512.000000)">
                <g id="Group-9" transform="translate(114.000000, 217.000000)">
                    <g id="premium-analytics">
                        <path d="M6.79442063,7.66666667 L5.46817624,3.66666667 C5.25054231,4.34888942 4.68461391,6.12276481 4.19163095,7.66666667 L6.79442063,7.66666667 Z M12,13 L6.74298408,13 L6.74298408,12.3540505 C7.62190001,12.3370518 8.05336783,12.1330677 8.05336783,11.5891102 C8.05336783,11.4021248 7.98944667,11.1811421 7.90954522,10.926162 L7.31627697,9.34156707 L3.22382466,9.34156707 C2.8812472,10.2908367 2.62506318,11.0005312 2.58960691,11.0961487 C2.20558057,12.1288181 2.73293013,12.2547145 3.63731465,12.3535193 C3.63931219,12.3540505 3.64280788,13 3.64280788,13 L0,13 L0,12.3540505 C0.431467822,12.2690571 0.790719141,12.1840637 0.934042364,11.7250996 L4.27629504,2.26460069 L3.63731465,1 L7.014649,1 L11.0571629,11.7250996 C11.2009855,12.1500664 11.5525519,12.2690571 12,12.3540505 L12,13 Z" id="academia_gold"></path>
                    </g>
                </g>
            </g>
        </g>
    </g>
</svg>
