<?xml version="1.0" encoding="utf-8"?>
<!-- Generator: Adobe Illustrator 19.1.0, SVG Export Plug-In . SVG Version: 6.00 Build 0)  -->
<svg version="1.1" id="Layer_1" xmlns="http://www.w3.org/2000/svg" xmlns:xlink="http://www.w3.org/1999/xlink" x="0px" y="0px"
	 viewBox="50 65 300 58.1" style="enable-background:new 50 65 300 58.1;" xml:space="preserve">
<style type="text/css">
	.st0{fill:#231F20;}
	.st1{fill:#E21B23;}
</style>
<path class="st0" d="M95.9,108c-1,1.2-2.3,1.7-3.7,1.7c-1.2,0-2.4-0.5-3.3-1.4c-0.9-0.9-1.4-2.1-1.4-3.3s0.3-2.1,1-2.8l23.9-32.1
	c1-1.6,2.6-2.8,4.4-3.7s3.8-1.4,5.9-1.4c1.9,0,3.8,0.3,5.6,1.2c1.7,0.9,3.1,2.1,4.4,3.5l23.7,32c0.3,0.5,0.7,1,1,1.6
	c0.2,0.5,0.3,1.2,0.3,1.7c0,1.2-0.5,2.4-1.4,3.3s-2.1,1.4-3.3,1.4c-1.6,0-2.8-0.7-3.7-1.9l-23.1-30.4c-0.5-0.5-1-1-1.7-1.7
	c-0.7-0.7-1.4-0.9-2.1-0.9c-0.7,0-1.4,0.3-2.1,0.9c-0.7,0.7-1.2,1.2-1.6,1.7L95.9,108"/>
<path class="st0" d="M250.5,105c0,1.2-0.5,2.4-1.4,3.3c-0.9,0.9-2.1,1.4-3.3,1.4c-1.2,0-2.4-0.5-3.3-1.4c-0.9-0.9-1.4-2.1-1.4-3.3
	V83.7c0-2.6-0.2-4-0.5-4s-1.2,0.9-2.8,2.6l-21.7,24.4c-0.9,1-1.9,1.7-3.1,2.3s-2.6,0.7-4,0.7c-1.4,0-2.8-0.2-4-0.7
	c-1.2-0.5-2.3-1.2-3.1-2.3l-21.7-24.4c-1.6-1.7-2.4-2.6-2.8-2.6c-0.3,0-0.5,1.4-0.5,4V105c0,1.2-0.5,2.4-1.4,3.3s-2.1,1.4-3.3,1.4
	c-1.4,0-2.4-0.5-3.3-1.4s-1.4-2.1-1.4-3.3V76.4c0-2.6,0.7-4.9,2.3-6.6s3.5-2.8,6.1-2.8c1.6,0,3,0.3,4.2,1.2c1.2,0.9,2.4,1.7,3.5,2.8
	l22.9,25.7c0.3,0.3,0.7,0.7,1.2,1c0.5,0.3,1,0.5,1.6,0.5c0.5,0,1-0.2,1.6-0.5c0.5-0.3,0.9-0.7,1.2-1l22.5-25.7h0.2
	c0.9-1.2,2.1-2.3,3.3-3c1.2-0.7,2.8-1,4.4-1c2.6,0,4.7,0.9,6.1,2.8c1.6,1.7,2.3,4,2.3,6.6V105"/>
<path class="st1" d="M268.3,108.3c-0.9,0.9-2.1,1.4-3.3,1.4c-1.4,0-2.4-0.5-3.3-1.4c-0.9-0.9-1.4-2.1-1.4-3.3V71.6
	c0-1.2,0.5-2.4,1.4-3.3s2.1-1.4,3.3-1.4s2.4,0.5,3.3,1.4s1.4,2.1,1.4,3.3V105C269.7,106.4,269.2,107.4,268.3,108.3"/>
<path class="st0" d="M287.8,108c-1,1.2-2.3,1.7-3.7,1.7s-2.4-0.5-3.3-1.4c-0.9-0.9-1.4-2.1-1.4-3.3s0.3-2.1,1-2.8l23.9-32.1
	c1-1.6,2.6-2.8,4.4-3.7s3.8-1.4,5.9-1.4c1.9,0,3.8,0.3,5.6,1.2s3.1,2.1,4.4,3.5l23.9,32c0.3,0.5,0.7,1,1,1.6
	c0.2,0.5,0.3,1.2,0.3,1.7c0,1.2-0.5,2.4-1.4,3.3s-2.1,1.4-3.3,1.4c-1.6,0-2.8-0.7-3.7-1.9l-23.2-30.4c-0.5-0.5-1-1-1.7-1.7
	s-1.4-0.9-2.1-0.9s-1.4,0.3-2.1,0.9c-0.7,0.7-1.2,1.2-1.6,1.7L287.8,108"/>
<path class="st0" d="M53.1,111.6c-1.9,0-3.1,2.1-3.1,3.7c0,6.5,9.8,7.9,13.6,7.9c5.4,0,14.7-2.1,14.7-15.7V71.6
	c0-3.1-1.7-5.1-4.7-5.1s-4.7,1.9-4.7,5.1v34.7c0,2.4,0,8-5.8,8c-2.1,0-4-0.9-5.8-1.7C55.8,112.1,54.5,111.6,53.1,111.6"/>
<g>
	<path class="st0" d="M89.1,116.9l1.9,5.1h-0.7l-0.5-1.6h-2.1l-0.5,1.6h-0.7l1.9-5.1H89.1z M89.6,119.8l-0.9-2.3l0,0l-0.9,2.3H89.6z
		"/>
	<path class="st0" d="M96.4,117.6c-0.2-0.2-0.5-0.2-0.9-0.2c-0.2,0-0.3,0-0.3,0c-0.2,0-0.2,0-0.3,0.2c-0.2,0-0.2,0.2-0.2,0.2
		c0,0.2-0.2,0.2-0.2,0.3c0,0.2,0,0.3,0.2,0.3c0.2,0.2,0.2,0.2,0.3,0.2s0.3,0.2,0.5,0.2s0.3,0,0.5,0.2c0.2,0,0.3,0.2,0.5,0.2
		c0.2,0,0.3,0.2,0.5,0.2c0.2,0.2,0.3,0.2,0.3,0.3c0,0.2,0.2,0.3,0.2,0.7s0,0.5-0.2,0.7s-0.3,0.3-0.5,0.5s-0.3,0.2-0.7,0.2
		c-0.2,0-0.5,0-0.7,0c-0.3,0-0.5,0-0.9-0.2c-0.2,0-0.5-0.2-0.7-0.3c-0.2-0.2-0.3-0.3-0.5-0.5c-0.2-0.2-0.2-0.5-0.2-0.7H94
		c0,0.2,0,0.3,0.2,0.5c0,0.2,0.2,0.3,0.3,0.3c0.2,0.2,0.3,0.2,0.5,0.2s0.3,0,0.5,0s0.3,0,0.5,0c0.2,0,0.3,0,0.3-0.2
		c0-0.2,0.2-0.2,0.3-0.3c0-0.2,0.2-0.3,0.2-0.5c0-0.2,0-0.3-0.2-0.3c-0.2-0.2-0.2-0.2-0.3-0.2c-0.2,0-0.3-0.2-0.5-0.2
		c-0.2,0-0.3,0-0.5-0.2c-0.2,0-0.3-0.2-0.5-0.2s-0.3-0.2-0.5-0.2c-0.2-0.2-0.3-0.2-0.3-0.3c-0.2-0.2-0.2-0.3-0.2-0.5s0-0.5,0.2-0.7
		s0.2-0.3,0.3-0.5s0.3-0.2,0.5-0.3c0.2,0,0.5,0,0.7,0s0.5,0,0.7,0.2c0.2,0,0.3,0.2,0.5,0.3c0.2,0.2,0.3,0.3,0.3,0.5
		c0.2,0.2,0.2,0.3,0.2,0.7h-0.7C96.8,118.1,96.8,117.7,96.4,117.6z"/>
	<path class="st0" d="M101.9,117.6c-0.2-0.2-0.5-0.3-0.9-0.3c-0.3,0-0.5,0-0.7,0.2c-0.2,0.2-0.3,0.2-0.5,0.5
		c-0.2,0.2-0.2,0.3-0.3,0.7c0,0.2-0.2,0.5-0.2,0.7c0,0.3,0,0.5,0.2,0.9c0,0.2,0.2,0.5,0.3,0.7c0.2,0.2,0.3,0.3,0.5,0.5
		c0.2,0.2,0.5,0.2,0.7,0.2s0.3,0,0.5-0.2c0.2,0,0.3-0.2,0.5-0.3c0.2-0.2,0.2-0.3,0.3-0.5c0-0.2,0.2-0.3,0.2-0.5h0.7
		c0,0.7-0.3,1-0.7,1.4c-0.3,0.3-0.9,0.5-1.6,0.5c-0.3,0-0.7,0-1-0.2c-0.3-0.2-0.5-0.3-0.7-0.5c-0.2-0.2-0.3-0.5-0.3-0.9
		c-0.2-0.3-0.2-0.7-0.2-1c0-0.3,0-0.7,0.2-1s0.2-0.5,0.5-0.9c0.2-0.2,0.5-0.3,0.7-0.5c0.3-0.2,0.7-0.2,1-0.2c0.2,0,0.5,0,0.7,0.2
		c0.2,0,0.5,0.2,0.7,0.3c0.2,0.2,0.3,0.3,0.5,0.5c0.2,0.2,0.2,0.3,0.2,0.7h-0.9C102.4,118.1,102.2,117.7,101.9,117.6z"/>
	<path class="st0" d="M105,116.9v2.1h2.6v-2.1h0.7v5.1h-0.7v-2.3H105v2.3h-0.7v-5.1H105z"/>
	<path class="st0" d="M109.7,118.4c0.2-0.3,0.2-0.5,0.5-0.9c0.2-0.2,0.5-0.3,0.7-0.5c0.2-0.2,0.7-0.2,1-0.2c0.3,0,0.7,0,1,0.2
		c0.3,0.2,0.5,0.3,0.7,0.5c0.2,0.2,0.3,0.5,0.5,0.9s0.2,0.7,0.2,1c0,0.3,0,0.7-0.2,1c-0.2,0.3-0.2,0.5-0.5,0.9
		c-0.2,0.2-0.5,0.3-0.7,0.5c-0.3,0.2-0.7,0.2-1,0.2c-0.3,0-0.7,0-1-0.2c-0.3-0.2-0.5-0.3-0.7-0.5c-0.2-0.2-0.3-0.5-0.5-0.9
		c-0.2-0.3-0.2-0.7-0.2-1C109.5,119.1,109.5,118.8,109.7,118.4z M110.2,120.2c0,0.2,0.2,0.5,0.3,0.7c0.2,0.2,0.3,0.3,0.5,0.5
		c0.2,0.2,0.5,0.2,0.7,0.2c0.3,0,0.5,0,0.7-0.2c0.2-0.2,0.3-0.3,0.5-0.5c0.2-0.2,0.2-0.3,0.3-0.7c0-0.2,0.2-0.5,0.2-0.7
		s0-0.5-0.2-0.7c0-0.2-0.2-0.5-0.3-0.7c0-0.3-0.2-0.5-0.3-0.5c-0.2-0.2-0.5-0.2-0.7-0.2c-0.3,0-0.5,0-0.7,0.2
		c-0.2,0.2-0.3,0.3-0.5,0.5c-0.2,0.2-0.2,0.3-0.3,0.7c0,0.2-0.2,0.5-0.2,0.7C110.2,119.7,110.2,119.8,110.2,120.2z"/>
	<path class="st0" d="M116.2,116.9v4.4h2.6v0.5h-3.3v-5.1h0.7V116.9z"/>
	<path class="st0" d="M122.1,116.9l1.9,5.1h-0.7l-0.5-1.6h-2.1l-0.5,1.6h-0.7l1.9-5.1H122.1z M122.6,119.8l-0.9-2.3l0,0l-0.9,2.3
		H122.6z"/>
	<path class="st0" d="M127.4,116.9c0.5,0,0.9,0.2,1,0.3c0.3,0.2,0.3,0.5,0.3,0.9s0,0.5-0.2,0.9c0,0.3-0.3,0.3-0.5,0.5l0,0
		c0.2,0,0.2,0,0.3,0.2c0.2,0,0.2,0.2,0.2,0.2c0,0.2,0.2,0.2,0.2,0.3s0,0.2,0,0.3s0,0.2,0,0.3c0,0.2,0,0.2,0,0.3c0,0.2,0,0.2,0,0.3
		c0,0.2,0,0.2,0.2,0.3h-0.7c0,0,0-0.2-0.2-0.2c0-0.2,0-0.2,0-0.3c0-0.2,0-0.2,0-0.3c0-0.2,0-0.2,0-0.3c0-0.2,0-0.2,0-0.3
		s0-0.2-0.2-0.3l-0.2-0.2c-0.2,0-0.2,0-0.3,0h-1.6v2.1h-0.7v-5.1H127.4z M127.5,119.1c0.2,0,0.2,0,0.3-0.2c0.2,0,0.2-0.2,0.2-0.3
		s0.2-0.2,0.2-0.5c0-0.2,0-0.5-0.2-0.7c-0.2-0.2-0.3-0.2-0.7-0.2h-1.6v1.7h1.4C127.2,119.1,127.4,119.1,127.5,119.1z"/>
	<path class="st0" d="M130.8,116.9v4.4h2.6v0.5h-3.3v-5.1h0.7V116.9z"/>
	<path class="st0" d="M135.9,121.9h-0.7v-2.1l-1.9-3h0.9l1.4,2.4l1.4-2.4h0.7l-1.9,3v2.1H135.9z"/>
	<path class="st0" d="M143.2,121.1c0,0.2-0.2,0.3-0.2,0.3c-0.2,0.2-0.3,0.2-0.5,0.3c-0.2,0-0.3,0.2-0.7,0.2c-0.5,0-0.9-0.2-1-0.3
		c-0.2-0.2-0.3-0.5-0.3-1v-0.3h0.7v0.2c0,0.2,0,0.3,0,0.3c0,0.2,0,0.2,0.2,0.3c0,0.2,0.2,0.2,0.2,0.2c0.2,0,0.2,0,0.3,0
		c0.3,0,0.5,0,0.7-0.2c0.2-0.2,0.2-0.3,0.2-0.7v-3.7h0.7v3.7C143.2,120.9,143.2,121.1,143.2,121.1z"/>
	<path class="st0" d="M144.6,118.4c0.2-0.3,0.2-0.5,0.5-0.9c0.2-0.2,0.5-0.3,0.7-0.5c0.3-0.2,0.7-0.2,1-0.2s0.7,0,1,0.2
		s0.5,0.3,0.7,0.5s0.3,0.5,0.5,0.9s0.2,0.7,0.2,1c0,0.3,0,0.7-0.2,1c-0.2,0.3-0.2,0.5-0.5,0.9c-0.2,0.2-0.5,0.3-0.7,0.5
		c-0.3,0.2-0.7,0.2-1,0.2s-0.7,0-1-0.2c-0.3-0.2-0.5-0.3-0.7-0.5c-0.2-0.2-0.3-0.5-0.5-0.9c-0.2-0.3-0.2-0.7-0.2-1
		C144.5,119.1,144.5,118.8,144.6,118.4z M145.3,120.2c0,0.2,0.2,0.5,0.3,0.7c0.2,0.2,0.3,0.3,0.5,0.5c0.2,0.2,0.5,0.2,0.7,0.2
		c0.3,0,0.5,0,0.7-0.2c0.2-0.2,0.3-0.3,0.5-0.5c0.2-0.2,0.2-0.3,0.3-0.7c0-0.2,0.2-0.5,0.2-0.7s0-0.5-0.2-0.7c0-0.2-0.2-0.5-0.3-0.7
		s-0.3-0.3-0.5-0.5s-0.5-0.2-0.7-0.2c-0.3,0-0.5,0-0.7,0.2s-0.3,0.3-0.5,0.5s-0.2,0.3-0.3,0.7c0,0.2-0.2,0.5-0.2,0.7
		C145.2,119.7,145.2,119.8,145.3,120.2z"/>
	<path class="st0" d="M153.9,121.6c-0.3,0.3-0.9,0.5-1.4,0.5c-0.7,0-1.2-0.2-1.6-0.5s-0.5-0.9-0.5-1.4V117h0.7v3.1
		c0,0.5,0.2,0.7,0.3,1c0.2,0.2,0.5,0.3,1,0.3c0.3,0,0.7-0.2,1-0.3c0.2-0.2,0.3-0.5,0.3-1V117h0.7v3.1
		C154.4,120.7,154.2,121.2,153.9,121.6z"/>
	<path class="st0" d="M158.3,116.9c0.5,0,0.9,0.2,1,0.3c0.3,0.2,0.3,0.5,0.3,0.9s0,0.5-0.2,0.9c-0.2,0.2-0.3,0.3-0.7,0.5l0,0
		c0.2,0,0.2,0,0.3,0.2c0.2,0,0.2,0.2,0.2,0.2c0,0.2,0.2,0.2,0.2,0.3s0,0.2,0,0.3s0,0.2,0,0.3c0,0.2,0,0.2,0,0.3c0,0.2,0,0.2,0,0.3
		c0,0.2,0,0.2,0.2,0.3H159c0,0,0-0.2-0.2-0.2c0-0.2,0-0.2,0-0.3c0-0.2,0-0.2,0-0.3c0-0.2,0-0.2,0-0.3c0-0.2,0-0.2,0-0.3
		s0-0.2-0.2-0.3l-0.2-0.2c-0.2,0-0.2,0-0.3,0h-1.6v2.1h-0.7v-5.1H158.3z M158.4,119.1c0.2,0,0.2,0,0.3-0.2c0.2,0,0.2-0.2,0.2-0.3
		s0.2-0.2,0.2-0.5c0-0.2,0-0.5-0.2-0.7c-0.2-0.2-0.3-0.2-0.7-0.2h-1.7v1.7h1.4C158.1,119.1,158.3,119.1,158.4,119.1z"/>
	<path class="st0" d="M161.9,116.9l2.6,4l0,0v-4h0.7v5.1h-0.7l-2.8-4l0,0v4h-0.7v-5.1H161.9z"/>
	<path class="st0" d="M168.7,116.9l1.9,5.1H170l-0.5-1.6h-2.1l-0.5,1.6h-0.7l1.9-5.1H168.7z M169.1,119.8l-0.7-2.3l0,0l-0.9,2.3
		H169.1z"/>
	<path class="st0" d="M172.2,116.9v4.4h2.6v0.5h-3.3v-5.1h0.7V116.9z"/>
	<path class="st0" d="M177.8,118.4c0.2-0.3,0.2-0.5,0.5-0.9c0.2-0.2,0.5-0.3,0.7-0.5c0.3-0.2,0.7-0.2,1-0.2s0.7,0,1,0.2
		s0.5,0.3,0.7,0.5s0.3,0.5,0.5,0.9s0.2,0.7,0.2,1c0,0.3,0,0.7-0.2,1c-0.2,0.3-0.2,0.5-0.5,0.9c-0.2,0.2-0.5,0.3-0.7,0.5
		c-0.3,0.2-0.7,0.2-1,0.2s-0.7,0-1-0.2c-0.3-0.2-0.5-0.3-0.7-0.5c-0.2-0.2-0.3-0.5-0.5-0.9c-0.2-0.3-0.2-0.7-0.2-1
		C177.6,119.1,177.6,118.8,177.8,118.4z M178.3,120.2c0,0.2,0.2,0.5,0.3,0.7c0.2,0.2,0.3,0.3,0.5,0.5c0.2,0.2,0.5,0.2,0.7,0.2
		c0.3,0,0.5,0,0.7-0.2c0.2-0.2,0.3-0.3,0.5-0.5c0.2-0.2,0.2-0.3,0.3-0.7c0-0.2,0.2-0.5,0.2-0.7s0-0.5-0.2-0.7c0-0.2-0.2-0.5-0.3-0.7
		c0-0.3-0.2-0.5-0.3-0.5c-0.2-0.2-0.5-0.2-0.7-0.2c-0.3,0-0.5,0-0.7,0.2s-0.3,0.3-0.5,0.5c-0.2,0.2-0.2,0.3-0.3,0.7
		c0,0.2-0.2,0.5-0.2,0.7C178.2,119.7,178.3,119.8,178.3,120.2z"/>
	<path class="st0" d="M186.9,116.9v0.5h-2.6v1.6h2.3v0.5h-2.3v2.3h-0.7v-5.1h3.3V116.9z"/>
	<path class="st0" d="M190.7,116.9v5.1H190v-5.1H190.7z"/>
	<path class="st0" d="M192.8,116.9l2.6,4l0,0v-4h0.7v5.1h-0.7l-2.6-4l0,0v4h-0.7v-5.1H192.8z"/>
	<path class="st0" d="M200.9,116.9v0.5h-2.6v1.6h2.3v0.5h-2.3v2.3h-0.7v-5.1h3.3V116.9z"/>
	<path class="st0" d="M201.7,118.4c0.2-0.3,0.2-0.5,0.5-0.9c0.2-0.2,0.5-0.3,0.7-0.5c0.2-0.2,0.7-0.2,1-0.2c0.3,0,0.7,0,1,0.2
		c0.3,0.2,0.5,0.3,0.7,0.5c0.2,0.2,0.3,0.5,0.5,0.9c0.2,0.3,0.2,0.7,0.2,1c0,0.3,0,0.7-0.2,1c-0.2,0.3-0.2,0.5-0.5,0.9
		c-0.2,0.2-0.5,0.3-0.7,0.5c-0.3,0.2-0.7,0.2-1,0.2c-0.3,0-0.7,0-1-0.2c-0.3-0.2-0.5-0.3-0.7-0.5c-0.2-0.2-0.3-0.5-0.5-0.9
		c-0.2-0.3-0.2-0.7-0.2-1C201.6,119.1,201.7,118.8,201.7,118.4z M202.4,120.2c0,0.2,0.2,0.5,0.3,0.7c0.2,0.2,0.3,0.3,0.5,0.5
		c0.2,0.2,0.5,0.2,0.7,0.2c0.2,0,0.5,0,0.7-0.2c0.2-0.2,0.3-0.3,0.5-0.5c0.2-0.2,0.2-0.3,0.3-0.7c0-0.2,0.2-0.5,0.2-0.7
		s0-0.5-0.2-0.7c0-0.2-0.2-0.5-0.3-0.7s-0.3-0.3-0.5-0.5s-0.5-0.2-0.7-0.2c-0.2,0-0.5,0-0.7,0.2s-0.3,0.3-0.5,0.5s-0.2,0.3-0.3,0.7
		c0,0.2-0.2,0.5-0.2,0.7C202.3,119.7,202.3,119.8,202.4,120.2z"/>
	<path class="st0" d="M210,116.9c0.5,0,0.9,0.2,1,0.3c0.3,0.2,0.3,0.5,0.3,0.9s0,0.5-0.2,0.9c0,0.3-0.2,0.3-0.5,0.5l0,0
		c0.2,0,0.2,0,0.3,0.2c0.2,0,0.2,0.2,0.2,0.2c0,0.2,0.2,0.2,0.2,0.3s0,0.2,0,0.3s0,0.2,0,0.3c0,0.2,0,0.2,0,0.3c0,0.2,0,0.2,0,0.3
		c0,0.2,0,0.2,0.2,0.3h-0.7c0,0,0-0.2-0.2-0.2c0-0.2,0-0.2,0-0.3c0-0.2,0-0.2,0-0.3c0-0.2,0-0.2,0-0.3c0-0.2,0-0.2,0-0.3
		s0-0.2-0.2-0.3l-0.2-0.2c-0.2,0-0.2,0-0.3,0h-1.6v2.1h-0.7v-5.1H210z M210.1,119.1c0.2,0,0.2,0,0.3-0.2c0.2,0,0.2-0.2,0.2-0.3
		s0.2-0.2,0.2-0.5c0-0.2,0-0.5-0.2-0.7c-0.2-0.2-0.3-0.2-0.7-0.2h-1.6v1.7h1.4C209.8,119.1,210,119.1,210.1,119.1z"/>
	<path class="st0" d="M213.8,116.9l1.6,4.2l1.6-4.2h0.9v5.1h-0.7v-4.2l0,0l-1.6,4.2H215l-1.6-4.2l0,0v4.2h-0.7v-5.1H213.8z"/>
	<path class="st0" d="M221.5,116.9l1.9,5.1h-0.7l-0.5-1.6h-2.1l-0.7,1.6h-0.7l1.9-5.1H221.5z M221.8,119.8l-0.7-2.3l0,0l-0.9,2.3
		H221.8z"/>
	<path class="st0" d="M223.2,117.4v-0.5h4v0.5h-1.7v4.4h-0.7v-4.4H223.2z"/>
	<path class="st0" d="M228.8,116.9v5.1h-0.7v-5.1H228.8z"/>
	<path class="st0" d="M233.4,117.6c-0.2-0.2-0.5-0.3-0.9-0.3c-0.3,0-0.5,0-0.7,0.2c-0.2,0.2-0.3,0.2-0.5,0.5
		c-0.2,0.2-0.2,0.3-0.3,0.7c0,0.2-0.2,0.5-0.2,0.7c0,0.3,0,0.5,0.2,0.9c0,0.2,0.2,0.5,0.3,0.7c0.2,0.2,0.3,0.3,0.5,0.5
		c0.2,0.2,0.5,0.2,0.7,0.2s0.3,0,0.5-0.2c0.2,0,0.3-0.2,0.5-0.3c0.2-0.2,0.2-0.3,0.3-0.5c0-0.2,0.2-0.3,0.2-0.5h0.7
		c0,0.7-0.3,1-0.7,1.4c-0.3,0.3-0.9,0.5-1.6,0.5c-0.3,0-0.7,0-1-0.2c-0.3-0.2-0.5-0.3-0.7-0.5c-0.2-0.2-0.3-0.5-0.3-0.9
		c0-0.3-0.2-0.7-0.2-1c0-0.3,0-0.7,0.2-1s0.2-0.5,0.5-0.9c0.2-0.2,0.5-0.3,0.7-0.5c0.3-0.2,0.7-0.2,1-0.2c0.2,0,0.5,0,0.7,0.2
		c0.2,0,0.5,0.2,0.7,0.3s0.3,0.3,0.5,0.5c0.2,0.2,0.2,0.3,0.2,0.7h-0.7C233.9,118.1,233.7,117.7,233.4,117.6z"/>
	<path class="st0" d="M238.2,117.6c-0.2-0.2-0.5-0.2-0.9-0.2c-0.2,0-0.3,0-0.3,0c-0.2,0-0.2,0-0.3,0.2c-0.2,0-0.2,0.2-0.2,0.2
		c0,0.2-0.2,0.2-0.2,0.3c0,0.2,0,0.3,0.2,0.3c0.2,0.2,0.2,0.2,0.3,0.2s0.3,0.2,0.5,0.2c0.2,0,0.3,0,0.5,0.2c0.2,0,0.3,0.2,0.5,0.2
		c0.2,0,0.3,0.2,0.5,0.2c0.2,0.2,0.3,0.2,0.3,0.3c0,0.2,0.2,0.3,0.2,0.7s0,0.5-0.2,0.7s-0.3,0.3-0.5,0.5c-0.2,0.2-0.3,0.2-0.7,0.2
		c-0.2,0-0.5,0-0.7,0c-0.3,0-0.5,0-0.9-0.2c-0.2,0-0.5-0.2-0.7-0.3s-0.3-0.3-0.5-0.5c-0.2-0.2-0.2-0.5-0.2-0.7h0.7
		c0,0.2,0,0.3,0.2,0.5c0,0.2,0.2,0.3,0.3,0.3c0.2,0.2,0.3,0.2,0.5,0.2c0.2,0,0.3,0,0.5,0c0.2,0,0.3,0,0.5,0s0.3,0,0.3-0.2
		c0.2,0,0.2-0.2,0.3-0.3c0-0.2,0.2-0.3,0.2-0.5c0-0.2,0-0.3-0.2-0.3c-0.2-0.2-0.2-0.2-0.3-0.2s-0.3-0.2-0.5-0.2s-0.3,0-0.5-0.2
		c-0.2,0-0.3-0.2-0.5-0.2c-0.2,0-0.3-0.2-0.5-0.2c-0.2-0.2-0.3-0.2-0.3-0.3c-0.2-0.2-0.2-0.3-0.2-0.5s0-0.5,0.2-0.7s0.2-0.3,0.3-0.5
		c0.2-0.2,0.3-0.2,0.5-0.3c0.2,0,0.5,0,0.7,0s0.5,0,0.7,0.2c0.2,0,0.3,0.2,0.5,0.3c0.2,0.2,0.3,0.3,0.3,0.5c0.2,0.2,0.2,0.3,0.2,0.7
		h-0.7C238.6,118.1,238.6,117.7,238.2,117.6z"/>
	<path class="st0" d="M243.5,116.9v5.1h-0.7v-5.1H243.5z"/>
	<path class="st0" d="M245.6,116.9l2.6,4l0,0v-4h0.7v5.1h-0.7l-2.6-4l0,0v4h-0.7v-5.1H245.6z"/>
	<path class="st0" d="M253.1,116.9v2.1h2.6v-2.1h0.7v5.1h-0.7v-2.3h-2.6v2.3h-0.7v-5.1H253.1z"/>
	<path class="st0" d="M261.3,116.9v0.5h-2.8v1.6h2.6v0.5h-2.6v1.7h2.8v0.5h-3.5v-5.1h3.5V116.9z"/>
	<path class="st0" d="M264.8,116.9l1.9,5.1H266l-0.5-1.6h-2.1l-0.5,1.6h-0.7l1.9-5.1H264.8z M265.3,119.8l-0.9-2.3l0,0l-0.9,2.3
		H265.3z"/>
	<path class="st0" d="M268.3,116.9v4.4h2.6v0.5h-3.3v-5.1h0.7V116.9z"/>
	<path class="st0" d="M270.9,117.4v-0.5h4v0.5h-1.7v4.4h-0.7v-4.4H270.9z"/>
	<path class="st0" d="M276.5,116.9v2.1h2.6v-2.1h0.7v5.1h-0.7v-2.3h-2.6v2.3h-0.7v-5.1H276.5z"/>
	<path class="st0" d="M285.4,116.9l1.9,5.1h-0.7l-0.5-1.6H284l-0.5,1.6h-0.7l1.9-5.1H285.4z M285.7,119.8l-0.9-2.3l0,0l-0.9,2.3
		H285.7z"/>
	<path class="st0" d="M288.9,116.9l2.6,4l0,0v-4h0.7v5.1h-0.7l-2.6-4l0,0v4h-0.7v-5.1H288.9z"/>
	<path class="st0" d="M295.3,116.9c0.7,0,1.4,0.2,1.7,0.5c0.3,0.3,0.7,1,0.7,1.7c0,0.3,0,0.9-0.2,1c-0.2,0.3-0.2,0.5-0.3,0.9
		c-0.2,0.2-0.5,0.3-0.7,0.5c-0.3,0.2-0.7,0.2-1,0.2h-1.7v-5.1h1.6V116.9z M295.3,121.4c0,0,0.2,0,0.3,0s0.2,0,0.3,0s0.2-0.2,0.3-0.2
		c0.2,0,0.2-0.2,0.3-0.3c0.2-0.2,0.2-0.3,0.2-0.5c0-0.2,0.2-0.5,0.2-0.7c0-0.3,0-0.5,0-0.9c0-0.2-0.2-0.3-0.3-0.5
		c-0.2-0.2-0.3-0.3-0.5-0.3s-0.5-0.2-0.7-0.2h-1v3.8h0.9V121.4z"/>
	<path class="st0" d="M302.9,116.9c0.2,0,0.2,0,0.3,0s0.2,0,0.3,0s0.2,0,0.3,0s0.2,0,0.3,0.2c0.2,0.2,0.3,0.2,0.3,0.3
		c0.2,0.2,0.2,0.3,0.2,0.7s0,0.5-0.2,0.7c-0.2,0.2-0.3,0.3-0.5,0.3l0,0c0.3,0,0.5,0.2,0.7,0.3c0.2,0.2,0.2,0.5,0.2,0.7
		c0,0.2,0,0.3-0.2,0.5c0,0.2-0.2,0.3-0.3,0.5c-0.2,0.2-0.3,0.2-0.5,0.3c-0.2,0-0.3,0.2-0.7,0.2h-2.4v-5.1h2.1V116.9z M303,119
		c0.3,0,0.7,0,0.9-0.2c0.2-0.2,0.2-0.3,0.2-0.5c0-0.2,0-0.3,0-0.3c0-0.2-0.2-0.2-0.2-0.2c-0.2,0-0.2-0.2-0.3-0.2c-0.2,0-0.3,0-0.3,0
		h-1.4v1.6h1.2V119z M303.2,121.4c0.3,0,0.5,0,0.7-0.2c0.2-0.2,0.2-0.3,0.2-0.7c0-0.2,0-0.3-0.2-0.3c0-0.2-0.2-0.2-0.2-0.2
		c-0.2,0-0.2-0.2-0.3-0.2s-0.3,0-0.3,0h-1.6v1.7h1.7V121.4z"/>
	<path class="st0" d="M306.9,116.9v5.1h-0.7v-5.1H306.9z"/>
	<path class="st0" d="M308.3,118.4c0.2-0.3,0.2-0.5,0.5-0.9c0.2-0.2,0.5-0.3,0.7-0.5c0.2-0.2,0.7-0.2,1-0.2c0.3,0,0.7,0,1,0.2
		s0.5,0.3,0.7,0.5s0.3,0.5,0.5,0.9s0.2,0.7,0.2,1c0,0.3,0,0.7-0.2,1c-0.2,0.3-0.2,0.5-0.5,0.9c-0.2,0.2-0.5,0.3-0.7,0.5
		c-0.3,0.2-0.7,0.2-1,0.2c-0.3,0-0.7,0-1-0.2c-0.3-0.2-0.5-0.3-0.7-0.5c-0.2-0.2-0.3-0.5-0.5-0.9c-0.2-0.3-0.2-0.7-0.2-1
		C308.1,119.1,308.1,118.8,308.3,118.4z M308.8,120.2c0,0.2,0.2,0.5,0.3,0.7c0.2,0.2,0.3,0.3,0.5,0.5c0.2,0.2,0.5,0.2,0.7,0.2
		c0.3,0,0.5,0,0.7-0.2c0.2-0.2,0.3-0.3,0.5-0.5c0.2-0.2,0.2-0.3,0.3-0.7c0-0.2,0.2-0.5,0.2-0.7s0-0.5-0.2-0.7c0-0.2-0.2-0.5-0.3-0.7
		s-0.3-0.3-0.5-0.5c-0.2-0.2-0.5-0.2-0.7-0.2c-0.3,0-0.5,0-0.7,0.2c-0.2,0.2-0.3,0.3-0.5,0.5c-0.2,0.2-0.2,0.3-0.3,0.7
		c-0.2,0.3-0.2,0.5-0.2,0.7C308.8,119.7,308.8,119.8,308.8,120.2z"/>
	<path class="st0" d="M314.9,116.9l1.6,4.2l1.6-4.2h0.9v5.1h-0.7v-4.2l0,0l-1.6,4.2h-0.5l-1.6-4.2l0,0v4.2h-0.7v-5.1H314.9z"/>
	<path class="st0" d="M324,116.9v0.5h-2.8v1.6h2.6v0.5h-2.6v1.7h2.8v0.5h-3.5v-5.1h3.5V116.9z"/>
	<path class="st0" d="M326.9,116.9c0.7,0,1.4,0.2,1.7,0.5c0.3,0.3,0.7,1,0.7,1.7c0,0.3,0,0.9-0.2,1c-0.2,0.3-0.2,0.5-0.3,0.9
		c-0.2,0.2-0.5,0.3-0.7,0.5c-0.3,0.2-0.7,0.2-1,0.2h-1.7v-5.1h1.6V116.9z M326.9,121.4c0,0,0.2,0,0.3,0s0.2,0,0.3,0
		c0.2,0,0.2-0.2,0.3-0.2c0.2,0,0.2-0.2,0.3-0.3c0.2-0.2,0.2-0.3,0.2-0.5c0-0.2,0.2-0.5,0.2-0.7c0-0.3,0-0.5,0-0.9
		c0-0.2-0.2-0.3-0.3-0.5c-0.2-0.2-0.3-0.3-0.5-0.3c-0.2,0-0.5-0.2-0.7-0.2h-1.2v3.8h1V121.4z"/>
	<path class="st0" d="M331.1,116.9v5.1h-0.7v-5.1H331.1z"/>
	<path class="st0" d="M335.7,117.6c-0.2-0.2-0.5-0.3-0.9-0.3s-0.5,0-0.7,0.2c-0.2,0.2-0.3,0.2-0.5,0.5c-0.2,0.2-0.2,0.3-0.3,0.7
		c0,0.2-0.2,0.5-0.2,0.7c0,0.3,0,0.5,0.2,0.9c0,0.2,0.2,0.5,0.3,0.7c0.2,0.2,0.3,0.3,0.5,0.5c0.2,0.2,0.5,0.2,0.7,0.2s0.3,0,0.5-0.2
		c0.2,0,0.3-0.2,0.5-0.3c0.2-0.2,0.2-0.3,0.3-0.5c0-0.2,0.2-0.3,0.2-0.5h0.7c0,0.7-0.3,1-0.7,1.4c-0.3,0.3-0.9,0.5-1.6,0.5
		c-0.3,0-0.7,0-1-0.2c-0.3-0.2-0.5-0.3-0.7-0.5c-0.2-0.2-0.3-0.5-0.3-0.9c-0.2-0.3-0.2-0.7-0.2-1c0-0.3,0-0.7,0.2-1
		c0.2-0.3,0.2-0.5,0.5-0.9c0.2-0.2,0.5-0.3,0.7-0.5c0.3-0.2,0.7-0.2,1-0.2c0.2,0,0.5,0,0.7,0.2c0.2,0,0.5,0.2,0.7,0.3
		c0.2,0.2,0.3,0.3,0.5,0.5c0.2,0.2,0.2,0.3,0.2,0.7h-0.7C336.2,118.1,336,117.7,335.7,117.6z"/>
	<path class="st0" d="M338.8,116.9v5.1h-0.7v-5.1H338.8z"/>
	<path class="st0" d="M341.1,116.9l2.6,4l0,0v-4h0.7v5.1h-0.7l-2.6-4l0,0v4h-0.7v-5.1H341.1z"/>
	<path class="st0" d="M349.3,116.9v0.5h-2.8v1.6h2.6v0.5h-2.6v1.7h2.8v0.5h-3.5v-5.1h3.5V116.9z"/>
</g>
</svg>
