<?xml version="1.0" encoding="utf-8"?>
<!-- Generator: Adobe Illustrator 19.1.0, SVG Export Plug-In . SVG Version: 6.00 Build 0)  -->
<svg version="1.1" id="Layer_1" xmlns="http://www.w3.org/2000/svg" xmlns:xlink="http://www.w3.org/1999/xlink" x="0px" y="0px"
	 viewBox="-49 8.8 512.6 38.5" style="enable-background:new -49 8.8 512.6 38.5;" xml:space="preserve">
<style type="text/css">
	.st0{fill:#A40344;}
</style>
<g>
	<path class="st0" d="M-48.4,25.9c0-4.8-0.1-9.6-0.1-14.3c0.4,0.1,0.8,0.1,1.2,0.1c0.4,0,0.8-0.1,1.2-0.1
		c4.8,5.4,9.4,10.1,15.6,16.1l6,5.9c1,0.9,1.4,1.3,2.5,2.2V24.5c0-4.3-0.3-8.7-0.6-12.9c0.6,0.2,1.3,0.3,2.2,0.3
		c0.9,0,1.5-0.2,2.1-0.3c-0.5,6.2-0.6,9.8-0.6,17.2c0,3,0.1,10.3,0.1,13c0,1.1,0.1,3.8,0.1,5c-0.4-0.1-0.7-0.1-1-0.1
		c-0.4,0-0.7,0.1-1.1,0.1c-6.5-7-19-19.5-24.4-24.5c0,6.9,0.1,10.7,0.2,16.1c0.1,3,0.1,3.5,0.5,8.2c-0.6-0.1-1.6-0.3-2.3-0.3
		c-0.8,0-1.4,0.2-2,0.3l0.4-7.1c0.1-1.4,0.2-5.2,0.2-6.6L-48.4,25.9L-48.4,25.9z"/>
	<path class="st0" d="M-10.6,27.5c0-2.1-0.1-3.1-0.3-5.4c1.2,0.2,2.2,0.3,3.3,0.3c1.1,0,2.2-0.1,3.3-0.3c-0.5,2.3-0.6,8.8-0.6,11.1
		c0,1.4,0.1,5.7,0.4,6.8c0.6,2.1,2.4,3.3,4.5,3.3c3.2,0,4.4-2.2,4.8-2.9c0.7-1.3,0.9-4.3,0.9-6.3c0-3.5,0-9-0.4-12.1
		c0.9,0.2,2,0.3,3,0.3c0.8,0,1.7-0.1,3.5-0.3c-0.3,4.5-0.5,9.1-0.5,13.7c0,6.4,0.2,8,0.4,10.8c-1.4-0.1-2.3-0.3-3.2-0.3
		c-1,0-1.8,0.2-2.9,0.3c0.2-1.9,0.2-1.9,0.2-4.1c-1.4,1.8-3.7,4.7-8.3,4.7c-3,0-5.7-1.4-7.1-4c-1-1.8-1-4.3-1-4.9
		C-10.8,34.7-10.6,31-10.6,27.5z"/>
	<path class="st0" d="M38.5,41.8c-0.7,1-0.8,2.3-1,3.6c-2.8,1.5-5.6,1.8-7.5,1.8c-8.4,0-12.7-6.3-12.7-12.4
		c0-6.7,4.2-13.1,13.4-13.1c3.1,0,5.2,0.7,7.8,1.8c-0.4,0.7-0.9,2.2-1.2,4.8h-1c-0.1-0.3-1-4.2-5.4-4.2c-2.4,0-4.4,1.4-5.5,3
		c-1.3,1.9-1.6,4.2-1.6,6.9c0,5,1.7,10.5,7.6,10.5c3,0,4.3-1.3,6.2-3L38.5,41.8z"/>
	<path class="st0" d="M46.2,9.1c1.7,0,2.2-0.2,3.3-0.3C49,14.3,49,22.3,49,27.6c0,1-0.2,13.3,0.5,19c-1-0.1-2-0.3-3.1-0.3
		c-0.9,0-1.7,0.1-3.5,0.3c0.6-3.9,0.5-19.1,0.5-20.3c0-9.5-0.3-13.5-0.6-17.5C44,9,44.6,9.1,46.2,9.1z"/>
	<path class="st0" d="M61.1,34.6c0,1.9,0,9.6,8.1,9.6c2.3,0,5.6-1.3,7.2-3.2l0.6,0.4c-0.2,0.4-0.3,0.7-0.4,1.1l-0.5,2.2
		c-0.4,0.4-3.7,2.6-8.6,2.6c-1.9,0-6.4-0.5-9.2-3.4c-3.4-3.4-3.4-8-3.4-9.7c0-8.5,5.8-12.3,11.8-12.3c1.9,0,7,0,9.6,4.6
		c0.9,1.6,1.6,4.3,1.5,8.2C77.9,34.6,61.1,34.6,61.1,34.6z M72,32.1c0-2.5,0-8.3-5.1-8.3c-5.3,0-5.6,6.3-5.7,8.3H72z"/>
	<path class="st0" d="M83.1,13.9c0-1.9,1.6-3.6,3.5-3.6s3.6,1.7,3.6,3.6c0,1.9-1.7,3.5-3.6,3.5S83.1,15.8,83.1,13.9z M83.7,41.1
		c0.1-2.6,0.2-4.4,0.2-6.3c0-3.6-0.2-9.1-0.5-12.7c1,0.2,1.9,0.3,3.4,0.3c1.5,0,2.3-0.2,3.2-0.3l-0.1,2.3c-0.1,2.1-0.3,6.9-0.3,8.7
		c0,2.2,0.1,7.5,0.2,9.3c0,0.7,0.2,3.6,0.2,4.2c-1-0.2-1.8-0.3-3-0.3c-1.2,0-2.3,0.2-3.5,0.3L83.7,41.1z"/>
	<path class="st0" d="M116.9,41.8c-0.7,1-0.8,2.3-1,3.6c-2.8,1.5-5.6,1.8-7.5,1.8c-8.4,0-12.7-6.3-12.7-12.4
		c0-6.7,4.2-13.1,13.4-13.1c3.1,0,5.2,0.7,7.8,1.8c-0.4,0.7-0.9,2.2-1.2,4.8h-1c-0.1-0.3-1-4.2-5.4-4.2c-2.4,0-4.4,1.4-5.5,3
		c-1.3,1.9-1.6,4.2-1.6,6.9c0,5,1.7,10.5,7.6,10.5c3,0,4.3-1.3,6.2-3L116.9,41.8z"/>
	<path class="st0" d="M154.7,40.9l-2.1-5.4c-2.2-0.1-4.3-0.2-6.5-0.2c-2,0-4.1,0.1-6.1,0.2c-1.6,3.9-3.3,8.2-4.1,11.1
		c-0.7-0.1-1.6-0.3-2.4-0.3c-0.9,0-1.6,0.2-2.3,0.3l5.9-13.2c5.2-11.5,8.1-18.2,9.3-22.3c0.6,0.2,1.1,0.3,1.7,0.3
		c0.6,0,1.1-0.1,1.6-0.3c2.4,7,5.5,14.1,7.3,18.4c1.9,4.4,5.3,12.1,7.6,17.1c-0.8-0.1-2.6-0.3-4-0.3c-1.4,0-2.9,0.3-3.8,0.3
		L154.7,40.9z M146.3,19.8l-5.2,12.5c1.8,0.1,3.5,0.2,5.3,0.2c1.6,0,3.1-0.1,4.7-0.2L146.3,19.8z"/>
	<path class="st0" d="M187.5,41.8c-0.7,1-0.8,2.3-1,3.6c-2.8,1.5-5.6,1.8-7.5,1.8c-8.4,0-12.7-6.3-12.7-12.4
		c0-6.7,4.2-13.1,13.4-13.1c3.1,0,5.2,0.7,7.8,1.8c-0.4,0.7-0.9,2.2-1.2,4.8h-1c-0.1-0.3-1-4.2-5.4-4.2c-2.4,0-4.4,1.4-5.5,3
		c-1.3,1.9-1.6,4.2-1.6,6.9c0,5,1.7,10.5,7.6,10.5c3,0,4.3-1.3,6.2-3L187.5,41.8z"/>
	<path class="st0" d="M191.5,13.9c0-1.9,1.6-3.6,3.5-3.6s3.6,1.7,3.6,3.6c0,1.9-1.7,3.5-3.6,3.5S191.5,15.8,191.5,13.9z M192.1,41.1
		c0.1-2.6,0.2-4.4,0.2-6.3c0-3.6-0.2-9.1-0.5-12.7c1,0.2,1.9,0.3,3.4,0.3c1.5,0,2.3-0.2,3.2-0.3l-0.1,2.3c-0.1,2.1-0.3,6.9-0.3,8.7
		c0,2.2,0.1,7.5,0.2,9.3c0,0.7,0.2,3.6,0.2,4.2c-1-0.2-1.8-0.3-3-0.3c-1.2,0-2.3,0.2-3.5,0.3L192.1,41.1z"/>
	<path class="st0" d="M222.9,43.1c-1.2,1.8-3.8,4.2-7.8,4.2c-6.7,0-11.2-5.6-11.2-12.4c0-8.5,5.2-13,11.4-13c3.8,0,5.6,1.6,7.3,3.4
		c0-6.6-0.1-12.2-0.6-16.4c1.1,0.2,2.1,0.3,3.6,0.3c1.1,0,2-0.1,2.9-0.3c-0.4,6.1-0.6,12.2-0.6,18.3c0,0.8,0.1,16.5,0.6,19.5
		c-0.5-0.1-1.6-0.3-2.9-0.3s-2.1,0.2-3,0.3L222.9,43.1z M222.7,34.3c0-4.8-1.2-9.7-6.1-9.7c-5,0-6.2,5.4-6.2,9.3
		c0,3.9,0.8,10.4,6,10.4C220.2,44.3,222.7,41,222.7,34.3z"/>
	<path class="st0" d="M235.7,40.8c0.5,1.1,1.5,3.9,6.3,3.9c2.5,0,3.8-1.8,3.8-3.6c0-2.1-2-2.8-4.4-3.7c-0.7-0.3-3.1-1.1-3.5-1.3
		c-1-0.5-4-1.8-4-6.5c0-4.5,3.2-7.9,8.9-7.9c3.1,0,5.4,0.9,6.8,1.5c-1,2-1.2,3.4-1.3,4.5h-0.8c-0.8-1.6-1.8-3.6-4.9-3.6
		c-2.4,0-4.1,1.3-4.1,3.4c0,2.2,1.7,2.8,5.6,4.1c3.2,1.1,6.9,2.2,6.9,7.2c0,3.2-2.5,8.4-9.7,8.4c-2.9,0-4.9-0.9-7.5-2
		c0.2-0.4,0.6-1.4,0.8-2.1c0.3-0.9,0.3-1.8,0.4-2.3L235.7,40.8L235.7,40.8z"/>
</g>
<g>
	<path class="st0" d="M283.5,31.3c0.8,1.1,1.9,2.8,2.7,3.8c4,5.7,5.4,7.4,8.6,11.5c-1.4-0.2-2.7-0.3-4.5-0.3c-2,0-2.6,0.1-4.1,0.3
		c-0.8-1.2-1.9-3.1-2.7-4.2c-2.6-4-5.8-8.5-8.5-12.4h-1.2v7.2c0,1.5,0.2,8.1,0.2,9.4c-1-0.1-2.1-0.3-3.4-0.3c-1.2,0-2.4,0.2-3.5,0.3
		c0.4-10.1,0.5-11.2,0.5-21c0-6.7,0-7.4-0.4-14c1.2,0.1,2.5,0.3,5.1,0.3c1.3,0,7.2-0.3,8.4-0.3c3.3,0,5.8,0.4,8,2.5
		c1.5,1.5,2.3,3.6,2.3,5.7c0,5.7-4.2,8.6-8.9,9.4L283.5,31.3z M273.7,27.6c1,0.1,2.2,0.2,3.5,0.2c5.1,0,7-3.7,7-7
		c0-2.1-0.4-4-2.1-5.3c-1.4-1-3.1-1.3-4.7-1.3c-1,0-2.9,0.2-3.6,0.3L273.7,27.6L273.7,27.6z"/>
	<path class="st0" d="M301.7,34.6c0,1.9,0,9.6,8.1,9.6c2.3,0,5.6-1.3,7.2-3.2l0.6,0.4c-0.2,0.4-0.3,0.7-0.4,1.1l-0.5,2.2
		c-0.4,0.4-3.7,2.6-8.6,2.6c-1.9,0-6.4-0.5-9.2-3.4c-3.4-3.4-3.4-8-3.4-9.7c0-8.5,5.8-12.3,11.8-12.3c1.9,0,7,0,9.6,4.6
		c0.9,1.6,1.6,4.3,1.5,8.2L301.7,34.6L301.7,34.6z M312.6,32.1c0-2.5,0-8.3-5.1-8.3c-5.3,0-5.6,6.3-5.7,8.3H312.6z"/>
	<path class="st0" d="M324.4,40.8c0.5,1.1,1.5,3.9,6.3,3.9c2.6,0,3.8-1.8,3.8-3.6c0-2.1-2-2.8-4.4-3.7c-0.7-0.3-3.1-1.1-3.5-1.3
		c-1-0.5-4-1.8-4-6.5c0-4.5,3.2-7.9,8.9-7.9c3.1,0,5.4,0.9,6.8,1.5c-1,2-1.2,3.4-1.3,4.5h-0.8c-0.8-1.6-1.8-3.6-4.9-3.6
		c-2.4,0-4.1,1.3-4.1,3.4c0,2.2,1.7,2.8,5.6,4.1c3.2,1.1,6.9,2.2,6.9,7.2c0,3.2-2.5,8.4-9.7,8.4c-2.9,0-4.9-0.9-7.5-2
		c0.2-0.4,0.6-1.4,0.8-2.1c0.3-0.9,0.3-1.8,0.4-2.3H324.4z"/>
	<path class="st0" d="M349.8,34.6c0,1.9,0,9.6,8.1,9.6c2.3,0,5.6-1.3,7.2-3.2l0.6,0.4c-0.2,0.4-0.3,0.7-0.4,1.1l-0.5,2.2
		c-0.4,0.4-3.7,2.6-8.6,2.6c-1.9,0-6.4-0.5-9.2-3.4c-3.4-3.4-3.4-8-3.4-9.7c0-8.5,5.8-12.3,11.8-12.3c1.9,0,7,0,9.6,4.6
		c0.9,1.6,1.6,4.3,1.5,8.2L349.8,34.6L349.8,34.6z M360.7,32.1c0-2.5,0-8.3-5.1-8.3c-5.3,0-5.6,6.3-5.7,8.3H360.7z"/>
	<path class="st0" d="M380.6,32.7c3-0.8,3.4-1,3.7-1.4c0.2-0.3,0.2-0.7,0.2-1c0-3.9-2.2-5.4-4.9-5.4c-3.9,0-5.2,2.4-5.5,3.6
		c-0.3-0.1-0.5-0.1-0.8-0.1c-0.3,0-0.6,0.1-0.8,0.1c0.2-1,0.3-1.6,0.3-2.5c0-0.5,0-0.9-0.1-1.4c3.9-2.3,5.5-2.9,8.1-2.9
		c5.5,0,9.3,2.5,9.3,7.7c0,1.9-0.2,7-0.2,8.7c0,5,0.1,6.2,1.8,6.2c0.5,0,1-0.2,1.4-0.4c-0.1,0.3-0.2,0.6-0.2,0.9s0.1,0.6,0.2,0.9
		c-1.3,0.5-2.9,1.1-4.3,1.1c-3,0-3.6-1.5-4.2-3.1c-1.6,2.1-4.2,3.5-6.8,3.5c-5.9,0-7-4.2-7-6.2c0-5.7,3.5-6.6,8.2-7.9L380.6,32.7z
		 M384.3,34c-5.8,1.5-7.9,2.1-7.9,5.8c0,2.7,1.3,4.4,3.4,4.4c2.8,0,4.5-2.2,4.5-4.8V34z"/>
	<path class="st0" d="M398.1,41.6c0.1-2.2,0.1-6.2,0.1-8.2c0-5.6-0.1-6.8-0.4-11.3c1.2,0.2,2,0.3,3.4,0.3c1.2,0,2.1-0.1,2.9-0.3
		c-0.3,2.6-0.3,2.9-0.3,5.4c1.4-2.2,3.4-5.6,7.5-5.6c0.5,0,0.9,0.1,1.3,0.2c-0.4,0.8-0.5,3-0.5,3.7c0,0.8,0.1,1.6,0.3,2.2l-0.4,0.3
		c-0.9-0.7-2.8-0.7-3-0.7c-2.3,0-3.9,1.4-4.5,2.8c-0.4,0.8-0.6,1.5-0.6,5.1c0,3.3,0.2,8.2,0.5,11.4c-0.6-0.1-1.9-0.3-3-0.3
		c-0.9,0-2,0.2-3.5,0.3L398.1,41.6z"/>
	<path class="st0" d="M436.8,41.8c-0.7,1-0.8,2.3-1,3.6c-2.8,1.5-5.6,1.8-7.5,1.8c-8.4,0-12.7-6.3-12.7-12.4
		c0-6.7,4.2-13.1,13.4-13.1c3.1,0,5.2,0.7,7.8,1.8c-0.4,0.7-0.9,2.2-1.2,4.8h-1c-0.1-0.3-1-4.2-5.4-4.2c-2.4,0-4.4,1.4-5.5,3
		c-1.3,1.9-1.6,4.2-1.6,6.9c0,5,1.7,10.5,7.6,10.5c3,0,4.3-1.3,6.2-3L436.8,41.8z"/>
	<path class="st0" d="M447.5,10.4c-0.4,5.7-0.4,9.3-0.4,15.6c2.2-3.1,5-4.2,8-4.2c2.7,0,5.5,0.9,7.1,3.4c1.2,1.8,1.2,3.9,1.2,6.2
		c0,1.2-0.1,3.9-0.1,5.5c0,2.8,0.2,7.6,0.3,9.6c-1-0.2-2-0.3-3.2-0.3c-1.1,0-2.7,0.3-3.4,0.3c0.3-2.9,0.6-7.1,0.6-10.7
		c0-4.7-0.1-6.1-0.4-7.2c-0.6-2.1-2.3-3.2-4.4-3.2c-1.9,0-4.2,0.8-5.1,3.3c-0.4,1.3-0.6,2.4-0.6,6c0,6.7,0,7.2,0.3,11.8
		c-1-0.2-2.1-0.3-3.2-0.3s-2.6,0.3-3.1,0.3c0.4-6.9,0.4-9.2,0.4-20l-0.1-9.9c0-2-0.2-5.2-0.4-7.9c1,0.2,2.1,0.3,3.5,0.3
		c1.3,0,2.1-0.1,3.1-0.3L447.5,10.4z"/>
</g>
</svg>
