<?xml version="1.0" encoding="utf-8"?>
<!-- Generator: Adobe Illustrator 20.0.0, SVG Export Plug-In . SVG Version: 6.00 Build 0)  -->
<svg version="1.1" id="Layer_1" xmlns="http://www.w3.org/2000/svg" xmlns:xlink="http://www.w3.org/1999/xlink" x="0px" y="0px"
	 width="359.7px" height="50px" viewBox="0 0 359.7 50" style="enable-background:new 0 0 359.7 50;" xml:space="preserve">
<style type="text/css">
	.st0{fill:#E30613;}
</style>
<g>
	<path class="st0" d="M10.1,23.1c-2.7-1.2-4.8-1.7-4.8-3.9c0-1.6,1.3-2.7,3.4-2.7c1.6,0,2.8,0.7,3.6,2.1l3-2.9
		c-1.6-2.2-3.6-3.1-6.5-3.1c-5.1,0-8.4,3-8.4,6.7c0,3.3,2,5.1,5.5,6.9c3.3,1.7,5.2,2.1,5.2,4.2c0,1.9-1.4,3.1-3.9,3.1
		c-2,0-3.7-1.1-4.4-2.8L0,33.8c1.3,2.3,3.9,3.7,7.6,3.7c5.3,0,8.4-3,8.4-7.3C16,27.2,14.1,24.9,10.1,23.1z"/>
	<path class="st0" d="M19.6,25c0,7.1,5.3,12.5,13,12.5c2.6,0,5-0.6,7.1-1.9l0-5.2c-2,1.9-4.4,2.8-7.1,2.8c-4.9,0-7.8-3.2-7.8-8.1
		c0-5.1,3.2-8.4,8.3-8.4c2.8,0,4.9,1.1,6.6,2.7l0.2-5.1c-1.9-0.9-4.3-1.7-7.3-1.7C24.8,12.5,19.6,17.9,19.6,25z"/>
	<rect x="46.2" y="13.1" class="st0" width="5.1" height="23.8"/>
	<polygon class="st0" points="58.4,36.8 72.4,36.8 72.4,32.5 63.5,32.5 63.5,26.6 72.4,26.6 72.4,22.2 63.5,22.2 63.5,17.4 
		72.4,17.4 72.4,13.1 58.4,13.1 	"/>
	<path class="st0" d="M97.2,26.4c0,1.1,0,2.7,0.3,4.7c-0.8-2-1.5-3.4-2.1-4.2L84.9,13.1h-5.3v23.8h4.9V23.3c0-1.2,0-2.7-0.3-4.7
		c0.8,2,1.5,3.4,2.1,4.2L97,36.8h5V13.1h-4.9V26.4z"/>
	<polygon class="st0" points="107.5,17.4 113.3,17.4 113.3,36.8 118.4,36.8 118.4,17.4 124.3,17.4 124.3,13.1 107.5,13.1 	"/>
	<rect x="129.9" y="13.1" class="st0" width="5.1" height="23.8"/>
	<polygon class="st0" points="142.7,36.8 147.8,36.8 147.8,26.6 156.7,26.6 156.7,22.2 147.8,22.2 147.8,17.4 156.7,17.4 
		156.7,13.1 142.7,13.1 	"/>
	<rect x="162.9" y="13.1" class="st0" width="5.1" height="23.8"/>
	<path class="st0" d="M173.3,25c0,7.1,5.3,12.5,13,12.5c2.6,0,5-0.6,7.1-1.9l0-5.2c-2,1.9-4.4,2.8-7.1,2.8c-4.9,0-7.8-3.2-7.8-8.1
		c0-5.1,3.2-8.4,8.3-8.4c2.8,0,4.9,1.1,6.6,2.7l0.2-5.1c-1.9-0.9-4.3-1.7-7.3-1.7C178.5,12.5,173.3,17.9,173.3,25z"/>
	<path d="M293.9,16.1c-2.2-2.2-5.1-3.5-8.5-3.5c-3.4,0-6.3,1.3-8.5,3.5c-2.3,2.3-3.6,5.5-3.6,8.9l0,0l0,0c0,3.5,1.3,6.6,3.6,8.9
		c2.2,2.2,5.1,3.5,8.5,3.5c3.4,0,6.3-1.3,8.5-3.5c2.3-2.3,3.6-5.5,3.6-8.9l0,0l0,0C297.5,21.5,296.3,18.3,293.9,16.1z M293.5,25.1
		c0,5.1-3.5,8.8-8.1,8.8c-4.6,0-8.1-3.7-8.1-8.8l0-0.1l0-0.1c0-5.1,3.5-8.8,8.1-8.8c4.6,0,8.1,3.7,8.1,8.8V25.1L293.5,25.1z"/>
	<path d="M225.4,19.6c0-2.2-0.9-4.1-2.3-5.2c-1.5-1.1-3.4-1.3-5.9-1.3h-5.4v23.8h3.6V26.2h0.4l7.9,10.6h4.4L219.9,26
		C223.5,25.6,225.4,23.4,225.4,19.6z M215.6,23.2v-6.8h0.7c3.5,0,5.1,0.6,5.1,3.6c0,2.9-1.7,3.3-5.1,3.3H215.6z"/>
	<polygon points="233.3,36.8 246.5,36.8 246.5,33.4 237.1,33.4 237.1,25.7 246.5,25.7 246.5,22.3 237.1,22.3 237.1,16.4 246.5,16.4 
		246.5,13.1 233.3,13.1 	"/>
	<path d="M266.5,14.3c-1.6-1.2-3.5-1.2-5.9-1.2h-5.8v23.8h3.6V26.2h2.2c2.4,0,4.4-0.1,5.9-1.2c1.5-1.1,2.4-3.1,2.4-5.3
		C268.8,17.3,267.9,15.4,266.5,14.3z M259.5,23h-1v-6.6h1c3.6,0,5.3,0.6,5.3,3.5C264.9,22.6,263.1,23,259.5,23z"/>
	<path d="M317,19.6c0-2.2-0.9-4.1-2.3-5.2c-1.5-1.1-3.4-1.3-5.9-1.3h-5.4v23.8h3.6V26.2h0.4l7.9,10.6h4.4L311.6,26
		C315.2,25.6,317,23.4,317,19.6z M307.3,23.2v-6.8h0.7c3.5,0,5.1,0.6,5.1,3.6c0,2.9-1.7,3.3-5.1,3.3H307.3z"/>
	<polygon points="323.5,16.4 329.8,16.4 329.8,36.8 333.7,36.8 333.7,16.4 340,16.4 340,13.1 323.5,13.1 	"/>
	<path d="M353.5,23.1c-2.7-1.2-4.5-1.9-4.5-4.2c0-1.8,1.3-3,3.4-3c1.5,0,2.6,0.7,3.5,2.2l3-1.6c-0.9-2.5-3.3-3.9-6.8-3.9
		c-4.3,0-7.1,2.7-7.1,6.5c0,3.6,2.3,5.2,6.5,7.2c2.5,1.2,4.2,1.8,4.2,4.1c0,2.1-1.4,3.5-3.8,3.5c-2.4,0-4-1.1-4.6-3.3l-3.1,1.4
		c0.8,3.5,3.5,5.4,7.5,5.4c4.9,0,7.9-2.9,7.9-7.3C359.7,26.7,357.7,25,353.5,23.1z"/>
</g>
</svg>
