<?xml version="1.0" encoding="utf-8"?>
<!-- Generator: Adobe Illustrator 20.0.0, SVG Export Plug-In . SVG Version: 6.00 Build 0)  -->
<svg version="1.1" id="Layer_1" xmlns="http://www.w3.org/2000/svg" xmlns:xlink="http://www.w3.org/1999/xlink" x="0px" y="0px"
	 width="287.7px" height="25px" viewBox="0 0 287.7 25" style="enable-background:new 0 0 287.7 25;" xml:space="preserve">
<style type="text/css">
	.st0{fill:#E20613;}
</style>
<g>
	<path class="st0" d="M8.1,11c-2.1-1-3.8-1.4-3.8-3.1c0-1.2,1-2.2,2.7-2.2c1.3,0,2.3,0.5,2.8,1.6L12.1,5C10.9,3.3,9.2,2.5,7,2.5
		c-4.1,0-6.7,2.4-6.7,5.4c0,2.7,1.6,4,4.4,5.5c2.6,1.4,4.2,1.7,4.2,3.4c0,1.5-1.1,2.5-3.1,2.5c-1.6,0-2.9-0.9-3.5-2.3L0,19.5
		c1,1.9,3.1,2.9,6.1,2.9c4.3,0,6.7-2.4,6.7-5.8C12.8,14.2,11.2,12.4,8.1,11z"/>
	<path class="st0" d="M15.7,12.5c0,5.7,4.2,10,10.4,10c2.1,0,4-0.5,5.7-1.5l0-4.2c-1.6,1.5-3.5,2.2-5.7,2.2c-3.9,0-6.2-2.6-6.2-6.5
		c0-4.1,2.6-6.7,6.6-6.7c2.3,0,3.9,0.9,5.3,2.1L32,3.8c-1.5-0.7-3.4-1.3-5.8-1.3C19.8,2.5,15.7,6.9,15.7,12.5z"/>
	<rect x="37" y="3" class="st0" width="4.1" height="19"/>
	<polygon class="st0" points="46.7,22 57.9,22 57.9,18.5 50.8,18.5 50.8,13.7 57.9,13.7 57.9,10.3 50.8,10.3 50.8,6.4 57.9,6.4 
		57.9,3 46.7,3 	"/>
	<path class="st0" d="M77.7,13.6c0,0.9,0,2.1,0.3,3.7c-0.6-1.6-1.2-2.7-1.7-3.3L67.9,3h-4.2v19h3.9V11.1c0-0.9,0-2.2-0.3-3.8
		c0.6,1.6,1.2,2.7,1.7,3.3L77.6,22h4V3h-3.9V13.6z"/>
	<polygon class="st0" points="86,6.4 90.7,6.4 90.7,22 94.7,22 94.7,6.4 99.4,6.4 99.4,3 86,3 	"/>
	<rect x="103.9" y="3" class="st0" width="4.1" height="19"/>
	<polygon class="st0" points="114.1,22 118.2,22 118.2,13.7 125.3,13.7 125.3,10.3 118.2,10.3 118.2,6.4 125.3,6.4 125.3,3 114.1,3 
			"/>
	<rect x="130.4" y="3" class="st0" width="4.1" height="19"/>
	<path class="st0" d="M138.6,12.5c0,5.7,4.2,10,10.4,10c2.1,0,4-0.5,5.7-1.5l0-4.2c-1.6,1.5-3.5,2.2-5.7,2.2c-3.9,0-6.2-2.6-6.2-6.5
		c0-4.1,2.6-6.7,6.6-6.7c2.3,0,3.9,0.9,5.3,2.1l0.1-4.1c-1.5-0.7-3.4-1.3-5.8-1.3C142.8,2.5,138.6,6.9,138.6,12.5z"/>
	<path d="M235.2,5.3c-1.8-1.7-4.1-2.8-6.8-2.8c-2.7,0-5.1,1.1-6.8,2.8c-1.9,1.8-2.9,4.4-2.9,7.1l0,0l0,0c0,2.8,1,5.3,2.9,7.1
		c1.8,1.7,4.1,2.8,6.8,2.8c2.7,0,5.1-1.1,6.8-2.8c1.9-1.8,2.9-4.4,2.9-7.1l0,0l0,0C238,9.7,237,7.2,235.2,5.3z M234.8,12.6
		c0,4.1-2.8,7.1-6.5,7.1c-3.7,0-6.5-3-6.5-7.1l0-0.1l0-0.1c0-4.1,2.8-7.1,6.5-7.1c3.7,0,6.5,3,6.5,7.1V12.6L234.8,12.6z"/>
	<path d="M180.3,8.2c0-1.8-0.7-3.3-1.8-4.2c-1.2-0.9-2.7-1.1-4.7-1.1h-4.3v19h2.9v-8.5h0.3L179,22h3.5l-6.5-8.6
		C178.8,13,180.3,11.2,180.3,8.2z M172.5,11.1V5.6h0.6c2.8,0,4.1,0.5,4.1,2.8c0,2.3-1.4,2.6-4.1,2.6H172.5z"/>
	<polygon points="186.6,22 197.2,22 197.2,19.2 189.7,19.2 189.7,13.1 197.2,13.1 197.2,10.3 189.7,10.3 189.7,5.6 197.2,5.6 
		197.2,3 186.6,3 	"/>
	<path d="M213.2,3.9c-1.3-0.9-2.8-1-4.8-1h-4.7v19h2.9v-8.5h1.8c1.9,0,3.5-0.1,4.8-1c1.2-0.9,1.9-2.4,1.9-4.3
		C215.1,6.4,214.3,4.8,213.2,3.9z M207.6,10.9h-0.8V5.6h0.8c2.9,0,4.3,0.5,4.3,2.8C211.9,10.6,210.5,10.9,207.6,10.9z"/>
	<path d="M253.6,8.2c0-1.8-0.7-3.3-1.8-4.2c-1.2-0.9-2.7-1.1-4.7-1.1h-4.3v19h2.9v-8.5h0.3l6.3,8.5h3.5l-6.5-8.6
		C252.1,13,253.6,11.2,253.6,8.2z M245.8,11.1V5.6h0.6c2.8,0,4.1,0.5,4.1,2.8c0,2.3-1.4,2.6-4.1,2.6H245.8z"/>
	<polygon points="258.8,5.6 263.9,5.6 263.9,22 266.9,22 266.9,5.6 272,5.6 272,3 258.8,3 	"/>
	<path d="M282.8,11c-2.1-1-3.6-1.5-3.6-3.4c0-1.4,1-2.4,2.7-2.4c1.2,0,2.1,0.6,2.8,1.7l2.4-1.2c-0.7-2-2.7-3.1-5.5-3.1
		c-3.5,0-5.7,2.2-5.7,5.2c0,2.9,1.9,4.1,5.2,5.8c2,1,3.4,1.4,3.4,3.3c0,1.7-1.1,2.8-3,2.8c-1.9,0-3.2-0.9-3.7-2.6l-2.5,1.1
		c0.6,2.8,2.8,4.3,6,4.3c3.9,0,6.3-2.3,6.3-5.9C287.7,13.8,286.2,12.5,282.8,11z"/>
</g>
</svg>
