<?xml version="1.0" encoding="utf-8"?>
<!-- Generator: Adobe Illustrator 19.1.0, SVG Export Plug-In . SVG Version: 6.00 Build 0)  -->
<svg version="1.1" id="Layer_1" xmlns="http://www.w3.org/2000/svg" xmlns:xlink="http://www.w3.org/1999/xlink" x="0px" y="0px"
	 viewBox="0 0 160 89.4" style="enable-background:new 0 0 160 89.4;" xml:space="preserve">
<style type="text/css">
	.st0{fill:#FBFCFC;}
	.st1{fill:#EA1C26;}
	.st2{fill:#1C2F5B;}
</style>
<g>
	<path class="st0" d="M100.7,14.3c0.2-0.1,0.4-0.1,0.5-0.1c4.9,0,9.7,0,14.6,0c3.2,0,6.3,0.6,9.1,2.3c2.2,1.3,3.9,3,4.6,5.6
		c1,3.4,0,7-3.5,9.1c-0.6,0.4-1.2,0.7-1.8,0.9c-0.6,0.3-1.3,0.5-1.9,0.8c-0.1,0.1-0.1,0.3,0,0.5c0.1,0,0.1,0.1,0.2,0.1
		c2.6,0.4,5.1,1.1,7.3,2.6c2,1.3,3.5,3,4.1,5.3c0.9,3.4,0,6.4-2.5,8.8c-2,2-4.5,3-7.2,3.6c-2.2,0.5-4.4,0.7-6.6,0.7
		c-5.5,0-10.9,0-16.4,0c-0.1,0-0.3,0-0.5,0C100.7,41.1,100.7,27.7,100.7,14.3z M107.3,49.8c0.3,0,0.5,0,0.7,0c2.8,0,5.6,0,8.4,0
		c1.5,0,3-0.1,4.5-0.4c1.6-0.3,3.2-0.9,4.5-1.9c2.7-2.1,2.9-6.4,0.2-8.7c-1-0.8-2-1.3-3.2-1.7c-2.1-0.7-4.2-0.8-6.4-0.8
		c-2.7,0-5.3,0-8,0c-0.2,0-0.4-0.1-0.6,0.1C107.3,40.9,107.3,45.3,107.3,49.8z M107.3,18.9c-0.2,0.2-0.1,0.4-0.1,0.5
		c0,3.8,0,7.7,0,11.5c0,0.6,0.2,0.9,0.7,0.9c2.5,0,5,0.1,7.5-0.2c1.4-0.2,2.8-0.5,4.1-1.1c1.3-0.6,2.3-1.5,2.9-2.8
		c0.3-0.7,0.5-1.5,0.5-2.3c0.1-2.1-0.6-3.8-2.5-5c-1.3-0.8-2.7-1.1-4.1-1.3C113.4,18.7,110.4,19,107.3,18.9z"/>
	<path class="st0" d="M94.4,17c0,1.9,0,3.7,0,5.5c-0.3,0.1-0.5-0.1-0.7-0.2c-3.1-1.4-6.2-2.5-9.6-3.2c-5.2-1-10.3-0.9-15.3,0.8
		c-2.7,0.9-5.1,2.3-7.1,4.3c-3,3-4.5,6.5-4.3,10.8c0.2,4.9,2.5,8.6,6.4,11.4c2.7,1.9,5.8,2.9,9,3.5c1.6,0.3,3.2,0.4,4.8,0.4
		c5.3,0,10.3-1.3,15-3.4c0.6-0.3,1.3-0.6,1.9-0.9c0,0,0,0,0.2,0c0,0.9,0,1.8,0,2.8c0,0.9,0,1.8,0,2.7c-0.1,0.3-0.4,0.3-0.5,0.4
		c-3.7,1.6-7.6,2.6-11.7,3c-3.7,0.4-7.4,0.4-11.1-0.1C67,54,62.7,52.6,59,49.8c-3.9-2.9-6.7-6.6-7.9-11.4c-0.8-3.1-0.5-6.2,0.5-9.2
		c1.5-4.7,4.5-8.1,8.6-10.8c3.4-2.2,7.1-3.5,11-4.1c3.3-0.6,6.6-0.7,10-0.4c3.2,0.3,6.2,1,9.3,1.9C91.8,16.1,93.1,16.5,94.4,17z"/>
	<path class="st0" d="M52.3,13.4c-0.8,2.1-1.5,4.1-1.9,6.2c-0.4,2.1-0.7,4.2-1.1,6.3c-0.7,0-1.4,0-2.2,0c0.1-0.7,0.1-1.4,0.2-2.1
		c0.1-1.3,0.3-2.5,0.2-3.8c-0.1-2.9-1.8-4.9-4.6-5.4c-3.1-0.6-6.1,0-8.8,1.6c-1.7,1-3.2,2.3-4.2,4.2c-1.3,2.4-1.1,5.3,0.7,7.4
		c1.3,1.5,2.9,2.8,4.4,4c2.1,1.7,4.2,3.5,6,5.5c1.2,1.4,2.2,2.9,2.8,4.7c0.7,2.1,0.4,4.2-0.4,6.3c-1.1,2.7-2.9,4.9-5.3,6.6
		c-3.3,2.4-7,3.8-11,4.7c-2.5,0.5-5.1,0.7-7.6,0.6c-3.8-0.2-7.3-1.2-10.3-3.6c-0.9-0.7-1.8-1.6-2.3-2.6c-1-2-0.3-4.3,1.6-5.2
		c1.7-0.8,4-0.3,4.7,1.7c0.2,0.5,0.4,1,0.5,1.5c0.1,0.2,0.1,0.3,0.1,0.5c0.8,3.1,2.9,4.7,5.9,5.3c2.4,0.5,4.8,0.2,7.2-0.4
		c3.2-0.9,5.9-2.5,8.1-4.9c1.2-1.3,2-2.8,2.2-4.6c0.2-2.1-0.5-4-1.7-5.6c-1-1.3-2.2-2.4-3.4-3.5c-1.7-1.5-3.4-2.9-5.2-4.3
		c-1.6-1.3-2.9-2.9-3.8-4.8c-1-2.4-0.9-4.7,0.2-7c1.3-2.8,3.4-4.9,6-6.6c3.8-2.4,7.9-3.4,12.4-3.4c2.3,0,4.6,0.4,6.9,0.7
		C50,13.1,51.1,13.2,52.3,13.4z"/>
	<path class="st0" d="M140.1,57.5c-1.1-1.2-2-2.5-2.3-4c-0.8-3.2,0.1-5.9,2.4-8.2c1.1-1.1,2.4-2,3.8-2.8c1-0.6,2-1.1,3-1.7
		c1.4-0.7,2.8-1.5,4.1-2.5c1.3-0.9,2.3-2.1,2.7-3.7c0.8-0.1,0.9-0.2,0.9-0.8c-0.1,0-0.2-0.1-0.2-0.1c-2.3-0.8-4.6-1.5-6.9-2.3
		c-1.5-0.5-2.9-1-4.4-1.4c0-0.3,0.1-0.6,0.2-1c0.2,0.1,0.5,0.1,0.7,0.2c3.1,1.2,6.2,2.3,9.3,3.5c0.1,0.1,0.3,0.2,0.5,0
		c-0.1-0.7-0.4-1.2-0.7-1.8c-0.6-0.8-1.3-1.5-2.2-2.1c-1.6-1.1-3.3-2-5-3c0.1-0.3,0.4-0.4,0.6-0.5c0.8-0.5,1.6-1,2.4-1.5
		c0.3-0.2,0.6-0.4,1-0.5c1.3,0.7,2.6,1.5,3.9,2.2c1.6,1,3.1,2,4.3,3.5c2.7,3.4,2.5,8.1-0.5,11.2c-0.4,0.5-0.9,0.9-1.4,1.3
		c-0.4,0.3-0.8,0.5-1.1,0.8c-0.9,0.7-2,1.2-3,1.9c-1.4,0.7-2.8,1.5-4.1,2.3c-0.8,0.5-1.6,1.1-2.4,1.8c-0.2,0.2-0.5,0.4-0.5,0.8
		c2.6-0.5,5.2-0.9,7.7-1.3c0,0.5-0.4,0.7-0.5,1.2c-0.1-0.1-0.2-0.1-0.3,0c-0.5,0.1-1.1,0.2-1.6,0.4c-2.1,0.4-4.1,0.9-6.2,1.3
		c-0.2,0-0.5,0-0.6,0.4c0.4,0.1,0.2,0.4,0.2,0.7c-0.1,1.1,0.1,2.1,0.6,3C142.9,55.6,141.4,56.5,140.1,57.5z"/>
	<path class="st0" d="M2,23.1c-0.7-0.4-1.3-0.8-1.9-1.2c0.7-0.7,1.4-1.2,2.1-1.8c2.3-1.9,4.8-3.5,7.6-4.5c1.4-0.5,2.9-0.9,4.5-0.9
		c0.6,0,1.2,0.1,1.7,0.4c0.8,0.4,1.1,1,0.9,1.8c-0.3,1.7-0.9,3.3-1.5,4.9c-1.5,4.3-3.2,8.6-4.5,13c-0.5,1.7-1.1,3.4-1.3,5.2
		c0,0.2-0.1,0.4,0,0.6c0.1,0.8,0.7,1.2,1.4,0.9c0.6-0.2,1.1-0.5,1.6-0.8c1.5-0.9,2.9-1.9,4.3-3c0.2-0.2,0.4-0.4,0.7-0.5
		c0.5,0.4,1.1,0.8,1.6,1.3c-0.1,0.3-0.3,0.3-0.4,0.4c-2.2,1.7-4.4,3.4-6.8,4.8c-1.6,0.9-3.3,1.7-5.1,2c-0.7,0.1-1.4,0.1-2-0.1
		c-1.2-0.4-1.9-1.3-2-2.5c-0.1-1.3,0.2-2.6,0.5-3.8c0.9-3.9,2.2-7.7,3.5-11.5c0.7-2.1,1.5-4.2,2.3-6.3c0.2-0.5,0.4-1,0.4-1.5
		c0.1-0.8-0.2-1.1-1-1c-0.8,0.1-1.5,0.4-2.2,0.8c-1.4,0.9-2.7,1.9-3.9,2.9C2.4,22.9,2.3,23,2,23.1z"/>
	<path class="st1" d="M149.7,23.4c-0.4,0.1-0.7,0.3-1,0.5c-0.8,0.5-1.7,0.9-2.4,1.5c-0.2,0.1-0.5,0.2-0.6,0.5
		c-1.2,0.7-2.1,1.8-2.6,3.1c-0.1,0.3-0.2,0.6-0.2,1c0,0.2-0.2,0.4-0.2,0.5c0.1,0.2,0.2,0.4,0.2,0.6c0.1,0.7,0.3,1.3,0.7,1.8
		c0.6,0.9,1.3,1.6,2.2,2.2c1.6,1.2,3.4,2.1,5.2,3.1c-1.3,1-2.7,1.8-4.1,2.5c-0.6-0.5-1.3-0.8-1.9-1.1c-1.7-1-3.4-2-4.9-3.3
		c-1.8-1.6-3-3.6-3.2-6c-0.2-2.1,0.4-4.1,1.7-5.9c0.5-0.7,1.1-1.3,1.8-1.9c0.1-0.1,0.1-0.2,0.2-0.2c0.2,0,0.3-0.1,0.4-0.2
		c1-0.8,2.2-1.5,3.3-2.1c0.2-0.1,0.4-0.2,0.5-0.4c1.5-0.8,3.1-1.6,4.5-2.5c1-0.7,2-1.4,2.7-2.3c0.4-0.5,0.8-1,0.8-1.7l0,0
		c0.1,0,0.1-0.1,0.1-0.2c0.1-0.3,0.2-0.5,0.1-0.8c0.2-1.3-0.3-2.4-1.1-3.4c1.4-0.8,2.8-1.7,4.1-2.7c1.2,1.2,2.3,2.5,2.7,4.1
		c0.6,2.3,0.5,4.6-0.8,6.7c-0.8,1.4-2,2.5-3.3,3.4c-1.4,1-3,1.9-4.5,2.7C150,23.2,149.8,23.2,149.7,23.4z"/>
	<path class="st1" d="M151.9,44.4c1-0.7,2-1.2,3-1.9c0.4-0.3,0.8-0.5,1.1-0.8c1.8,1.6,2.9,3.5,3,6c0.2,3.3-1.3,5.7-3.7,7.7
		c-1.8,1.4-3.8,2.5-5.7,3.6c-0.3-0.1-0.5-0.2-0.8-0.4c-1.2,0.7-2.5,1.4-3.7,2.4c0.2,0.2,0.3,0.2,0.5,0.3c-0.4,0.4-0.8,0.8-1.2,1.1
		c-0.6,0.5-1,1.2-1.3,1.9c-2.2,0-4.3,0-6.5,0c0-0.8,0.1-1.6,0.3-2.3c0.4-1.4,1.1-2.6,2.2-3.6c0.3-0.3,0.6-0.6,0.9-0.9
		c1.3-1,2.8-1.9,4.2-2.8c0.9-0.3,1.6-0.8,2.4-1.3c1.4-0.8,2.9-1.6,4.1-2.7c0.6-0.5,1.2-1,1.4-1.8c0.1-0.4,0.5-0.7,0.5-1.2
		c0.3-0.9,0.3-1.9-0.3-2.7C152.3,44.9,152.1,44.6,151.9,44.4z"/>
	<path class="st0" d="M144.7,19.8c-0.1,0.2-0.3,0.3-0.5,0.4c-1.1,0.6-2.3,1.3-3.3,2.1c-0.1,0.1-0.2,0.2-0.4,0.2
		c-1.1-1.1-2-2.2-2.5-3.7c-1.1-3.1-0.5-5.9,1.6-8.4c1.3-1.5,2.9-2.6,4.6-3.6c0.7-0.4,1.4-0.8,2.1-1.2c0.2-0.1,0.4-0.2,0.6-0.4
		c1.4-0.7,2.8-1.5,4-2.4c1-0.7,1.8-1.6,2.4-2.7c2.1,0,4.2,0,6.4,0c-0.2,1.6-0.8,3-1.8,4.2c-0.5,0.7-1.2,1.3-1.9,1.9
		c-1.3,1-2.7,1.8-4.1,2.7c-1.6,0.8-3.1,1.7-4.6,2.6c-0.7,0.5-1.5,1-2.1,1.7c-0.1,0.1-0.3,0.2-0.2,0.5c0.5-0.1,1.1-0.2,1.6-0.3
		c2.1-0.4,4.3-0.7,6.4-1.1c0.1,0.3-0.1,0.5-0.1,0.8c-0.1,0-0.2,0.1-0.1,0.2l0,0c-0.1,0-0.1-0.1-0.2,0c-1.1,0.2-2.3,0.5-3.4,0.7
		c-1.5,0.3-3.1,0.6-4.6,1c-0.2,0-0.5,0.1-0.7,0.2c-0.2,0.1-0.6,0.3-0.2,0.6c0.1,0.1,0,0.2,0,0.3C143.4,17.4,143.8,18.7,144.7,19.8z"
		/>
	<path class="st0" d="M16.5,3.1c0.2,0,0.4,0,0.6,0c2.3,0.4,3.1,2.3,2.1,4.1c-0.8,1.6-2.2,2.4-4,2.4c-1.1,0-2.1-0.4-2.7-1.5
		C12,7.1,12.2,6,12.8,5C13.6,3.8,15,3.1,16.5,3.1z"/>
	<path class="st0" d="M145.6,61.3c-0.1-0.1-0.3-0.2-0.5-0.3c1.1-1,2.4-1.7,3.7-2.4c0.3,0.1,0.5,0.2,0.8,0.4c1.2,0.7,2.4,1.4,3.6,2.1
		c1.4,0.8,2.8,1.8,4,3c0.1,0.1,0.2,0.2,0.2,0.3c0,0,0,0,0,0.1c-0.2,0.1-0.3,0-0.5,0c-1.8,0-3.7,0-5.5,0c-0.4,0-0.7-0.1-1-0.3
		C148.9,63,147.3,62.2,145.6,61.3z"/>
	<path class="st1" d="M151,2.7c-1.2,1-2.6,1.8-4,2.4c-0.9-0.3-1.6-0.8-2.4-1.3c-1.7-0.9-3.3-1.9-4.7-3.2c-0.2-0.2-0.4-0.4-0.6-0.6
		c0.2-0.1,0.4-0.1,0.6-0.1c2,0,3.9,0,5.9,0c0.3,0,0.5,0,0.7,0.1C148,1.1,149.5,1.9,151,2.7z"/>
	<path class="st0" d="M19.4,83.9c0,1.8,0,3.5,0,5.3c-0.4,0.2-0.7,0.1-1.1,0c0-2.4,0-4.8,0-7.2c0.7-0.2,1.1,0,1.5,0.6
		c0.5,0.8,1.2,1.5,1.9,2.3c0.3-0.4,0.6-0.7,0.8-1c0.4-0.4,0.7-0.9,1.1-1.3c0.6-0.7,0.5-0.7,1.5-0.6c0,2.4,0,4.8,0,7.1
		c-0.1,0.1-0.2,0.1-0.4,0.1c-0.2,0-0.4,0-0.7-0.1c0-1.7,0-3.5,0-5.3c-0.6,0.3-0.8,0.9-1.2,1.3c-0.4,0.4-0.7,0.9-1.2,1.3
		c-0.8-0.8-1.4-1.8-2.2-2.6C19.5,83.8,19.4,83.9,19.4,83.9z"/>
	<path class="st0" d="M75.7,82c0.6-0.2,0.9,0,1.3,0.4c1.2,1.5,2.5,2.9,3.8,4.3c0.1,0.2,0.3,0.4,0.6,0.5c0.1-1.8,0-3.5,0.1-5.3
		c0.3-0.1,0.6-0.1,0.9,0c0,2.4,0,4.8,0,7.2c-0.5,0.1-0.9,0.1-1.3-0.4c-1.2-1.5-2.5-2.9-3.8-4.4c-0.2-0.2-0.3-0.4-0.6-0.7
		c0,1.9,0,3.7,0,5.4c-0.4,0.2-0.7,0.1-1,0.1C75.7,86.8,75.7,84.5,75.7,82z"/>
	<path class="st0" d="M37.4,74.4c0-1.8,0-3.5,0-5.3c0.3-0.1,0.6,0,0.9-0.1c0.1,0.5,0.2,6.4,0,7.2c-0.6,0.2-0.9,0-1.3-0.5
		c-1.3-1.5-2.6-3-3.9-4.5C33,71.2,32.9,71,32.6,71c0,0.9,0,1.8,0,2.7c0,0.9,0,1.7,0,2.6c-0.4,0.1-0.6,0.1-1,0c0-2.4,0-4.8,0-7.2
		c0.6-0.2,0.9,0,1.3,0.4c1.3,1.5,2.6,2.9,3.8,4.4c0.1,0.2,0.3,0.3,0.5,0.5C37.3,74.4,37.3,74.4,37.4,74.4z"/>
	<path class="st0" d="M66,69.1c0.3-0.1,0.5,0,0.8,0c1.6,1.8,3.1,3.6,4.7,5.4c0,0,0.1,0,0.1-0.1c0-1.7,0-3.5,0-5.3
		c0.4-0.2,0.7,0,1-0.1c0,2.4,0,4.8,0,7.2c-0.6,0.2-1,0-1.3-0.4c-1.3-1.5-2.5-2.9-3.8-4.4c-0.1-0.2-0.2-0.3-0.5-0.4
		c0,1.8,0,3.5,0,5.3c-0.4,0.1-0.7,0-1,0.1C66,73.9,66,71.5,66,69.1z"/>
	<path class="st0" d="M152.7,72.7c0,2.2-1.7,3.7-4,3.7c-2.2,0-3.9-1.6-3.9-3.8c0-2.1,1.7-3.7,3.9-3.8
		C151,68.9,152.7,70.5,152.7,72.7z M148.8,70c-1.6,0-2.8,1.1-2.8,2.7c0,1.6,1.2,2.8,2.8,2.8c1.6,0,2.8-1.2,2.8-2.8
		C151.6,71.2,150.4,70,148.8,70z"/>
	<path class="st0" d="M104.1,72.7c0,2.2-1.7,3.8-4,3.7c-2.2,0-3.8-1.6-3.9-3.8c0-1.8,1.2-3.7,3.9-3.7C103,68.9,104.2,71,104.1,72.7z
		 M100.2,70c-1.6,0-2.8,1.2-2.8,2.7c0,1.6,1.2,2.8,2.8,2.8c1.6,0,2.8-1.2,2.8-2.7C103,71.1,101.8,70,100.2,70z"/>
	<path class="st0" d="M60.3,76.4c-2.8,0-4.6-2.6-3.6-5.1c0.6-1.6,1.9-2.3,3.5-2.4c2.3-0.1,3.6,1.4,4,2.9
		C64.7,74,63.3,76.5,60.3,76.4z M57.6,72.7c0,1.6,1.2,2.8,2.7,2.8c1.6,0,2.9-1.2,2.9-2.7c0-1.6-1.2-2.8-2.8-2.8
		C58.8,70,57.6,71.1,57.6,72.7z"/>
	<path class="st0" d="M3.4,69.1c0.6-0.2,1,0,1.3,0.5c1.3,1.6,2.7,3.2,4.1,4.7c0.1,0.1,0.1,0.2,0.1,0.2c0,0,0.1,0,0.1-0.1
		c0-1.8,0-3.6,0-5.4c0.4,0,0.7,0,1,0c0.1,0.5,0.1,6.5,0,7.2c-0.6,0.2-0.9,0-1.3-0.5c-1.2-1.4-2.4-2.8-3.6-4.2
		c-0.2-0.2-0.4-0.4-0.7-0.6c0,0.6,0,1.1,0,1.7c0,0.6,0,1.2,0,1.8c0,0.6,0,1.2,0,1.7c-0.5,0.1-0.5,0.1-1,0
		C3.4,73.9,3.4,71.5,3.4,69.1z"/>
	<path class="st0" d="M116.6,89.4c-1.5,0-2.8-0.7-3.5-2.2c-0.6-1.4-0.4-2.8,0.6-4c1.7-2,5.7-1.8,6.7,1.2c0.8,2.4-0.7,4.8-3.2,5
		C117,89.3,116.9,89.3,116.6,89.4z M113.9,85.6c0,1.6,1.2,2.7,2.8,2.7c1.6,0,2.8-1.1,2.8-2.7c0-1.6-1.2-2.8-2.8-2.8
		C114.8,82.9,113.8,84.4,113.9,85.6z"/>
	<path class="st0" d="M102.8,89.2c0-2.4,0-4.8,0-7.2c0.9,0,1.9-0.1,2.7,0c1.1,0.1,1.8,1.1,1.5,2.3c-0.1,0.4-0.2,0.6-0.8,1
		c0.1,0.3,0.3,0.2,0.5,0.3c0.7,0.4,1,0.9,1,1.7c0,0.8-0.4,1.3-1.1,1.6c-0.2,0.1-0.4,0.2-0.7,0.2c-0.9,0.1-1.7,0-2.6,0.1
		C103.2,89.3,103,89.3,102.8,89.2z M103.8,88.3c0.7,0,1.2,0.1,1.8,0c0.6-0.1,1-0.5,1-1c0-0.5-0.3-1-0.9-1.1c-0.6-0.1-1.3-0.1-1.9,0
		C103.8,86.9,103.8,87.5,103.8,88.3z M103.8,85c0.6,0.1,1.1,0.1,1.6-0.1c0.4-0.2,0.7-0.6,0.6-1.1c-0.1-0.5-0.3-0.8-0.8-0.9
		c-0.5-0.1-0.9-0.1-1.4,0C103.8,83.7,103.8,84.3,103.8,85z"/>
	<path class="st0" d="M69.5,89.4c-1.4,0-2.6-0.6-3.3-2c-0.7-1.3-0.6-2.7,0.3-3.9c1-1.4,2.5-1.8,4.1-1.5c2.9,0.5,4,4,2.1,6.1
		C71.9,89,70.8,89.4,69.5,89.4z M69.7,88.4c1.6,0,2.8-1.2,2.8-2.8c0-1.5-1.2-2.7-2.8-2.7c-1.6,0-2.8,1.2-2.8,2.7
		C66.9,87.2,68.1,88.4,69.7,88.4z"/>
	<path class="st0" d="M12.3,89.4c-1.7,0-3-0.8-3.6-2.3c-0.8-1.8,0-4.2,2.1-5c1.9-0.7,4.1,0,5,1.6C17,86,15.8,89.3,12.3,89.4z
		 M12.3,88.4c1.6,0,2.8-1.2,2.8-2.8c0-1.5-1.2-2.7-2.8-2.7c-1.6,0-2.8,1.2-2.8,2.8C9.5,87.2,10.7,88.4,12.3,88.4z"/>
	<path class="st0" d="M132,89.4c-1.3-0.1-2.6-0.7-3.2-2.2c-0.6-1.4-0.4-2.8,0.6-4c1-1.2,3-1.6,4.6-1c1.5,0.6,2.4,2,2.3,3.6
		C136.3,87.9,134.6,89.4,132,89.4z M132.4,88.4c1.6,0,2.8-1.2,2.8-2.8c0-1.5-1.2-2.7-2.8-2.7c-1.6,0-2.8,1.2-2.8,2.8
		C129.6,87.2,130.8,88.4,132.4,88.4z"/>
	<path class="st0" d="M143.7,86.6c-0.5,0-0.9,0-1.3,0c-0.1-0.3-0.1-0.6-0.1-0.9c0.8,0,1.6,0,2.4,0c0.2,0.5,0,1,0.1,1.5
		c0,0.5,0,1,0,1.6c-1.3,0.6-2.6,0.8-4,0.4c-1.7-0.4-2.7-1.8-2.7-3.6c0-1.7,1.1-3.2,2.8-3.6c1.3-0.3,2.5-0.1,3.7,0.5
		c0.1,0.3,0,0.7,0,1.1c-0.7-0.3-1.4-0.5-2.1-0.6c-1.3-0.2-2.4,0.4-3,1.4c-0.9,1.7,0,3.5,1.8,4c0.7,0.2,1.5,0.1,2.3-0.3
		C143.8,87.6,143.8,87.2,143.7,86.6z"/>
	<path class="st0" d="M155.4,73.3c0,1,0,2,0,3c-0.4,0.1-0.7,0.1-1,0c0-2.4,0-4.8,0-7.3c0.8,0,1.6-0.1,2.3,0c1.5,0.2,2.3,1.5,1.7,2.9
		c-0.2,0.4-0.6,0.7-0.9,0.9c1.1,1,1.6,2.3,2.5,3.4c-0.9,0.2-1.5,0-1.8-0.8c-0.3-0.6-0.7-1.2-1.2-1.7
		C156.6,73.3,156.1,73.1,155.4,73.3z M155.5,72.2c0.5,0.1,0.9,0.1,1.2,0c0.5-0.2,0.8-0.6,0.8-1.2c0-0.5-0.4-0.8-0.9-0.9
		c-0.4,0-0.7-0.1-1.1,0C155.5,70.8,155.4,71.4,155.5,72.2z"/>
	<path class="st0" d="M25.9,73.3c0,1,0,2,0,3c-0.4,0.1-0.7,0.1-1.1,0.1c0-2.4,0-4.8,0-7.3c0.9,0,1.7-0.1,2.6,0.1
		c0.8,0.2,1.4,0.6,1.5,1.4c0.2,0.9,0,1.6-0.8,2.2c-0.1,0-0.1,0.1-0.2,0.2c1.1,1,1.6,2.3,2.5,3.4c-0.1,0-0.1,0.1-0.1,0.1
		c-0.8,0.2-1.3-0.1-1.7-0.8c-0.3-0.6-0.7-1.2-1.1-1.7C27,73.4,26.6,73.1,25.9,73.3z M25.9,70c0,0.7,0,1.4,0,2.2c0.3,0,0.5,0,0.7,0
		c0.1,0,0.3,0,0.4-0.1c0.6-0.1,0.9-0.5,0.9-1.1c0-0.6-0.4-1-1-1C26.6,70,26.3,70,25.9,70z"/>
	<path class="st0" d="M38.9,82c0.4-0.1,0.7-0.1,1.1,0c0,0.7,0,1.5,0,2.2c0,0.8,0,1.5,0,2.3c0,1.5-0.8,2.4-2.2,2.7
		c-0.7,0.2-1.4,0.2-2.2-0.1c-1.1-0.4-1.8-1.3-1.9-2.4c0-1.5,0-3.1,0-4.6c0,0,0-0.1,0.1-0.1c0.3,0,0.6,0,0.9,0
		c0.2,0.2,0.1,0.4,0.1,0.6c0,1.3,0,2.7,0,4c0,0.9,0.7,1.5,1.5,1.7c0.3,0.1,0.7,0.1,1.1,0c1-0.2,1.5-0.7,1.6-1.9c0-1.2,0-2.4,0-3.7
		C38.9,82.5,38.9,82.3,38.9,82z"/>
	<path class="st0" d="M46.7,76.3c-0.4,0-0.7,0-1.1,0c-0.4-0.6-0.6-1.4-1-2.1c-1,0-2,0-3,0c-0.4,0.6-0.6,1.4-1,2c-0.3,0-0.6,0-1.1,0
		c1-2.4,2.1-4.8,3.1-7.2c0.3-0.1,0.5-0.1,0.8-0.1C44.5,71.4,45.6,73.8,46.7,76.3z M44.1,73.2c-0.1-0.6-0.7-2-1.1-2.4
		c-0.3,0.8-0.6,1.5-1,2.4C42.8,73.2,43.4,73.2,44.1,73.2z"/>
	<path class="st0" d="M75.9,74.3c-0.3,0.7-0.6,1.4-0.9,2.1c-0.4,0-0.7,0-1.1,0c1-2.4,2.1-4.8,3.1-7.2c0.3-0.1,0.5-0.1,0.8,0
		c1.1,2.4,2.1,4.8,3.2,7.2c-0.4,0.1-0.7,0.1-1.1,0c-0.3-0.7-0.6-1.3-0.9-2.1C78,74.3,77,74.3,75.9,74.3z M76.4,73.2
		c0.7,0,1.4,0,2.1,0c-0.3-0.9-0.7-1.6-1.1-2.5C77,71.6,76.7,72.4,76.4,73.2z"/>
	<path class="st0" d="M87.2,82c0.3-0.1,0.5-0.1,0.8-0.1c1.1,2.4,2.1,4.8,3.2,7.3c-0.4,0.1-0.7,0.1-1.1,0.1c-0.3-0.7-0.7-1.4-1-2.1
		c-1,0-2,0-3,0c-0.3,0.7-0.6,1.4-0.9,2.1c-0.4,0.1-0.7,0.1-1.1,0C85.1,86.8,86.2,84.4,87.2,82z M87.7,83.8c0,0-0.1,0-0.1,0
		c-0.3,0.8-0.7,1.5-0.9,2.4c0.7,0,1.4,0,2.1-0.1C88.3,85.3,88,84.5,87.7,83.8z"/>
	<path class="st0" d="M54.7,89.2c-0.2,0.2-0.4,0.1-0.5,0.1c-0.4,0.1-0.6-0.1-0.7-0.5c-0.2-0.6-0.5-1.1-0.8-1.7c-1,0-2,0-3,0
		c-0.3,0.7-0.6,1.4-0.9,2.1c-0.4,0.1-0.7,0.1-1.1,0c1.1-2.5,2.1-4.9,3.1-7.3c0.3-0.1,0.5-0.1,0.8,0C52.6,84.4,53.6,86.8,54.7,89.2z
		 M52.2,86.1c-0.4-0.9-0.7-1.6-1.1-2.5c-0.4,0.9-0.7,1.7-1,2.5C50.8,86.1,51.5,86.1,52.2,86.1z"/>
	<path class="st0" d="M112,69.6c0,0.4,0,0.7,0,1c-0.3,0-0.4-0.1-0.6-0.2c-0.8-0.3-1.6-0.5-2.4-0.4c-1.4,0.2-2.4,1.3-2.3,2.7
		c0,1.4,0.9,2.5,2.3,2.7c0.7,0.1,1.4,0,2.1-0.3c0.3-0.1,0.6-0.3,1-0.4c0.1,0.4,0,0.7,0,1.1c-1.4,0.9-3.6,0.9-5,0.1
		c-1.2-0.8-1.8-2.3-1.6-3.7c0.3-1.6,1.4-2.7,3-3C109.7,68.8,110.7,69,112,69.6z"/>
	<path class="st0" d="M6.6,87.7c0,0.3,0,0.7,0,1.1c-1.4,0.7-2.9,0.9-4.4,0.3c-1.3-0.5-2.2-2-2.2-3.4c0.1-1.6,1-2.9,2.5-3.4
		c1.4-0.5,2.7-0.3,4,0.3c0.1,0.4,0,0.7,0,1.1c-0.6-0.3-1.2-0.6-1.8-0.7c-1.7-0.3-3.2,0.7-3.5,2.2c-0.3,1.7,0.8,3.2,2.5,3.3
		c0.8,0.1,1.5-0.1,2.2-0.5C6.1,87.8,6.3,87.6,6.6,87.7z"/>
	<path class="st0" d="M23.1,70c-1,0-2,0-3,0c-0.1,0.7,0,1.4-0.1,2.1c1,0,2,0,3,0c0,0.4,0,0.6,0,1c-0.9,0-1.9,0-2.9,0
		c-0.1,0.8,0,1.5,0,2.2c1,0,2,0,3,0c0.2,0.2,0.1,0.3,0.1,0.5c0,0.1,0,0.3-0.1,0.4c-1.3,0-2.7,0-4,0c-0.1-0.5-0.2-6.2,0-7.2
		c1.3,0,2.7,0,4.1,0C23.1,69.4,23.1,69.6,23.1,70z"/>
	<path class="st0" d="M120.9,72.1c0.1,0.4,0.1,0.7,0,1c-1,0-1.9,0-2.9,0c-0.1,0.8,0,1.4-0.1,2.2c1.1,0,2.1,0,3.1,0
		c0.2,0.3,0.1,0.6,0.1,1c-1.4,0-2.8,0-4.2,0c0-2.4,0-4.8,0-7.2c1.4,0,2.7,0,4.1,0c0.1,0.3,0,0.6,0,0.9c-1,0-2,0-3,0
		c0,0.7,0,1.4,0,2.1C118.9,72.1,119.9,72.1,120.9,72.1z"/>
	<path class="st0" d="M28.6,86.2c0,1,0,2,0,3c-0.4,0.2-0.7,0.1-1.1,0.1c0-2.4,0-4.8,0-7.3c1,0,2-0.1,3,0.1c1,0.2,1.5,1,1.5,2
		c0,1-0.5,1.7-1.5,1.9c-0.4,0.1-0.7,0.1-1.1,0.1C29.2,86.1,28.9,86.1,28.6,86.2z M28.5,82.9c0,0.8,0,1.4,0,2.2c0.5,0,1,0,1.4,0
		c0.6-0.1,0.9-0.5,0.9-1.1c0-0.6-0.3-1-0.9-1.1C29.6,82.9,29.1,82.9,28.5,82.9z"/>
	<path class="st0" d="M91,74.5c0.3,0.2,0.5,0.4,0.7,0.6c0.4,0.3,0.9,0.4,1.4,0.4c0.4,0,0.7-0.2,0.9-0.6c0.2-0.4,0-0.7-0.3-1
		c-0.2-0.3-0.5-0.4-0.8-0.6c-0.4-0.3-0.8-0.5-1.2-0.8c-0.7-0.5-0.9-1.2-0.7-2c0.2-0.8,0.8-1.2,1.5-1.3c0.8-0.2,1.5,0,2.2,0.4
		c0,0.4,0,0.7,0,1.1c-0.3,0-0.4-0.2-0.6-0.3c-0.3-0.2-0.7-0.3-1.1-0.3c-0.5,0-1,0.2-1.1,0.6c-0.1,0.5,0.1,0.8,0.5,1.1
		c0.3,0.2,0.6,0.4,0.9,0.5c0.4,0.2,0.8,0.5,1.1,0.8c0.6,0.6,0.7,1.4,0.5,2.1c-0.3,0.8-0.9,1.2-1.7,1.3c-0.6,0.1-1.2-0.1-1.7-0.3
		c-0.4-0.2-0.7-0.4-0.6-0.9C91,75,91,74.8,91,74.5z"/>
	<path class="st0" d="M58.3,89.2c-0.4,0.1-0.7,0.1-1.1,0c0-2.1,0-4.2,0-6.3c-0.9,0-1.7,0-2.5,0c-0.1-0.3-0.1-0.6-0.1-0.9
		c2.1,0,4.1,0,6.1,0c0,0.3,0.1,0.6,0,0.9c-0.8,0.1-1.6,0-2.5,0.1c0,0.7,0,1.4,0,2.1c0,0.7,0,1.4,0,2C58.3,87.8,58.3,88.5,58.3,89.2z
		"/>
	<path class="st0" d="M143.6,69.1c0,0.3,0,0.6,0,0.9c-0.9,0-1.8,0-2.7,0c-0.1,0.7,0,1.3-0.1,2c0.9,0,1.8,0,2.7,0
		c0.1,0.3,0.1,0.6,0.1,1c-0.9,0-1.8,0-2.8,0c0,1.2,0,2.2,0,3.3c-0.4,0.1-0.7,0.1-1.1,0.1c0-2.4,0-4.8,0-7.3
		C141,69.1,142.3,69.1,143.6,69.1z"/>
	<path class="st0" d="M44.1,82.9c-0.9,0-1.7,0-2.5,0c-0.1-0.3-0.1-0.6-0.1-0.9c2,0,4,0,6,0c0.1,0.2,0,0.5,0,0.8
		c-0.8,0.1-1.6,0-2.4,0.1c0,2.1,0,4.1,0,6.2c-0.4,0.2-0.7,0.1-1.1,0.1C44.1,87.2,44.1,85.1,44.1,82.9z"/>
	<path class="st0" d="M128.1,69.1c0,0.3,0,0.6,0,0.9c-0.8,0-1.6,0-2.5,0c0,2.1,0,4.2,0,6.3c-0.4,0.1-0.7,0.1-1,0c0-2.1,0-4.1,0-6.3
		c-0.9,0-1.7,0-2.5,0c-0.2-0.3-0.1-0.6-0.1-1C124,69.1,126,69.1,128.1,69.1z"/>
	<path class="st0" d="M49.8,70c0,2.2,0,4.2,0,6.3c-0.4,0.1-0.7,0-1.1,0.1c0-2.1,0-4.2,0-6.3c-0.9,0-1.7,0-2.5,0
		c-0.1-0.3-0.1-0.6-0.1-1c2,0,4,0,6.1,0c0,0.3,0,0.6,0,0.9C51.5,70,50.7,70,49.8,70z"/>
	<path class="st0" d="M17.6,69.1c0,0.3,0,0.6,0,0.9c-0.4,0-0.9,0-1.3,0c-0.4,0-0.8,0-1.2,0c0,2.1,0,4.2,0,6.3c-0.4,0.1-0.7,0-1,0.1
		c0-2.1,0-4.2,0-6.3c-0.9,0-1.7,0-2.5,0c-0.1-0.3-0.1-0.6-0.1-1C13.6,69.1,15.6,69.1,17.6,69.1z"/>
	<path class="st0" d="M146.4,82.1c0.1-0.1,0.1-0.1,0.1-0.1c1.1,0,1.1,0,1.8,0.8c0.4,0.5,0.8,1,1.1,1.4c0,0,0.1,0,0.2,0.1
		c0.4-0.6,1-1.1,1.3-1.7c0.4-0.8,1.1-0.8,1.8-0.6c-0.8,1-1.5,2-2.3,2.9c-0.3,0.4-0.4,0.7-0.4,1.2c0,1,0,2.1,0,3.1
		c-0.4,0.1-0.7,0.1-1.1,0c0-0.6,0-1.3,0-1.9c0-0.6,0.1-1.3-0.1-1.9c-0.2-0.6-0.7-1-1.1-1.5C147.4,83.3,146.9,82.7,146.4,82.1z"/>
	<path class="st0" d="M132.3,76.3c-0.3,0-0.6,0-0.9,0c0-0.8-0.1-1.6,0-2.4c0.1-1-0.2-1.8-0.9-2.5c-0.5-0.6-1-1.2-1.5-1.9
		c-0.1-0.1-0.2-0.3-0.4-0.5c0.5,0,0.9,0,1.3,0c0.6,0.8,1.3,1.6,1.9,2.4c0.5-0.7,1-1.2,1.5-1.9c0.3-0.5,0.7-0.7,1.3-0.6
		c0.1,0,0.3,0,0.4,0.1c-0.3,0.4-0.7,0.8-1,1.3c-0.4,0.5-0.7,1-1.1,1.4c-0.4,0.5-0.6,1-0.6,1.6c0,0.8,0,1.5,0,2.3
		C132.4,75.9,132.5,76.1,132.3,76.3z"/>
	<path class="st0" d="M93.9,88.3c1.1,0,2.2,0,3.2,0c0.2,0.3,0.1,0.6,0.1,0.9c-0.5,0.1-3.4,0.2-4.3,0c0-2.4,0-4.8,0-7.2
		c0.3-0.1,0.6,0,1,0c0.1,0.7,0,1.4,0.1,2.1c0,0.7,0,1.4,0,2C93.9,86.8,93.9,87.5,93.9,88.3z"/>
	<path class="st0" d="M127,88.2c0.1,0.4,0.1,0.7,0,1c-1.4,0-2.8,0-4.3,0c0-2.4,0-4.8,0-7.2c0.3-0.1,0.7-0.1,1.1,0c0,2.1,0,4.1,0,6.2
		C124.9,88.2,126,88.2,127,88.2z"/>
	<path class="st0" d="M86.6,75.4c0,0.4,0,0.6,0,0.9c-1.4,0-2.8,0-4.3,0c0-2.4,0-4.8,0-7.2c0.3-0.1,0.6,0,1,0c0,2.1,0,4.2,0,6.3
		C84.5,75.4,85.5,75.4,86.6,75.4z"/>
	<path class="st0" d="M62.6,82c0.3,0,0.7,0,1,0c0,2.4,0,4.8,0,7.2c-0.3,0.1-0.6,0-1,0.1C62.6,86.8,62.6,84.4,62.6,82z"/>
	<path class="st0" d="M0.3,69.1c0.4-0.1,0.7-0.1,1,0c0,2.4,0,4.8,0,7.2c-0.3,0.1-0.6,0-1,0.1C0.3,73.9,0.3,71.5,0.3,69.1z"/>
	<path class="st0" d="M114.8,76.3c-0.3,0.1-0.7,0-1,0c0-2.4,0-4.8,0-7.2c0.3-0.1,0.7,0,1,0C114.8,71.5,114.8,73.9,114.8,76.3z"/>
	<path class="st0" d="M110.7,89.2c-0.1,0.1-0.3,0.1-0.4,0.1c-0.2,0-0.4,0-0.6,0c0-2.4,0-4.8,0-7.2c0.3-0.1,0.7-0.1,1,0
		C110.7,84.4,110.7,86.8,110.7,89.2z"/>
	<path class="st0" d="M53.8,69.1c0.3,0,0.6-0.1,1,0c0,2.4,0,4.8,0,7.2c-0.3,0-0.6,0-0.9,0C53.7,75.8,53.6,70.6,53.8,69.1z"/>
	<path class="st2" d="M152.7,13.3c-0.1-0.1,0-0.2,0.1-0.2C152.8,13.1,152.8,13.2,152.7,13.3z"/>
</g>
</svg>
